<svg width="343" height="19" viewBox="0 0 343 19" fill="none" xmlns="http://www.w3.org/2000/svg">
<path d="M2.74024 14.712V1.88532H-3.24126e-06V0.233399H4.66423V14.712H2.74024ZM13.7563 14.9452C12.6032 14.9452 11.5926 14.6342 10.7246 14.0123C9.86944 13.3775 9.2022 12.5029 8.72282 11.3887C8.24344 10.2615 8.00375 8.95293 8.00375 7.46297C8.00375 5.973 8.24344 4.6709 8.72282 3.55667C9.2022 2.42948 9.86944 1.55493 10.7246 0.933035C11.5797 0.311137 12.5838 0.000188168 13.7369 0.000188168C14.89 0.000188168 15.8941 0.311137 16.7492 0.933035C17.6043 1.55493 18.2715 2.42948 18.7509 3.55667C19.2433 4.6709 19.4894 5.973 19.4894 7.46297C19.4894 8.95293 19.2497 10.2615 18.7704 11.3887C18.291 12.5159 17.6173 13.3904 16.7492 14.0123C15.8941 14.6342 14.8965 14.9452 13.7563 14.9452ZM13.7563 13.1767C14.5337 13.1767 15.2074 12.9434 15.7775 12.477C16.3475 11.9976 16.7881 11.3304 17.099 10.4753C17.4229 9.62017 17.5849 8.61607 17.5849 7.46297C17.5849 6.30986 17.4229 5.30576 17.099 4.45065C16.7881 3.59554 16.3411 2.93477 15.758 2.46835C15.188 2.00192 14.5142 1.76871 13.7369 1.76871C12.9595 1.76871 12.2858 2.00192 11.7157 2.46835C11.1456 2.93477 10.6986 3.59554 10.3747 4.45065C10.0638 5.30576 9.90831 6.30986 9.90831 7.46297C9.90831 8.60311 10.0638 9.60074 10.3747 10.4558C10.6986 11.311 11.1456 11.9782 11.7157 12.4576C12.2987 12.937 12.9789 13.1767 13.7563 13.1767ZM27.8196 14.9452C26.6665 14.9452 25.6559 14.6342 24.7879 14.0123C23.9327 13.3775 23.2655 12.5029 22.7861 11.3887C22.3067 10.2615 22.0671 8.95293 22.0671 7.46297C22.0671 5.973 22.3067 4.6709 22.7861 3.55667C23.2655 2.42948 23.9327 1.55493 24.7879 0.933035C25.643 0.311137 26.6471 0.000188168 27.8002 0.000188168C28.9533 0.000188168 29.9574 0.311137 30.8125 0.933035C31.6676 1.55493 32.3348 2.42948 32.8142 3.55667C33.3066 4.6709 33.5527 5.973 33.5527 7.46297C33.5527 8.95293 33.313 10.2615 32.8337 11.3887C32.3543 12.5159 31.6806 13.3904 30.8125 14.0123C29.9574 14.6342 28.9598 14.9452 27.8196 14.9452ZM27.8196 13.1767C28.597 13.1767 29.2707 12.9434 29.8408 12.477C30.4109 11.9976 30.8514 11.3304 31.1623 10.4753C31.4862 9.62017 31.6482 8.61607 31.6482 7.46297C31.6482 6.30986 31.4862 5.30576 31.1623 4.45065C30.8514 3.59554 30.4044 2.93477 29.8213 2.46835C29.2513 2.00192 28.5775 1.76871 27.8002 1.76871C27.0228 1.76871 26.3491 2.00192 25.779 2.46835C25.2089 2.93477 24.7619 3.59554 24.438 4.45065C24.1271 5.30576 23.9716 6.30986 23.9716 7.46297C23.9716 8.60311 24.1271 9.60074 24.438 10.4558C24.7619 11.311 25.2089 11.9782 25.779 12.4576C26.362 12.937 27.0422 13.1767 27.8196 13.1767ZM37.6074 14.712L49.4234 0.233399H51.5806L39.7646 14.712H37.6074ZM39.784 7.57957C39.0714 7.57957 38.4301 7.41114 37.86 7.07428C37.2899 6.72446 36.83 6.26452 36.4802 5.69444C36.1433 5.12437 35.9749 4.48951 35.9749 3.78988C35.9749 3.09024 36.1433 2.45539 36.4802 1.88532C36.83 1.30229 37.2899 0.842342 37.86 0.505481C38.4301 0.168619 39.0714 0.000188168 39.784 0.000188168C40.4836 0.000188168 41.1185 0.168619 41.6886 0.505481C42.2586 0.842342 42.7121 1.30229 43.049 1.88532C43.3858 2.45539 43.5543 3.09024 43.5543 3.78988C43.5543 4.48951 43.3858 5.12437 43.049 5.69444C42.7121 6.26452 42.2586 6.72446 41.6886 7.07428C41.1185 7.41114 40.4836 7.57957 39.784 7.57957ZM39.7646 5.98596C40.2051 5.98596 40.5808 5.88231 40.8918 5.67501C41.2027 5.46771 41.4489 5.19563 41.6303 4.85877C41.8117 4.52191 41.9024 4.16561 41.9024 3.78988C41.9024 3.40119 41.8117 3.0449 41.6303 2.72099C41.4489 2.38413 41.2027 2.11205 40.8918 1.90475C40.5808 1.68449 40.2051 1.57437 39.7646 1.57437C39.35 1.57437 38.9807 1.68449 38.6568 1.90475C38.3329 2.11205 38.0803 2.38413 37.8989 2.72099C37.7175 3.05785 37.6268 3.41415 37.6268 3.78988C37.6268 4.15265 37.7175 4.50895 37.8989 4.85877C38.0803 5.19563 38.3329 5.46771 38.6568 5.67501C38.9807 5.88231 39.35 5.98596 39.7646 5.98596ZM49.2874 14.9452C48.5748 14.9452 47.9335 14.7767 47.3634 14.4399C46.7933 14.0901 46.3334 13.6301 45.9836 13.06C45.6467 12.49 45.4783 11.8551 45.4783 11.1555C45.4783 10.4558 45.6467 9.821 45.9836 9.25092C46.3334 8.66789 46.7933 8.20795 47.3634 7.87109C47.9335 7.53422 48.5748 7.36579 49.2874 7.36579C49.987 7.36579 50.6219 7.53422 51.192 7.87109C51.762 8.20795 52.2155 8.66789 52.5524 9.25092C52.8892 9.821 53.0576 10.4558 53.0576 11.1555C53.0576 11.8551 52.8892 12.49 52.5524 13.06C52.2155 13.6301 51.762 14.0901 51.192 14.4399C50.6219 14.7767 49.987 14.9452 49.2874 14.9452ZM49.2874 13.3516C49.7149 13.3516 50.0842 13.2479 50.3951 13.0406C50.7191 12.8333 50.9652 12.5612 51.1337 12.2244C51.315 11.8875 51.4057 11.5312 51.4057 11.1555C51.4057 10.7668 51.315 10.4105 51.1337 10.0866C50.9652 9.74974 50.7191 9.47766 50.3951 9.27036C50.0842 9.0501 49.7149 8.93997 49.2874 8.93997C48.8728 8.93997 48.4971 9.0501 48.1602 9.27036C47.8363 9.47766 47.5836 9.74974 47.4023 10.0866C47.2209 10.4235 47.1302 10.7798 47.1302 11.1555C47.1302 11.5183 47.2209 11.8746 47.4023 12.2244C47.5836 12.5612 47.8363 12.8333 48.1602 13.0406C48.4971 13.2479 48.8728 13.3516 49.2874 13.3516ZM64.1721 14.9452C63.2522 14.9452 62.4101 14.7767 61.6456 14.4399C60.8812 14.0901 60.2334 13.6172 59.7022 13.0212C59.171 12.4252 58.7888 11.7579 58.5556 11.0194L60.2075 10.3392C60.5573 11.2721 61.0756 11.9912 61.7622 12.4965C62.4619 12.9888 63.2781 13.235 64.211 13.235C64.781 13.235 65.2799 13.1443 65.7074 12.9629C66.135 12.7815 66.4654 12.5288 66.6986 12.2049C66.9447 11.8681 67.0678 11.4794 67.0678 11.0389C67.0678 10.4299 66.8929 9.95056 66.5431 9.60074C66.2062 9.23797 65.7074 8.96589 65.0466 8.7845L62.3841 7.96826C61.3347 7.64435 60.5314 7.13258 59.9743 6.43295C59.4172 5.73331 59.1386 4.93003 59.1386 4.02309C59.1386 3.23276 59.3265 2.53961 59.7022 1.94362C60.0909 1.33468 60.6221 0.861776 61.2958 0.524915C61.9825 0.175097 62.7599 0.000188168 63.6279 0.000188168C64.496 0.000188168 65.2799 0.155663 65.9795 0.466612C66.6921 0.77756 67.2946 1.19864 67.7869 1.72984C68.2792 2.24809 68.642 2.84408 68.8752 3.5178L67.2427 4.198C66.9318 3.38176 66.4654 2.76634 65.8435 2.35174C65.2216 1.92419 64.4895 1.71041 63.6474 1.71041C63.1291 1.71041 62.6692 1.8011 62.2675 1.98249C61.8789 2.15092 61.5744 2.40357 61.3541 2.74043C61.1468 3.06433 61.0432 3.45302 61.0432 3.90648C61.0432 4.43769 61.2116 4.91059 61.5485 5.32519C61.8853 5.73979 62.3971 6.05722 63.0838 6.27747L65.5131 6.99654C66.6532 7.34636 67.5148 7.84517 68.0978 8.49298C68.6809 9.14079 68.9724 9.94408 68.9724 10.9028C68.9724 11.6932 68.7651 12.3928 68.3505 13.0017C67.9488 13.6107 67.3852 14.0901 66.6597 14.4399C65.9471 14.7767 65.1179 14.9452 64.1721 14.9452ZM75.8032 14.8286C74.7797 14.8286 73.9894 14.5371 73.4322 13.954C72.8881 13.371 72.616 12.5483 72.616 11.4859V5.96652H70.7114V4.23687H71.1001C71.5666 4.23687 71.9358 4.09435 72.2079 3.80931C72.48 3.52428 72.616 3.14855 72.616 2.68212V1.82701H74.4234V4.23687H76.775V5.96652H74.4234V11.4276C74.4234 11.7774 74.4752 12.0819 74.5789 12.341C74.6955 12.6001 74.8833 12.8074 75.1425 12.9629C75.4016 13.1054 75.7449 13.1767 76.1725 13.1767C76.2632 13.1767 76.3733 13.1702 76.5029 13.1572C76.6454 13.1443 76.775 13.1313 76.8916 13.1184V14.712C76.7231 14.7508 76.5353 14.7767 76.328 14.7897C76.1207 14.8156 75.9458 14.8286 75.8032 14.8286ZM82.1903 14.9452C81.5036 14.9452 80.8947 14.8221 80.3635 14.5759C79.8452 14.3168 79.4371 13.967 79.1391 13.5265C78.8411 13.073 78.6921 12.5548 78.6921 11.9717C78.6921 11.4146 78.8087 10.9158 79.0419 10.4753C79.2881 10.0218 79.6638 9.63961 80.1691 9.32866C80.6874 9.01771 81.3352 8.79745 82.1126 8.66789L85.9994 8.02656V9.54244L82.5207 10.1255C81.847 10.2421 81.3546 10.4558 81.0437 10.7668C80.7457 11.0777 80.5967 11.46 80.5967 11.9134C80.5967 12.341 80.7651 12.6973 81.102 12.9823C81.4518 13.2673 81.8858 13.4099 82.4041 13.4099C83.0648 13.4099 83.6349 13.2738 84.1143 13.0017C84.6066 12.7167 84.9888 12.3345 85.2609 11.8551C85.5459 11.3757 85.6885 10.8445 85.6885 10.2615V7.59901C85.6885 7.02893 85.4747 6.56899 85.0471 6.21917C84.6325 5.8564 84.0819 5.67501 83.3952 5.67501C82.7992 5.67501 82.268 5.83048 81.8016 6.14143C81.3481 6.43942 81.0113 6.84107 80.791 7.34636L79.2168 6.53012C79.4112 6.05074 79.7221 5.62318 80.1497 5.24745C80.5772 4.85877 81.0761 4.5543 81.6461 4.33404C82.2162 4.11379 82.8122 4.00366 83.4341 4.00366C84.2374 4.00366 84.9435 4.15913 85.5524 4.47008C86.1614 4.76807 86.6343 5.18915 86.9711 5.73331C87.321 6.26452 87.4959 6.88641 87.4959 7.59901V14.712H85.7273V12.7297L86.0577 12.8463C85.8375 13.2609 85.5395 13.6236 85.1637 13.9346C84.788 14.2455 84.3475 14.4917 83.8422 14.6731C83.3369 14.8545 82.7863 14.9452 82.1903 14.9452ZM94.3645 14.8286C93.341 14.8286 92.5507 14.5371 91.9935 13.954C91.4494 13.371 91.1773 12.5483 91.1773 11.4859V5.96652H89.2727V4.23687H89.6614C90.1278 4.23687 90.4971 4.09435 90.7692 3.80931C91.0413 3.52428 91.1773 3.14855 91.1773 2.68212V1.82701H92.9847V4.23687H95.3362V5.96652H92.9847V11.4276C92.9847 11.7774 93.0365 12.0819 93.1402 12.341C93.2568 12.6001 93.4446 12.8074 93.7038 12.9629C93.9629 13.1054 94.3062 13.1767 94.7338 13.1767C94.8245 13.1767 94.9346 13.1702 95.0642 13.1572C95.2067 13.1443 95.3362 13.1313 95.4528 13.1184V14.712C95.2844 14.7508 95.0966 14.7767 94.8893 14.7897C94.682 14.8156 94.507 14.8286 94.3645 14.8286ZM101.526 14.9452C100.774 14.9452 100.094 14.7703 99.4852 14.4205C98.8892 14.0706 98.4228 13.5848 98.0859 12.9629C97.762 12.328 97.6 11.6025 97.6 10.7862V4.23687H99.4074V10.5919C99.4074 11.1101 99.5111 11.5636 99.7184 11.9523C99.9386 12.341 100.237 12.6454 100.612 12.8657C101.001 13.086 101.442 13.1961 101.934 13.1961C102.426 13.1961 102.86 13.086 103.236 12.8657C103.625 12.6454 103.923 12.328 104.13 11.9134C104.35 11.4988 104.46 11.0065 104.46 10.4364V4.23687H106.287V14.712H104.519V12.6714L104.81 12.8463C104.564 13.507 104.143 14.0253 103.547 14.401C102.964 14.7638 102.29 14.9452 101.526 14.9452ZM113.343 14.8286C112.32 14.8286 111.529 14.5371 110.972 13.954C110.428 13.371 110.156 12.5483 110.156 11.4859V5.96652H108.252V4.23687H108.64C109.107 4.23687 109.476 4.09435 109.748 3.80931C110.02 3.52428 110.156 3.14855 110.156 2.68212V1.82701H111.964V4.23687H114.315V5.96652H111.964V11.4276C111.964 11.7774 112.015 12.0819 112.119 12.341C112.236 12.6001 112.423 12.8074 112.683 12.9629C112.942 13.1054 113.285 13.1767 113.713 13.1767C113.803 13.1767 113.913 13.1702 114.043 13.1572C114.186 13.1443 114.315 13.1313 114.432 13.1184V14.712C114.263 14.7508 114.075 14.7767 113.868 14.7897C113.661 14.8156 113.486 14.8286 113.343 14.8286ZM121.483 14.9452C120.473 14.9452 119.559 14.712 118.743 14.2455C117.927 13.7662 117.279 13.1119 116.799 12.2827C116.32 11.4535 116.08 10.5142 116.08 9.4647C116.08 8.41525 116.314 7.4824 116.78 6.66616C117.259 5.84992 117.907 5.20211 118.723 4.72273C119.54 4.24335 120.46 4.00366 121.483 4.00366C122.494 4.00366 123.407 4.24335 124.223 4.72273C125.04 5.18915 125.681 5.83048 126.147 6.64672C126.627 7.46297 126.866 8.40229 126.866 9.4647C126.866 10.5271 126.62 11.4729 126.128 12.3021C125.636 13.1184 124.981 13.7662 124.165 14.2455C123.362 14.712 122.468 14.9452 121.483 14.9452ZM121.483 13.1961C122.131 13.1961 122.714 13.0341 123.232 12.7102C123.763 12.3863 124.178 11.9393 124.476 11.3693C124.787 10.7992 124.942 10.1643 124.942 9.4647C124.942 8.75211 124.787 8.12373 124.476 7.57957C124.178 7.02245 123.763 6.58194 123.232 6.25804C122.714 5.92118 122.131 5.75275 121.483 5.75275C120.822 5.75275 120.226 5.92118 119.695 6.25804C119.177 6.58194 118.762 7.02245 118.451 7.57957C118.14 8.12373 117.985 8.75211 117.985 9.4647C117.985 10.1643 118.14 10.7992 118.451 11.3693C118.762 11.9393 119.177 12.3863 119.695 12.7102C120.226 13.0341 120.822 13.1961 121.483 13.1961ZM129.224 14.712V4.23687H130.992V6.16087L130.798 5.88879C131.044 5.2928 131.42 4.85229 131.925 4.56725C132.43 4.26926 133.046 4.12026 133.771 4.12026H134.413V5.83048H133.499C132.761 5.83048 132.165 6.06369 131.711 6.53012C131.258 6.98359 131.031 7.6314 131.031 8.47355V14.712H129.224ZM136.582 18.9875C136.349 18.9875 136.115 18.9681 135.882 18.9292C135.649 18.8903 135.429 18.8256 135.221 18.7349V17.1218C135.364 17.1477 135.539 17.1736 135.746 17.1996C135.966 17.2384 136.18 17.2579 136.387 17.2579C136.996 17.2579 137.456 17.1218 137.767 16.8497C138.091 16.5906 138.396 16.1371 138.681 15.4893L139.341 13.9152L139.303 15.4893L134.833 4.23687H136.796L140.274 13.1767H139.691L143.151 4.23687H145.152L140.43 15.9558C140.21 16.5129 139.924 17.0182 139.575 17.4716C139.238 17.9381 138.823 18.3073 138.331 18.5794C137.839 18.8515 137.256 18.9875 136.582 18.9875Z" fill="black"/>
<path d="M156.921 14.9452C155.885 14.9452 154.926 14.7573 154.045 14.3816C153.177 14.0059 152.413 13.4811 151.752 12.8074C151.104 12.1337 150.599 11.3434 150.236 10.4364C149.873 9.52948 149.692 8.53833 149.692 7.46297C149.692 6.3876 149.867 5.39645 150.217 4.48951C150.579 3.56962 151.085 2.7793 151.732 2.11853C152.393 1.44481 153.164 0.926557 154.045 0.563783C154.926 0.188053 155.885 0.000188168 156.921 0.000188168C157.958 0.000188168 158.884 0.175097 159.701 0.524915C160.53 0.874733 161.229 1.34116 161.799 1.92418C162.37 2.49426 162.778 3.12263 163.024 3.80931L160.653 4.91707C160.381 4.19152 159.921 3.59554 159.273 3.12911C158.625 2.64973 157.841 2.41004 156.921 2.41004C156.015 2.41004 155.211 2.62382 154.512 3.05138C153.825 3.47893 153.287 4.06844 152.899 4.8199C152.523 5.57136 152.335 6.45238 152.335 7.46297C152.335 8.47355 152.523 9.36105 152.899 10.1255C153.287 10.8769 153.825 11.4664 154.512 11.894C155.211 12.3215 156.015 12.5353 156.921 12.5353C157.841 12.5353 158.625 12.3021 159.273 11.8357C159.921 11.3563 160.381 10.7538 160.653 10.0283L163.024 11.1361C162.778 11.8227 162.37 12.4576 161.799 13.0406C161.229 13.6107 160.53 14.0706 159.701 14.4205C158.884 14.7703 157.958 14.9452 156.921 14.9452ZM169.936 14.9452C168.899 14.9452 167.953 14.7055 167.098 14.2261C166.256 13.7467 165.582 13.0924 165.077 12.2632C164.585 11.434 164.339 10.4882 164.339 9.42583C164.339 8.36342 164.585 7.41762 165.077 6.58842C165.582 5.75922 166.256 5.10493 167.098 4.62555C167.94 4.14617 168.886 3.90648 169.936 3.90648C170.972 3.90648 171.911 4.14617 172.754 4.62555C173.596 5.10493 174.263 5.75922 174.755 6.58842C175.261 7.40466 175.513 8.35047 175.513 9.42583C175.513 10.4882 175.261 11.434 174.755 12.2632C174.25 13.0924 173.576 13.7467 172.734 14.2261C171.892 14.7055 170.959 14.9452 169.936 14.9452ZM169.936 12.6131C170.506 12.6131 171.005 12.477 171.432 12.2049C171.873 11.9329 172.216 11.5571 172.462 11.0777C172.721 10.5854 172.851 10.0348 172.851 9.42583C172.851 8.80393 172.721 8.25977 172.462 7.79335C172.216 7.31397 171.873 6.93824 171.432 6.66616C171.005 6.38112 170.506 6.2386 169.936 6.2386C169.353 6.2386 168.841 6.38112 168.4 6.66616C167.96 6.93824 167.61 7.31397 167.351 7.79335C167.105 8.25977 166.982 8.80393 166.982 9.42583C166.982 10.0348 167.105 10.5854 167.351 11.0777C167.61 11.5571 167.96 11.9329 168.4 12.2049C168.841 12.477 169.353 12.6131 169.936 12.6131ZM177.444 14.712V4.1397H179.834V6.58842L179.562 6.1803C179.757 5.41588 180.145 4.84581 180.728 4.47008C181.311 4.09435 181.998 3.90648 182.788 3.90648C183.656 3.90648 184.421 4.13322 185.082 4.58669C185.742 5.04015 186.17 5.63614 186.364 6.37464L185.645 6.43295C185.969 5.59079 186.455 4.96242 187.103 4.54782C187.751 4.12026 188.496 3.90648 189.338 3.90648C190.089 3.90648 190.756 4.07492 191.339 4.41178C191.935 4.74864 192.402 5.22154 192.739 5.83048C193.076 6.42647 193.244 7.11963 193.244 7.90995V14.712H190.698V8.51242C190.698 8.04599 190.614 7.64435 190.445 7.30749C190.277 6.97063 190.044 6.71151 189.746 6.53012C189.448 6.33577 189.085 6.2386 188.658 6.2386C188.256 6.2386 187.9 6.33577 187.589 6.53012C187.278 6.71151 187.038 6.97063 186.87 7.30749C186.701 7.64435 186.617 8.04599 186.617 8.51242V14.712H184.071V8.51242C184.071 8.04599 183.987 7.64435 183.818 7.30749C183.65 6.97063 183.41 6.71151 183.099 6.53012C182.801 6.33577 182.445 6.2386 182.03 6.2386C181.629 6.2386 181.273 6.33577 180.962 6.53012C180.651 6.71151 180.411 6.97063 180.242 7.30749C180.074 7.64435 179.99 8.04599 179.99 8.51242V14.712H177.444ZM195.398 18.5988V4.1397H197.788V6.2386L197.555 5.71388C197.918 5.1438 198.41 4.70329 199.032 4.39234C199.654 4.06844 200.373 3.90648 201.189 3.90648C202.187 3.90648 203.087 4.15265 203.891 4.64499C204.694 5.13733 205.329 5.79809 205.795 6.62729C206.275 7.45649 206.514 8.38933 206.514 9.42583C206.514 10.4494 206.281 11.3822 205.815 12.2244C205.348 13.0665 204.713 13.7338 203.91 14.2261C203.107 14.7055 202.193 14.9452 201.17 14.9452C200.405 14.9452 199.699 14.7962 199.052 14.4982C198.417 14.1872 197.911 13.7467 197.536 13.1767L197.944 12.6714V18.5988H195.398ZM200.878 12.6131C201.461 12.6131 201.98 12.477 202.433 12.2049C202.887 11.9329 203.236 11.5571 203.483 11.0777C203.742 10.5984 203.871 10.0477 203.871 9.42583C203.871 8.80393 203.742 8.25977 203.483 7.79335C203.236 7.31397 202.887 6.93824 202.433 6.66616C201.98 6.38112 201.461 6.2386 200.878 6.2386C200.321 6.2386 199.816 6.37464 199.363 6.64672C198.922 6.9188 198.572 7.30101 198.313 7.79335C198.067 8.27273 197.944 8.81689 197.944 9.42583C197.944 10.0477 198.067 10.5984 198.313 11.0777C198.572 11.5571 198.922 11.9329 199.363 12.2049C199.816 12.477 200.321 12.6131 200.878 12.6131ZM208.455 14.712V0.000188168H211.001V14.712H208.455ZM213.352 14.712V4.1397H215.898V14.712H213.352ZM213.352 2.9542V0.233399H215.898V2.9542H213.352ZM221.455 14.9452C220.717 14.9452 220.075 14.8221 219.531 14.5759C218.987 14.3298 218.566 13.9799 218.268 13.5265C217.97 13.06 217.821 12.5224 217.821 11.9134C217.821 11.3304 217.95 10.8121 218.21 10.3587C218.469 9.89225 218.87 9.50357 219.414 9.19262C219.959 8.88167 220.645 8.66141 221.475 8.53185L224.934 7.96826V9.91169L221.96 10.417C221.455 10.5077 221.079 10.6696 220.833 10.9028C220.587 11.1361 220.464 11.4405 220.464 11.8163C220.464 12.179 220.6 12.4705 220.872 12.6908C221.157 12.8981 221.507 13.0017 221.921 13.0017C222.453 13.0017 222.919 12.8916 223.321 12.6714C223.735 12.4382 224.053 12.1207 224.273 11.7191C224.506 11.3174 224.623 10.8769 224.623 10.3975V7.67674C224.623 7.22328 224.441 6.84755 224.079 6.54955C223.729 6.2386 223.262 6.08313 222.679 6.08313C222.135 6.08313 221.649 6.23212 221.222 6.53012C220.807 6.81515 220.503 7.19736 220.308 7.67674L218.229 6.66616C218.436 6.10904 218.76 5.62966 219.201 5.22802C219.654 4.81342 220.185 4.48951 220.794 4.2563C221.403 4.02309 222.064 3.90648 222.777 3.90648C223.645 3.90648 224.409 4.06844 225.07 4.39234C225.731 4.70329 226.242 5.1438 226.605 5.71388C226.981 6.27099 227.169 6.92528 227.169 7.67674V14.712H224.759V12.9046L225.303 12.8657C225.031 13.3192 224.707 13.7014 224.331 14.0123C223.956 14.3103 223.528 14.5435 223.049 14.712C222.569 14.8674 222.038 14.9452 221.455 14.9452ZM229.522 14.712V4.1397H231.912V6.21917L231.718 5.84992C231.964 5.21506 232.366 4.73568 232.923 4.41178C233.493 4.07492 234.154 3.90648 234.905 3.90648C235.683 3.90648 236.369 4.07492 236.965 4.41178C237.574 4.74864 238.047 5.22154 238.384 5.83048C238.721 6.42647 238.889 7.11963 238.889 7.90995V14.712H236.343V8.51242C236.343 8.04599 236.253 7.64435 236.071 7.30749C235.89 6.97063 235.637 6.71151 235.313 6.53012C235.002 6.33577 234.633 6.2386 234.206 6.2386C233.791 6.2386 233.422 6.33577 233.098 6.53012C232.774 6.71151 232.521 6.97063 232.34 7.30749C232.158 7.64435 232.068 8.04599 232.068 8.51242V14.712H229.522ZM246.134 14.9452C245.084 14.9452 244.139 14.7055 243.296 14.2261C242.467 13.7338 241.813 13.073 241.334 12.2438C240.854 11.4017 240.614 10.4558 240.614 9.4064C240.614 8.35694 240.854 7.41762 241.334 6.58842C241.813 5.75922 242.467 5.10493 243.296 4.62555C244.139 4.14617 245.084 3.90648 246.134 3.90648C246.885 3.90648 247.585 4.04253 248.233 4.31461C248.88 4.57373 249.438 4.9365 249.904 5.40293C250.383 5.85639 250.727 6.40056 250.934 7.03541L248.699 8.00713C248.505 7.47592 248.174 7.04837 247.708 6.72446C247.254 6.40056 246.73 6.2386 246.134 6.2386C245.577 6.2386 245.078 6.37464 244.637 6.64672C244.21 6.9188 243.873 7.29453 243.627 7.77391C243.381 8.25329 243.257 8.80393 243.257 9.42583C243.257 10.0477 243.381 10.5984 243.627 11.0777C243.873 11.5571 244.21 11.9329 244.637 12.2049C245.078 12.477 245.577 12.6131 246.134 12.6131C246.743 12.6131 247.274 12.4511 247.727 12.1272C248.181 11.8033 248.505 11.3693 248.699 10.8251L250.934 11.8357C250.727 12.4317 250.39 12.9694 249.923 13.4487C249.457 13.9152 248.9 14.2844 248.252 14.5565C247.604 14.8156 246.898 14.9452 246.134 14.9452ZM257.88 14.9452C256.792 14.9452 255.839 14.699 255.023 14.2067C254.207 13.7143 253.572 13.0471 253.118 12.2049C252.665 11.3628 252.438 10.4299 252.438 9.4064C252.438 8.34399 252.665 7.40466 253.118 6.58842C253.585 5.75922 254.213 5.10493 255.004 4.62555C255.807 4.14617 256.701 3.90648 257.685 3.90648C258.515 3.90648 259.24 4.04253 259.862 4.31461C260.497 4.58669 261.035 4.96242 261.475 5.4418C261.916 5.92118 262.253 6.47182 262.486 7.09371C262.719 7.70265 262.836 8.36342 262.836 9.07601C262.836 9.2574 262.823 9.44527 262.797 9.63961C262.784 9.83395 262.751 10.0024 262.7 10.1449H254.537V8.20147H261.261L260.056 9.11488C260.173 8.5189 260.141 7.98769 259.959 7.52127C259.791 7.05484 259.506 6.68559 259.104 6.41351C258.716 6.14143 258.243 6.00539 257.685 6.00539C257.154 6.00539 256.681 6.14143 256.267 6.41351C255.852 6.67264 255.535 7.06132 255.315 7.57957C255.107 8.08486 255.029 8.70028 255.081 9.42583C255.029 10.0736 255.114 10.6502 255.334 11.1555C255.567 11.6478 255.904 12.03 256.345 12.3021C256.798 12.5742 257.316 12.7102 257.899 12.7102C258.482 12.7102 258.975 12.5871 259.376 12.341C259.791 12.0948 260.115 11.7644 260.348 11.3498L262.408 12.3604C262.201 12.8657 261.877 13.3127 261.436 13.7014C260.996 14.0901 260.471 14.3945 259.862 14.6148C259.266 14.835 258.605 14.9452 257.88 14.9452ZM273.234 14.9452C272.145 14.9452 271.193 14.699 270.377 14.2067C269.561 13.7143 268.926 13.0471 268.472 12.2049C268.019 11.3628 267.792 10.4299 267.792 9.4064C267.792 8.34399 268.019 7.40466 268.472 6.58842C268.939 5.75922 269.567 5.10493 270.357 4.62555C271.161 4.14617 272.055 3.90648 273.039 3.90648C273.869 3.90648 274.594 4.04253 275.216 4.31461C275.851 4.58669 276.389 4.96242 276.829 5.4418C277.27 5.92118 277.606 6.47182 277.84 7.09371C278.073 7.70265 278.189 8.36342 278.189 9.07601C278.189 9.2574 278.177 9.44527 278.151 9.63961C278.138 9.83395 278.105 10.0024 278.053 10.1449H269.891V8.20147H276.615L275.41 9.11488C275.527 8.5189 275.495 7.98769 275.313 7.52127C275.145 7.05484 274.86 6.68559 274.458 6.41351C274.069 6.14143 273.596 6.00539 273.039 6.00539C272.508 6.00539 272.035 6.14143 271.621 6.41351C271.206 6.67264 270.889 7.06132 270.668 7.57957C270.461 8.08486 270.383 8.70028 270.435 9.42583C270.383 10.0736 270.468 10.6502 270.688 11.1555C270.921 11.6478 271.258 12.03 271.698 12.3021C272.152 12.5742 272.67 12.7102 273.253 12.7102C273.836 12.7102 274.329 12.5871 274.73 12.341C275.145 12.0948 275.469 11.7644 275.702 11.3498L277.762 12.3604C277.555 12.8657 277.231 13.3127 276.79 13.7014C276.35 14.0901 275.825 14.3945 275.216 14.6148C274.62 14.835 273.959 14.9452 273.234 14.9452ZM280.119 14.712V4.1397H282.51V6.21917L282.315 5.84992C282.562 5.21506 282.963 4.73568 283.52 4.41178C284.09 4.07492 284.751 3.90648 285.503 3.90648C286.28 3.90648 286.967 4.07492 287.563 4.41178C288.172 4.74864 288.645 5.22154 288.981 5.83048C289.318 6.42647 289.487 7.11963 289.487 7.90995V14.712H286.941V8.51242C286.941 8.04599 286.85 7.64435 286.669 7.30749C286.487 6.97063 286.235 6.71151 285.911 6.53012C285.6 6.33577 285.231 6.2386 284.803 6.2386C284.388 6.2386 284.019 6.33577 283.695 6.53012C283.371 6.71151 283.119 6.97063 282.937 7.30749C282.756 7.64435 282.665 8.04599 282.665 8.51242V14.712H280.119ZM295.662 14.9452C294.535 14.9452 293.551 14.6796 292.708 14.1484C291.879 13.6042 291.309 12.8722 290.998 11.9523L292.903 11.0389C293.175 11.6349 293.551 12.1013 294.03 12.4381C294.522 12.775 295.066 12.9434 295.662 12.9434C296.129 12.9434 296.498 12.8398 296.77 12.6325C297.042 12.4252 297.178 12.1531 297.178 11.8163C297.178 11.609 297.12 11.4405 297.003 11.311C296.9 11.1684 296.751 11.0518 296.556 10.9611C296.375 10.8575 296.174 10.7733 295.954 10.7085L294.224 10.2226C293.33 9.96351 292.65 9.56835 292.184 9.03714C291.73 8.50594 291.503 7.87756 291.503 7.15202C291.503 6.50421 291.665 5.94061 291.989 5.46123C292.326 4.9689 292.786 4.58669 293.369 4.31461C293.965 4.04253 294.645 3.90648 295.41 3.90648C296.407 3.90648 297.288 4.14617 298.053 4.62555C298.817 5.10493 299.361 5.77866 299.685 6.64672L297.742 7.56014C297.561 7.08076 297.256 6.69855 296.828 6.41351C296.401 6.12848 295.922 5.98596 295.39 5.98596C294.963 5.98596 294.626 6.08313 294.38 6.27747C294.134 6.47182 294.011 6.72446 294.011 7.03541C294.011 7.22975 294.062 7.39818 294.166 7.5407C294.27 7.68322 294.412 7.79983 294.594 7.89052C294.788 7.98121 295.008 8.06543 295.254 8.14317L296.945 8.64846C297.813 8.90758 298.48 9.29627 298.947 9.81452C299.426 10.3328 299.666 10.9676 299.666 11.7191C299.666 12.3539 299.497 12.9175 299.161 13.4099C298.824 13.8892 298.357 14.265 297.761 14.5371C297.165 14.8091 296.466 14.9452 295.662 14.9452ZM305.393 14.9452C304.576 14.9452 303.864 14.7638 303.255 14.401C302.659 14.0382 302.199 13.5329 301.875 12.8851C301.564 12.2373 301.409 11.4794 301.409 10.6113V4.1397H303.954V10.3975C303.954 10.8381 304.039 11.2267 304.207 11.5636C304.389 11.8875 304.641 12.1466 304.965 12.341C305.302 12.5224 305.678 12.6131 306.092 12.6131C306.507 12.6131 306.876 12.5224 307.2 12.341C307.524 12.1466 307.777 11.881 307.958 11.5442C308.139 11.2073 308.23 10.8057 308.23 10.3392V4.1397H310.776V14.712H308.366V12.6325L308.58 13.0017C308.334 13.6496 307.926 14.1354 307.356 14.4593C306.798 14.7832 306.144 14.9452 305.393 14.9452ZM313.143 14.712V4.1397H315.533V6.49125L315.339 6.14143C315.585 5.3511 315.967 4.80046 316.485 4.48951C317.016 4.17857 317.651 4.02309 318.39 4.02309H319.012V6.27747H318.098C317.373 6.27747 316.79 6.50421 316.349 6.95767C315.909 7.39818 315.688 8.02008 315.688 8.82337V14.712H313.143ZM325.425 14.9452C324.337 14.9452 323.385 14.699 322.569 14.2067C321.752 13.7143 321.118 13.0471 320.664 12.2049C320.211 11.3628 319.984 10.4299 319.984 9.4064C319.984 8.34399 320.211 7.40466 320.664 6.58842C321.13 5.75922 321.759 5.10493 322.549 4.62555C323.352 4.14617 324.246 3.90648 325.231 3.90648C326.06 3.90648 326.786 4.04253 327.408 4.31461C328.043 4.58669 328.58 4.96242 329.021 5.4418C329.461 5.92118 329.798 6.47182 330.031 7.09371C330.265 7.70265 330.381 8.36342 330.381 9.07601C330.381 9.2574 330.368 9.44527 330.342 9.63961C330.329 9.83395 330.297 10.0024 330.245 10.1449H322.083V8.20147H328.807L327.602 9.11488C327.719 8.5189 327.686 7.98769 327.505 7.52127C327.337 7.05484 327.051 6.68559 326.65 6.41351C326.261 6.14143 325.788 6.00539 325.231 6.00539C324.7 6.00539 324.227 6.14143 323.812 6.41351C323.398 6.67264 323.08 7.06132 322.86 7.57957C322.653 8.08486 322.575 8.70028 322.627 9.42583C322.575 10.0736 322.659 10.6502 322.88 11.1555C323.113 11.6478 323.45 12.03 323.89 12.3021C324.344 12.5742 324.862 12.7102 325.445 12.7102C326.028 12.7102 326.52 12.5871 326.922 12.341C327.337 12.0948 327.66 11.7644 327.894 11.3498L329.954 12.3604C329.746 12.8657 329.422 13.3127 328.982 13.7014C328.541 14.0901 328.017 14.3945 327.408 14.6148C326.812 14.835 326.151 14.9452 325.425 14.9452ZM337.228 14.9452C336.204 14.9452 335.291 14.7055 334.488 14.2261C333.684 13.7338 333.05 13.0665 332.583 12.2244C332.117 11.3822 331.884 10.4494 331.884 9.42583C331.884 8.38933 332.117 7.45649 332.583 6.62729C333.05 5.79809 333.684 5.13733 334.488 4.64499C335.304 4.15265 336.211 3.90648 337.209 3.90648C338.012 3.90648 338.724 4.06844 339.346 4.39234C339.981 4.70329 340.48 5.1438 340.843 5.71388L340.454 6.2386V0.000188168H343V14.712H340.59V12.6714L340.862 13.1767C340.499 13.7467 339.994 14.1872 339.346 14.4982C338.699 14.7962 337.992 14.9452 337.228 14.9452ZM337.5 12.6131C338.083 12.6131 338.595 12.477 339.035 12.2049C339.476 11.9329 339.819 11.5571 340.065 11.0777C340.325 10.5984 340.454 10.0477 340.454 9.42583C340.454 8.81689 340.325 8.27273 340.065 7.79335C339.819 7.30101 339.476 6.9188 339.035 6.64672C338.595 6.37464 338.083 6.2386 337.5 6.2386C336.93 6.2386 336.418 6.38112 335.965 6.66616C335.511 6.93824 335.155 7.31397 334.896 7.79335C334.65 8.25977 334.527 8.80393 334.527 9.42583C334.527 10.0477 334.65 10.5984 334.896 11.0777C335.155 11.5571 335.511 11.9329 335.965 12.2049C336.418 12.477 336.93 12.6131 337.5 12.6131Z" fill="url(#paint0_linear_1_777)"/>
<defs>
<linearGradient id="paint0_linear_1_777" x1="344.729" y1="6.70157" x2="-0.719073" y2="6.70157" gradientUnits="userSpaceOnUse">
<stop stop-color="#F3AA45"/>
<stop offset="1" stop-color="#ED2628"/>
</linearGradient>
</defs>
</svg>
