<svg width="551" height="19" viewBox="0 0 551 19" fill="none" xmlns="http://www.w3.org/2000/svg">
<path d="M-6.23735e-06 14.7039V0.233271H6.09901C7.05724 0.233271 7.87304 0.401609 8.54639 0.738286C9.23269 1.06201 9.75713 1.52818 10.1197 2.13679C10.4952 2.73245 10.683 3.45759 10.683 4.31223C10.683 4.97264 10.5017 5.59419 10.1391 6.1769C9.7895 6.74666 9.22622 7.2193 8.44927 7.59483V6.37114C9.16147 6.64307 9.72476 6.97974 10.1391 7.38117C10.5535 7.78259 10.8449 8.22933 11.0132 8.7214C11.1815 9.21346 11.2657 9.73142 11.2657 10.2753C11.2657 11.6608 10.806 12.7486 9.88662 13.5385C8.98018 14.3154 7.71765 14.7039 6.09901 14.7039H-6.23735e-06ZM2.64161 12.373H6.37094C7.05724 12.373 7.60111 12.1853 8.00253 11.8098C8.4169 11.4213 8.62408 10.9098 8.62408 10.2753C8.62408 9.64078 8.4169 9.12929 8.00253 8.74082C7.60111 8.35235 7.05724 8.15811 6.37094 8.15811H2.64161V12.373ZM2.64161 5.8467H6.23498C6.77884 5.8467 7.21263 5.69131 7.53636 5.38053C7.86009 5.05681 8.02195 4.64244 8.02195 4.13742C8.02195 3.63241 7.86009 3.23098 7.53636 2.93316C7.21263 2.63533 6.77884 2.48641 6.23498 2.48641H2.64161V5.8467ZM18.2272 14.937C17.1395 14.937 16.1878 14.6909 15.372 14.1989C14.5562 13.7068 13.9217 13.0399 13.4685 12.1982C13.0152 11.3565 12.7886 10.4242 12.7886 9.40122C12.7886 8.3394 13.0152 7.40059 13.4685 6.5848C13.9346 5.75606 14.5627 5.10213 15.3525 4.62301C16.1554 4.14389 17.0489 3.90434 18.033 3.90434C18.8618 3.90434 19.5869 4.0403 20.2085 4.31223C20.843 4.58416 21.3803 4.95969 21.8206 5.4388C22.2609 5.91792 22.5976 6.46826 22.8306 7.08981C23.0637 7.69842 23.1803 8.35882 23.1803 9.07102C23.1803 9.25231 23.1673 9.44007 23.1414 9.63431C23.1285 9.82854 23.0961 9.99688 23.0443 10.1393H14.8864V8.19696H21.607L20.4027 9.10987C20.5192 8.51421 20.4869 7.9833 20.3056 7.51713C20.1372 7.05096 19.8524 6.68192 19.4509 6.40998C19.0625 6.13805 18.5898 6.00209 18.033 6.00209C17.5021 6.00209 17.0295 6.13805 16.6151 6.40998C16.2007 6.66897 15.8835 7.05744 15.6633 7.5754C15.4561 8.08042 15.3784 8.6955 15.4302 9.42065C15.3784 10.0681 15.4626 10.6443 15.6828 11.1493C15.9158 11.6414 16.2525 12.0234 16.6928 12.2953C17.146 12.5673 17.664 12.7032 18.2467 12.7032C18.8294 12.7032 19.3214 12.5802 19.7229 12.3342C20.1372 12.0882 20.461 11.758 20.694 11.3436L22.753 12.3536C22.5458 12.8586 22.222 13.3054 21.7818 13.6938C21.3415 14.0823 20.8171 14.3866 20.2085 14.6068C19.6128 14.8269 18.9524 14.937 18.2272 14.937ZM29.1298 14.937C28.0032 14.937 27.0191 14.6715 26.1774 14.1406C25.3487 13.5967 24.7789 12.8651 24.4681 11.9457L26.3717 11.0328C26.6436 11.6285 27.0191 12.0946 27.4982 12.4313C27.9903 12.768 28.5342 12.9363 29.1298 12.9363C29.596 12.9363 29.965 12.8327 30.237 12.6255C30.5089 12.4184 30.6449 12.1464 30.6449 11.8098C30.6449 11.6026 30.5866 11.4342 30.47 11.3047C30.3665 11.1623 30.2175 11.0458 30.0233 10.9551C29.842 10.8515 29.6413 10.7674 29.4212 10.7026L27.6925 10.217C26.799 9.95803 26.1192 9.56309 25.653 9.03217C25.1998 8.50126 24.9732 7.87323 24.9732 7.14808C24.9732 6.50063 25.135 5.93734 25.4588 5.45823C25.7954 4.96616 26.2551 4.58416 26.8378 4.31223C27.4335 4.0403 28.1133 3.90434 28.8773 3.90434C29.8744 3.90434 30.7549 4.14389 31.5189 4.62301C32.2829 5.10213 32.8268 5.77548 33.1505 6.64307L31.2081 7.55598C31.0269 7.07686 30.7226 6.69486 30.2952 6.40998C29.8679 6.1251 29.3888 5.98266 28.8579 5.98266C28.4306 5.98266 28.0939 6.07978 27.8479 6.27402C27.6018 6.46826 27.4788 6.72076 27.4788 7.03154C27.4788 7.22578 27.5306 7.39412 27.6342 7.53656C27.7378 7.679 27.8802 7.79554 28.0615 7.88618C28.2558 7.97682 28.4759 8.06099 28.7219 8.13869L30.4118 8.6437C31.2794 8.90268 31.9462 9.29116 32.4124 9.80912C32.8915 10.3271 33.1311 10.9616 33.1311 11.7126C33.1311 12.3471 32.9627 12.9104 32.6261 13.4025C32.2894 13.8816 31.8232 14.2571 31.2276 14.5291C30.6319 14.801 29.9327 14.937 29.1298 14.937ZM39.9036 14.8204C38.7122 14.8204 37.7864 14.4967 37.126 13.8492C36.4785 13.1888 36.1548 12.263 36.1548 11.0717V6.40998H34.329V4.13742H34.5232C35.0412 4.13742 35.4426 4.00146 35.7275 3.72952C36.0124 3.45759 36.1548 3.06265 36.1548 2.54468V1.72889H38.6993V4.13742H41.1272V6.40998H38.6993V10.9357C38.6993 11.2853 38.7576 11.5831 38.8741 11.8292C39.0036 12.0752 39.1978 12.263 39.4568 12.3925C39.7287 12.522 40.0719 12.5867 40.4863 12.5867C40.5769 12.5867 40.6805 12.5802 40.797 12.5673C40.9265 12.5543 41.0496 12.5414 41.1661 12.5284V14.7039C40.9848 14.7298 40.7776 14.7557 40.5445 14.7816C40.3115 14.8075 40.0978 14.8204 39.9036 14.8204ZM46.776 14.7039V0.233271H52.1758C53.1599 0.233271 54.0275 0.414558 54.7786 0.777134C55.5426 1.12676 56.1382 1.64472 56.5655 2.33102C56.9929 3.00438 57.2065 3.82664 57.2065 4.79782C57.2065 5.75606 56.9864 6.57832 56.5461 7.26462C56.1188 7.93798 55.5296 8.45594 54.7786 8.81851C54.0275 9.18109 53.1599 9.36238 52.1758 9.36238H49.4176V14.7039H46.776ZM49.4176 7.03154H52.2146C52.6938 7.03154 53.1081 6.9409 53.4578 6.75961C53.8074 6.56537 54.0793 6.29992 54.2736 5.96324C54.4678 5.62657 54.5649 5.23809 54.5649 4.79782C54.5649 4.34461 54.4678 3.95613 54.2736 3.63241C54.0793 3.29573 53.8074 3.03675 53.4578 2.85546C53.1081 2.66123 52.6938 2.56411 52.2146 2.56411H49.4176V7.03154ZM59.1574 14.7039V4.13742H61.5465V6.48768L61.3522 6.13805C61.5983 5.34816 61.9803 4.79782 62.4982 4.48705C63.0292 4.17627 63.6637 4.02088 64.4018 4.02088H65.0233V6.27402H64.1104C63.3853 6.27402 62.8025 6.50063 62.3623 6.95385C61.922 7.39412 61.7019 8.01567 61.7019 8.81851V14.7039H59.1574ZM66.4223 14.7039V4.13742H68.9668V14.7039H66.4223ZM66.4223 2.95258V0.233271H68.9668V2.95258H66.4223ZM76.4051 14.937C75.3562 14.937 74.4109 14.6974 73.5693 14.2183C72.7405 13.7262 72.0866 13.0658 71.6075 12.2371C71.1284 11.3954 70.8888 10.4501 70.8888 9.40122C70.8888 8.35235 71.1284 7.41354 71.6075 6.5848C72.0866 5.75606 72.7405 5.10213 73.5693 4.62301C74.4109 4.14389 75.3562 3.90434 76.4051 3.90434C77.1562 3.90434 77.8554 4.0403 78.5029 4.31223C79.1503 4.57121 79.7071 4.93379 80.1733 5.39996C80.6524 5.85317 80.9956 6.39704 81.2027 7.03154L78.969 8.00272C78.7748 7.47181 78.4446 7.04449 77.9784 6.72076C77.5252 6.39704 77.0008 6.23517 76.4051 6.23517C75.8483 6.23517 75.3498 6.37114 74.9095 6.64307C74.4822 6.915 74.1455 7.29052 73.8995 7.76964C73.6534 8.24875 73.5304 8.79909 73.5304 9.42065C73.5304 10.0422 73.6534 10.5925 73.8995 11.0717C74.1455 11.5508 74.4822 11.9263 74.9095 12.1982C75.3498 12.4702 75.8483 12.6061 76.4051 12.6061C77.0137 12.6061 77.5446 12.4443 77.9978 12.1205C78.4511 11.7968 78.7748 11.363 78.969 10.8191L81.2027 11.8292C80.9956 12.4248 80.6589 12.9622 80.1927 13.4413C79.7265 13.9075 79.1697 14.2766 78.5223 14.5485C77.8748 14.8075 77.1691 14.937 76.4051 14.937ZM83.1334 14.7039V4.13742H85.6779V14.7039H83.1334ZM83.1334 2.95258V0.233271H85.6779V2.95258H83.1334ZM88.0273 14.7039V4.13742H90.4164V6.21575L90.2221 5.8467C90.4682 5.21219 90.8696 4.73308 91.4264 4.40935C91.9962 4.07267 92.6566 3.90434 93.4076 3.90434C94.1845 3.90434 94.8708 4.07267 95.4665 4.40935C96.0751 4.74603 96.5478 5.21867 96.8844 5.82728C97.2211 6.42293 97.3894 7.11571 97.3894 7.9056V14.7039H94.845V8.50774C94.845 8.04157 94.7543 7.64015 94.573 7.30347C94.3917 6.9668 94.1392 6.70781 93.8155 6.52653C93.5047 6.33229 93.1357 6.23517 92.7084 6.23517C92.294 6.23517 91.9249 6.33229 91.6012 6.52653C91.2775 6.70781 91.025 6.9668 90.8437 7.30347C90.6624 7.64015 90.5718 8.04157 90.5718 8.50774V14.7039H88.0273ZM104.669 18.9771C103.879 18.9771 103.147 18.8476 102.474 18.5886C101.801 18.3296 101.218 17.967 100.726 17.5009C100.247 17.0477 99.8972 16.5103 99.677 15.8887L102.047 14.9952C102.202 15.4873 102.506 15.8822 102.96 16.1801C103.426 16.4908 103.996 16.6462 104.669 16.6462C105.187 16.6462 105.64 16.5491 106.029 16.3549C106.43 16.1606 106.741 15.8758 106.961 15.5002C107.181 15.1377 107.291 14.6974 107.291 14.1794V11.7709L107.777 12.3536C107.414 12.9881 106.929 13.4672 106.32 13.791C105.711 14.1147 105.019 14.2766 104.242 14.2766C103.257 14.2766 102.377 14.0499 101.6 13.5967C100.823 13.1435 100.214 12.522 99.7742 11.7321C99.3339 10.9422 99.1137 10.0552 99.1137 9.07102C99.1137 8.07394 99.3339 7.18693 99.7742 6.40998C100.214 5.63304 100.817 5.02443 101.581 4.58416C102.345 4.13095 103.212 3.90434 104.183 3.90434C104.973 3.90434 105.666 4.07267 106.262 4.40935C106.87 4.73308 107.375 5.20572 107.777 5.82728L107.427 6.46826V4.13742H109.836V14.1794C109.836 15.0988 109.609 15.9211 109.156 16.6462C108.715 17.3714 108.107 17.9411 107.33 18.3555C106.566 18.7699 105.679 18.9771 104.669 18.9771ZM104.552 11.9263C105.096 11.9263 105.569 11.8098 105.97 11.5767C106.385 11.3306 106.708 10.994 106.941 10.5666C107.175 10.1393 107.291 9.64726 107.291 9.09045C107.291 8.54658 107.168 8.06099 106.922 7.63367C106.689 7.1934 106.365 6.85025 105.951 6.60422C105.549 6.35819 105.083 6.23517 104.552 6.23517C104.021 6.23517 103.542 6.35819 103.115 6.60422C102.688 6.85025 102.351 7.1934 102.105 7.63367C101.872 8.06099 101.755 8.54658 101.755 9.09045C101.755 9.63431 101.872 10.1199 102.105 10.5472C102.351 10.9745 102.681 11.3112 103.096 11.5572C103.523 11.8033 104.009 11.9263 104.552 11.9263ZM219.085 14.7039V0.233271H224.485C225.469 0.233271 226.336 0.414558 227.087 0.777134C227.851 1.12676 228.447 1.64472 228.874 2.33102C229.302 3.00438 229.515 3.82664 229.515 4.79782C229.515 5.75606 229.295 6.57832 228.855 7.26462C228.428 7.93798 227.838 8.45594 227.087 8.81851C226.336 9.18109 225.469 9.36238 224.485 9.36238H221.726V14.7039H219.085ZM221.726 7.03154H224.523C225.003 7.03154 225.417 6.9409 225.767 6.75961C226.116 6.56537 226.388 6.29992 226.582 5.96324C226.777 5.62657 226.874 5.23809 226.874 4.79782C226.874 4.34461 226.777 3.95613 226.582 3.63241C226.388 3.29573 226.116 3.03675 225.767 2.85546C225.417 2.66123 225.003 2.56411 224.523 2.56411H221.726V7.03154ZM231.466 14.7039V4.13742H233.855V6.48768L233.661 6.13805C233.907 5.34816 234.289 4.79782 234.807 4.48705C235.338 4.17627 235.972 4.02088 236.711 4.02088H237.332V6.27402H236.419C235.694 6.27402 235.111 6.50063 234.671 6.95385C234.231 7.39412 234.011 8.01567 234.011 8.81851V14.7039H231.466ZM243.742 14.937C242.655 14.937 241.703 14.6909 240.887 14.1989C240.071 13.7068 239.437 13.0399 238.984 12.1982C238.53 11.3565 238.304 10.4242 238.304 9.40122C238.304 8.3394 238.53 7.40059 238.984 6.5848C239.45 5.75606 240.078 5.10213 240.868 4.62301C241.671 4.14389 242.564 3.90434 243.548 3.90434C244.377 3.90434 245.102 4.0403 245.724 4.31223C246.358 4.58416 246.895 4.95969 247.336 5.4388C247.776 5.91792 248.113 6.46826 248.346 7.08981C248.579 7.69842 248.695 8.35882 248.695 9.07102C248.695 9.25231 248.682 9.44007 248.657 9.63431C248.644 9.82854 248.611 9.99688 248.559 10.1393H240.402V8.19696H247.122L245.918 9.10987C246.034 8.51421 246.002 7.9833 245.821 7.51713C245.652 7.05096 245.367 6.68192 244.966 6.40998C244.578 6.13805 244.105 6.00209 243.548 6.00209C243.017 6.00209 242.545 6.13805 242.13 6.40998C241.716 6.66897 241.399 7.05744 241.178 7.5754C240.971 8.08042 240.894 8.6955 240.945 9.42065C240.894 10.0681 240.978 10.6443 241.198 11.1493C241.431 11.6414 241.768 12.0234 242.208 12.2953C242.661 12.5673 243.179 12.7032 243.762 12.7032C244.345 12.7032 244.837 12.5802 245.238 12.3342C245.652 12.0882 245.976 11.758 246.209 11.3436L248.268 12.3536C248.061 12.8586 247.737 13.3054 247.297 13.6938C246.857 14.0823 246.332 14.3866 245.724 14.6068C245.128 14.8269 244.468 14.937 243.742 14.937ZM250.624 14.7039V4.13742H253.013V6.5848L252.741 6.1769C252.936 5.41291 253.324 4.84315 253.907 4.46762C254.49 4.0921 255.176 3.90434 255.966 3.90434C256.833 3.90434 257.597 4.13095 258.258 4.58416C258.918 5.03738 259.345 5.63304 259.54 6.37114L258.821 6.42941C259.145 5.58772 259.63 4.95969 260.278 4.54532C260.925 4.118 261.67 3.90434 262.512 3.90434C263.263 3.90434 263.929 4.07267 264.512 4.40935C265.108 4.74603 265.574 5.21867 265.911 5.82728C266.247 6.42293 266.416 7.11571 266.416 7.9056V14.7039H263.871V8.50774C263.871 8.04157 263.787 7.64015 263.619 7.30347C263.45 6.9668 263.217 6.70781 262.919 6.52653C262.622 6.33229 262.259 6.23517 261.832 6.23517C261.43 6.23517 261.074 6.33229 260.763 6.52653C260.453 6.70781 260.213 6.9668 260.045 7.30347C259.876 7.64015 259.792 8.04157 259.792 8.50774V14.7039H257.248V8.50774C257.248 8.04157 257.164 7.64015 256.995 7.30347C256.827 6.9668 256.587 6.70781 256.277 6.52653C255.979 6.33229 255.623 6.23517 255.208 6.23517C254.807 6.23517 254.451 6.33229 254.14 6.52653C253.829 6.70781 253.59 6.9668 253.421 7.30347C253.253 7.64015 253.169 8.04157 253.169 8.50774V14.7039H250.624ZM268.568 14.7039V4.13742H271.113V14.7039H268.568ZM268.568 2.95258V0.233271H271.113V2.95258H268.568ZM277.23 14.937C276.415 14.937 275.702 14.7557 275.094 14.3931C274.498 14.0305 274.038 13.5255 273.715 12.8781C273.404 12.2306 273.249 11.4731 273.249 10.6055V4.13742H275.793V10.3918C275.793 10.8321 275.877 11.2206 276.046 11.5572C276.227 11.881 276.479 12.14 276.803 12.3342C277.14 12.5155 277.515 12.6061 277.93 12.6061C278.344 12.6061 278.713 12.5155 279.037 12.3342C279.36 12.14 279.613 11.8745 279.794 11.5378C279.976 11.2011 280.066 10.7997 280.066 10.3336V4.13742H282.611V14.7039H280.202V12.6255L280.416 12.9946C280.17 13.642 279.762 14.1276 279.192 14.4514C278.635 14.7751 277.981 14.937 277.23 14.937ZM284.976 14.7039V4.13742H287.365V6.5848L287.093 6.1769C287.287 5.41291 287.676 4.84315 288.259 4.46762C288.841 4.0921 289.528 3.90434 290.317 3.90434C291.185 3.90434 291.949 4.13095 292.609 4.58416C293.27 5.03738 293.697 5.63304 293.891 6.37114L293.173 6.42941C293.496 5.58772 293.982 4.95969 294.63 4.54532C295.277 4.118 296.022 3.90434 296.863 3.90434C297.614 3.90434 298.281 4.07267 298.864 4.40935C299.46 4.74603 299.926 5.21867 300.262 5.82728C300.599 6.42293 300.767 7.11571 300.767 7.9056V14.7039H298.223V8.50774C298.223 8.04157 298.139 7.64015 297.97 7.30347C297.802 6.9668 297.569 6.70781 297.271 6.52653C296.973 6.33229 296.611 6.23517 296.183 6.23517C295.782 6.23517 295.426 6.33229 295.115 6.52653C294.804 6.70781 294.565 6.9668 294.396 7.30347C294.228 7.64015 294.144 8.04157 294.144 8.50774V14.7039H291.599V8.50774C291.599 8.04157 291.515 7.64015 291.347 7.30347C291.179 6.9668 290.939 6.70781 290.628 6.52653C290.33 6.33229 289.974 6.23517 289.56 6.23517C289.159 6.23517 288.802 6.33229 288.492 6.52653C288.181 6.70781 287.941 6.9668 287.773 7.30347C287.605 7.64015 287.52 8.04157 287.52 8.50774V14.7039H284.976ZM310.393 14.937C309.266 14.937 308.282 14.6715 307.441 14.1406C306.612 13.5967 306.042 12.8651 305.731 11.9457L307.635 11.0328C307.907 11.6285 308.282 12.0946 308.761 12.4313C309.254 12.768 309.797 12.9363 310.393 12.9363C310.859 12.9363 311.228 12.8327 311.5 12.6255C311.772 12.4184 311.908 12.1464 311.908 11.8098C311.908 11.6026 311.85 11.4342 311.733 11.3047C311.63 11.1623 311.481 11.0458 311.287 10.9551C311.105 10.8515 310.905 10.7674 310.684 10.7026L308.956 10.217C308.062 9.95803 307.382 9.56309 306.916 9.03217C306.463 8.50126 306.236 7.87323 306.236 7.14808C306.236 6.50063 306.398 5.93734 306.722 5.45823C307.059 4.96616 307.518 4.58416 308.101 4.31223C308.697 4.0403 309.377 3.90434 310.141 3.90434C311.138 3.90434 312.018 4.14389 312.782 4.62301C313.546 5.10213 314.09 5.77548 314.414 6.64307L312.471 7.55598C312.29 7.07686 311.986 6.69486 311.558 6.40998C311.131 6.1251 310.652 5.98266 310.121 5.98266C309.694 5.98266 309.357 6.07978 309.111 6.27402C308.865 6.46826 308.742 6.72076 308.742 7.03154C308.742 7.22578 308.794 7.39412 308.897 7.53656C309.001 7.679 309.143 7.79554 309.325 7.88618C309.519 7.97682 309.739 8.06099 309.985 8.13869L311.675 8.6437C312.543 8.90268 313.209 9.29116 313.676 9.80912C314.155 10.3271 314.394 10.9616 314.394 11.7126C314.394 12.3471 314.226 12.9104 313.889 13.4025C313.553 13.8816 313.086 14.2571 312.491 14.5291C311.895 14.801 311.196 14.937 310.393 14.937ZM321.361 14.937C320.273 14.937 319.322 14.6909 318.506 14.1989C317.69 13.7068 317.055 13.0399 316.602 12.1982C316.149 11.3565 315.922 10.4242 315.922 9.40122C315.922 8.3394 316.149 7.40059 316.602 6.5848C317.068 5.75606 317.696 5.10213 318.486 4.62301C319.289 4.14389 320.183 3.90434 321.167 3.90434C321.996 3.90434 322.721 4.0403 323.342 4.31223C323.977 4.58416 324.514 4.95969 324.954 5.4388C325.395 5.91792 325.731 6.46826 325.964 7.08981C326.197 7.69842 326.314 8.35882 326.314 9.07102C326.314 9.25231 326.301 9.44007 326.275 9.63431C326.262 9.82854 326.23 9.99688 326.178 10.1393H318.02V8.19696H324.741L323.536 9.10987C323.653 8.51421 323.621 7.9833 323.439 7.51713C323.271 7.05096 322.986 6.68192 322.585 6.40998C322.196 6.13805 321.724 6.00209 321.167 6.00209C320.636 6.00209 320.163 6.13805 319.749 6.40998C319.334 6.66897 319.017 7.05744 318.797 7.5754C318.59 8.08042 318.512 8.6955 318.564 9.42065C318.512 10.0681 318.596 10.6443 318.817 11.1493C319.05 11.6414 319.386 12.0234 319.827 12.2953C320.28 12.5673 320.798 12.7032 321.38 12.7032C321.963 12.7032 322.455 12.5802 322.857 12.3342C323.271 12.0882 323.595 11.758 323.828 11.3436L325.887 12.3536C325.68 12.8586 325.356 13.3054 324.916 13.6938C324.475 14.0823 323.951 14.3866 323.342 14.6068C322.747 14.8269 322.086 14.937 321.361 14.937ZM333.371 18.9771C332.581 18.9771 331.849 18.8476 331.176 18.5886C330.503 18.3296 329.92 17.967 329.428 17.5009C328.949 17.0477 328.599 16.5103 328.379 15.8887L330.749 14.9952C330.904 15.4873 331.208 15.8822 331.661 16.1801C332.128 16.4908 332.697 16.6462 333.371 16.6462C333.889 16.6462 334.342 16.5491 334.73 16.3549C335.132 16.1606 335.443 15.8758 335.663 15.5002C335.883 15.1377 335.993 14.6974 335.993 14.1794V11.7709L336.479 12.3536C336.116 12.9881 335.63 13.4672 335.022 13.791C334.413 14.1147 333.72 14.2766 332.943 14.2766C331.959 14.2766 331.079 14.0499 330.302 13.5967C329.525 13.1435 328.916 12.522 328.476 11.7321C328.036 10.9422 327.816 10.0552 327.816 9.07102C327.816 8.07394 328.036 7.18693 328.476 6.40998C328.916 5.63304 329.518 5.02443 330.282 4.58416C331.046 4.13095 331.914 3.90434 332.885 3.90434C333.675 3.90434 334.368 4.07267 334.963 4.40935C335.572 4.73308 336.077 5.20572 336.479 5.82728L336.129 6.46826V4.13742H338.537V14.1794C338.537 15.0988 338.311 15.9211 337.858 16.6462C337.417 17.3714 336.809 17.9411 336.032 18.3555C335.268 18.7699 334.381 18.9771 333.371 18.9771ZM333.254 11.9263C333.798 11.9263 334.271 11.8098 334.672 11.5767C335.086 11.3306 335.41 10.994 335.643 10.5666C335.876 10.1393 335.993 9.64726 335.993 9.09045C335.993 8.54658 335.87 8.06099 335.624 7.63367C335.391 7.1934 335.067 6.85025 334.653 6.60422C334.251 6.35819 333.785 6.23517 333.254 6.23517C332.723 6.23517 332.244 6.35819 331.817 6.60422C331.39 6.85025 331.053 7.1934 330.807 7.63367C330.574 8.06099 330.457 8.54658 330.457 9.09045C330.457 9.63431 330.574 10.1199 330.807 10.5472C331.053 10.9745 331.383 11.3112 331.797 11.5572C332.225 11.8033 332.71 11.9263 333.254 11.9263ZM340.914 14.7039V4.13742H343.303V6.5848L343.031 6.1769C343.225 5.41291 343.614 4.84315 344.196 4.46762C344.779 4.0921 345.465 3.90434 346.255 3.90434C347.123 3.90434 347.887 4.13095 348.547 4.58416C349.208 5.03738 349.635 5.63304 349.829 6.37114L349.111 6.42941C349.434 5.58772 349.92 4.95969 350.567 4.54532C351.215 4.118 351.959 3.90434 352.801 3.90434C353.552 3.90434 354.219 4.07267 354.802 4.40935C355.397 4.74603 355.863 5.21867 356.2 5.82728C356.537 6.42293 356.705 7.11571 356.705 7.9056V14.7039H354.161V8.50774C354.161 8.04157 354.077 7.64015 353.908 7.30347C353.74 6.9668 353.507 6.70781 353.209 6.52653C352.911 6.33229 352.549 6.23517 352.121 6.23517C351.72 6.23517 351.364 6.33229 351.053 6.52653C350.742 6.70781 350.503 6.9668 350.334 7.30347C350.166 7.64015 350.082 8.04157 350.082 8.50774V14.7039H347.537V8.50774C347.537 8.04157 347.453 7.64015 347.285 7.30347C347.116 6.9668 346.877 6.70781 346.566 6.52653C346.268 6.33229 345.912 6.23517 345.498 6.23517C345.096 6.23517 344.74 6.33229 344.429 6.52653C344.119 6.70781 343.879 6.9668 343.711 7.30347C343.542 7.64015 343.458 8.04157 343.458 8.50774V14.7039H340.914ZM363.869 14.937C362.781 14.937 361.83 14.6909 361.014 14.1989C360.198 13.7068 359.564 13.0399 359.11 12.1982C358.657 11.3565 358.431 10.4242 358.431 9.40122C358.431 8.3394 358.657 7.40059 359.11 6.5848C359.577 5.75606 360.205 5.10213 360.994 4.62301C361.797 4.14389 362.691 3.90434 363.675 3.90434C364.504 3.90434 365.229 4.0403 365.85 4.31223C366.485 4.58416 367.022 4.95969 367.463 5.4388C367.903 5.91792 368.239 6.46826 368.473 7.08981C368.706 7.69842 368.822 8.35882 368.822 9.07102C368.822 9.25231 368.809 9.44007 368.783 9.63431C368.77 9.82854 368.738 9.99688 368.686 10.1393H360.528V8.19696H367.249L366.045 9.10987C366.161 8.51421 366.129 7.9833 365.947 7.51713C365.779 7.05096 365.494 6.68192 365.093 6.40998C364.704 6.13805 364.232 6.00209 363.675 6.00209C363.144 6.00209 362.671 6.13805 362.257 6.40998C361.843 6.66897 361.525 7.05744 361.305 7.5754C361.098 8.08042 361.02 8.6955 361.072 9.42065C361.02 10.0681 361.105 10.6443 361.325 11.1493C361.558 11.6414 361.894 12.0234 362.335 12.2953C362.788 12.5673 363.306 12.7032 363.889 12.7032C364.471 12.7032 364.963 12.5802 365.365 12.3342C365.779 12.0882 366.103 11.758 366.336 11.3436L368.395 12.3536C368.188 12.8586 367.864 13.3054 367.424 13.6938C366.983 14.0823 366.459 14.3866 365.85 14.6068C365.255 14.8269 364.594 14.937 363.869 14.937ZM370.751 14.7039V4.13742H373.14V6.21575L372.946 5.8467C373.192 5.21219 373.593 4.73308 374.15 4.40935C374.72 4.07267 375.38 3.90434 376.131 3.90434C376.908 3.90434 377.595 4.07267 378.19 4.40935C378.799 4.74603 379.272 5.21867 379.608 5.82728C379.945 6.42293 380.113 7.11571 380.113 7.9056V14.7039H377.569V8.50774C377.569 8.04157 377.478 7.64015 377.297 7.30347C377.116 6.9668 376.863 6.70781 376.539 6.52653C376.229 6.33229 375.859 6.23517 375.432 6.23517C375.018 6.23517 374.649 6.33229 374.325 6.52653C374.001 6.70781 373.749 6.9668 373.567 7.30347C373.386 7.64015 373.296 8.04157 373.296 8.50774V14.7039H370.751ZM387.082 14.8204C385.891 14.8204 384.965 14.4967 384.304 13.8492C383.657 13.1888 383.333 12.263 383.333 11.0717V6.40998H381.507V4.13742H381.702C382.22 4.13742 382.621 4.00146 382.906 3.72952C383.191 3.45759 383.333 3.06265 383.333 2.54468V1.72889H385.878V4.13742H388.306V6.40998H385.878V10.9357C385.878 11.2853 385.936 11.5831 386.052 11.8292C386.182 12.0752 386.376 12.263 386.635 12.3925C386.907 12.522 387.25 12.5867 387.665 12.5867C387.755 12.5867 387.859 12.5802 387.975 12.5673C388.105 12.5543 388.228 12.5414 388.344 12.5284V14.7039C388.163 14.7298 387.956 14.7557 387.723 14.7816C387.49 14.8075 387.276 14.8204 387.082 14.8204Z" fill="url(#paint0_linear_1_783)"/>
<path d="M118.852 14.937C118.166 14.937 117.557 14.8139 117.026 14.5679C116.508 14.3089 116.1 13.9593 115.802 13.519C115.505 13.0658 115.356 12.5479 115.356 11.9651C115.356 11.4083 115.472 10.9098 115.705 10.4695C115.951 10.0163 116.327 9.63431 116.832 9.32353C117.35 9.01275 117.997 8.79262 118.774 8.66313L122.659 8.02215V9.53719L119.182 10.1199C118.509 10.2364 118.017 10.4501 117.706 10.7609C117.408 11.0717 117.259 11.4537 117.259 11.9069C117.259 12.3342 117.428 12.6903 117.764 12.9752C118.114 13.2601 118.548 13.4025 119.066 13.4025C119.726 13.4025 120.296 13.2665 120.775 12.9946C121.267 12.7097 121.649 12.3277 121.921 11.8486C122.206 11.3695 122.348 10.8386 122.348 10.2559V7.59483C122.348 7.02507 122.135 6.56537 121.707 6.21575C121.293 5.85317 120.743 5.67189 120.056 5.67189C119.461 5.67189 118.93 5.82728 118.463 6.13805C118.01 6.43588 117.674 6.8373 117.453 7.34232L115.88 6.52653C116.074 6.04741 116.385 5.62009 116.812 5.24457C117.24 4.85609 117.738 4.55179 118.308 4.33166C118.878 4.11152 119.473 4.00146 120.095 4.00146C120.898 4.00146 121.604 4.15684 122.212 4.46762C122.821 4.76545 123.293 5.1863 123.63 5.73016C123.98 6.26107 124.155 6.88263 124.155 7.59483V14.7039H122.387V12.7227L122.717 12.8392C122.497 13.2536 122.199 13.6162 121.824 13.9269C121.448 14.2377 121.008 14.4837 120.503 14.665C119.998 14.8463 119.448 14.937 118.852 14.937ZM126.955 14.7039V4.23454H128.723V6.37114L128.47 6.04094C128.729 5.38053 129.144 4.87552 129.714 4.52589C130.283 4.17627 130.924 4.00146 131.636 4.00146C132.452 4.00146 133.184 4.22806 133.831 4.68128C134.492 5.1345 134.945 5.73016 135.191 6.46826L134.686 6.48768C134.958 5.67189 135.418 5.05681 136.065 4.64244C136.713 4.21512 137.431 4.00146 138.221 4.00146C138.946 4.00146 139.6 4.16979 140.183 4.50647C140.779 4.84315 141.251 5.30931 141.601 5.90497C141.95 6.50063 142.125 7.17398 142.125 7.92503V14.7039H140.299V8.50774C140.299 7.92503 140.196 7.43296 139.989 7.03154C139.781 6.63012 139.497 6.31934 139.134 6.09921C138.784 5.86612 138.37 5.74958 137.891 5.74958C137.425 5.74958 137.004 5.86612 136.628 6.09921C136.266 6.31934 135.974 6.63659 135.754 7.05096C135.547 7.45239 135.444 7.93798 135.444 8.50774V14.7039H133.618V8.50774C133.618 7.92503 133.514 7.43296 133.307 7.03154C133.1 6.63012 132.815 6.31934 132.452 6.09921C132.103 5.86612 131.688 5.74958 131.209 5.74958C130.743 5.74958 130.322 5.86612 129.947 6.09921C129.584 6.31934 129.293 6.63659 129.073 7.05096C128.865 7.45239 128.762 7.93798 128.762 8.50774V14.7039H126.955ZM149.663 14.937C148.653 14.937 147.74 14.7039 146.925 14.2377C146.109 13.7586 145.461 13.1047 144.982 12.2759C144.503 11.4472 144.264 10.5084 144.264 9.45949C144.264 8.41062 144.497 7.47828 144.963 6.66249C145.442 5.8467 146.089 5.19925 146.905 4.72013C147.721 4.24101 148.64 4.00146 149.663 4.00146C150.673 4.00146 151.586 4.24101 152.402 4.72013C153.218 5.1863 153.859 5.82728 154.325 6.64307C154.804 7.45886 155.044 8.39767 155.044 9.45949C155.044 10.5213 154.798 11.4666 154.306 12.2953C153.813 13.1111 153.16 13.7586 152.344 14.2377C151.541 14.7039 150.647 14.937 149.663 14.937ZM149.663 13.1888C150.311 13.1888 150.893 13.027 151.411 12.7032C151.942 12.3795 152.357 11.9328 152.655 11.363C152.965 10.7932 153.121 10.1587 153.121 9.45949C153.121 8.74729 152.965 8.11926 152.655 7.5754C152.357 7.01859 151.942 6.57832 151.411 6.2546C150.893 5.91792 150.311 5.74958 149.663 5.74958C149.003 5.74958 148.407 5.91792 147.876 6.2546C147.358 6.57832 146.944 7.01859 146.633 7.5754C146.322 8.11926 146.167 8.74729 146.167 9.45949C146.167 10.1587 146.322 10.7932 146.633 11.363C146.944 11.9328 147.358 12.3795 147.876 12.7032C148.407 13.027 149.003 13.1888 149.663 13.1888ZM157.4 14.7039V4.23454H159.167V6.27402L158.876 6.09921C159.135 5.4388 159.549 4.92731 160.119 4.56474C160.702 4.18922 161.381 4.00146 162.158 4.00146C162.909 4.00146 163.576 4.16979 164.159 4.50647C164.755 4.84315 165.221 5.30931 165.558 5.90497C165.907 6.50063 166.082 7.17398 166.082 7.92503V14.7039H164.256V8.50774C164.256 7.92503 164.153 7.43296 163.945 7.03154C163.738 6.63012 163.44 6.31934 163.052 6.09921C162.676 5.86612 162.243 5.74958 161.751 5.74958C161.258 5.74958 160.818 5.86612 160.43 6.09921C160.054 6.31934 159.756 6.63659 159.536 7.05096C159.316 7.45239 159.206 7.93798 159.206 8.50774V14.7039H157.4ZM173.659 18.9771C172.921 18.9771 172.234 18.8605 171.6 18.6274C170.978 18.3944 170.441 18.0706 169.988 17.6563C169.547 17.2548 169.211 16.7822 168.978 16.2383L170.667 15.4614C170.849 15.9535 171.192 16.3678 171.697 16.7045C172.215 17.0541 172.862 17.2289 173.639 17.2289C174.235 17.2289 174.772 17.1124 175.251 16.8793C175.744 16.6592 176.132 16.3225 176.417 15.8693C176.702 15.429 176.844 14.8916 176.844 14.2571V11.9069L177.174 12.2565C176.812 12.9687 176.287 13.5126 175.601 13.8881C174.928 14.2636 174.183 14.4514 173.367 14.4514C172.383 14.4514 171.503 14.2248 170.726 13.7715C169.949 13.3054 169.34 12.6773 168.9 11.8874C168.46 11.0846 168.24 10.1976 168.24 9.22641C168.24 8.24228 168.46 7.35527 168.9 6.56537C169.34 5.77548 169.942 5.15392 170.706 4.70071C171.483 4.23454 172.364 4.00146 173.348 4.00146C174.164 4.00146 174.902 4.18922 175.562 4.56474C176.236 4.92731 176.773 5.43233 177.174 6.07978L176.902 6.56537V4.23454H178.67V14.2571C178.67 15.1636 178.456 15.9729 178.029 16.6851C177.602 17.3973 177.006 17.9541 176.242 18.3555C175.491 18.7699 174.63 18.9771 173.659 18.9771ZM173.523 12.7032C174.144 12.7032 174.701 12.5479 175.193 12.2371C175.698 11.9263 176.1 11.5119 176.397 10.994C176.695 10.463 176.844 9.87386 176.844 9.22641C176.844 8.59191 176.695 8.0092 176.397 7.47828C176.1 6.94737 175.698 6.52653 175.193 6.21575C174.701 5.90497 174.144 5.74958 173.523 5.74958C172.888 5.74958 172.312 5.90497 171.794 6.21575C171.276 6.52653 170.868 6.94737 170.57 7.47828C170.286 7.99625 170.143 8.57896 170.143 9.22641C170.143 9.87386 170.286 10.463 170.57 10.994C170.868 11.5119 171.27 11.9263 171.775 12.2371C172.293 12.5479 172.875 12.7032 173.523 12.7032ZM189.082 14.8204C188.059 14.8204 187.269 14.5291 186.712 13.9464C186.168 13.3636 185.896 12.5414 185.896 11.4796V5.96324H183.993V4.23454H184.381C184.847 4.23454 185.216 4.0921 185.488 3.80722C185.76 3.52234 185.896 3.14682 185.896 2.68065V1.82601H187.703V4.23454H190.053V5.96324H187.703V11.4213C187.703 11.7709 187.754 12.0752 187.858 12.3342C187.975 12.5932 188.162 12.8004 188.421 12.9557C188.68 13.0982 189.023 13.1694 189.451 13.1694C189.541 13.1694 189.651 13.1629 189.781 13.15C189.923 13.137 190.053 13.1241 190.169 13.1111V14.7039C190.001 14.7427 189.813 14.7686 189.606 14.7816C189.399 14.8075 189.224 14.8204 189.082 14.8204ZM192.529 14.7039V0.000188064H194.335V6.27402L194.005 6.09921C194.264 5.4388 194.679 4.92731 195.248 4.56474C195.831 4.18922 196.511 4.00146 197.288 4.00146C198.039 4.00146 198.706 4.16979 199.289 4.50647C199.884 4.84315 200.35 5.30931 200.687 5.90497C201.037 6.50063 201.211 7.17398 201.211 7.92503V14.7039H199.386V8.50774C199.386 7.92503 199.276 7.43296 199.055 7.03154C198.848 6.63012 198.557 6.31934 198.181 6.09921C197.806 5.86612 197.372 5.74958 196.88 5.74958C196.401 5.74958 195.967 5.86612 195.579 6.09921C195.19 6.31934 194.886 6.63659 194.666 7.05096C194.446 7.45239 194.335 7.93798 194.335 8.50774V14.7039H192.529ZM208.613 14.937C207.603 14.937 206.703 14.6974 205.913 14.2183C205.124 13.7392 204.502 13.0852 204.049 12.2565C203.596 11.4148 203.369 10.476 203.369 9.44007C203.369 8.39119 203.589 7.45886 204.029 6.64307C204.483 5.82728 205.091 5.1863 205.855 4.72013C206.632 4.24101 207.5 4.00146 208.458 4.00146C209.235 4.00146 209.921 4.1439 210.517 4.42877C211.125 4.70071 211.637 5.07623 212.051 5.55535C212.479 6.02151 212.802 6.5589 213.023 7.16751C213.256 7.76316 213.372 8.38472 213.372 9.03217C213.372 9.17461 213.359 9.33648 213.333 9.51776C213.32 9.6861 213.301 9.84797 213.275 10.0034H204.69V8.44947H212.226L211.372 9.14872C211.488 8.47536 211.423 7.87323 211.177 7.34232C210.931 6.81141 210.569 6.39056 210.09 6.07978C209.61 5.769 209.067 5.61362 208.458 5.61362C207.849 5.61362 207.293 5.769 206.788 6.07978C206.283 6.39056 205.888 6.8373 205.603 7.42001C205.331 7.98977 205.221 8.6696 205.273 9.45949C205.221 10.2235 205.337 10.8968 205.622 11.4796C205.92 12.0493 206.334 12.4961 206.865 12.8198C207.409 13.1306 207.998 13.2859 208.633 13.2859C209.332 13.2859 209.921 13.1241 210.4 12.8004C210.879 12.4766 211.268 12.0623 211.566 11.5572L213.081 12.3342C212.874 12.8133 212.55 13.2536 212.11 13.655C211.682 14.0435 211.171 14.3542 210.575 14.5873C209.992 14.8204 209.339 14.937 208.613 14.937ZM397.608 14.937C396.559 14.937 395.646 14.678 394.87 14.16C394.093 13.642 393.542 12.9428 393.219 12.0623L394.656 11.363C394.954 11.9846 395.362 12.4766 395.88 12.8392C396.398 13.2018 396.974 13.3831 397.608 13.3831C398.178 13.3831 398.651 13.2471 399.026 12.9752C399.402 12.7032 399.589 12.3471 399.589 11.9069C399.589 11.5961 399.499 11.3501 399.318 11.1688C399.149 10.9745 398.942 10.8256 398.696 10.722C398.45 10.6055 398.223 10.5213 398.016 10.4695L396.443 10.0228C395.498 9.75085 394.805 9.36238 394.365 8.85736C393.937 8.35235 393.724 7.76316 393.724 7.08981C393.724 6.46826 393.879 5.93087 394.19 5.47765C394.513 5.01148 394.947 4.64891 395.491 4.38993C396.048 4.13095 396.669 4.00146 397.356 4.00146C398.275 4.00146 399.097 4.23454 399.823 4.70071C400.561 5.16687 401.085 5.8208 401.396 6.66249L399.92 7.34232C399.687 6.79846 399.337 6.37114 398.871 6.06036C398.405 5.73663 397.88 5.57477 397.298 5.57477C396.767 5.57477 396.346 5.71073 396.035 5.98266C395.724 6.24165 395.569 6.57185 395.569 6.97327C395.569 7.2711 395.646 7.51713 395.802 7.71137C395.957 7.89265 396.145 8.03509 396.365 8.13869C396.585 8.22933 396.799 8.30703 397.006 8.37177L398.715 8.87679C399.57 9.12282 400.23 9.50482 400.697 10.0228C401.176 10.5407 401.415 11.1623 401.415 11.8874C401.415 12.4702 401.253 12.9946 400.93 13.4608C400.606 13.9269 400.159 14.2895 399.589 14.5485C399.02 14.8075 398.359 14.937 397.608 14.937ZM408.597 14.937C407.587 14.937 406.687 14.6974 405.897 14.2183C405.107 13.7392 404.486 13.0852 404.033 12.2565C403.579 11.4148 403.353 10.476 403.353 9.44007C403.353 8.39119 403.573 7.45886 404.013 6.64307C404.466 5.82728 405.075 5.1863 405.839 4.72013C406.616 4.24101 407.483 4.00146 408.442 4.00146C409.219 4.00146 409.905 4.1439 410.501 4.42877C411.109 4.70071 411.621 5.07623 412.035 5.55535C412.462 6.02151 412.786 6.5589 413.006 7.16751C413.239 7.76316 413.356 8.38472 413.356 9.03217C413.356 9.17461 413.343 9.33648 413.317 9.51776C413.304 9.6861 413.285 9.84797 413.259 10.0034H404.673V8.44947H412.21L411.355 9.14872C411.472 8.47536 411.407 7.87323 411.161 7.34232C410.915 6.81141 410.552 6.39056 410.073 6.07978C409.594 5.769 409.05 5.61362 408.442 5.61362C407.833 5.61362 407.276 5.769 406.771 6.07978C406.266 6.39056 405.871 6.8373 405.586 7.42001C405.314 7.98977 405.204 8.6696 405.256 9.45949C405.204 10.2235 405.321 10.8968 405.606 11.4796C405.904 12.0493 406.318 12.4961 406.849 12.8198C407.393 13.1306 407.982 13.2859 408.616 13.2859C409.316 13.2859 409.905 13.1241 410.384 12.8004C410.863 12.4766 411.252 12.0623 411.549 11.5572L413.064 12.3342C412.857 12.8133 412.534 13.2536 412.093 13.655C411.666 14.0435 411.155 14.3542 410.559 14.5873C409.976 14.8204 409.322 14.937 408.597 14.937ZM415.711 14.7039V4.23454H417.479V6.15748L417.284 5.88555C417.53 5.28989 417.906 4.84962 418.411 4.56474C418.916 4.26691 419.531 4.118 420.256 4.118H420.897V5.82728H419.984C419.246 5.82728 418.651 6.06036 418.197 6.52653C417.744 6.97974 417.518 7.6272 417.518 8.46889V14.7039H415.711ZM425.415 14.7039L421.317 4.23454H423.337L426.62 13.0917H425.92L429.222 4.23454H431.242L427.125 14.7039H425.415ZM432.859 14.7039V4.23454H434.665V14.7039H432.859ZM432.859 2.56411V0.233271H434.665V2.56411H432.859ZM442.324 14.937C441.301 14.937 440.388 14.6974 439.585 14.2183C438.795 13.7392 438.174 13.0852 437.72 12.2565C437.267 11.4278 437.041 10.4954 437.041 9.45949C437.041 8.41062 437.267 7.47828 437.72 6.66249C438.174 5.8467 438.795 5.19925 439.585 4.72013C440.388 4.24101 441.301 4.00146 442.324 4.00146C443.01 4.00146 443.651 4.12447 444.247 4.3705C444.842 4.61654 445.367 4.94674 445.82 5.36111C446.273 5.77548 446.603 6.26107 446.811 6.81788L445.198 7.59483C444.952 7.05096 444.577 6.6107 444.072 6.27402C443.567 5.92439 442.984 5.74958 442.324 5.74958C441.689 5.74958 441.113 5.91144 440.595 6.23517C440.09 6.5589 439.689 6.99917 439.391 7.55598C439.093 8.11279 438.944 8.75377 438.944 9.47892C438.944 10.1782 439.093 10.8127 439.391 11.3824C439.689 11.9392 440.09 12.3795 440.595 12.7032C441.113 13.027 441.689 13.1888 442.324 13.1888C442.984 13.1888 443.567 13.0205 444.072 12.6838C444.577 12.3342 444.952 11.8745 445.198 11.3047L446.811 12.1205C446.603 12.6644 446.273 13.15 445.82 13.5773C445.367 13.9917 444.842 14.3219 444.247 14.5679C443.651 14.8139 443.01 14.937 442.324 14.937ZM453.988 14.937C452.978 14.937 452.078 14.6974 451.289 14.2183C450.499 13.7392 449.877 13.0852 449.424 12.2565C448.971 11.4148 448.744 10.476 448.744 9.44007C448.744 8.39119 448.964 7.45886 449.404 6.64307C449.858 5.82728 450.466 5.1863 451.23 4.72013C452.007 4.24101 452.875 4.00146 453.833 4.00146C454.61 4.00146 455.296 4.1439 455.892 4.42877C456.501 4.70071 457.012 5.07623 457.426 5.55535C457.854 6.02151 458.177 6.5589 458.398 7.16751C458.631 7.76316 458.747 8.38472 458.747 9.03217C458.747 9.17461 458.734 9.33648 458.708 9.51776C458.695 9.6861 458.676 9.84797 458.65 10.0034H450.065V8.44947H457.601L456.747 9.14872C456.863 8.47536 456.798 7.87323 456.552 7.34232C456.306 6.81141 455.944 6.39056 455.465 6.07978C454.985 5.769 454.442 5.61362 453.833 5.61362C453.224 5.61362 452.668 5.769 452.163 6.07978C451.658 6.39056 451.263 6.8373 450.978 7.42001C450.706 7.98977 450.596 8.6696 450.648 9.45949C450.596 10.2235 450.712 10.8968 450.997 11.4796C451.295 12.0493 451.709 12.4961 452.24 12.8198C452.784 13.1306 453.373 13.2859 454.008 13.2859C454.707 13.2859 455.296 13.1241 455.775 12.8004C456.255 12.4766 456.643 12.0623 456.941 11.5572L458.456 12.3342C458.249 12.8133 457.925 13.2536 457.485 13.655C457.057 14.0435 456.546 14.3542 455.95 14.5873C455.367 14.8204 454.714 14.937 453.988 14.937ZM464.46 18.5886V4.23454H466.227V6.48768L465.994 6.04094C466.383 5.41938 466.914 4.92731 467.587 4.56474C468.26 4.18922 469.031 4.00146 469.898 4.00146C470.883 4.00146 471.763 4.24101 472.54 4.72013C473.33 5.19925 473.952 5.85317 474.405 6.68192C474.858 7.49771 475.085 8.43004 475.085 9.47892C475.085 10.5019 474.858 11.4278 474.405 12.2565C473.952 13.0852 473.33 13.7392 472.54 14.2183C471.763 14.6974 470.876 14.937 469.879 14.937C469.037 14.937 468.267 14.7492 467.568 14.3737C466.881 13.9981 466.35 13.4672 465.975 12.7809L466.266 12.4702V18.5886H464.46ZM469.743 13.1888C470.403 13.1888 470.993 13.027 471.511 12.7032C472.029 12.3795 472.43 11.9392 472.715 11.3824C473.013 10.8127 473.162 10.1782 473.162 9.47892C473.162 8.75377 473.013 8.11926 472.715 7.5754C472.43 7.01859 472.029 6.57832 471.511 6.2546C470.993 5.91792 470.403 5.74958 469.743 5.74958C469.083 5.74958 468.487 5.91144 467.956 6.23517C467.438 6.5589 467.024 7.00564 466.713 7.5754C466.415 8.13221 466.266 8.76672 466.266 9.47892C466.266 10.1782 466.415 10.8127 466.713 11.3824C467.024 11.9392 467.438 12.3795 467.956 12.7032C468.487 13.027 469.083 13.1888 469.743 13.1888ZM477.453 14.7039V4.23454H479.221V6.15748L479.027 5.88555C479.273 5.28989 479.648 4.84962 480.153 4.56474C480.658 4.26691 481.273 4.118 481.998 4.118H482.639V5.82728H481.726C480.988 5.82728 480.393 6.06036 479.939 6.52653C479.486 6.97974 479.26 7.6272 479.26 8.46889V14.7039H477.453ZM489.216 14.937C488.206 14.937 487.293 14.7039 486.478 14.2377C485.662 13.7586 485.014 13.1047 484.535 12.2759C484.056 11.4472 483.817 10.5084 483.817 9.45949C483.817 8.41062 484.05 7.47828 484.516 6.66249C484.995 5.8467 485.642 5.19925 486.458 4.72013C487.274 4.24101 488.193 4.00146 489.216 4.00146C490.226 4.00146 491.139 4.24101 491.955 4.72013C492.771 5.1863 493.412 5.82728 493.878 6.64307C494.357 7.45886 494.597 8.39767 494.597 9.45949C494.597 10.5213 494.351 11.4666 493.859 12.2953C493.367 13.1111 492.713 13.7586 491.897 14.2377C491.094 14.7039 490.2 14.937 489.216 14.937ZM489.216 13.1888C489.864 13.1888 490.447 13.027 490.964 12.7032C491.495 12.3795 491.91 11.9328 492.208 11.363C492.518 10.7932 492.674 10.1587 492.674 9.45949C492.674 8.74729 492.518 8.11926 492.208 7.5754C491.91 7.01859 491.495 6.57832 490.964 6.2546C490.447 5.91792 489.864 5.74958 489.216 5.74958C488.556 5.74958 487.96 5.91792 487.429 6.2546C486.911 6.57832 486.497 7.01859 486.186 7.5754C485.875 8.11926 485.72 8.74729 485.72 9.45949C485.72 10.1587 485.875 10.7932 486.186 11.363C486.497 11.9328 486.911 12.3795 487.429 12.7032C487.96 13.027 488.556 13.1888 489.216 13.1888ZM499.677 14.7039L495.578 4.23454H497.598L500.881 13.0917H500.182L503.484 4.23454H505.504L501.386 14.7039H499.677ZM507.12 14.7039V4.23454H508.926V14.7039H507.12ZM507.12 2.56411V0.233271H508.926V2.56411H507.12ZM516.488 14.937C515.504 14.937 514.617 14.6974 513.827 14.2183C513.05 13.7392 512.435 13.0852 511.982 12.2565C511.528 11.4278 511.302 10.5019 511.302 9.47892C511.302 8.43004 511.528 7.49771 511.982 6.68192C512.435 5.85317 513.05 5.19925 513.827 4.72013C514.617 4.24101 515.504 4.00146 516.488 4.00146C517.355 4.00146 518.126 4.18922 518.799 4.56474C519.473 4.92731 520.004 5.41938 520.392 6.04094L520.101 6.48768V0.000188064H521.926V14.7039H520.159V12.4702L520.392 12.7809C520.029 13.4672 519.499 13.9981 518.799 14.3737C518.113 14.7492 517.342 14.937 516.488 14.937ZM516.643 13.1888C517.304 13.1888 517.893 13.027 518.411 12.7032C518.929 12.3795 519.337 11.9392 519.634 11.3824C519.945 10.8127 520.101 10.1782 520.101 9.47892C520.101 8.76672 519.945 8.13221 519.634 7.5754C519.337 7.00564 518.929 6.5589 518.411 6.23517C517.893 5.91144 517.304 5.74958 516.643 5.74958C515.996 5.74958 515.407 5.91792 514.876 6.2546C514.358 6.57832 513.95 7.01859 513.652 7.5754C513.354 8.11926 513.205 8.75377 513.205 9.47892C513.205 10.1782 513.354 10.8127 513.652 11.3824C513.95 11.9392 514.358 12.3795 514.876 12.7032C515.394 13.027 515.983 13.1888 516.643 13.1888ZM529.539 14.937C528.529 14.937 527.629 14.6974 526.84 14.2183C526.05 13.7392 525.428 13.0852 524.975 12.2565C524.522 11.4148 524.295 10.476 524.295 9.44007C524.295 8.39119 524.515 7.45886 524.955 6.64307C525.409 5.82728 526.017 5.1863 526.781 4.72013C527.558 4.24101 528.426 4.00146 529.384 4.00146C530.161 4.00146 530.847 4.1439 531.443 4.42877C532.052 4.70071 532.563 5.07623 532.977 5.55535C533.405 6.02151 533.728 6.5589 533.949 7.16751C534.182 7.76316 534.298 8.38472 534.298 9.03217C534.298 9.17461 534.285 9.33648 534.259 9.51776C534.246 9.6861 534.227 9.84797 534.201 10.0034H525.616V8.44947H533.152L532.298 9.14872C532.414 8.47536 532.349 7.87323 532.103 7.34232C531.857 6.81141 531.495 6.39056 531.016 6.07978C530.537 5.769 529.993 5.61362 529.384 5.61362C528.775 5.61362 528.219 5.769 527.714 6.07978C527.209 6.39056 526.814 6.8373 526.529 7.42001C526.257 7.98977 526.147 8.6696 526.199 9.45949C526.147 10.2235 526.263 10.8968 526.548 11.4796C526.846 12.0493 527.26 12.4961 527.791 12.8198C528.335 13.1306 528.924 13.2859 529.559 13.2859C530.258 13.2859 530.847 13.1241 531.326 12.8004C531.806 12.4766 532.194 12.0623 532.492 11.5572L534.007 12.3342C533.8 12.8133 533.476 13.2536 533.036 13.655C532.608 14.0435 532.097 14.3542 531.501 14.5873C530.919 14.8204 530.265 14.937 529.539 14.937ZM536.654 14.7039V4.23454H538.421V6.15748L538.227 5.88555C538.473 5.28989 538.848 4.84962 539.353 4.56474C539.858 4.26691 540.473 4.118 541.199 4.118H541.84V5.82728H540.927C540.189 5.82728 539.593 6.06036 539.14 6.52653C538.687 6.97974 538.46 7.6272 538.46 8.46889V14.7039H536.654ZM547.193 14.937C546.144 14.937 545.231 14.678 544.454 14.16C543.677 13.642 543.127 12.9428 542.803 12.0623L544.241 11.363C544.538 11.9846 544.946 12.4766 545.464 12.8392C545.982 13.2018 546.558 13.3831 547.193 13.3831C547.763 13.3831 548.235 13.2471 548.611 12.9752C548.986 12.7032 549.174 12.3471 549.174 11.9069C549.174 11.5961 549.084 11.3501 548.902 11.1688C548.734 10.9745 548.527 10.8256 548.281 10.722C548.035 10.6055 547.808 10.5213 547.601 10.4695L546.028 10.0228C545.082 9.75085 544.39 9.36238 543.949 8.85736C543.522 8.35235 543.308 7.76316 543.308 7.08981C543.308 6.46826 543.464 5.93087 543.774 5.47765C544.098 5.01148 544.532 4.64891 545.076 4.38993C545.633 4.13095 546.254 4.00146 546.94 4.00146C547.86 4.00146 548.682 4.23454 549.407 4.70071C550.145 5.16687 550.67 5.8208 550.981 6.66249L549.504 7.34232C549.271 6.79846 548.922 6.37114 548.456 6.06036C547.989 5.73663 547.465 5.57477 546.882 5.57477C546.351 5.57477 545.93 5.71073 545.62 5.98266C545.309 6.24165 545.154 6.57185 545.154 6.97327C545.154 7.2711 545.231 7.51713 545.387 7.71137C545.542 7.89265 545.73 8.03509 545.95 8.13869C546.17 8.22933 546.384 8.30703 546.591 8.37177L548.3 8.87679C549.155 9.12282 549.815 9.50482 550.281 10.0228C550.76 10.5407 551 11.1623 551 11.8874C551 12.4702 550.838 12.9946 550.514 13.4608C550.191 13.9269 549.744 14.2895 549.174 14.5485C548.604 14.8075 547.944 14.937 547.193 14.937Z" fill="black"/>
<defs>
<linearGradient id="paint0_linear_1_783" x1="552.016" y1="6.69788" x2="-1.39851" y2="6.69788" gradientUnits="userSpaceOnUse">
<stop stop-color="#F3AA45"/>
<stop offset="1" stop-color="#ED2628"/>
</linearGradient>
</defs>
</svg>
