<svg width="85" height="85" viewBox="0 0 85 85" fill="none" xmlns="http://www.w3.org/2000/svg">
<path d="M44.7564 26.8902V26.8266C44.7564 26.4942 44.6243 26.1753 44.3893 25.9402C44.1542 25.7051 43.8353 25.5731 43.5028 25.5731C43.1704 25.5731 42.8515 25.7051 42.6164 25.9402C42.3813 26.1753 42.2493 26.4942 42.2493 26.8266V26.8902C38.1599 27.2083 34.3405 29.0557 31.5525 32.0642C28.7645 35.0728 27.2127 39.0215 27.2063 43.1232V44.3768C27.2063 44.7093 27.3383 45.0281 27.5734 45.2632C27.8085 45.4983 28.1274 45.6304 28.4599 45.6304C28.7923 45.6304 29.1112 45.4983 29.3463 45.2632C29.5814 45.0281 29.7134 44.7093 29.7134 44.3768C29.7134 43.3794 30.1097 42.4228 30.8149 41.7175C31.5202 41.0123 32.4768 40.616 33.4742 40.616C34.4716 40.616 35.4282 41.0123 36.1334 41.7175C36.8387 42.4228 37.2349 43.3794 37.2349 44.3768C37.2349 44.7093 37.367 45.0281 37.6021 45.2632C37.8372 45.4983 38.156 45.6304 38.4885 45.6304C38.821 45.6304 39.1398 45.4983 39.3749 45.2632C39.61 45.0281 39.7421 44.7093 39.7421 44.3768C39.7421 43.3794 40.1383 42.4228 40.8436 41.7175C41.5489 41.0123 42.5054 40.616 43.5028 40.616C44.5002 40.616 45.4568 41.0123 46.1621 41.7175C46.8674 42.4228 47.2636 43.3794 47.2636 44.3768C47.2636 44.7093 47.3957 45.0281 47.6307 45.2632C47.8658 45.4983 48.1847 45.6304 48.5172 45.6304C48.8496 45.6304 49.1685 45.4983 49.4036 45.2632C49.6387 45.0281 49.7707 44.7093 49.7707 44.3768C49.7707 43.3794 50.167 42.4228 50.8722 41.7175C51.5775 41.0123 52.5341 40.616 53.5315 40.616C54.5289 40.616 55.4855 41.0123 56.1907 41.7175C56.896 42.4228 57.2922 43.3794 57.2922 44.3768C57.2922 44.7093 57.4243 45.0281 57.6594 45.2632C57.8945 45.4983 58.2133 45.6304 58.5458 45.6304C58.8783 45.6304 59.1971 45.4983 59.4322 45.2632C59.6673 45.0281 59.7994 44.7093 59.7994 44.3768V43.1232C59.793 39.0215 58.2412 35.0728 55.4532 32.0642C52.6652 29.0557 48.8458 27.2083 44.7564 26.8902Z" fill="#EE3B3D"/>
<path d="M43.5028 43.1232C43.0748 43.1275 42.6507 43.2056 42.2493 43.3542V56.9126C42.2493 57.2451 42.1172 57.5639 41.8821 57.799C41.647 58.0341 41.3281 58.1662 40.9957 58.1662C40.6632 58.1662 40.3443 58.0341 40.1093 57.799C39.8742 57.5639 39.7421 57.2451 39.7421 56.9126V55.659C39.7421 55.3266 39.61 55.0077 39.3749 54.7726C39.1398 54.5375 38.821 54.4054 38.4885 54.4054C38.156 54.4054 37.8372 54.5375 37.6021 54.7726C37.367 55.0077 37.2349 55.3266 37.2349 55.659V56.9126C37.2349 57.91 37.6311 58.8666 38.3364 59.5719C39.0417 60.2771 39.9983 60.6734 40.9957 60.6734C41.9931 60.6734 42.9496 60.2771 43.6549 59.5719C44.3602 58.8666 44.7564 57.91 44.7564 56.9126V43.3542C44.355 43.2056 43.9309 43.1275 43.5028 43.1232Z" fill="black"/>
</svg>
