<svg width="85" height="85" viewBox="0 0 85 85" fill="none" xmlns="http://www.w3.org/2000/svg">
<path d="M58.2584 44.9274C55.2625 44.4753 52.7525 42.5484 51.489 39.9074C51.4467 39.9116 51.4087 39.9116 51.3707 39.9116C46.3971 39.9116 42.3744 35.8846 42.3744 30.9195C42.3744 29.8589 42.5603 28.8405 42.8983 27.894C43.2279 26.977 42.5941 25.984 41.618 25.9797H41.525C31.1173 25.9797 22.7591 34.7775 23.4901 45.3415C24.1197 54.4393 31.6159 61.7284 40.7264 62.1214C50.2509 62.5313 58.2331 55.5717 59.45 46.4697C59.5515 45.7218 59.0064 45.0373 58.2584 44.9274ZM30.8638 48.4178C30.699 48.5741 30.4877 48.6502 30.2807 48.6502C30.0567 48.6502 29.8327 48.5656 29.6679 48.3924L28.396 47.0613C28.0749 46.7233 28.0876 46.1866 28.4256 45.8655C28.7636 45.5443 29.3003 45.557 29.6215 45.8951L30.8891 47.2219C31.2145 47.5599 31.2018 48.0966 30.8638 48.4178ZM33.2259 40.1863C32.1019 40.1863 31.1849 39.2735 31.1849 38.1453C31.1849 37.0213 32.1019 36.1043 33.2259 36.1043C34.3541 36.1043 35.2669 37.0213 35.2669 38.1453C35.2669 39.2735 34.3541 40.1863 33.2259 40.1863ZM36.8684 30.2983L38.2502 29.9391C38.7023 29.8208 39.1629 30.0871 39.2812 30.5392C39.4037 30.9913 39.1333 31.4519 38.6812 31.5702L37.2952 31.9336C37.2233 31.9548 37.1515 31.9632 37.0839 31.9632C36.7078 31.9632 36.3655 31.7097 36.2641 31.3336C36.1458 30.8815 36.4162 30.4166 36.8684 30.2983ZM38.4657 58.555C37.3501 58.555 36.4458 57.6507 36.4458 56.5351C36.4458 55.4238 37.3501 54.5195 38.4657 54.5195C39.5812 54.5195 40.4855 55.4238 40.4855 56.5351C40.4855 57.6507 39.5812 58.555 38.4657 58.555ZM42.9617 45.8359C42.8434 46.1866 42.5138 46.4064 42.1631 46.4064C42.0701 46.4064 41.9814 46.3937 41.8926 46.3641L40.2108 45.7936C39.7714 45.6457 39.5347 45.1683 39.6826 44.7246C39.8348 44.2809 40.3123 44.0442 40.7559 44.1964L42.4335 44.7626C42.873 44.9105 43.1138 45.3922 42.9617 45.8359ZM46.9718 47.4205C46.9718 46.3937 47.8043 45.5612 48.8311 45.5612C49.8579 45.5612 50.6904 46.3937 50.6904 47.4205C50.6904 48.4473 49.8579 49.2798 48.8311 49.2798C47.8043 49.2798 46.9718 48.4473 46.9718 47.4205ZM52.22 56.5351C52.0552 56.7211 51.827 56.8141 51.5946 56.8141C51.3918 56.8141 51.189 56.7422 51.0284 56.5985L50.1241 55.7788C49.7776 55.4661 49.7523 54.9336 50.065 54.5871C50.3777 54.2406 50.9143 54.2153 51.2566 54.528L52.1609 55.3435C52.5074 55.6562 52.5369 56.1886 52.22 56.5351Z" fill="#EE3B3D"/>
<path d="M50.6693 29.9984C52.275 29.3942 53.9356 27.7039 54.0878 27.0532C54.4596 25.4686 52.5581 24.1079 50.6693 24.1079C48.7804 24.1079 47.2507 25.4263 47.2507 27.0532C47.2507 28.6801 48.8987 30.6576 50.6693 29.9984Z" fill="black"/>
<path d="M56.7921 33.3577C55.6977 33.9916 55.0089 35.872 56.1414 36.8058C57.1682 37.651 58.9556 38.1073 59.45 37.9594C60.6585 37.5918 60.836 35.7832 60.1008 34.5113C59.3655 33.2436 57.8865 32.7239 56.7921 33.3577Z" fill="black"/>
<path d="M60.1515 26.0897C59.374 26.0897 58.7444 26.7193 58.7444 27.4926C58.7444 28.2701 59.374 28.8997 60.1515 28.8997C60.9248 28.8997 61.5544 28.2701 61.5544 27.4926C61.5544 26.7193 60.9248 26.0897 60.1515 26.0897Z" fill="black"/>
</svg>
