<svg width="85" height="85" viewBox="0 0 85 85" fill="none" xmlns="http://www.w3.org/2000/svg">
<g clip-path="url(#clip0_1_667)">
<path d="M48.1705 33.1344C48.0541 33.5536 47.9061 34.0942 48.1083 34.7684L48.1024 34.7714C47.8917 34.8767 47.729 35.0662 47.6557 35.2912C47.5813 35.5196 47.6009 35.7624 47.7095 35.9722L48.3316 37.1885C47.9267 37.4319 47.7523 37.9373 47.9175 38.4159L49.5856 43.2498C49.719 43.6336 50.0152 43.9421 50.3983 44.0961C50.5791 44.1688 50.7701 44.2048 50.9611 44.2048C51.1991 44.2048 51.4371 44.1488 51.6551 44.0376L54.3567 42.6562C54.7308 42.4654 55.009 42.1252 55.12 41.7229C55.2299 41.3248 55.1668 40.8955 54.9469 40.5451L52.244 36.2365C51.9657 35.8017 51.4356 35.6349 50.9906 35.8289L50.3672 34.6099C50.2588 34.4005 50.0756 34.2448 49.8515 34.1715C49.6586 34.1084 49.4555 34.1132 49.2703 34.1817C49.252 33.9561 49.3103 33.7447 49.3861 33.4716C49.4632 33.1934 49.5507 32.8781 49.5507 32.5086C49.5507 29.5825 47.1701 27.2019 44.2439 27.2019H41.3605C41.3167 26.7218 40.9123 26.3443 40.421 26.3443H38.7363C38.417 25.7527 37.8829 25.2931 37.2379 25.0727V24.409C37.2379 23.6694 36.6344 23.0659 35.897 23.0659H27.3891C27.2166 23.0659 27.0805 23.2111 27.0941 23.3835L27.1327 23.8577C27.1599 24.2003 27.3959 24.4748 27.7316 24.5542L33.8335 25.9888L27.3048 28.8663C26.986 29.0068 26.8415 29.3791 26.982 29.6979C27.086 29.9339 27.3171 30.0744 27.5595 30.0744C27.6445 30.0744 27.7309 30.0571 27.8136 30.0207L33.6915 27.43C33.683 27.5548 33.6828 27.6818 33.6921 27.8106C33.7323 28.365 33.9447 28.8745 34.2748 29.2864V31.5131C31.5916 32.1875 29.5988 34.6196 29.5988 37.5091V57.6401H43.4272V37.5091C43.4272 34.5186 41.2929 32.0178 38.4676 31.4486V29.3188H40.421C40.9116 29.3188 41.3155 28.9425 41.3604 28.4634H44.2439C46.4745 28.4634 48.2892 30.2781 48.2892 32.5086C48.2892 32.7064 48.2342 32.9047 48.1705 33.1344ZM40.9021 37.5091C40.9021 37.8574 40.6197 38.1398 40.2713 38.1398C39.9229 38.1398 39.6405 37.8574 39.6405 37.5091C39.6405 36.1868 38.5658 35.111 37.2447 35.111C36.8963 35.111 36.614 34.8286 36.614 34.4802C36.614 34.1318 36.8963 33.8495 37.2447 33.8495C39.2614 33.8495 40.9021 35.4911 40.9021 37.5091Z" fill="black"/>
<path d="M29.5988 60.0451C29.5988 61.774 31.0044 63.1806 32.732 63.1806H40.2917C42.0206 63.1806 43.4272 61.774 43.4272 60.0451V58.9017H29.5988V60.0451Z" fill="#EE3B3D"/>
<path d="M58.5184 51.5197L58.5103 51.5094C58.3265 51.2795 58.0327 51.1727 57.7443 51.2305L57.7207 51.2356C57.4321 51.305 57.2101 51.5261 57.1397 51.8196C57.0829 52.0681 57.0097 52.2974 56.9211 52.5061C57.0326 50.7368 56.8001 49.2399 56.2191 47.9625C55.5622 46.5184 54.5643 45.5798 53.5845 44.7811C53.328 44.5714 52.9661 44.5482 52.6829 44.7227C52.3914 44.9008 52.2521 45.2399 52.3347 45.5704C52.6844 47.0231 51.5822 48.3521 50.3061 49.8907C48.8758 51.6154 47.2546 53.5702 47.2184 56.2649C47.1701 59.9622 49.7542 62.1596 50.8682 62.9333C51.1783 63.1479 51.5968 63.1096 51.8638 62.8426L51.8737 62.8326C52.1355 62.5588 52.1637 62.1387 51.9426 61.8364C51.1218 60.7013 50.9303 59.5455 51.3518 58.017C51.3787 58.0571 51.4062 58.0966 51.4342 58.1353C51.6389 58.424 52.0117 58.5366 52.343 58.4109C52.6735 58.288 52.8793 57.9585 52.8441 57.6045C52.7129 56.3166 52.9479 55.2175 53.5967 54.1546C53.9007 55.2154 54.4785 56.0107 55.0039 56.7338C56.0622 58.1901 56.8268 59.2424 55.2359 62.0047C55.0426 62.3309 55.1167 62.7542 55.4074 62.9957C55.5529 63.1188 55.7311 63.1804 55.909 63.1804C56.0839 63.1804 56.2585 63.1209 56.4015 63.0018C60.6575 59.5022 61.4291 55.3172 58.5184 51.5197Z" fill="#EE3B3D"/>
</g>
<defs>
<clipPath id="clip0_1_667">
<rect width="40" height="40" fill="white" transform="translate(23.4455 23.0659) scale(1.00287)"/>
</clipPath>
</defs>
</svg>
