<svg width="85" height="85" viewBox="0 0 85 85" fill="none" xmlns="http://www.w3.org/2000/svg">
<path d="M40.5255 60.9303C40.5255 61.5822 41.0521 62.1024 41.6976 62.1024H45.7279C46.3735 62.1024 46.9 61.5822 46.9 60.9303V48.1689H40.5255V60.9303Z" fill="#EE3B3D"/>
<path d="M36.3386 35.1441H51.0933V38.0274H36.3386V35.1441Z" fill="black"/>
<path d="M40.3125 46.9843H47.1131L50.7485 39.2121H36.6833L40.3125 46.9843Z" fill="black"/>
<path d="M43.3774 32.0918C43.7034 32.0918 43.9729 31.8285 43.9729 31.4963V24.7333C43.9729 24.4073 43.7096 24.1378 43.3774 24.1378C43.0515 24.1378 42.782 24.4011 42.782 24.7333V31.4963C42.7883 31.8223 43.0515 32.0918 43.3774 32.0918Z" fill="black"/>
<path d="M37.9557 32.0918C38.0497 32.0918 38.1437 32.073 38.2315 32.0228C38.5198 31.8724 38.6326 31.5151 38.4822 31.2205L35.3545 25.2284C35.2041 24.9401 34.8406 24.8273 34.5522 24.9777C34.2639 25.1281 34.1511 25.4854 34.3015 25.78L37.4292 31.7721C37.5358 31.9727 37.7426 32.0918 37.9557 32.0918Z" fill="black"/>
<path d="M52.422 24.8774C52.1212 24.7457 51.7702 24.8774 51.6386 25.1719L48.8681 31.3396C48.7365 31.6404 48.8681 31.9914 49.1627 32.1231C49.2442 32.1607 49.3257 32.1732 49.4072 32.1732C49.6328 32.1732 49.8522 32.0416 49.9462 31.8222L52.7166 25.6546C52.8545 25.36 52.7229 25.009 52.422 24.8774Z" fill="black"/>
</svg>
