<svg width="85" height="85" viewBox="0 0 85 85" fill="none" xmlns="http://www.w3.org/2000/svg">
<path d="M44.9312 35.2462C44.9312 34.5958 44.4024 34.0671 43.7521 34.0671H29.408C28.7577 34.0671 28.2289 34.5958 28.2289 35.2462V36.0363H44.9312V35.2462Z" fill="black"/>
<path d="M33.6322 25.8131C33.6322 24.9622 32.9454 24.2754 32.0945 24.2754H31.9973C31.1463 24.2754 30.4595 24.9622 30.4595 25.8131V32.8879H33.6383V25.8131H33.6322Z" fill="black"/>
<path d="M42.7127 25.8131C42.7127 24.9622 42.0259 24.2754 41.1749 24.2754H41.0777C40.2268 24.2754 39.54 24.9622 39.54 25.8131V32.8879H42.7188V25.8131H42.7127Z" fill="black"/>
<path d="M51.9573 33.1798V40.4369C51.9573 41.0872 52.4861 41.616 53.1364 41.616H57.7496C58.3999 41.616 58.9287 41.0872 58.9287 40.4369V33.1798H51.9573Z" fill="black"/>
<path d="M53.4646 29.1561H57.4153V32.0005H53.4646V29.1561Z" fill="black"/>
<path d="M47.0889 51.8451V38.3885C47.0889 37.7381 46.5601 37.2093 45.9097 37.2093H27.2564C26.6061 37.2093 26.0773 37.7381 26.0773 38.3885V51.8451C26.0773 53.7961 27.6576 55.3825 29.6147 55.3825H43.5576C45.5025 55.3825 47.0889 53.7961 47.0889 51.8451ZM35.2915 53.4193L36.0938 47.3839H33.1156L36.4524 40.3456H39.5096L37.3763 45.0499H40.0323L35.2915 53.4193Z" fill="#EE3B3D"/>
<path d="M54.2852 55.3824C54.2852 57.7406 52.3645 59.6613 50.0063 59.6613H41.406C39.4549 59.6613 37.8078 58.3484 37.2912 56.5554H34.9208C35.4799 59.6309 38.1725 61.9709 41.406 61.9709H50.0002C53.6348 61.9709 56.5948 59.0109 56.5948 55.3763V42.7949H54.2791V55.3824H54.2852Z" fill="black"/>
</svg>
