<svg width="85" height="85" viewBox="0 0 85 85" fill="none" xmlns="http://www.w3.org/2000/svg">
<g clip-path="url(#clip0_1_634)">
<path d="M59.4077 41.1446L59.2126 41.2259L58.9578 41.3343L58.6271 41.4698L58.3344 41.5891L57.9658 41.7355L57.6622 41.8601L57.2611 42.0119L56.9358 42.142L56.5021 42.3047L56.166 42.4293L55.6836 42.6028L55.3583 42.7221L54.8162 42.9118L54.5235 43.0148L53.6616 43.2967C51.525 43.9908 49.2993 44.3724 47.0535 44.4296C44.6683 44.4784 40.3641 45.2103 38.3801 49.547C38.3493 49.6204 38.3028 49.6861 38.2438 49.7395C38.1848 49.7929 38.1147 49.8327 38.0386 49.856C37.9757 49.8773 37.9098 49.8883 37.8434 49.8885C37.7549 49.8897 37.6674 49.8692 37.5886 49.8289C35.3905 48.6363 33.4852 46.9698 32.0105 44.9501C30.754 43.0347 29.1264 41.3905 27.2239 40.1146C26.1256 40.4774 25.0503 40.9064 24.0039 41.3994C25.2385 41.9197 26.4233 42.5511 27.5437 43.2858C27.613 43.3214 27.68 43.3613 27.7443 43.4051L27.8202 43.4485C29.8532 44.8034 31.5933 46.5528 32.9375 48.5929C34.1799 50.3019 35.7568 51.7405 37.5724 52.8212C39.9576 48.3761 44.484 47.6388 47.0318 47.6009C49.1581 47.5397 51.2647 47.1746 53.2876 46.5167C55.6727 45.7523 57.8086 44.8904 59.1855 44.2887C60.4106 43.7466 61.3538 43.3184 61.8959 43.069C61.5924 42.451 60.7304 41.7842 59.4077 41.1446Z" fill="black"/>
<path d="M59.4077 45.4813L59.2397 45.5464L58.9849 45.6548L58.6596 45.7903L58.3561 45.915L58.0037 46.0614L57.6839 46.1861L57.2936 46.3433L56.9575 46.4734L56.5292 46.6306L56.1823 46.7607L55.7161 46.9341L55.3692 47.0588L54.8271 47.2431L54.5235 47.3515L53.6507 47.6389C51.5167 48.3288 49.2954 48.7121 47.0535 48.7772C44.6737 48.8098 40.3858 49.5145 38.3801 53.8837C38.3473 53.9558 38.3 54.0204 38.2413 54.0736C38.1826 54.1267 38.1136 54.1673 38.0386 54.1927C37.9757 54.2141 37.9098 54.225 37.8434 54.2252C37.7585 54.2247 37.675 54.2043 37.5995 54.1656C35.3938 52.9797 33.4835 51.3121 32.0105 49.2868C30.7543 47.3774 29.1287 45.7389 27.2293 44.4676H27.1968C26.103 44.8327 25.0331 45.2654 23.993 45.7632C25.3309 46.3161 26.614 46.993 27.8256 47.7852C29.8588 49.1466 31.5987 50.9013 32.9429 52.9459C34.185 54.6503 35.7599 56.085 37.5724 57.1634C39.9521 52.7508 44.4732 51.9864 47.0264 51.9322C49.1553 51.8794 51.2649 51.5141 53.2875 50.848C56.2248 49.8849 59.0981 48.737 61.8905 47.4112C61.5869 46.804 60.7304 46.1318 59.4077 45.4813Z" fill="black"/>
<path d="M27.728 39.0522L27.8094 39.1064C29.8507 40.4651 31.5983 42.22 32.9484 44.2671C34.1915 45.9686 35.764 47.4028 37.5724 48.4845C39.9413 44.0719 44.4732 43.3076 47.0318 43.2534C49.1605 43.1985 51.2698 42.8333 53.293 42.1692C55.6402 41.4157 57.7652 40.5429 59.1421 39.9683L59.2234 39.9358C60.4269 39.4208 61.3918 38.9763 61.8905 38.7323C61.1966 37.2633 57.5538 35.8647 55.1903 35.2847C53.3102 34.9962 51.5216 34.2791 49.9631 33.1886C48.4045 32.0982 47.1178 30.6638 46.2025 28.9964C45.2497 29.0932 44.3112 29.2987 43.4053 29.609C41.8669 30.1749 40.4543 31.0368 39.2474 32.146C37.8146 33.4213 35.9771 34.149 34.0596 34.2005C33.3299 34.214 32.6035 34.3012 31.8913 34.4607C29.1517 34.9983 26.487 35.8647 23.9551 37.041C25.2135 37.5694 26.4218 38.2098 27.5654 38.9546C27.5925 38.9654 27.6576 39.0088 27.728 39.0522Z" fill="#EE3B3D"/>
</g>
<defs>
<clipPath id="clip0_1_634">
<rect width="40" height="40" fill="white" transform="translate(22.4427 23.0659) scale(1.00287)"/>
</clipPath>
</defs>
</svg>
