<svg width="85" height="85" viewBox="0 0 85 85" fill="none" xmlns="http://www.w3.org/2000/svg">
<g clip-path="url(#clip0_1_657)">
<path d="M60.8609 36.2553C60.8985 35.6024 60.6412 34.9557 60.1453 34.4975L57.2449 31.8482C56.3472 31.0321 54.9473 31.0824 54.1186 31.9926L52.0407 34.2715L51.3878 32.9029L52.7501 31.9738C53.9491 31.1577 54.2631 29.5318 53.447 28.339L50.7287 24.3402C49.9125 23.1347 48.2929 22.8334 47.0938 23.6495L43.0824 26.3741C42.2851 26.9139 41.877 27.8305 41.9523 28.747L39.4538 28.0942C39.1838 28.0189 38.9075 28.0063 38.6376 28.0314C38.7444 26.8512 38.0224 25.7714 36.8924 25.4199L32.5043 24.045C31.186 23.6306 29.7734 24.3652 29.3654 25.6835L27.9842 30.0779C27.5762 31.3963 28.3107 32.8088 29.629 33.223L30.5142 33.5055L30.489 33.5117C29.2084 33.7629 28.3671 34.9556 28.4991 36.2363H26.3332C24.9646 36.2363 23.8471 37.3538 23.8471 38.7223V41.9429C23.8471 43.211 24.8077 44.2531 26.038 44.4038L28.5994 59.5583C28.9384 61.586 30.6774 63.0551 32.7303 63.0551H54.2756C56.3283 63.0551 58.0673 61.586 58.4064 59.5583L60.9615 44.4038C62.1982 44.2531 63.1587 43.211 63.1587 41.9429V38.7224C63.1586 37.4166 62.1415 36.3557 60.8609 36.2553ZM54.3698 34.5163L55.0038 33.8257C55.4055 33.3863 56.0899 33.3549 56.5293 33.7567L57.2764 34.4409C57.471 34.6167 57.4836 34.918 57.3078 35.1064C57.132 35.301 56.837 35.3136 56.6423 35.1378L55.889 34.4472C55.8387 34.4033 55.7508 34.4033 55.7006 34.4597L55.0666 35.1503C54.8908 35.3449 54.5958 35.3575 54.4011 35.1817C54.2128 35.006 54.2002 34.711 54.3698 34.5163ZM46.6794 26.7444L47.6337 26.0916C48.186 25.7149 48.9457 25.8593 49.3223 26.4118L50.0254 27.4539C50.1761 27.6673 50.1196 27.9561 49.9061 28.1068C49.6865 28.2512 49.3976 28.1946 49.2469 27.9812L48.5438 26.9453C48.4622 26.8198 48.2865 26.7821 48.1609 26.87L47.2067 27.5229C46.9932 27.6673 46.6982 27.6108 46.5538 27.3973C46.4095 27.1776 46.4597 26.8888 46.6794 26.7444ZM48.3368 32.3254C49.1152 31.955 50.0568 32.3002 50.421 33.0661L51.9402 36.2301H44.7773L45.4428 33.7002L48.3368 32.3254ZM39.2151 29.0044C39.2842 29.017 43.7351 30.1971 43.7414 30.1971C44.5952 30.4232 45.0974 31.3209 44.8777 32.1558C44.815 32.4006 44.5889 33.2545 44.3629 34.127C44.1306 34.9997 43.8921 35.8974 43.8042 36.2301H38.286L37.9471 34.5665C37.8027 33.8445 37.2565 33.1352 36.5533 32.7962C36.5722 32.7334 37.2565 30.1532 37.2565 30.1407C37.4888 29.2995 38.374 28.7846 39.2151 29.0044ZM29.9115 32.3254C29.0891 32.068 28.6308 31.1828 28.8881 30.3604L30.263 25.966C30.5204 25.1436 31.3992 24.6854 32.2279 24.9427L36.6098 26.3175C37.5766 26.6189 37.7398 27.3596 37.6331 28.295C37.0681 28.5901 36.5471 29.1613 36.3462 29.9084C36.3274 29.9712 35.687 32.3881 35.6431 32.5576C35.574 32.5576 35.2288 32.5576 34.9965 32.6079L32.4351 33.1165L29.9115 32.3254ZM62.217 41.9429C62.217 42.7967 61.52 43.4874 60.6664 43.4874H26.3332C25.4794 43.4874 24.7888 42.7967 24.7888 41.9429V38.7224C24.7888 37.8687 25.4794 37.1781 26.3332 37.1781H60.6664C61.52 37.1781 62.217 37.8687 62.217 38.7224V41.9429Z" fill="#EE3B3D"/>
<path d="M49.6562 34.4075C49.3768 33.8215 48.6749 33.5691 48.0846 33.8506L47.0924 34.3232C46.8579 34.4351 46.758 34.7162 46.8699 34.951C46.9818 35.1855 47.262 35.2849 47.4977 35.1736L48.4899 34.7009C48.6052 34.6454 48.7482 34.6916 48.806 34.8128L49.3185 35.8884C49.43 36.1214 49.709 36.223 49.9464 36.1109C50.1812 35.999 50.2808 35.7179 50.1689 35.4831L49.6562 34.4075Z" fill="black"/>
<path d="M38.3424 33.006C38.5891 33.0719 38.8504 32.9258 38.9178 32.671L39.2032 31.5893C39.2395 31.4529 39.3763 31.3783 39.5082 31.4115L40.681 31.7208C40.9317 31.7861 41.1902 31.6371 41.2564 31.3858C41.3229 31.1341 41.1727 30.8767 40.9214 30.8104L39.7486 30.5011C39.122 30.3365 38.4636 30.7025 38.2928 31.349L38.0075 32.4307C37.9408 32.682 38.0911 32.9398 38.3424 33.006Z" fill="black"/>
<path d="M34.1337 27.3651C34.2119 27.1171 34.0739 26.8529 33.8256 26.7751L32.6887 26.4176C32.0671 26.2248 31.4056 26.5697 31.2112 27.1894L30.882 28.2381C30.8038 28.486 30.9421 28.7503 31.19 28.8281C31.4297 28.9049 31.7002 28.7744 31.7801 28.52L32.1096 27.4714C32.1486 27.347 32.281 27.2768 32.4066 27.316L33.5436 27.6731C33.7919 27.7522 34.0559 27.6128 34.1337 27.3651Z" fill="black"/>
</g>
<defs>
<clipPath id="clip0_1_657">
<rect width="40" height="40" fill="white" transform="translate(23.4456 23.0659) scale(1.00287)"/>
</clipPath>
</defs>
</svg>
