<svg width="85" height="85" viewBox="0 0 85 85" fill="none" xmlns="http://www.w3.org/2000/svg">
<path d="M25.655 61.8486H59.345C59.8437 61.8486 60.322 61.6505 60.6746 61.2978C61.0272 60.9452 61.2253 60.4669 61.2253 59.9682V39.0491H23.7746V59.9682C23.7746 60.4669 23.9727 60.9452 24.3253 61.2978C24.678 61.6505 25.1563 61.8486 25.655 61.8486ZM58.3656 60.2816H26.6343C26.5096 60.2816 26.3901 60.2321 26.3019 60.1439C26.2138 60.0558 26.1642 59.9362 26.1642 59.8115C26.1642 59.6868 26.2138 59.5673 26.3019 59.4791C26.3901 59.3909 26.5096 59.3414 26.6343 59.3414H58.3656C58.4903 59.3414 58.6099 59.3909 58.698 59.4791C58.7862 59.5673 58.8357 59.6868 58.8357 59.8115C58.8357 59.9362 58.7862 60.0558 58.698 60.1439C58.6099 60.2321 58.4903 60.2816 58.3656 60.2816ZM58.3656 56.3642H26.6343C26.5096 56.3642 26.3901 56.3146 26.3019 56.2265C26.2138 56.1383 26.1642 56.0188 26.1642 55.8941C26.1642 55.7694 26.2138 55.6498 26.3019 55.5617C26.3901 55.4735 26.5096 55.424 26.6343 55.424H58.3656C58.4903 55.424 58.6099 55.4735 58.698 55.5617C58.7862 55.6498 58.8357 55.7694 58.8357 55.8941C58.8357 56.0188 58.7862 56.1383 58.698 56.2265C58.6099 56.3146 58.4903 56.3642 58.3656 56.3642ZM44.302 43.4366H58.6398C58.7645 43.4366 58.8841 43.4861 58.9722 43.5743C59.0604 43.6625 59.1099 43.782 59.1099 43.9067C59.1099 44.0314 59.0604 44.1509 58.9722 44.2391C58.8841 44.3273 58.7645 44.3768 58.6398 44.3768H44.302C44.1773 44.3768 44.0577 44.3273 43.9696 44.2391C43.8814 44.1509 43.8319 44.0314 43.8319 43.9067C43.8319 43.782 43.8814 43.6625 43.9696 43.5743C44.0577 43.4861 44.1773 43.4366 44.302 43.4366ZM44.302 47.354H58.6398C58.7645 47.354 58.8841 47.4036 58.9722 47.4917C59.0604 47.5799 59.1099 47.6995 59.1099 47.8241C59.1099 47.9488 59.0604 48.0684 58.9722 48.1565C58.8841 48.2447 58.7645 48.2942 58.6398 48.2942H44.302C44.1773 48.2942 44.0577 48.2447 43.9696 48.1565C43.8814 48.0684 43.8319 47.9488 43.8319 47.8241C43.8319 47.6995 43.8814 47.5799 43.9696 47.4917C44.0577 47.4036 44.1773 47.354 44.302 47.354ZM44.302 51.2715H58.6398C58.7645 51.2715 58.8841 51.321 58.9722 51.4092C59.0604 51.4973 59.1099 51.6169 59.1099 51.7416C59.1099 51.8663 59.0604 51.9858 58.9722 52.074C58.8841 52.1621 58.7645 52.2117 58.6398 52.2117H44.302C44.1773 52.2117 44.0577 52.1621 43.9696 52.074C43.8814 51.9858 43.8319 51.8663 43.8319 51.7416C43.8319 51.6169 43.8814 51.4973 43.9696 51.4092C44.0577 51.321 44.1773 51.2715 44.302 51.2715ZM25.7333 43.3583C25.7333 42.7141 25.9892 42.0963 26.4447 41.6408C26.9002 41.1853 27.518 40.9294 28.1621 40.9294H39.2093C39.8535 40.9294 40.4713 41.1853 40.9267 41.6408C41.3822 42.0963 41.6381 42.7141 41.6381 43.3583V51.4282C41.6381 52.0724 41.3822 52.6901 40.9267 53.1456C40.4713 53.6011 39.8535 53.857 39.2093 53.857H28.1621C27.518 53.857 26.9002 53.6011 26.4447 53.1456C25.9892 52.6901 25.7333 52.0724 25.7333 51.4282V43.3583Z" fill="black"/>
<path d="M59.345 24.3978H25.655C25.1563 24.3978 24.678 24.5959 24.3253 24.9486C23.9727 25.3012 23.7746 25.7795 23.7746 26.2782V38.1089H61.2253V26.2782C61.2253 25.7795 61.0272 25.3012 60.6746 24.9486C60.322 24.5959 59.8437 24.3978 59.345 24.3978ZM34.6392 35.5234C34.6391 35.7299 34.5722 35.9309 34.4486 36.0964C34.325 36.2619 34.1513 36.3831 33.9533 36.4419C33.7553 36.5007 33.5436 36.494 33.3497 36.4228C33.1558 36.3516 32.9901 36.2197 32.8772 36.0467L29.7103 31.1891V35.7177C29.7103 35.9215 29.6293 36.117 29.4852 36.2612C29.341 36.4053 29.1455 36.4863 28.9417 36.4863C28.7379 36.4863 28.5424 36.4053 28.3982 36.2612C28.2541 36.117 28.1731 35.9215 28.1731 35.7177V29.3714C28.1731 29.1653 28.2396 28.9647 28.3629 28.7995C28.4862 28.6343 28.6596 28.5134 28.8573 28.4548C29.0549 28.3962 29.2662 28.4031 29.4596 28.4744C29.653 28.5456 29.8181 28.6776 29.9305 28.8504L33.1028 33.7213V29.1771C33.1028 28.9734 33.1837 28.778 33.3276 28.6339C33.4716 28.4898 33.6669 28.4087 33.8706 28.4085C34.0745 28.4085 34.27 28.4895 34.4141 28.6336C34.5583 28.7778 34.6392 28.9733 34.6392 29.1771V35.5234ZM40.897 29.1771C40.897 29.3729 40.8192 29.5607 40.6808 29.6993C40.5424 29.8378 40.3547 29.9157 40.1589 29.9159H38.2394C38.1799 29.9159 38.1229 29.9396 38.0809 29.9816C38.0389 30.0236 38.0153 30.0806 38.0153 30.14V31.1515C38.0153 31.2109 38.0389 31.2679 38.0809 31.31C38.1229 31.352 38.1799 31.3756 38.2394 31.3756H40.1589C40.3547 31.3758 40.5424 31.4537 40.6808 31.5923C40.8192 31.7308 40.897 31.9186 40.897 32.1144C40.897 32.3102 40.8192 32.4979 40.6808 32.6363C40.5424 32.7747 40.3546 32.8525 40.1589 32.8525H38.2394C38.1799 32.8525 38.1229 32.8761 38.0809 32.9181C38.0389 32.9601 38.0153 33.0171 38.0153 33.0765V34.7524C38.0153 34.7818 38.0211 34.811 38.0323 34.8382C38.0436 34.8654 38.0601 34.8901 38.0809 34.9109C38.1017 34.9317 38.1264 34.9482 38.1536 34.9594C38.1808 34.9707 38.2099 34.9765 38.2394 34.9765H40.1425C40.3385 34.9828 40.5243 35.0651 40.6607 35.206C40.7971 35.3469 40.8734 35.5353 40.8734 35.7314C40.8734 35.9275 40.7971 36.1159 40.6607 36.2568C40.5243 36.3977 40.3385 36.48 40.1425 36.4863H36.9999C36.8645 36.4863 36.7347 36.4326 36.6389 36.3369C36.5432 36.2413 36.4893 36.1116 36.489 35.9762V28.9248C36.4893 28.7895 36.5432 28.6598 36.6389 28.5641C36.7347 28.4685 36.8645 28.4148 36.9999 28.4148H40.1589C40.3546 28.4148 40.5424 28.4925 40.6808 28.6309C40.8192 28.7694 40.897 28.9571 40.897 29.1528V29.1771ZM51.0447 29.3111L49.5945 35.7467C49.5471 35.9567 49.4297 36.1444 49.2615 36.2788C49.0934 36.4132 48.8845 36.4864 48.6692 36.4863C48.4629 36.4863 48.2623 36.4191 48.0977 36.2948C47.9332 36.1705 47.8136 35.996 47.7572 35.7976L46.5631 31.6059C46.5571 31.585 46.5445 31.5666 46.5271 31.5536C46.5097 31.5405 46.4885 31.5334 46.4668 31.5334C46.445 31.5334 46.4238 31.5405 46.4065 31.5536C46.3891 31.5666 46.3764 31.585 46.3704 31.6059L45.1952 35.7984C45.137 35.9974 45.0147 36.1716 44.8472 36.2939C44.6797 36.4162 44.4765 36.4797 44.2692 36.4745C44.0619 36.4693 43.8622 36.3957 43.701 36.2652C43.5399 36.1347 43.4264 35.9546 43.3783 35.7529L41.9218 29.3087C41.8973 29.2008 41.8974 29.0887 41.9222 28.9808C41.947 28.873 41.9957 28.7721 42.0648 28.6856C42.1339 28.5991 42.2215 28.5293 42.3213 28.4813C42.421 28.4334 42.5303 28.4085 42.641 28.4085C42.8086 28.408 42.9713 28.4646 43.1023 28.569C43.2334 28.6734 43.3249 28.8194 43.3618 28.9828L44.309 33.1729C44.314 33.1946 44.3261 33.2141 44.3434 33.2282C44.3606 33.2423 44.3821 33.2502 44.4044 33.2508C44.4267 33.2513 44.4485 33.2444 44.4664 33.2312C44.4843 33.2179 44.4973 33.1991 44.5034 33.1776L45.666 29.0251C45.7156 28.8478 45.8219 28.6915 45.9686 28.5802C46.1153 28.4688 46.2944 28.4085 46.4785 28.4085C46.662 28.4083 46.8405 28.4679 46.987 28.5784C47.1335 28.6888 47.2399 28.844 47.2902 29.0204L48.4709 33.18C48.4772 33.2013 48.4904 33.2199 48.5083 33.233C48.5263 33.246 48.5481 33.2528 48.5703 33.2523C48.5925 33.2518 48.6139 33.2439 48.6312 33.23C48.6485 33.2161 48.6608 33.1968 48.666 33.1753L49.6062 28.9828C49.6275 28.8883 49.6671 28.7989 49.7229 28.7197C49.7787 28.6406 49.8495 28.5731 49.9314 28.5213C50.0132 28.4695 50.1045 28.4344 50.1999 28.4178C50.2954 28.4013 50.3931 28.4037 50.4876 28.425C50.5821 28.4462 50.6715 28.4859 50.7507 28.5417C50.8299 28.5975 50.8973 28.6683 50.9491 28.7501C51.0009 28.832 51.0361 28.9232 51.0526 29.0187C51.0691 29.1141 51.0667 29.2119 51.0455 29.3064L51.0447 29.3111ZM56.1374 36.0413C55.6798 36.4737 55.0828 36.6897 54.3463 36.6892C53.8137 36.7006 53.2898 36.5524 52.842 36.2638C52.5926 36.0954 52.3724 35.8874 52.1902 35.6479C52.1253 35.565 52.0787 35.4694 52.0534 35.3672C52.0281 35.265 52.0248 35.1587 52.0435 35.0551C52.0622 34.9515 52.1026 34.8531 52.162 34.7662C52.2215 34.6793 52.2986 34.606 52.3884 34.5511L52.4323 34.5244C52.5859 34.4328 52.7674 34.3993 52.9436 34.4301C53.1199 34.4608 53.2793 34.5538 53.3928 34.6921C53.6921 35.0499 54.0209 35.229 54.3792 35.2296C54.6223 35.2357 54.8592 35.1521 55.0444 34.9945C55.1266 34.932 55.1936 34.8516 55.2403 34.7595C55.287 34.6673 55.3121 34.5658 55.3139 34.4625C55.3077 34.2625 55.2365 34.07 55.111 33.9141C54.9747 33.7313 54.6759 33.4513 54.2147 33.0742C53.3372 32.3565 52.7699 31.8031 52.513 31.414C52.256 31.0248 52.1277 30.636 52.1283 30.2474C52.126 29.9754 52.1819 29.7062 52.2923 29.4576C52.4027 29.2091 52.565 28.9871 52.7684 28.8065C53.1954 28.4059 53.7633 28.1899 54.3487 28.2056C54.7492 28.205 55.144 28.301 55.4996 28.4853C55.7163 28.6007 55.9179 28.7426 56.0998 28.9076C56.1789 28.9773 56.2423 29.0631 56.2858 29.1592C56.3292 29.2553 56.3517 29.3596 56.3517 29.465C56.3517 29.5705 56.3292 29.6748 56.2858 29.7709C56.2423 29.867 56.1789 29.9528 56.0998 30.0225C55.9641 30.1421 55.7894 30.2082 55.6085 30.2082C55.4276 30.2082 55.2529 30.1421 55.1173 30.0225C54.8561 29.7916 54.5923 29.6759 54.3259 29.6754C54.1467 29.6678 53.9708 29.7255 53.8308 29.8376C53.773 29.8798 53.7256 29.9346 53.6922 29.9979C53.6588 30.0611 53.6403 30.1312 53.638 30.2027C53.6399 30.3425 53.6885 30.4776 53.7759 30.5866C53.9003 30.748 54.2758 31.094 54.9026 31.6247C55.4892 32.1147 55.8449 32.4239 55.9697 32.5524C56.242 32.8119 56.4664 33.1175 56.6325 33.455C56.7643 33.7507 56.8308 34.0714 56.8276 34.3951C56.8271 35.059 56.5978 35.6067 56.1397 36.0381L56.1374 36.0413Z" fill="#EE3B3D"/>
</svg>
