<svg width="85" height="85" viewBox="0 0 85 85" fill="none" xmlns="http://www.w3.org/2000/svg">
<path d="M55.7616 34.1677H52.2052L50.1318 28.9064C49.5501 27.4285 48.0909 26.4356 46.4989 26.4356H38.501C36.909 26.4356 35.4486 27.4285 34.8694 28.9052L32.7935 34.1677H29.2383C26.8703 34.1677 24.9498 36.087 24.9498 38.4562V55.5225C24.9498 57.8905 26.8703 59.811 29.2383 59.811H55.7616C58.1296 59.811 60.0501 57.8905 60.0501 55.5225V38.4562C60.0501 36.087 58.1296 34.1677 55.7616 34.1677ZM49.7745 49.1217C49.7745 49.5203 49.4511 49.8425 49.0537 49.8425H45.3544V53.5418C45.3544 53.9405 45.0322 54.2626 44.6336 54.2626H40.3664C39.9677 54.2626 39.6456 53.9392 39.6456 53.5418V49.8425H35.9462C35.5476 49.8425 35.2254 49.5203 35.2254 49.1217V44.8545C35.2254 44.4559 35.5489 44.1337 35.9462 44.1337H39.6456V40.4344C39.6456 40.0357 39.9677 39.7136 40.3664 39.7136H44.6336C45.0322 39.7136 45.3544 40.037 45.3544 40.4344V44.1337H49.0537C49.4523 44.1337 49.7745 44.4559 49.7745 44.8545V49.1217ZM35.2192 34.1677L36.9679 29.7313C37.2124 29.1095 37.8291 28.6921 38.501 28.6921H46.4989C47.1708 28.6921 47.7863 29.1095 48.032 29.7326L49.7808 34.1677H35.2192Z" fill="#EE3B3D"/>
</svg>
