<svg width="85" height="85" viewBox="0 0 85 85" fill="none" xmlns="http://www.w3.org/2000/svg">
<path d="M33.1092 35.9653V38.0044C33.1092 38.2748 33.1437 38.5374 33.2084 38.7879H53.7973C53.862 38.5373 53.8965 38.2748 53.8965 38.0044V35.9653C53.8965 33.7384 52.9304 31.5967 51.2847 30.1173H35.7209C34.0753 31.5967 33.1092 33.7384 33.1092 35.9653Z" fill="#EE3B3D"/>
<path d="M37.9928 23.0659H49.0128V27.767H37.9928V23.0659Z" fill="#EE3B3D"/>
<path d="M33.1092 41.9219V44.1681C33.1092 44.9086 33.3673 45.5899 33.7984 46.1269C33.3673 46.6638 33.1092 47.3451 33.1092 48.0856V50.3318C33.1092 51.0723 33.3673 51.7536 33.7984 52.2905C33.3673 52.8274 33.1092 53.5087 33.1092 54.2493V63.1802H53.8965V54.2494C53.8965 53.5089 53.6384 52.8276 53.2073 52.2907C53.6384 51.7538 53.8965 51.0725 53.8965 50.3319V48.0857C53.8965 47.3452 53.6384 46.6639 53.2073 46.127C53.6384 45.5901 53.8965 44.9088 53.8965 44.1683V41.9221C53.8965 41.6516 53.862 41.389 53.7973 41.1385H33.2084C33.1437 41.3889 33.1092 41.6514 33.1092 41.9219Z" fill="black"/>
</svg>
