<svg width="85" height="85" viewBox="0 0 85 85" fill="none" xmlns="http://www.w3.org/2000/svg">
<path d="M42.4999 26.275C36.5866 26.275 31.7925 31.0687 31.7925 36.9824C31.7925 43.1921 39.6065 51.126 41.8842 53.3066C42.2312 53.6388 42.7687 53.6388 43.1161 53.3066C45.3934 51.126 53.2077 43.1921 53.2077 36.9824C53.2073 31.0687 48.4132 26.275 42.4999 26.275ZM42.4999 40.5927C40.5058 40.5927 38.8896 38.9765 38.8896 36.9824C38.8896 34.9883 40.5058 33.3721 42.4999 33.3721C44.494 33.3721 46.1102 34.9883 46.1102 36.9824C46.1102 38.9765 44.494 40.5927 42.4999 40.5927Z" fill="#EE3B3D"/>
<path d="M48.534 50.179C47.9688 50.8469 47.4128 51.4723 46.8776 52.0499C47.9832 52.5445 48.668 53.2245 48.668 53.9758C48.668 55.4869 45.9065 56.712 42.5003 56.712C39.0942 56.712 36.3327 55.4869 36.3327 53.9758C36.3327 53.2245 37.0175 52.5445 38.123 52.0499C37.5879 51.4723 37.0319 50.8473 36.4667 50.179C33.1717 51.1104 30.9678 52.7756 30.9678 54.681C30.967 57.603 36.1305 59.9714 42.4999 59.9714C48.8693 59.9714 54.0329 57.603 54.0329 54.681C54.0329 52.7756 51.829 51.1104 48.534 50.179Z" fill="black"/>
</svg>
