<svg width="85" height="85" viewBox="0 0 85 85" fill="none" xmlns="http://www.w3.org/2000/svg">
<path d="M46.5241 25.9312H49.3465L46.4983 23.0659H46.4955H45.0915H45.09L46.5227 25.9312H46.5241Z" fill="black"/>
<path d="M42.4983 32.7958L43.2707 31.0968L44.9697 27.3638H44.9676H40.0292H40.0271L41.726 31.0968L42.4983 32.7958Z" fill="black"/>
<path d="M51.4089 58.4743C51.1346 58.4852 50.8557 58.4943 50.5613 58.4943C49.6837 58.5016 48.809 58.4461 47.9432 58.3318C46.217 58.1031 44.5263 57.6373 42.921 56.9413C40.6567 55.9233 38.1334 55.7663 35.8048 56.4397C34.924 56.6937 34.0707 57.0657 33.2698 57.5556L33.8781 59.3134L34.3822 60.7737C34.5184 61.1639 34.7178 61.5188 34.9658 61.8295C34.9752 61.8413 34.9844 61.8535 34.9939 61.8652C34.9985 61.8708 35.0033 61.8762 35.0079 61.8817C35.6752 62.6875 36.6783 63.1801 37.7672 63.1806H37.7704H47.2261H47.2293C48.3156 63.1801 49.3165 62.6898 49.9838 61.8874C49.99 61.8799 49.9966 61.8726 50.0028 61.865C50.0106 61.8553 50.0182 61.8454 50.0259 61.8357C50.2763 61.5235 50.4773 61.1665 50.6143 60.7737L51.4095 58.4743C51.4093 58.4744 51.4092 58.4744 51.4089 58.4743Z" fill="black"/>
<path d="M35.464 27.5716L37.6287 30.9086L39.5098 33.8108H39.5113H41.3859H41.388L38.4583 27.3638H38.4554H35.3136H35.31L35.4139 27.5023L35.464 27.5716Z" fill="black"/>
<path d="M46.5385 27.3638L43.6087 33.8108H43.6108H45.4855H45.4869L49.5048 27.6095L49.6007 27.481L49.6904 27.3638H49.6882H46.5414H46.5385Z" fill="black"/>
<path d="M44.9195 25.9312H44.921L43.4883 23.0659H43.4869H42.4983H41.5098H41.5084L40.0757 25.9312H40.0772H44.9195Z" fill="black"/>
<path d="M46.08 35.2435H38.9167V38.8252H46.08V35.2435Z" fill="black"/>
<path d="M38.4726 25.9312H38.474L39.9067 23.0659H39.9052H38.5012H38.4984L35.6495 25.9312H35.6502H38.4726Z" fill="black"/>
<path d="M52.1545 42.1562C50.7794 40.9324 49.0025 40.2567 47.1616 40.2578H37.835C35.4045 40.2574 33.124 41.433 31.7143 43.413C30.3047 45.3929 29.9403 47.9327 30.7361 50.2292L32.792 56.1747C36.0689 54.2797 40.0582 54.0798 43.5083 55.6375C46.1596 56.7675 49.0449 57.2394 51.9181 57.0128L54.2604 50.2292C55.2601 47.3601 54.4283 44.1714 52.1545 42.1562ZM48.8092 43.4241C48.5494 43.3251 48.2808 43.2508 48.007 43.202C47.728 43.151 47.4452 43.1246 47.1616 43.1232C46.7661 43.1232 46.4453 42.8025 46.4453 42.4069C46.4453 42.0113 46.766 41.6905 47.1616 41.6905C47.5316 41.6919 47.9007 41.7255 48.2648 41.7908C48.6263 41.8567 48.9811 41.955 49.3249 42.0846C49.6657 42.2179 49.994 42.3809 50.3063 42.5716C50.6252 42.7594 50.9251 42.9778 51.2018 43.2235C51.4257 43.4214 51.5033 43.7376 51.3964 44.0167C51.2895 44.2958 51.0207 44.4793 50.7218 44.4771C50.5476 44.4775 50.3793 44.4137 50.2491 44.298C50.0393 44.1088 49.8114 43.9408 49.5685 43.7966C49.3272 43.6496 49.0731 43.525 48.8092 43.4241ZM52.9067 49.7636L51.0872 55.0286C50.9876 55.3196 50.7142 55.5153 50.4066 55.5157C50.3259 55.5154 50.2459 55.5009 50.1702 55.4727C49.9917 55.41 49.8453 55.279 49.7633 55.1083C49.6813 54.9377 49.6705 54.7415 49.7332 54.5629L51.5527 49.2908C51.7024 48.854 51.7892 48.3981 51.8106 47.9369C51.8251 47.4855 51.7745 47.0343 51.6601 46.5974C51.5634 46.2152 51.7927 45.8264 52.1739 45.7262C52.5553 45.626 52.9461 45.8517 53.0498 46.232C53.3555 47.3972 53.3056 48.6271 52.9067 49.7636Z" fill="#EE3B3D"/>
</svg>
