<svg width="85" height="85" viewBox="0 0 85 85" fill="none" xmlns="http://www.w3.org/2000/svg">
<g clip-path="url(#clip0_1_649)">
<path d="M60.9103 35.7418C60.0519 34.8828 58.6873 34.8288 57.7645 35.5807C57.631 35.6895 57.7344 35.5937 55.7026 37.6255L60.9767 42.8997L62.8722 41.0278C63.7886 40.1114 63.7886 38.6203 62.8722 37.7037L60.9103 35.7418Z" fill="black"/>
<path d="M44.887 48.5408L41.7846 55.189C41.5756 55.6369 41.6691 56.1676 42.0185 56.517C42.3679 56.8665 42.8988 56.9599 43.3465 56.751L49.9947 53.6484C50.2577 53.5257 49.4615 54.2709 59.3043 44.5511L54.0406 39.2873C44.2816 49.0463 45.0122 48.2726 44.887 48.5408Z" fill="black"/>
<path d="M51.9747 55.0926C51.6868 55.3768 51.3551 55.6075 50.9887 55.7785L44.3405 58.8811C43.0331 59.4912 41.436 59.2589 40.3566 58.1792C39.3121 57.1348 39.03 55.5338 39.6546 54.1951L42.7571 47.5468C42.9313 47.1734 43.1675 46.8364 43.4589 46.5449L53.4536 36.5502V26.5916C53.4536 24.6475 51.872 23.0659 49.9279 23.0659H26.9717C25.0276 23.0659 23.446 24.6475 23.446 26.5916V59.6548C23.446 61.5988 25.0276 63.1805 26.9717 63.1805H49.9279C51.872 63.1805 53.4536 61.5988 53.4536 59.6548V53.632L51.9747 55.0926ZM29.714 30.6657H47.2641C47.9132 30.6657 48.4393 31.1919 48.4393 31.841C48.4393 32.49 47.9132 33.0162 47.2641 33.0162H29.714C29.0649 33.0162 28.5388 32.49 28.5388 31.841C28.5388 31.1919 29.0649 30.6657 29.714 30.6657ZM29.714 36.9336H43.5034C44.1524 36.9336 44.6786 37.4598 44.6786 38.1089C44.6786 38.7579 44.1524 39.2841 43.5034 39.2841H29.714C29.0649 39.2841 28.5388 38.7579 28.5388 38.1089C28.5388 37.4598 29.0649 36.9336 29.714 36.9336ZM28.5388 44.3768C28.5388 43.7277 29.0649 43.2015 29.714 43.2015H39.7426C40.3917 43.2015 40.9179 43.7277 40.9179 44.3768C40.9179 45.0258 40.3917 45.552 39.7426 45.552H29.714C29.0649 45.552 28.5388 45.0258 28.5388 44.3768Z" fill="#EE3B3D"/>
</g>
<defs>
<clipPath id="clip0_1_649">
<rect width="40" height="40" fill="white" transform="translate(23.4455 23.0659) scale(1.00286)"/>
</clipPath>
</defs>
</svg>
