<svg width="266" height="19" viewBox="0 0 266 19" fill="none" xmlns="http://www.w3.org/2000/svg">
<path d="M4.30677e-07 14.7012V0.233229H9.41876V1.98104H1.90317V6.56419H9.03036V8.312H1.90317V12.9534H9.41876V14.7012H4.30677e-07ZM11.5636 14.7012V4.23377H13.3309V6.27289L13.0396 6.09811C13.2985 5.43782 13.7128 4.92643 14.2824 4.56392C14.865 4.18846 15.5447 4.00073 16.3216 4.00073C17.0725 4.00073 17.7392 4.16904 18.3218 4.50566C18.9174 4.84227 19.3835 5.30836 19.7201 5.90391C20.0696 6.49946 20.2444 7.17269 20.2444 7.9236V14.7012H18.4189V8.5062C18.4189 7.9236 18.3154 7.43162 18.1082 7.03027C17.9011 6.62892 17.6033 6.3182 17.2149 6.09811C16.8394 5.86507 16.4057 5.74854 15.9137 5.74854C15.4218 5.74854 14.9816 5.86507 14.5932 6.09811C14.2177 6.3182 13.9199 6.6354 13.6998 7.04969C13.4797 7.45104 13.3697 7.93655 13.3697 8.5062V14.7012H11.5636ZM27.0818 14.8177C26.059 14.8177 25.2693 14.5264 24.7126 13.9438C24.1688 13.3612 23.8969 12.5391 23.8969 11.4775V5.96217H21.9937V4.23377H22.3821C22.8482 4.23377 23.2172 4.09136 23.4891 3.80653C23.761 3.5217 23.8969 3.14625 23.8969 2.68017V1.82568H25.703V4.23377H28.0528V5.96217H25.703V11.4192C25.703 11.7688 25.7548 12.073 25.8583 12.332C25.9749 12.5909 26.1626 12.798 26.4215 12.9534C26.6805 13.0958 27.0236 13.167 27.4508 13.167C27.5414 13.167 27.6515 13.1606 27.7809 13.1476C27.9234 13.1347 28.0528 13.1217 28.1693 13.1088V14.7012C28.001 14.7401 27.8133 14.766 27.6062 14.7789C27.399 14.8048 27.2242 14.8177 27.0818 14.8177ZM30.5286 14.7012V4.23377H32.2958V6.15637L32.1016 5.88449C32.3476 5.28894 32.7231 4.84875 33.228 4.56392C33.7329 4.26614 34.3479 4.11725 35.0729 4.11725H35.7138V5.82623H34.801C34.063 5.82623 33.4675 6.05927 33.0144 6.52535C32.5612 6.97849 32.3347 7.62582 32.3347 8.46736V14.7012H30.5286ZM42.1342 14.9343C41.1244 14.9343 40.2246 14.6947 39.4348 14.2157C38.6451 13.7367 38.0236 13.0829 37.5705 12.2543C37.1174 11.4127 36.8908 10.4741 36.8908 9.43837C36.8908 8.38968 37.1109 7.45752 37.5511 6.64187C38.0042 5.82623 38.6127 5.18536 39.3766 4.71928C40.1534 4.24025 41.0208 4.00073 41.9789 4.00073C42.7557 4.00073 43.4419 4.14315 44.0374 4.42798C44.6459 4.69986 45.1573 5.07531 45.5716 5.55434C45.9988 6.02043 46.3225 6.55772 46.5426 7.16621C46.7756 7.76176 46.8922 8.38321 46.8922 9.03055C46.8922 9.17296 46.8792 9.33479 46.8533 9.51605C46.8404 9.68436 46.821 9.84619 46.7951 10.0016H38.2114V8.44794H45.7464L44.8919 9.14707C45.0084 8.47384 44.9437 7.87181 44.6977 7.34099C44.4517 6.81018 44.0892 6.38941 43.6102 6.07869C43.1311 5.76796 42.5874 5.6126 41.9789 5.6126C41.3704 5.6126 40.8137 5.76796 40.3087 6.07869C39.8038 6.38941 39.4089 6.83607 39.1241 7.41867C38.8522 7.98833 38.7422 8.66804 38.794 9.45779C38.7422 10.2216 38.8587 10.8949 39.1435 11.4775C39.4413 12.0471 39.8556 12.4938 40.3864 12.8175C40.9302 13.1282 41.5193 13.2836 42.1537 13.2836C42.8528 13.2836 43.4419 13.1217 43.9209 12.798C44.3999 12.4744 44.7883 12.0601 45.0861 11.5552L46.6009 12.332C46.3937 12.811 46.07 13.2512 45.6299 13.6525C45.2026 14.0409 44.6912 14.3517 44.0957 14.5847C43.5131 14.8177 42.8593 14.9343 42.1342 14.9343ZM47.8727 14.7012L51.5431 9.45779L47.8921 4.23377H50.0672L53.1938 8.77808H52.0869L55.1747 4.23377H57.3692L53.7182 9.45779L57.3497 14.7012H55.1747L52.0869 10.1569H53.1744L50.0866 14.7012H47.8727ZM152.594 14.7012V5.96217H150.594V4.23377H152.594V3.49581C152.594 2.7449 152.756 2.11051 153.08 1.59264C153.416 1.07477 153.856 0.679892 154.4 0.40801C154.957 0.136129 155.572 0.00018803 156.245 0.00018803C156.387 0.00018803 156.543 0.0131346 156.711 0.0390278C156.892 0.0519751 157.041 0.0713954 157.158 0.0972886V1.70916C157.054 1.68327 156.931 1.67032 156.789 1.67032C156.646 1.65737 156.536 1.6509 156.459 1.6509C155.863 1.6509 155.371 1.79331 154.983 2.07814C154.607 2.36297 154.42 2.83553 154.42 3.49581V4.23377H156.905V5.96217H154.42V14.7012H152.594ZM163.684 14.9343C162.674 14.9343 161.762 14.7012 160.946 14.2351C160.13 13.7561 159.483 13.1023 159.004 12.2737C158.525 11.4451 158.286 10.5065 158.286 9.45779C158.286 8.4091 158.519 7.47694 158.985 6.66129C159.464 5.84565 160.111 5.19831 160.927 4.71928C161.742 4.24025 162.662 4.00073 163.684 4.00073C164.694 4.00073 165.607 4.24025 166.423 4.71928C167.238 5.18536 167.879 5.82623 168.345 6.64187C168.824 7.45752 169.064 8.39615 169.064 9.45779C169.064 10.5194 168.818 11.4645 168.326 12.2931C167.834 13.1088 167.18 13.7561 166.364 14.2351C165.562 14.7012 164.668 14.9343 163.684 14.9343ZM163.684 13.1865C164.332 13.1865 164.914 13.0246 165.432 12.7009C165.963 12.3773 166.377 11.9306 166.675 11.361C166.986 10.7913 167.141 10.1569 167.141 9.45779C167.141 8.74572 166.986 8.1178 166.675 7.57404C166.377 7.01733 165.963 6.57714 165.432 6.25347C164.914 5.91685 164.332 5.74854 163.684 5.74854C163.024 5.74854 162.428 5.91685 161.898 6.25347C161.38 6.57714 160.966 7.01733 160.655 7.57404C160.344 8.1178 160.189 8.74572 160.189 9.45779C160.189 10.1569 160.344 10.7913 160.655 11.361C160.966 11.9306 161.38 12.3773 161.898 12.7009C162.428 13.0246 163.024 13.1865 163.684 13.1865ZM171.419 14.7012V4.23377H173.187V6.15637L172.992 5.88449C173.238 5.28894 173.614 4.84875 174.119 4.56392C174.624 4.26614 175.239 4.11725 175.964 4.11725H176.604V5.82623H175.692C174.954 5.82623 174.358 6.05927 173.905 6.52535C173.452 6.97849 173.225 7.62582 173.225 8.46736V14.7012H171.419ZM186.382 14.9343C185.372 14.9343 184.472 14.6947 183.682 14.2157C182.893 13.7367 182.271 13.0829 181.818 12.2543C181.365 11.4127 181.138 10.4741 181.138 9.43837C181.138 8.38968 181.358 7.45752 181.799 6.64187C182.252 5.82623 182.86 5.18536 183.624 4.71928C184.401 4.24025 185.268 4.00073 186.226 4.00073C187.003 4.00073 187.689 4.14315 188.285 4.42798C188.893 4.69986 189.405 5.07531 189.819 5.55434C190.246 6.02043 190.57 6.55772 190.79 7.16621C191.023 7.76176 191.14 8.38321 191.14 9.03055C191.14 9.17296 191.127 9.33479 191.101 9.51605C191.088 9.68436 191.068 9.84619 191.043 10.0016H182.459V8.44794H189.994L189.139 9.14707C189.256 8.47384 189.191 7.87181 188.945 7.34099C188.699 6.81018 188.337 6.38941 187.858 6.07869C187.379 5.76796 186.835 5.6126 186.226 5.6126C185.618 5.6126 185.061 5.76796 184.556 6.07869C184.051 6.38941 183.656 6.83607 183.372 7.41867C183.1 7.98833 182.99 8.66804 183.041 9.45779C182.99 10.2216 183.106 10.8949 183.391 11.4775C183.689 12.0471 184.103 12.4938 184.634 12.8175C185.178 13.1282 185.767 13.2836 186.401 13.2836C187.1 13.2836 187.689 13.1217 188.168 12.798C188.647 12.4744 189.036 12.0601 189.334 11.5552L190.848 12.332C190.641 12.811 190.318 13.2512 189.877 13.6525C189.45 14.0409 188.939 14.3517 188.343 14.5847C187.761 14.8177 187.107 14.9343 186.382 14.9343ZM196.218 14.7012L192.12 4.23377H194.14L197.422 13.0894H196.723L200.024 4.23377H202.044L197.927 14.7012H196.218ZM208.286 14.9343C207.276 14.9343 206.377 14.6947 205.587 14.2157C204.797 13.7367 204.176 13.0829 203.723 12.2543C203.269 11.4127 203.043 10.4741 203.043 9.43837C203.043 8.38968 203.263 7.45752 203.703 6.64187C204.156 5.82623 204.765 5.18536 205.529 4.71928C206.305 4.24025 207.173 4.00073 208.131 4.00073C208.908 4.00073 209.594 4.14315 210.189 4.42798C210.798 4.69986 211.309 5.07531 211.724 5.55434C212.151 6.02043 212.475 6.55772 212.695 7.16621C212.928 7.76176 213.044 8.38321 213.044 9.03055C213.044 9.17296 213.031 9.33479 213.005 9.51605C212.992 9.68436 212.973 9.84619 212.947 10.0016H204.363V8.44794H211.898L211.044 9.14707C211.16 8.47384 211.096 7.87181 210.85 7.34099C210.604 6.81018 210.241 6.38941 209.762 6.07869C209.283 5.76796 208.739 5.6126 208.131 5.6126C207.522 5.6126 206.966 5.76796 206.461 6.07869C205.956 6.38941 205.561 6.83607 205.276 7.41867C205.004 7.98833 204.894 8.66804 204.946 9.45779C204.894 10.2216 205.011 10.8949 205.296 11.4775C205.593 12.0471 206.008 12.4938 206.538 12.8175C207.082 13.1282 207.671 13.2836 208.306 13.2836C209.005 13.2836 209.594 13.1217 210.073 12.798C210.552 12.4744 210.94 12.0601 211.238 11.5552L212.753 12.332C212.546 12.811 212.222 13.2512 211.782 13.6525C211.355 14.0409 210.843 14.3517 210.248 14.5847C209.665 14.8177 209.011 14.9343 208.286 14.9343ZM215.399 14.7012V4.23377H217.166V6.15637L216.972 5.88449C217.218 5.28894 217.594 4.84875 218.098 4.56392C218.603 4.26614 219.218 4.11725 219.943 4.11725H220.584V5.82623H219.671C218.934 5.82623 218.338 6.05927 217.885 6.52535C217.432 6.97849 217.205 7.62582 217.205 8.46736V14.7012H215.399ZM222.752 18.9736C222.519 18.9736 222.286 18.9542 222.053 18.9154C221.82 18.8765 221.599 18.8118 221.392 18.7212V17.1093C221.535 17.1352 221.709 17.1611 221.917 17.187C222.137 17.2258 222.35 17.2453 222.557 17.2453C223.166 17.2453 223.626 17.1093 223.936 16.8374C224.26 16.5785 224.564 16.1254 224.849 15.478L225.509 13.905L225.471 15.478L221.004 4.23377H222.965L226.442 13.167H225.859L229.316 4.23377H231.316L226.597 15.9441C226.377 16.5008 226.092 17.0057 225.742 17.4589C225.406 17.925 224.991 18.2939 224.5 18.5658C224.008 18.8377 223.425 18.9736 222.752 18.9736ZM240.532 14.8177C239.51 14.8177 238.72 14.5264 238.163 13.9438C237.619 13.3612 237.348 12.5391 237.348 11.4775V5.96217H235.444V4.23377H235.833C236.299 4.23377 236.668 4.09136 236.94 3.80653C237.212 3.5217 237.348 3.14625 237.348 2.68017V1.82568H239.154V4.23377H241.503V5.96217H239.154V11.4192C239.154 11.7688 239.205 12.073 239.309 12.332C239.426 12.5909 239.613 12.798 239.872 12.9534C240.131 13.0958 240.474 13.167 240.901 13.167C240.992 13.167 241.102 13.1606 241.232 13.1476C241.374 13.1347 241.503 13.1217 241.62 13.1088V14.7012C241.452 14.7401 241.264 14.766 241.057 14.7789C240.85 14.8048 240.675 14.8177 240.532 14.8177ZM243.979 14.7012V4.23377H245.746V6.15637L245.552 5.88449C245.798 5.28894 246.174 4.84875 246.679 4.56392C247.184 4.26614 247.799 4.11725 248.524 4.11725H249.164V5.82623H248.252C247.514 5.82623 246.918 6.05927 246.465 6.52535C246.012 6.97849 245.785 7.62582 245.785 8.46736V14.7012H243.979ZM250.769 14.7012V4.23377H252.575V14.7012H250.769ZM250.769 2.56364V0.233229H252.575V2.56364H250.769ZM255.377 18.5852V4.23377H257.144V6.48651L256.911 6.03985C257.3 5.4184 257.831 4.92643 258.504 4.56392C259.177 4.18846 259.947 4.00073 260.815 4.00073C261.799 4.00073 262.679 4.24025 263.456 4.71928C264.246 5.19831 264.867 5.85212 265.32 6.68071C265.773 7.49636 266 8.42852 266 9.47721C266 10.5 265.773 11.4257 265.32 12.2543C264.867 13.0829 264.246 13.7367 263.456 14.2157C262.679 14.6947 261.792 14.9343 260.795 14.9343C259.954 14.9343 259.184 14.7465 258.484 14.3711C257.798 13.9956 257.267 13.4648 256.892 12.7786L257.183 12.4679V18.5852H255.377ZM260.659 13.1865C261.32 13.1865 261.909 13.0246 262.427 12.7009C262.945 12.3773 263.346 11.9371 263.631 11.3804C263.929 10.8107 264.077 10.1763 264.077 9.47721C264.077 8.75219 263.929 8.1178 263.631 7.57404C263.346 7.01733 262.945 6.57714 262.427 6.25347C261.909 5.91685 261.32 5.74854 260.659 5.74854C259.999 5.74854 259.404 5.91038 258.873 6.23405C258.355 6.55772 257.941 7.00438 257.63 7.57404C257.332 8.13075 257.183 8.76514 257.183 9.47721C257.183 10.1763 257.332 10.8107 257.63 11.3804C257.941 11.9371 258.355 12.3773 258.873 12.7009C259.404 13.0246 259.999 13.1865 260.659 13.1865Z" fill="black"/>
<path d="M69.1299 14.9343C68.0941 14.9343 67.1361 14.7465 66.2557 14.3711C65.3883 13.9956 64.6244 13.4713 63.9641 12.798C63.3168 12.1248 62.8119 11.3351 62.4493 10.4288C62.0868 9.52252 61.9056 8.5321 61.9056 7.45752C61.9056 6.38294 62.0804 5.39251 62.4299 4.48624C62.7924 3.56702 63.2974 2.77727 63.9447 2.11698C64.605 1.44375 65.3753 0.92588 66.2557 0.563371C67.1361 0.187916 68.0941 0.00018803 69.1299 0.00018803C70.1656 0.00018803 71.0913 0.174969 71.9069 0.524532C72.7355 0.874094 73.4347 1.34018 74.0043 1.92278C74.574 2.49244 74.9818 3.12035 75.2278 3.80653L72.8585 4.91348C72.5867 4.18846 72.127 3.59291 71.4797 3.12683C70.8324 2.6478 70.0491 2.40828 69.1299 2.40828C68.2236 2.40828 67.4209 2.6219 66.7218 3.04915C66.0356 3.47639 65.4983 4.06547 65.1099 4.81638C64.7344 5.56729 64.5467 6.44767 64.5467 7.45752C64.5467 8.46736 64.7344 9.35421 65.1099 10.1181C65.4983 10.869 66.0356 11.4581 66.7218 11.8853C67.4209 12.3125 68.2236 12.5262 69.1299 12.5262C70.0491 12.5262 70.8324 12.2931 71.4797 11.827C72.127 11.348 72.5867 10.746 72.8585 10.021L75.2278 11.1279C74.9818 11.8141 74.574 12.4485 74.0043 13.0311C73.4347 13.6007 72.7355 14.0604 71.9069 14.4099C71.0913 14.7595 70.1656 14.9343 69.1299 14.9343ZM77.1584 14.7012V0.00018803H79.7025V14.7012H77.1584ZM82.0514 14.7012V4.13667H84.5954V14.7012H82.0514ZM82.0514 2.95205V0.233229H84.5954V2.95205H82.0514ZM91.9547 14.9343C90.8672 14.9343 89.9156 14.6883 89.1 14.1963C88.2843 13.7043 87.6499 13.0376 87.1968 12.196C86.7437 11.3545 86.5171 10.4223 86.5171 9.39953C86.5171 8.33789 86.7437 7.39926 87.1968 6.58361C87.6629 5.75502 88.2908 5.10121 89.0806 4.62218C89.8833 4.14315 90.7766 3.90363 91.7605 3.90363C92.5891 3.90363 93.3141 4.03957 93.9356 4.31146C94.57 4.58334 95.1073 4.95879 95.5475 5.43782C95.9877 5.91685 96.3243 6.46709 96.5573 7.08853C96.7903 7.69703 96.9069 8.35731 96.9069 9.06939C96.9069 9.25064 96.8939 9.43837 96.868 9.63257C96.8551 9.82677 96.8227 9.99508 96.7709 10.1375H88.6145V8.19548H95.3338L94.1298 9.10823C94.2463 8.51268 94.2139 7.98186 94.0327 7.51578C93.8644 7.04969 93.5796 6.68071 93.1782 6.40883C92.7898 6.13695 92.3172 6.00101 91.7605 6.00101C91.2297 6.00101 90.7572 6.13695 90.3429 6.40883C89.9286 6.66776 89.6114 7.05617 89.3913 7.57404C89.1841 8.07896 89.1065 8.69393 89.1582 9.41895C89.1065 10.0663 89.1906 10.6424 89.4107 11.1473C89.6437 11.6393 89.9804 12.0212 90.4205 12.2931C90.8737 12.565 91.3916 12.7009 91.9742 12.7009C92.5568 12.7009 93.0487 12.578 93.4501 12.332C93.8644 12.086 94.1881 11.7558 94.4211 11.3415L96.4796 12.3514C96.2725 12.8563 95.9488 13.303 95.5086 13.6914C95.0684 14.0798 94.5441 14.384 93.9356 14.6041C93.34 14.8242 92.6798 14.9343 91.9547 14.9343ZM98.8354 14.7012V4.13667H101.224V6.21463L101.03 5.84565C101.276 5.21125 101.677 4.73223 102.234 4.40856C102.804 4.07194 103.464 3.90363 104.215 3.90363C104.992 3.90363 105.678 4.07194 106.273 4.40856C106.882 4.74517 107.354 5.21773 107.691 5.82623C108.028 6.42178 108.196 7.11443 108.196 7.90418V14.7012H105.652V8.5062C105.652 8.04012 105.561 7.63877 105.38 7.30215C105.199 6.96554 104.946 6.7066 104.623 6.52535C104.312 6.33115 103.943 6.23405 103.516 6.23405C103.101 6.23405 102.732 6.33115 102.409 6.52535C102.085 6.7066 101.833 6.96554 101.651 7.30215C101.47 7.63877 101.379 8.04012 101.379 8.5062V14.7012H98.8354ZM115.163 14.8177C113.972 14.8177 113.047 14.4941 112.386 13.8467C111.739 13.1865 111.415 12.2608 111.415 11.0697V6.40883H109.59V4.13667H109.784C110.302 4.13667 110.703 4.00073 110.988 3.72885C111.273 3.45697 111.415 3.06209 111.415 2.54422V1.72858H113.959V4.13667H116.387V6.40883H113.959V10.9337C113.959 11.2833 114.018 11.5811 114.134 11.827C114.264 12.073 114.458 12.2608 114.717 12.3902C114.989 12.5197 115.332 12.5844 115.746 12.5844C115.837 12.5844 115.94 12.578 116.057 12.565C116.186 12.5521 116.309 12.5391 116.426 12.5262V14.7012C116.244 14.7271 116.037 14.753 115.804 14.7789C115.571 14.8048 115.358 14.8177 115.163 14.8177ZM122.035 14.7012V0.233229H124.676V7.76824L123.957 7.51578L130.113 0.233229H133.434L127.666 7.06911L127.822 5.20478L133.609 14.7012H130.502L126.618 8.33142L124.676 10.6424V14.7012H122.035ZM135.002 14.7012V4.13667H137.546V14.7012H135.002ZM135.002 2.95205V0.233229H137.546V2.95205H135.002ZM144.711 14.8177C143.52 14.8177 142.594 14.4941 141.934 13.8467C141.286 13.1865 140.963 12.2608 140.963 11.0697V6.40883H139.137V4.13667H139.331C139.849 4.13667 140.251 4.00073 140.535 3.72885C140.82 3.45697 140.963 3.06209 140.963 2.54422V1.72858H143.507V4.13667H145.934V6.40883H143.507V10.9337C143.507 11.2833 143.565 11.5811 143.681 11.827C143.811 12.073 144.005 12.2608 144.264 12.3902C144.536 12.5197 144.879 12.5844 145.293 12.5844C145.384 12.5844 145.488 12.578 145.604 12.565C145.734 12.5521 145.857 12.5391 145.973 12.5262V14.7012C145.792 14.7271 145.585 14.753 145.352 14.7789C145.119 14.8048 144.905 14.8177 144.711 14.8177Z" fill="url(#paint0_linear_1_775)"/>
<defs>
<linearGradient id="paint0_linear_1_775" x1="267.541" y1="6.69667" x2="-1.61187" y2="6.69667" gradientUnits="userSpaceOnUse">
<stop stop-color="#F3AA45"/>
<stop offset="1" stop-color="#ED2628"/>
</linearGradient>
</defs>
</svg>
