<svg width="689" height="19" viewBox="0 0 689 19" fill="none" xmlns="http://www.w3.org/2000/svg">
<path d="M4.31052e-07 14.714V0.233432H9.17427V1.98276H1.90483V6.66709H8.49398V8.41642H1.90483V14.714H4.31052e-07ZM15.7713 14.9473C14.7606 14.9473 13.8471 14.714 13.0307 14.2475C12.2143 13.7681 11.5664 13.1137 11.087 12.2844C10.6076 11.4551 10.3678 10.5156 10.3678 9.46602C10.3678 8.41642 10.6011 7.48344 11.0676 6.66709C11.547 5.85073 12.1949 5.20283 13.0113 4.72338C13.8276 4.24394 14.7476 4.00421 15.7713 4.00421C16.782 4.00421 17.6956 4.24394 18.5119 4.72338C19.3283 5.18987 19.9697 5.83129 20.4362 6.64765C20.9157 7.464 21.1554 8.40346 21.1554 9.46602C21.1554 10.5286 20.9092 11.4745 20.4168 12.3038C19.9244 13.1202 19.27 13.7681 18.4536 14.2475C17.6502 14.714 16.7561 14.9473 15.7713 14.9473ZM15.7713 13.1979C16.4192 13.1979 17.0023 13.036 17.5207 12.712C18.0519 12.388 18.4666 11.941 18.7646 11.3708C19.0756 10.8007 19.2311 10.1658 19.2311 9.46602C19.2311 8.75333 19.0756 8.12486 18.7646 7.58063C18.4666 7.02343 18.0519 6.58286 17.5207 6.25891C17.0023 5.922 16.4192 5.75355 15.7713 5.75355C15.1105 5.75355 14.5144 5.922 13.9831 6.25891C13.4648 6.58286 13.0501 7.02343 12.7391 7.58063C12.4282 8.12486 12.2727 8.75333 12.2727 9.46602C12.2727 10.1658 12.4282 10.8007 12.7391 11.3708C13.0501 11.941 13.4648 12.388 13.9831 12.712C14.5144 13.036 15.1105 13.1979 15.7713 13.1979ZM23.513 14.714V4.23746H25.2818V6.16172L25.0874 5.88961C25.3336 5.29354 25.7094 4.85296 26.2148 4.56789C26.7201 4.26985 27.3356 4.12084 28.0613 4.12084H28.7027V5.83129H27.7892C27.0506 5.83129 26.4545 6.06454 26.001 6.53103C25.5474 6.98456 25.3207 7.63246 25.3207 8.47473V14.714H23.513ZM33.6681 14.714V0.000188194H35.4758V14.714H33.6681ZM43.2565 14.9473C42.2458 14.9473 41.3322 14.714 40.5159 14.2475C39.6995 13.7681 39.0516 13.1137 38.5722 12.2844C38.0927 11.4551 37.853 10.5156 37.853 9.46602C37.853 8.41642 38.0862 7.48344 38.5527 6.66709C39.0322 5.85073 39.6801 5.20283 40.4964 4.72338C41.3128 4.24394 42.2328 4.00421 43.2565 4.00421C44.2672 4.00421 45.1807 4.24394 45.9971 4.72338C46.8135 5.18987 47.4549 5.83129 47.9214 6.64765C48.4008 7.464 48.6405 8.40346 48.6405 9.46602C48.6405 10.5286 48.3943 11.4745 47.9019 12.3038C47.4095 13.1202 46.7551 13.7681 45.9388 14.2475C45.1354 14.714 44.2413 14.9473 43.2565 14.9473ZM43.2565 13.1979C43.9044 13.1979 44.4875 13.036 45.0058 12.712C45.5371 12.388 45.9518 11.941 46.2498 11.3708C46.5608 10.8007 46.7163 10.1658 46.7163 9.46602C46.7163 8.75333 46.5608 8.12486 46.2498 7.58063C45.9518 7.02343 45.5371 6.58286 45.0058 6.25891C44.4875 5.922 43.9044 5.75355 43.2565 5.75355C42.5956 5.75355 41.9996 5.922 41.4683 6.25891C40.95 6.58286 40.5353 7.02343 40.2243 7.58063C39.9133 8.12486 39.7578 8.75333 39.7578 9.46602C39.7578 10.1658 39.9133 10.8007 40.2243 11.3708C40.5353 11.941 40.95 12.388 41.4683 12.712C41.9996 13.036 42.5956 13.1979 43.2565 13.1979ZM50.9982 14.714V4.23746H52.767V6.27835L52.4754 6.10341C52.7346 5.44255 53.1492 4.93071 53.7194 4.56789C54.3025 4.19211 54.9828 4.00421 55.7603 4.00421C56.5118 4.00421 57.1792 4.17267 57.7623 4.50958C58.3583 4.84649 58.8248 5.31297 59.1617 5.90904C59.5116 6.50511 59.6865 7.17893 59.6865 7.93049V14.714H57.8595V8.5136C57.8595 7.93049 57.7558 7.43809 57.5485 7.03639C57.3411 6.63469 57.0431 6.3237 56.6544 6.10341C56.2786 5.87017 55.8445 5.75355 55.3521 5.75355C54.8597 5.75355 54.4191 5.87017 54.0304 6.10341C53.6546 6.3237 53.3565 6.64117 53.1363 7.05583C52.916 7.45753 52.8058 7.94345 52.8058 8.5136V14.714H50.9982ZM67.2685 18.9902C66.5299 18.9902 65.8431 18.8735 65.2082 18.6403C64.5862 18.407 64.0484 18.0831 63.5949 17.6684C63.1543 17.2667 62.8174 16.7938 62.5842 16.2495L64.2752 15.4721C64.4566 15.9645 64.8 16.3791 65.3054 16.716C65.8237 17.0659 66.4716 17.2408 67.2491 17.2408C67.8451 17.2408 68.3829 17.1242 68.8623 16.891C69.3547 16.6707 69.7435 16.3338 70.0285 15.8802C70.3136 15.4397 70.4562 14.9019 70.4562 14.267V11.9151L70.7866 12.2649C70.4238 12.9776 69.899 13.5219 69.2122 13.8977C68.5384 14.2734 67.7933 14.4613 66.9769 14.4613C65.9921 14.4613 65.111 14.2346 64.3335 13.781C63.556 13.3145 62.947 12.6861 62.5064 11.8956C62.0658 11.0922 61.8456 10.2046 61.8456 9.23277C61.8456 8.24796 62.0658 7.36034 62.5064 6.5699C62.947 5.77946 63.5495 5.15748 64.3141 4.70395C65.0915 4.23746 65.9727 4.00421 66.9575 4.00421C67.7739 4.00421 68.5125 4.19211 69.1733 4.56789C69.8471 4.93071 70.3849 5.43607 70.7866 6.08398L70.5145 6.5699V4.23746H72.2832V14.267C72.2832 15.174 72.0694 15.9839 71.6418 16.6966C71.2142 17.4093 70.6181 17.9665 69.8536 18.3682C69.102 18.7828 68.2403 18.9902 67.2685 18.9902ZM67.1324 12.712C67.7544 12.712 68.3116 12.5565 68.804 12.2455C69.3094 11.9345 69.7111 11.5199 70.0091 11.0015C70.3071 10.4703 70.4562 9.88067 70.4562 9.23277C70.4562 8.59783 70.3071 8.01472 70.0091 7.48344C69.7111 6.95216 69.3094 6.53103 68.804 6.22004C68.3116 5.90904 67.7544 5.75355 67.1324 5.75355C66.4975 5.75355 65.9209 5.90904 65.4025 6.22004C64.8842 6.53103 64.476 6.95216 64.178 7.48344C63.8929 8.00176 63.7504 8.58487 63.7504 9.23277C63.7504 9.88067 63.8929 10.4703 64.178 11.0015C64.476 11.5199 64.8777 11.9345 65.3831 12.2455C65.9014 12.5565 66.4845 12.712 67.1324 12.712ZM82.1967 14.9473C81.1471 14.9473 80.2336 14.6881 79.4561 14.1698C78.6786 13.6515 78.1279 12.9517 77.804 12.0706L79.2423 11.3708C79.5403 11.9928 79.9485 12.4852 80.4668 12.8481C80.9852 13.2109 81.5618 13.3923 82.1967 13.3923C82.7669 13.3923 83.2399 13.2562 83.6156 12.9841C83.9914 12.712 84.1793 12.3557 84.1793 11.9151C84.1793 11.6041 84.0886 11.3579 83.9072 11.1765C83.7387 10.9821 83.5314 10.8331 83.2852 10.7294C83.039 10.6128 82.8122 10.5286 82.6049 10.4767L81.0305 10.0297C80.0846 9.75757 79.3913 9.36883 78.9508 8.86347C78.5231 8.35811 78.3093 7.76852 78.3093 7.0947C78.3093 6.47272 78.4648 5.93496 78.7758 5.48143C79.0998 5.01494 79.5339 4.65211 80.0781 4.39295C80.6353 4.13379 81.2573 4.00421 81.9441 4.00421C82.8641 4.00421 83.6869 4.23746 84.4126 4.70395C85.1512 5.17044 85.676 5.82482 85.987 6.66709L84.5097 7.34738C84.2765 6.80315 83.9266 6.37553 83.4601 6.06454C82.9937 5.74059 82.4689 5.57861 81.8857 5.57861C81.3545 5.57861 80.9333 5.71467 80.6223 5.98679C80.3113 6.24595 80.1558 6.57638 80.1558 6.97808C80.1558 7.27611 80.2336 7.52232 80.3891 7.71669C80.5446 7.8981 80.7325 8.04064 80.9528 8.1443C81.173 8.23501 81.3869 8.31275 81.5942 8.37754L83.3046 8.88291C84.1599 9.12911 84.8207 9.51137 85.2872 10.0297C85.7667 10.548 86.0064 11.17 86.0064 11.8956C86.0064 12.4788 85.8444 13.0036 85.5205 13.47C85.1965 13.9365 84.7495 14.2994 84.1793 14.5585C83.6092 14.8177 82.9483 14.9473 82.1967 14.9473ZM92.6294 14.8306C91.6057 14.8306 90.8153 14.5391 90.2581 13.956C89.7138 13.3729 89.4417 12.55 89.4417 11.4875V5.96735H87.5369V4.23746H87.9256C88.3921 4.23746 88.7614 4.09492 89.0336 3.80984C89.3057 3.52477 89.4417 3.14899 89.4417 2.6825V1.82727H91.2494V4.23746H93.6013V5.96735H91.2494V11.4292C91.2494 11.779 91.3012 12.0835 91.4049 12.3427C91.5215 12.6019 91.7094 12.8092 91.9685 12.9647C92.2277 13.1072 92.5711 13.1785 92.9987 13.1785C93.0894 13.1785 93.1996 13.172 93.3291 13.1591C93.4717 13.1461 93.6013 13.1331 93.7179 13.1202V14.714C93.5494 14.7529 93.3615 14.7788 93.1542 14.7918C92.9469 14.8177 92.7719 14.8306 92.6294 14.8306ZM99.0173 14.9473C98.3306 14.9473 97.7215 14.8242 97.1903 14.578C96.6719 14.3188 96.2638 13.9689 95.9657 13.5284C95.6677 13.0748 95.5187 12.5565 95.5187 11.9734C95.5187 11.4162 95.6353 10.9173 95.8685 10.4767C96.1147 10.0232 96.4905 9.64095 96.9959 9.32996C97.5142 9.01897 98.1621 8.79868 98.9396 8.6691L102.827 8.02768V9.54377L99.3478 10.1269C98.674 10.2435 98.1816 10.4573 97.8706 10.7683C97.5725 11.0793 97.4235 11.4616 97.4235 11.9151C97.4235 12.3427 97.592 12.699 97.9289 12.9841C98.2787 13.2692 98.7128 13.4117 99.2312 13.4117C99.892 13.4117 100.462 13.2757 100.942 13.0036C101.434 12.7185 101.816 12.3362 102.088 11.8568C102.373 11.3773 102.516 10.846 102.516 10.2629V7.60006C102.516 7.02991 102.302 6.5699 101.875 6.22004C101.46 5.85721 100.909 5.6758 100.222 5.6758C99.6264 5.6758 99.0951 5.83129 98.6286 6.14229C98.1751 6.44032 97.8382 6.84202 97.6179 7.34738L96.0435 6.53103C96.2379 6.05158 96.5488 5.62397 96.9765 5.24818C97.4041 4.85944 97.903 4.55493 98.4731 4.33464C99.0433 4.11436 99.6393 4.00421 100.261 4.00421C101.065 4.00421 101.771 4.15971 102.38 4.4707C102.989 4.76874 103.462 5.18987 103.799 5.73411C104.149 6.26539 104.324 6.88737 104.324 7.60006V14.714H102.555V12.7314L102.885 12.8481C102.665 13.2627 102.367 13.6255 101.991 13.9365C101.615 14.2475 101.175 14.4937 100.669 14.6751C100.164 14.8566 99.6134 14.9473 99.0173 14.9473ZM107.69 18.9902C107.457 18.9902 107.224 18.9707 106.99 18.9318C106.757 18.893 106.537 18.8282 106.329 18.7375V17.1242C106.472 17.1501 106.647 17.176 106.854 17.202C107.075 17.2408 107.288 17.2603 107.496 17.2603C108.105 17.2603 108.565 17.1242 108.876 16.8521C109.2 16.5929 109.504 16.1394 109.789 15.4915L110.45 13.9171L110.411 15.4915L105.941 4.23746H107.904L111.383 13.1785H110.8L114.26 4.23746H116.262L111.539 15.958C111.318 16.5152 111.033 17.0205 110.683 17.4741C110.346 17.9406 109.932 18.3099 109.439 18.582C108.947 18.8541 108.364 18.9902 107.69 18.9902ZM128.11 14.9473C127.087 14.9473 126.141 14.7658 125.273 14.403C124.417 14.0272 123.666 13.5024 123.018 12.8286C122.383 12.1548 121.89 11.3644 121.541 10.4573C121.191 9.55024 121.016 8.55896 121.016 7.48344C121.016 6.39497 121.191 5.3972 121.541 4.49014C121.89 3.58308 122.383 2.79264 123.018 2.11882C123.653 1.44501 124.404 0.926686 125.273 0.563861C126.141 0.188079 127.087 0.000188194 128.11 0.000188194C129.108 0.000188194 130.002 0.175121 130.793 0.524988C131.596 0.874854 132.27 1.32838 132.814 1.88558C133.371 2.44277 133.766 3.03884 134 3.67379L132.25 4.4707C131.913 3.66731 131.389 3.01941 130.676 2.527C129.963 2.02164 129.108 1.76896 128.11 1.76896C127.1 1.76896 126.199 2.00868 125.409 2.48813C124.631 2.96757 124.022 3.63491 123.581 4.49014C123.141 5.34537 122.921 6.34314 122.921 7.48344C122.921 8.61079 123.141 9.60208 123.581 10.4573C124.022 11.3125 124.631 11.9799 125.409 12.4593C126.199 12.9388 127.1 13.1785 128.11 13.1785C129.108 13.1785 129.963 12.9323 130.676 12.4399C131.389 11.9345 131.913 11.2801 132.25 10.4767L134 11.2737C133.766 11.9086 133.371 12.5047 132.814 13.0619C132.27 13.6191 131.596 14.0726 130.793 14.4225C130.002 14.7723 129.108 14.9473 128.11 14.9473ZM136.377 14.714V0.000188194H138.184V14.714H136.377ZM140.989 14.714V4.23746H142.797V14.714H140.989ZM140.989 2.56588V0.233432H142.797V2.56588H140.989ZM150.422 14.9473C149.411 14.9473 148.511 14.7075 147.72 14.2281C146.93 13.7486 146.308 13.0943 145.854 12.2649C145.401 11.4227 145.174 10.4832 145.174 9.44658C145.174 8.39698 145.394 7.464 145.835 6.64765C146.289 5.83129 146.898 5.18987 147.662 4.72338C148.44 4.24394 149.308 4.00421 150.267 4.00421C151.044 4.00421 151.731 4.14675 152.327 4.43183C152.936 4.70395 153.448 5.07973 153.863 5.55918C154.29 6.02566 154.614 6.56342 154.834 7.17245C155.068 7.76852 155.184 8.3905 155.184 9.0384C155.184 9.18094 155.171 9.34292 155.145 9.52433C155.132 9.69278 155.113 9.85476 155.087 10.0103H146.496V8.45529H154.037L153.182 9.15502C153.299 8.48121 153.234 7.87866 152.988 7.34738C152.742 6.8161 152.379 6.39497 151.899 6.08398C151.42 5.77298 150.876 5.61749 150.267 5.61749C149.658 5.61749 149.1 5.77298 148.595 6.08398C148.09 6.39497 147.695 6.84202 147.409 7.42513C147.137 7.99528 147.027 8.67558 147.079 9.46602C147.027 10.2305 147.144 10.9044 147.429 11.4875C147.727 12.0576 148.142 12.5047 148.673 12.8286C149.217 13.1396 149.807 13.2951 150.442 13.2951C151.141 13.2951 151.731 13.1331 152.21 12.8092C152.69 12.4852 153.079 12.0706 153.377 11.5652L154.893 12.3427C154.685 12.8221 154.361 13.2627 153.921 13.6644C153.493 14.0532 152.981 14.3641 152.385 14.5974C151.802 14.8306 151.148 14.9473 150.422 14.9473ZM157.541 14.714V4.23746H159.31V6.27835L159.018 6.10341C159.278 5.44255 159.692 4.93071 160.262 4.56789C160.845 4.19211 161.526 4.00421 162.303 4.00421C163.055 4.00421 163.722 4.17267 164.305 4.50958C164.901 4.84649 165.368 5.31297 165.705 5.90904C166.055 6.50511 166.23 7.17893 166.23 7.93049V14.714H164.402V8.5136C164.402 7.93049 164.299 7.43809 164.091 7.03639C163.884 6.63469 163.586 6.3237 163.197 6.10341C162.822 5.87017 162.387 5.75355 161.895 5.75355C161.403 5.75355 160.962 5.87017 160.573 6.10341C160.198 6.3237 159.9 6.64117 159.679 7.05583C159.459 7.45753 159.349 7.94345 159.349 8.5136V14.714H157.541ZM173.073 14.8306C172.049 14.8306 171.259 14.5391 170.702 13.956C170.157 13.3729 169.885 12.55 169.885 11.4875V5.96735H167.98V4.23746H168.369C168.836 4.23746 169.205 4.09492 169.477 3.80984C169.749 3.52477 169.885 3.14899 169.885 2.6825V1.82727H171.693V4.23746H174.045V5.96735H171.693V11.4292C171.693 11.779 171.745 12.0835 171.848 12.3427C171.965 12.6019 172.153 12.8092 172.412 12.9647C172.671 13.1072 173.015 13.1785 173.442 13.1785C173.533 13.1785 173.643 13.172 173.773 13.1591C173.915 13.1461 174.045 13.1331 174.161 13.1202V14.714C173.993 14.7529 173.805 14.7788 173.598 14.7918C173.39 14.8177 173.215 14.8306 173.073 14.8306ZM180.274 14.9473C179.224 14.9473 178.311 14.6881 177.533 14.1698C176.756 13.6515 176.205 12.9517 175.881 12.0706L177.32 11.3708C177.618 11.9928 178.026 12.4852 178.544 12.8481C179.062 13.2109 179.639 13.3923 180.274 13.3923C180.844 13.3923 181.317 13.2562 181.693 12.9841C182.069 12.712 182.257 12.3557 182.257 11.9151C182.257 11.6041 182.166 11.3579 181.984 11.1765C181.816 10.9821 181.609 10.8331 181.362 10.7294C181.116 10.6128 180.889 10.5286 180.682 10.4767L179.108 10.0297C178.162 9.75757 177.469 9.36883 177.028 8.86347C176.6 8.35811 176.387 7.76852 176.387 7.0947C176.387 6.47272 176.542 5.93496 176.853 5.48143C177.177 5.01494 177.611 4.65211 178.155 4.39295C178.713 4.13379 179.334 4.00421 180.021 4.00421C180.941 4.00421 181.764 4.23746 182.49 4.70395C183.228 5.17044 183.753 5.82482 184.064 6.66709L182.587 7.34738C182.354 6.80315 182.004 6.37553 181.537 6.06454C181.071 5.74059 180.546 5.57861 179.963 5.57861C179.432 5.57861 179.011 5.71467 178.7 5.98679C178.389 6.24595 178.233 6.57638 178.233 6.97808C178.233 7.27611 178.311 7.52232 178.466 7.71669C178.622 7.8981 178.81 8.04064 179.03 8.1443C179.25 8.23501 179.464 8.31275 179.671 8.37754L181.382 8.88291C182.237 9.12911 182.898 9.51137 183.364 10.0297C183.844 10.548 184.084 11.17 184.084 11.8956C184.084 12.4788 183.922 13.0036 183.598 13.47C183.274 13.9365 182.827 14.2994 182.257 14.5585C181.686 14.8177 181.026 14.9473 180.274 14.9473ZM186.761 17.4158V16.5411C187.163 16.4374 187.467 16.2366 187.674 15.9385C187.882 15.6405 187.998 15.2323 188.024 14.714H187.15V12.3816H189.035V14.0337C189.035 14.9667 188.841 15.7183 188.452 16.2884C188.076 16.8586 187.512 17.2343 186.761 17.4158ZM477.898 14.714V5.96735H475.896V4.23746H477.898V3.49885C477.898 2.74729 478.06 2.11234 478.384 1.59402C478.721 1.0757 479.162 0.680484 479.706 0.408365C480.263 0.136247 480.879 0.000188194 481.552 0.000188194C481.695 0.000188194 481.85 0.013146 482.019 0.0390617C482.2 0.0520204 482.349 0.0714575 482.466 0.0973732V1.71065C482.362 1.68473 482.239 1.67177 482.097 1.67177C481.954 1.65881 481.844 1.65233 481.766 1.65233C481.17 1.65233 480.678 1.79487 480.289 2.07995C479.913 2.36503 479.725 2.83799 479.725 3.49885V4.23746H482.213V5.96735H479.725V14.714H477.898ZM488.998 14.9473C487.987 14.9473 487.074 14.714 486.258 14.2475C485.441 13.7681 484.793 13.1137 484.314 12.2844C483.834 11.4551 483.595 10.5156 483.595 9.46602C483.595 8.41642 483.828 7.48344 484.294 6.66709C484.774 5.85073 485.422 5.20283 486.238 4.72338C487.055 4.24394 487.975 4.00421 488.998 4.00421C490.009 4.00421 490.922 4.24394 491.739 4.72338C492.555 5.18987 493.197 5.83129 493.663 6.64765C494.143 7.464 494.382 8.40346 494.382 9.46602C494.382 10.5286 494.136 11.4745 493.644 12.3038C493.151 13.1202 492.497 13.7681 491.681 14.2475C490.877 14.714 489.983 14.9473 488.998 14.9473ZM488.998 13.1979C489.646 13.1979 490.229 13.036 490.748 12.712C491.279 12.388 491.693 11.941 491.992 11.3708C492.303 10.8007 492.458 10.1658 492.458 9.46602C492.458 8.75333 492.303 8.12486 491.992 7.58063C491.693 7.02343 491.279 6.58286 490.748 6.25891C490.229 5.922 489.646 5.75355 488.998 5.75355C488.337 5.75355 487.741 5.922 487.21 6.25891C486.692 6.58286 486.277 7.02343 485.966 7.58063C485.655 8.12486 485.5 8.75333 485.5 9.46602C485.5 10.1658 485.655 10.8007 485.966 11.3708C486.277 11.941 486.692 12.388 487.21 12.712C487.741 13.036 488.337 13.1979 488.998 13.1979ZM496.74 14.714V4.23746H498.509V6.16172L498.314 5.88961C498.561 5.29354 498.936 4.85296 499.442 4.56789C499.947 4.26985 500.563 4.12084 501.288 4.12084H501.93V5.83129H501.016C500.277 5.83129 499.681 6.06454 499.228 6.53103C498.774 6.98456 498.548 7.63246 498.548 8.47473V14.714H496.74ZM510.607 14.9473C509.856 14.9473 509.176 14.7723 508.567 14.4225C507.971 14.0726 507.504 13.5867 507.167 12.9647C506.843 12.3297 506.681 11.6041 506.681 10.7877V4.23746H508.489V10.5934C508.489 11.1117 508.593 11.5652 508.8 11.954C509.02 12.3427 509.318 12.6472 509.694 12.8675C510.083 13.0878 510.523 13.1979 511.016 13.1979C511.508 13.1979 511.942 13.0878 512.318 12.8675C512.707 12.6472 513.005 12.3297 513.212 11.9151C513.432 11.5004 513.542 11.008 513.542 10.4379V4.23746H515.37V14.714H513.601V12.6731L513.892 12.8481C513.646 13.5089 513.225 14.0272 512.629 14.403C512.046 14.7658 511.372 14.9473 510.607 14.9473ZM518.17 14.714V4.23746H519.939V6.27835L519.647 6.10341C519.906 5.44255 520.321 4.93071 520.891 4.56789C521.474 4.19211 522.155 4.00421 522.932 4.00421C523.684 4.00421 524.351 4.17267 524.934 4.50958C525.53 4.84649 525.997 5.31297 526.334 5.90904C526.683 6.50511 526.858 7.17893 526.858 7.93049V14.714H525.031V8.5136C525.031 7.93049 524.928 7.43809 524.72 7.03639C524.513 6.63469 524.215 6.3237 523.826 6.10341C523.45 5.87017 523.016 5.75355 522.524 5.75355C522.031 5.75355 521.591 5.87017 521.202 6.10341C520.826 6.3237 520.528 6.64117 520.308 7.05583C520.088 7.45753 519.978 7.94345 519.978 8.5136V14.714H518.17ZM534.207 14.9473C533.222 14.9473 532.335 14.7075 531.544 14.2281C530.767 13.7486 530.151 13.0943 529.698 12.2649C529.244 11.4356 529.017 10.5091 529.017 9.48545C529.017 8.43585 529.244 7.50288 529.698 6.68652C530.151 5.85721 530.767 5.20283 531.544 4.72338C532.335 4.24394 533.222 4.00421 534.207 4.00421C535.075 4.00421 535.846 4.19211 536.52 4.56789C537.194 4.93071 537.725 5.42312 538.114 6.0451L537.822 6.49215V0.000188194H539.649V14.714H537.881V12.4788L538.114 12.7897C537.751 13.4765 537.22 14.0078 536.52 14.3836C535.833 14.7594 535.062 14.9473 534.207 14.9473ZM534.363 13.1979C535.023 13.1979 535.613 13.036 536.131 12.712C536.65 12.388 537.058 11.9475 537.356 11.3903C537.667 10.8201 537.822 10.1852 537.822 9.48545C537.822 8.77276 537.667 8.13782 537.356 7.58063C537.058 7.01047 536.65 6.56342 536.131 6.23947C535.613 5.91552 535.023 5.75355 534.363 5.75355C533.715 5.75355 533.125 5.922 532.594 6.25891C532.075 6.58286 531.667 7.02343 531.369 7.58063C531.071 8.12486 530.922 8.75981 530.922 9.48545C530.922 10.1852 531.071 10.8201 531.369 11.3903C531.667 11.9475 532.075 12.388 532.594 12.712C533.112 13.036 533.702 13.1979 534.363 13.1979ZM542.447 14.714V4.23746H544.255V14.714H542.447ZM542.447 2.56588V0.233432H544.255V2.56588H542.447ZM550.811 14.9473C549.762 14.9473 548.848 14.6881 548.071 14.1698C547.293 13.6515 546.742 12.9517 546.418 12.0706L547.857 11.3708C548.155 11.9928 548.563 12.4852 549.081 12.8481C549.6 13.2109 550.176 13.3923 550.811 13.3923C551.381 13.3923 551.854 13.2562 552.23 12.9841C552.606 12.712 552.794 12.3557 552.794 11.9151C552.794 11.6041 552.703 11.3579 552.522 11.1765C552.353 10.9821 552.146 10.8331 551.9 10.7294C551.653 10.6128 551.427 10.5286 551.219 10.4767L549.645 10.0297C548.699 9.75757 548.006 9.36883 547.565 8.86347C547.138 8.35811 546.924 7.76852 546.924 7.0947C546.924 6.47272 547.079 5.93496 547.39 5.48143C547.714 5.01494 548.148 4.65211 548.692 4.39295C549.25 4.13379 549.872 4.00421 550.558 4.00421C551.478 4.00421 552.301 4.23746 553.027 4.70395C553.766 5.17044 554.29 5.82482 554.601 6.66709L553.124 7.34738C552.891 6.80315 552.541 6.37553 552.075 6.06454C551.608 5.74059 551.083 5.57861 550.5 5.57861C549.969 5.57861 549.548 5.71467 549.237 5.98679C548.926 6.24595 548.77 6.57638 548.77 6.97808C548.77 7.27611 548.848 7.52232 549.003 7.71669C549.159 7.8981 549.347 8.04064 549.567 8.1443C549.787 8.23501 550.001 8.31275 550.209 8.37754L551.919 8.88291C552.774 9.12911 553.435 9.51137 553.902 10.0297C554.381 10.548 554.621 11.17 554.621 11.8956C554.621 12.4788 554.459 13.0036 554.135 13.47C553.811 13.9365 553.364 14.2994 552.794 14.5585C552.224 14.8177 551.563 14.9473 550.811 14.9473ZM561.244 14.8306C560.22 14.8306 559.43 14.5391 558.872 13.956C558.328 13.3729 558.056 12.55 558.056 11.4875V5.96735H556.151V4.23746H556.54C557.007 4.23746 557.376 4.09492 557.648 3.80984C557.92 3.52477 558.056 3.14899 558.056 2.6825V1.82727H559.864V4.23746H562.216V5.96735H559.864V11.4292C559.864 11.779 559.916 12.0835 560.019 12.3427C560.136 12.6019 560.324 12.8092 560.583 12.9647C560.842 13.1072 561.185 13.1785 561.613 13.1785C561.704 13.1785 561.814 13.172 561.944 13.1591C562.086 13.1461 562.216 13.1331 562.332 13.1202V14.714C562.164 14.7529 561.976 14.7788 561.769 14.7918C561.561 14.8177 561.386 14.8306 561.244 14.8306ZM568.406 14.9473C567.654 14.9473 566.974 14.7723 566.365 14.4225C565.769 14.0726 565.303 13.5867 564.966 12.9647C564.642 12.3297 564.48 11.6041 564.48 10.7877V4.23746H566.287V10.5934C566.287 11.1117 566.391 11.5652 566.598 11.954C566.819 12.3427 567.117 12.6472 567.493 12.8675C567.881 13.0878 568.322 13.1979 568.814 13.1979C569.307 13.1979 569.741 13.0878 570.117 12.8675C570.505 12.6472 570.803 12.3297 571.011 11.9151C571.231 11.5004 571.341 11.008 571.341 10.4379V4.23746H573.168V14.714H571.399V12.6731L571.691 12.8481C571.445 13.5089 571.024 14.0272 570.428 14.403C569.844 14.7658 569.171 14.9473 568.406 14.9473ZM575.969 14.714V4.23746H577.737V6.16172L577.543 5.88961C577.789 5.29354 578.165 4.85296 578.67 4.56789C579.176 4.26985 579.791 4.12084 580.517 4.12084H581.158V5.83129H580.245C579.506 5.83129 578.91 6.06454 578.457 6.53103C578.003 6.98456 577.776 7.63246 577.776 8.47473V14.714H575.969ZM588.187 14.9473C587.345 14.9473 586.574 14.7594 585.874 14.3836C585.187 14.0078 584.656 13.4765 584.28 12.7897L584.533 12.4788V14.714H582.764V0.000188194H584.572V6.49215L584.299 6.0451C584.688 5.42312 585.219 4.93071 585.893 4.56789C586.567 4.19211 587.338 4.00421 588.206 4.00421C589.191 4.00421 590.072 4.24394 590.85 4.72338C591.64 5.20283 592.262 5.85721 592.716 6.68652C593.169 7.50288 593.396 8.43585 593.396 9.48545C593.396 10.5091 593.169 11.4356 592.716 12.2649C592.262 13.0943 591.64 13.7486 590.85 14.2281C590.072 14.7075 589.185 14.9473 588.187 14.9473ZM588.051 13.1979C588.712 13.1979 589.301 13.036 589.82 12.712C590.338 12.388 590.74 11.9475 591.025 11.3903C591.323 10.8201 591.472 10.1852 591.472 9.48545C591.472 8.75981 591.323 8.12486 591.025 7.58063C590.74 7.02343 590.338 6.58286 589.82 6.25891C589.301 5.922 588.712 5.75355 588.051 5.75355C587.39 5.75355 586.794 5.91552 586.263 6.23947C585.744 6.56342 585.33 7.01047 585.019 7.58063C584.721 8.13782 584.572 8.77276 584.572 9.48545C584.572 10.1852 584.721 10.8201 585.019 11.3903C585.33 11.9475 585.744 12.388 586.263 12.712C586.794 13.036 587.39 13.1979 588.051 13.1979ZM600.587 14.9473C599.576 14.9473 598.675 14.7075 597.885 14.2281C597.094 13.7486 596.472 13.0943 596.019 12.2649C595.565 11.4227 595.339 10.4832 595.339 9.44658C595.339 8.39698 595.559 7.464 595.999 6.64765C596.453 5.83129 597.062 5.18987 597.827 4.72338C598.604 4.24394 599.472 4.00421 600.431 4.00421C601.209 4.00421 601.895 4.14675 602.491 4.43183C603.1 4.70395 603.612 5.07973 604.027 5.55918C604.455 6.02566 604.779 6.56342 604.999 7.17245C605.232 7.76852 605.349 8.3905 605.349 9.0384C605.349 9.18094 605.336 9.34292 605.31 9.52433C605.297 9.69278 605.277 9.85476 605.252 10.0103H596.66V8.45529H604.202L603.347 9.15502C603.463 8.48121 603.399 7.87866 603.152 7.34738C602.906 6.8161 602.543 6.39497 602.064 6.08398C601.584 5.77298 601.04 5.61749 600.431 5.61749C599.822 5.61749 599.265 5.77298 598.76 6.08398C598.254 6.39497 597.859 6.84202 597.574 7.42513C597.302 7.99528 597.192 8.67558 597.243 9.46602C597.192 10.2305 597.308 10.9044 597.593 11.4875C597.891 12.0576 598.306 12.5047 598.837 12.8286C599.382 13.1396 599.971 13.2951 600.606 13.2951C601.306 13.2951 601.895 13.1331 602.375 12.8092C602.854 12.4852 603.243 12.0706 603.541 11.5652L605.057 12.3427C604.85 12.8221 604.526 13.2627 604.085 13.6644C603.658 14.0532 603.146 14.3641 602.55 14.5974C601.967 14.8306 601.312 14.9473 600.587 14.9473ZM612.468 14.9473C611.483 14.9473 610.595 14.7075 609.805 14.2281C609.027 13.7486 608.412 13.0943 607.958 12.2649C607.505 11.4356 607.278 10.5091 607.278 9.48545C607.278 8.43585 607.505 7.50288 607.958 6.68652C608.412 5.85721 609.027 5.20283 609.805 4.72338C610.595 4.24394 611.483 4.00421 612.468 4.00421C613.336 4.00421 614.107 4.19211 614.781 4.56789C615.454 4.93071 615.986 5.42312 616.374 6.0451L616.083 6.49215V0.000188194H617.91V14.714H616.141V12.4788L616.374 12.7897C616.012 13.4765 615.48 14.0078 614.781 14.3836C614.094 14.7594 613.323 14.9473 612.468 14.9473ZM612.623 13.1979C613.284 13.1979 613.874 13.036 614.392 12.712C614.91 12.388 615.318 11.9475 615.616 11.3903C615.927 10.8201 616.083 10.1852 616.083 9.48545C616.083 8.77276 615.927 8.13782 615.616 7.58063C615.318 7.01047 614.91 6.56342 614.392 6.23947C613.874 5.91552 613.284 5.75355 612.623 5.75355C611.975 5.75355 611.386 5.922 610.854 6.25891C610.336 6.58286 609.928 7.02343 609.63 7.58063C609.332 8.12486 609.183 8.75981 609.183 9.48545C609.183 10.1852 609.332 10.8201 609.63 11.3903C609.928 11.9475 610.336 12.388 610.854 12.712C611.373 13.036 611.962 13.1979 612.623 13.1979ZM627.819 14.9473C626.769 14.9473 625.856 14.6881 625.078 14.1698C624.301 13.6515 623.75 12.9517 623.426 12.0706L624.865 11.3708C625.163 11.9928 625.571 12.4852 626.089 12.8481C626.607 13.2109 627.184 13.3923 627.819 13.3923C628.389 13.3923 628.862 13.2562 629.238 12.9841C629.614 12.712 629.802 12.3557 629.802 11.9151C629.802 11.6041 629.711 11.3579 629.529 11.1765C629.361 10.9821 629.154 10.8331 628.907 10.7294C628.661 10.6128 628.434 10.5286 628.227 10.4767L626.653 10.0297C625.707 9.75757 625.014 9.36883 624.573 8.86347C624.145 8.35811 623.932 7.76852 623.932 7.0947C623.932 6.47272 624.087 5.93496 624.398 5.48143C624.722 5.01494 625.156 4.65211 625.7 4.39295C626.257 4.13379 626.879 4.00421 627.566 4.00421C628.486 4.00421 629.309 4.23746 630.035 4.70395C630.773 5.17044 631.298 5.82482 631.609 6.66709L630.132 7.34738C629.899 6.80315 629.549 6.37553 629.082 6.06454C628.616 5.74059 628.091 5.57861 627.508 5.57861C626.977 5.57861 626.556 5.71467 626.245 5.98679C625.934 6.24595 625.778 6.57638 625.778 6.97808C625.778 7.27611 625.856 7.52232 626.011 7.71669C626.167 7.8981 626.355 8.04064 626.575 8.1443C626.795 8.23501 627.009 8.31275 627.216 8.37754L628.927 8.88291C629.782 9.12911 630.443 9.51137 630.909 10.0297C631.389 10.548 631.629 11.17 631.629 11.8956C631.629 12.4788 631.467 13.0036 631.143 13.47C630.819 13.9365 630.372 14.2994 629.802 14.5585C629.231 14.8177 628.571 14.9473 627.819 14.9473ZM638.815 14.9473C637.805 14.9473 636.904 14.7075 636.114 14.2281C635.323 13.7486 634.701 13.0943 634.248 12.2649C633.794 11.4227 633.567 10.4832 633.567 9.44658C633.567 8.39698 633.788 7.464 634.228 6.64765C634.682 5.83129 635.291 5.18987 636.055 4.72338C636.833 4.24394 637.701 4.00421 638.66 4.00421C639.437 4.00421 640.124 4.14675 640.72 4.43183C641.329 4.70395 641.841 5.07973 642.256 5.55918C642.683 6.02566 643.007 6.56342 643.227 7.17245C643.461 7.76852 643.577 8.3905 643.577 9.0384C643.577 9.18094 643.564 9.34292 643.538 9.52433C643.526 9.69278 643.506 9.85476 643.48 10.0103H634.889V8.45529H642.431L641.575 9.15502C641.692 8.48121 641.627 7.87866 641.381 7.34738C641.135 6.8161 640.772 6.39497 640.292 6.08398C639.813 5.77298 639.269 5.61749 638.66 5.61749C638.051 5.61749 637.494 5.77298 636.988 6.08398C636.483 6.39497 636.088 6.84202 635.803 7.42513C635.53 7.99528 635.42 8.67558 635.472 9.46602C635.42 10.2305 635.537 10.9044 635.822 11.4875C636.12 12.0576 636.535 12.5047 637.066 12.8286C637.61 13.1396 638.2 13.2951 638.835 13.2951C639.534 13.2951 640.124 13.1331 640.603 12.8092C641.083 12.4852 641.472 12.0706 641.77 11.5652L643.286 12.3427C643.078 12.8221 642.754 13.2627 642.314 13.6644C641.886 14.0532 641.374 14.3641 640.778 14.5974C640.195 14.8306 639.541 14.9473 638.815 14.9473ZM645.934 14.714V4.23746H647.703V6.16172L647.509 5.88961C647.755 5.29354 648.131 4.85296 648.636 4.56789C649.141 4.26985 649.757 4.12084 650.482 4.12084H651.124V5.83129H650.21C649.472 5.83129 648.876 6.06454 648.422 6.53103C647.969 6.98456 647.742 7.63246 647.742 8.47473V14.714H645.934ZM655.645 14.714L651.544 4.23746H653.565L656.85 13.1007H656.151L659.455 4.23746H661.476L657.356 14.714H655.645ZM663.093 14.714V4.23746H664.901V14.714H663.093ZM663.093 2.56588V0.233432H664.901V2.56588H663.093ZM672.565 14.9473C671.542 14.9473 670.628 14.7075 669.825 14.2281C669.034 13.7486 668.412 13.0943 667.959 12.2649C667.505 11.4356 667.278 10.5027 667.278 9.46602C667.278 8.41642 667.505 7.48344 667.959 6.66709C668.412 5.85073 669.034 5.20283 669.825 4.72338C670.628 4.24394 671.542 4.00421 672.565 4.00421C673.252 4.00421 673.893 4.12732 674.489 4.37352C675.086 4.61972 675.61 4.95015 676.064 5.36481C676.517 5.77946 676.848 6.26539 677.055 6.82258L675.442 7.60006C675.196 7.05583 674.82 6.61525 674.315 6.27835C673.809 5.92848 673.226 5.75355 672.565 5.75355C671.93 5.75355 671.354 5.91552 670.835 6.23947C670.33 6.56342 669.928 7.00399 669.63 7.56119C669.332 8.11838 669.183 8.75981 669.183 9.48545C669.183 10.1852 669.332 10.8201 669.63 11.3903C669.928 11.9475 670.33 12.388 670.835 12.712C671.354 13.036 671.93 13.1979 672.565 13.1979C673.226 13.1979 673.809 13.0295 674.315 12.6926C674.82 12.3427 675.196 11.8827 675.442 11.3125L677.055 12.1289C676.848 12.6731 676.517 13.1591 676.064 13.5867C675.61 14.0013 675.086 14.3318 674.489 14.578C673.893 14.8242 673.252 14.9473 672.565 14.9473ZM684.238 14.9473C683.227 14.9473 682.327 14.7075 681.536 14.2281C680.746 13.7486 680.124 13.0943 679.67 12.2649C679.217 11.4227 678.99 10.4832 678.99 9.44658C678.99 8.39698 679.21 7.464 679.651 6.64765C680.104 5.83129 680.713 5.18987 681.478 4.72338C682.255 4.24394 683.124 4.00421 684.082 4.00421C684.86 4.00421 685.547 4.14675 686.143 4.43183C686.752 4.70395 687.264 5.07973 687.678 5.55918C688.106 6.02566 688.43 6.56342 688.65 7.17245C688.883 7.76852 689 8.3905 689 9.0384C689 9.18094 688.987 9.34292 688.961 9.52433C688.948 9.69278 688.929 9.85476 688.903 10.0103H680.312V8.45529H687.853L686.998 9.15502C687.115 8.48121 687.05 7.87866 686.804 7.34738C686.557 6.8161 686.195 6.39497 685.715 6.08398C685.236 5.77298 684.691 5.61749 684.082 5.61749C683.473 5.61749 682.916 5.77298 682.411 6.08398C681.906 6.39497 681.51 6.84202 681.225 7.42513C680.953 7.99528 680.843 8.67558 680.895 9.46602C680.843 10.2305 680.96 10.9044 681.245 11.4875C681.543 12.0576 681.957 12.5047 682.489 12.8286C683.033 13.1396 683.622 13.2951 684.257 13.2951C684.957 13.2951 685.547 13.1331 686.026 12.8092C686.506 12.4852 686.894 12.0706 687.192 11.5652L688.708 12.3427C688.501 12.8221 688.177 13.2627 687.737 13.6644C687.309 14.0532 686.797 14.3641 686.201 14.5974C685.618 14.8306 684.964 14.9473 684.238 14.9473Z" fill="black"/>
<path d="M200.322 14.9473C199.298 14.9473 198.384 14.7075 197.581 14.2281C196.778 13.7357 196.143 13.0683 195.676 12.2261C195.21 11.3838 194.977 10.4508 194.977 9.42714C194.977 8.3905 195.21 7.45753 195.676 6.62821C196.143 5.7989 196.778 5.13804 197.581 4.64564C198.397 4.15323 199.305 3.90703 200.302 3.90703C201.106 3.90703 201.818 4.069 202.44 4.39295C203.075 4.70395 203.574 5.14452 203.937 5.71467L203.548 6.23947V0.000188194H206.095V14.714H203.684V12.6731L203.956 13.1785C203.594 13.7486 203.088 14.1892 202.44 14.5002C201.792 14.7982 201.086 14.9473 200.322 14.9473ZM200.594 12.6148C201.177 12.6148 201.689 12.4788 202.129 12.2066C202.57 11.9345 202.913 11.5587 203.16 11.0793C203.419 10.5998 203.548 10.0491 203.548 9.42714C203.548 8.81812 203.419 8.27388 203.16 7.79443C202.913 7.30203 202.57 6.91977 202.129 6.64765C201.689 6.37553 201.177 6.23947 200.594 6.23947C200.024 6.23947 199.512 6.38201 199.058 6.66709C198.605 6.9392 198.248 7.31499 197.989 7.79443C197.743 8.26092 197.62 8.80516 197.62 9.42714C197.62 10.0491 197.743 10.5998 197.989 11.0793C198.248 11.5587 198.605 11.9345 199.058 12.2066C199.512 12.4788 200.024 12.6148 200.594 12.6148ZM213.478 14.9473C212.39 14.9473 211.437 14.7011 210.621 14.2087C209.805 13.7162 209.17 13.0489 208.716 12.2066C208.263 11.3644 208.036 10.4314 208.036 9.40771C208.036 8.34515 208.263 7.40569 208.716 6.58934C209.183 5.76003 209.811 5.10565 210.601 4.6262C211.405 4.14675 212.299 3.90703 213.284 3.90703C214.113 3.90703 214.839 4.04309 215.461 4.31521C216.096 4.58733 216.633 4.96311 217.074 5.44255C217.515 5.922 217.851 6.47272 218.085 7.0947C218.318 7.70373 218.435 8.36459 218.435 9.07728C218.435 9.25869 218.422 9.44658 218.396 9.64095C218.383 9.83532 218.35 10.0038 218.299 10.1463H210.135V8.20261H216.86L215.655 9.11615C215.772 8.52008 215.739 7.9888 215.558 7.52232C215.389 7.05583 215.104 6.68652 214.703 6.41441C214.314 6.14229 213.841 6.00623 213.284 6.00623C212.753 6.00623 212.28 6.14229 211.865 6.41441C211.45 6.67357 211.133 7.06231 210.912 7.58063C210.705 8.08599 210.627 8.70149 210.679 9.42714C210.627 10.075 210.712 10.6517 210.932 11.157C211.165 11.6494 211.502 12.0317 211.943 12.3038C212.396 12.5759 212.914 12.712 213.498 12.712C214.081 12.712 214.573 12.5889 214.975 12.3427C215.389 12.0965 215.713 11.7661 215.947 11.3514L218.007 12.3621C217.8 12.8675 217.476 13.3145 217.035 13.7033C216.595 14.092 216.07 14.3965 215.461 14.6168C214.865 14.8371 214.204 14.9473 213.478 14.9473ZM225.282 14.9473C224.259 14.9473 223.345 14.7075 222.542 14.2281C221.738 13.7357 221.103 13.0683 220.637 12.2261C220.17 11.3838 219.937 10.4508 219.937 9.42714C219.937 8.3905 220.17 7.45753 220.637 6.62821C221.103 5.7989 221.738 5.13804 222.542 4.64564C223.358 4.15323 224.265 3.90703 225.263 3.90703C226.066 3.90703 226.779 4.069 227.401 4.39295C228.036 4.70395 228.535 5.14452 228.898 5.71467L228.509 6.23947V0.000188194H231.055V14.714H228.645V12.6731L228.917 13.1785C228.554 13.7486 228.049 14.1892 227.401 14.5002C226.753 14.7982 226.047 14.9473 225.282 14.9473ZM225.554 12.6148C226.138 12.6148 226.649 12.4788 227.09 12.2066C227.531 11.9345 227.874 11.5587 228.12 11.0793C228.379 10.5998 228.509 10.0491 228.509 9.42714C228.509 8.81812 228.379 8.27388 228.12 7.79443C227.874 7.30203 227.531 6.91977 227.09 6.64765C226.649 6.37553 226.138 6.23947 225.554 6.23947C224.984 6.23947 224.472 6.38201 224.019 6.66709C223.565 6.9392 223.209 7.31499 222.95 7.79443C222.704 8.26092 222.581 8.80516 222.581 9.42714C222.581 10.0491 222.704 10.5998 222.95 11.0793C223.209 11.5587 223.565 11.9345 224.019 12.2066C224.472 12.4788 224.984 12.6148 225.554 12.6148ZM233.424 14.714V4.14027H235.97V14.714H233.424ZM233.424 2.95462V0.233432H235.97V2.95462H233.424ZM243.414 14.9473C242.364 14.9473 241.418 14.7075 240.576 14.2281C239.747 13.7357 239.092 13.0748 238.613 12.2455C238.133 11.4032 237.894 10.4573 237.894 9.40771C237.894 8.35811 238.133 7.41865 238.613 6.58934C239.092 5.76003 239.747 5.10565 240.576 4.6262C241.418 4.14675 242.364 3.90703 243.414 3.90703C244.165 3.90703 244.865 4.04309 245.513 4.31521C246.161 4.57437 246.718 4.93719 247.185 5.40368C247.664 5.85721 248.007 6.40145 248.215 7.03639L245.979 8.00824C245.785 7.47696 245.455 7.04935 244.988 6.7254C244.535 6.40145 244.01 6.23947 243.414 6.23947C242.857 6.23947 242.358 6.37553 241.917 6.64765C241.489 6.91977 241.153 7.29555 240.906 7.775C240.66 8.25444 240.537 8.80516 240.537 9.42714C240.537 10.0491 240.66 10.5998 240.906 11.0793C241.153 11.5587 241.489 11.9345 241.917 12.2066C242.358 12.4788 242.857 12.6148 243.414 12.6148C244.023 12.6148 244.554 12.4528 245.008 12.1289C245.461 11.8049 245.785 11.3708 245.979 10.8266L248.215 11.8373C248.007 12.4334 247.67 12.9712 247.204 13.4506C246.737 13.9171 246.18 14.2864 245.532 14.5585C244.884 14.8177 244.178 14.9473 243.414 14.9473ZM253.316 14.9473C252.577 14.9473 251.936 14.8242 251.392 14.578C250.847 14.3318 250.426 13.9819 250.128 13.5284C249.83 13.0619 249.681 12.5241 249.681 11.9151C249.681 11.332 249.811 10.8137 250.07 10.3601C250.329 9.89363 250.731 9.50489 251.275 9.1939C251.819 8.88291 252.506 8.66262 253.335 8.53304L256.795 7.96937V9.91307L253.821 10.4184C253.316 10.5091 252.94 10.6711 252.694 10.9044C252.448 11.1376 252.325 11.4421 252.325 11.8179C252.325 12.1807 252.461 12.4723 252.733 12.6926C253.018 12.8999 253.368 13.0036 253.782 13.0036C254.314 13.0036 254.78 12.8934 255.182 12.6731C255.596 12.4399 255.914 12.1224 256.134 11.7207C256.367 11.319 256.484 10.8784 256.484 10.399V7.67781C256.484 7.22428 256.303 6.8485 255.94 6.55046C255.59 6.23947 255.123 6.08398 254.54 6.08398C253.996 6.08398 253.51 6.23299 253.083 6.53103C252.668 6.8161 252.363 7.19836 252.169 7.67781L250.089 6.66709C250.297 6.10989 250.621 5.63045 251.061 5.22875C251.515 4.81409 252.046 4.49014 252.655 4.2569C253.264 4.02365 253.925 3.90703 254.638 3.90703C255.506 3.90703 256.27 4.069 256.931 4.39295C257.592 4.70395 258.104 5.14452 258.467 5.71467C258.842 6.27187 259.03 6.92625 259.03 7.67781V14.714H256.62V12.9064L257.164 12.8675C256.892 13.321 256.568 13.7033 256.193 14.0143C255.817 14.3123 255.389 14.5456 254.91 14.714C254.43 14.8695 253.899 14.9473 253.316 14.9473ZM266.014 14.8306C264.822 14.8306 263.896 14.5067 263.235 13.8588C262.587 13.1979 262.263 12.2714 262.263 11.0793V6.41441H260.436V4.14027H260.63C261.149 4.14027 261.55 4.00421 261.835 3.7321C262.12 3.45998 262.263 3.06476 262.263 2.54644V1.73008H264.809V4.14027H267.239V6.41441H264.809V10.9432C264.809 11.2931 264.867 11.5911 264.984 11.8373C265.114 12.0835 265.308 12.2714 265.567 12.401C265.839 12.5306 266.183 12.5954 266.597 12.5954C266.688 12.5954 266.792 12.5889 266.908 12.5759C267.038 12.563 267.161 12.55 267.278 12.5371V14.714C267.096 14.7399 266.889 14.7658 266.656 14.7918C266.422 14.8177 266.209 14.8306 266.014 14.8306ZM274.143 14.9473C273.054 14.9473 272.102 14.7011 271.286 14.2087C270.469 13.7162 269.834 13.0489 269.381 12.2066C268.927 11.3644 268.701 10.4314 268.701 9.40771C268.701 8.34515 268.927 7.40569 269.381 6.58934C269.847 5.76003 270.476 5.10565 271.266 4.6262C272.07 4.14675 272.964 3.90703 273.949 3.90703C274.778 3.90703 275.503 4.04309 276.125 4.31521C276.76 4.58733 277.298 4.96311 277.739 5.44255C278.179 5.922 278.516 6.47272 278.749 7.0947C278.983 7.70373 279.099 8.36459 279.099 9.07728C279.099 9.25869 279.086 9.44658 279.06 9.64095C279.048 9.83532 279.015 10.0038 278.963 10.1463H270.8V8.20261H277.525L276.32 9.11615C276.436 8.52008 276.404 7.9888 276.223 7.52232C276.054 7.05583 275.769 6.68652 275.367 6.41441C274.979 6.14229 274.506 6.00623 273.949 6.00623C273.417 6.00623 272.944 6.14229 272.53 6.41441C272.115 6.67357 271.798 7.06231 271.577 7.58063C271.37 8.08599 271.292 8.70149 271.344 9.42714C271.292 10.075 271.376 10.6517 271.597 11.157C271.83 11.6494 272.167 12.0317 272.607 12.3038C273.061 12.5759 273.579 12.712 274.162 12.712C274.745 12.712 275.238 12.5889 275.64 12.3427C276.054 12.0965 276.378 11.7661 276.611 11.3514L278.672 12.3621C278.464 12.8675 278.14 13.3145 277.7 13.7033C277.259 14.092 276.735 14.3965 276.125 14.6168C275.529 14.8371 274.869 14.9473 274.143 14.9473ZM285.947 14.9473C284.923 14.9473 284.01 14.7075 283.206 14.2281C282.403 13.7357 281.768 13.0683 281.302 12.2261C280.835 11.3838 280.602 10.4508 280.602 9.42714C280.602 8.3905 280.835 7.45753 281.302 6.62821C281.768 5.7989 282.403 5.13804 283.206 4.64564C284.023 4.15323 284.93 3.90703 285.928 3.90703C286.731 3.90703 287.444 4.069 288.066 4.39295C288.701 4.70395 289.2 5.14452 289.562 5.71467L289.174 6.23947V0.000188194H291.72V14.714H289.31V12.6731L289.582 13.1785C289.219 13.7486 288.714 14.1892 288.066 14.5002C287.418 14.7982 286.712 14.9473 285.947 14.9473ZM286.219 12.6148C286.802 12.6148 287.314 12.4788 287.755 12.2066C288.195 11.9345 288.539 11.5587 288.785 11.0793C289.044 10.5998 289.174 10.0491 289.174 9.42714C289.174 8.81812 289.044 8.27388 288.785 7.79443C288.539 7.30203 288.195 6.91977 287.755 6.64765C287.314 6.37553 286.802 6.23947 286.219 6.23947C285.649 6.23947 285.137 6.38201 284.684 6.66709C284.23 6.9392 283.874 7.31499 283.615 7.79443C283.368 8.26092 283.245 8.80516 283.245 9.42714C283.245 10.0491 283.368 10.5998 283.615 11.0793C283.874 11.5587 284.23 11.9345 284.684 12.2066C285.137 12.4788 285.649 12.6148 286.219 12.6148ZM304.56 14.9473C303.524 14.9473 302.565 14.7594 301.684 14.3836C300.815 14.0078 300.051 13.483 299.39 12.8092C298.742 12.1354 298.237 11.3449 297.874 10.4379C297.511 9.53081 297.33 8.53952 297.33 7.464C297.33 6.38849 297.505 5.3972 297.854 4.49014C298.217 3.57012 298.723 2.77968 299.371 2.11882C300.031 1.44501 300.802 0.926686 301.684 0.563861C302.565 0.188079 303.524 0.000188194 304.56 0.000188194C305.597 0.000188194 306.523 0.175121 307.34 0.524988C308.169 0.874854 308.869 1.34134 309.439 1.92445C310.009 2.49461 310.417 3.12307 310.663 3.80984L308.292 4.91775C308.02 4.19211 307.56 3.59604 306.912 3.12955C306.264 2.6501 305.48 2.41038 304.56 2.41038C303.653 2.41038 302.85 2.62419 302.15 3.0518C301.463 3.47941 300.925 4.069 300.537 4.82057C300.161 5.57213 299.973 6.45328 299.973 7.464C299.973 8.47473 300.161 9.36235 300.537 10.1269C300.925 10.8784 301.463 11.468 302.15 11.8956C302.85 12.3233 303.653 12.5371 304.56 12.5371C305.48 12.5371 306.264 12.3038 306.912 11.8373C307.56 11.3579 308.02 10.7553 308.292 10.0297L310.663 11.1376C310.417 11.8244 310.009 12.4593 309.439 13.0424C308.869 13.6126 308.169 14.0726 307.34 14.4225C306.523 14.7723 305.597 14.9473 304.56 14.9473ZM312.596 14.714V0.000188194H315.142V6.22004L314.792 5.85073C315.038 5.21579 315.44 4.73634 315.997 4.41239C316.567 4.07548 317.228 3.90703 317.98 3.90703C318.757 3.90703 319.444 4.07548 320.04 4.41239C320.649 4.7493 321.122 5.22227 321.459 5.83129C321.796 6.42736 321.964 7.12062 321.964 7.91106V14.714H319.418V8.5136C319.418 8.04711 319.327 7.64542 319.146 7.30851C318.965 6.9716 318.712 6.71244 318.388 6.53103C318.077 6.33666 317.708 6.23947 317.28 6.23947C316.865 6.23947 316.496 6.33666 316.172 6.53103C315.848 6.71244 315.596 6.9716 315.414 7.30851C315.233 7.64542 315.142 8.04711 315.142 8.5136V14.714H312.596ZM327.325 14.9473C326.586 14.9473 325.945 14.8242 325.4 14.578C324.856 14.3318 324.435 13.9819 324.137 13.5284C323.839 13.0619 323.69 12.5241 323.69 11.9151C323.69 11.332 323.819 10.8137 324.079 10.3601C324.338 9.89363 324.739 9.50489 325.284 9.1939C325.828 8.88291 326.515 8.66262 327.344 8.53304L330.804 7.96937V9.91307L327.83 10.4184C327.325 10.5091 326.949 10.6711 326.703 10.9044C326.456 11.1376 326.333 11.4421 326.333 11.8179C326.333 12.1807 326.469 12.4723 326.741 12.6926C327.027 12.8999 327.376 13.0036 327.791 13.0036C328.322 13.0036 328.789 12.8934 329.191 12.6731C329.605 12.4399 329.923 12.1224 330.143 11.7207C330.376 11.319 330.493 10.8784 330.493 10.399V7.67781C330.493 7.22428 330.311 6.8485 329.949 6.55046C329.599 6.23947 329.132 6.08398 328.549 6.08398C328.005 6.08398 327.519 6.23299 327.091 6.53103C326.677 6.8161 326.372 7.19836 326.178 7.67781L324.098 6.66709C324.305 6.10989 324.629 5.63045 325.07 5.22875C325.523 4.81409 326.055 4.49014 326.664 4.2569C327.273 4.02365 327.934 3.90703 328.646 3.90703C329.514 3.90703 330.279 4.069 330.94 4.39295C331.601 4.70395 332.113 5.14452 332.475 5.71467C332.851 6.27187 333.039 6.92625 333.039 7.67781V14.714H330.629V12.9064L331.173 12.8675C330.901 13.321 330.577 13.7033 330.201 14.0143C329.825 14.3123 329.398 14.5456 328.918 14.714C328.439 14.8695 327.908 14.9473 327.325 14.9473ZM339.163 14.9473C338.347 14.9473 337.634 14.7658 337.025 14.403C336.429 14.0402 335.969 13.5348 335.645 12.8869C335.334 12.239 335.179 11.481 335.179 10.6128V4.14027H337.725V10.399C337.725 10.8396 337.809 11.2283 337.978 11.5652C338.159 11.8892 338.412 12.1483 338.736 12.3427C339.073 12.5241 339.448 12.6148 339.863 12.6148C340.278 12.6148 340.647 12.5241 340.971 12.3427C341.295 12.1483 341.548 11.8827 341.729 11.5458C341.91 11.2089 342.001 10.8072 342.001 10.3407V4.14027H344.547V14.714H342.137V12.6343L342.351 13.0036C342.105 13.6515 341.697 14.1374 341.126 14.4613C340.569 14.7853 339.915 14.9473 339.163 14.9473ZM348.139 14.714V6.41441H346.273V4.14027H348.139V3.79041C348.139 2.98701 348.301 2.30671 348.625 1.74952C348.962 1.17937 349.428 0.745274 350.024 0.44724C350.62 0.149205 351.326 0.000188194 352.143 0.000188194C352.298 0.000188194 352.467 0.013146 352.648 0.0390617C352.842 0.0520204 353.004 0.0714575 353.134 0.0973732V2.29376C353.004 2.26784 352.881 2.25488 352.765 2.25488C352.661 2.24192 352.564 2.23545 352.473 2.23545C351.903 2.23545 351.462 2.36503 351.151 2.62419C350.84 2.87039 350.685 3.25913 350.685 3.79041V4.14027H355.311V6.41441H350.685V14.714H348.139ZM355.836 14.714V6.41441H353.97V4.14027H355.836V3.79041C355.836 2.98701 355.998 2.30671 356.322 1.74952C356.646 1.17937 357.106 0.745274 357.702 0.44724C358.311 0.149205 359.023 0.000188194 359.84 0.000188194C359.995 0.000188194 360.164 0.013146 360.345 0.0390617C360.54 0.0520204 360.695 0.0714575 360.812 0.0973732V2.29376C360.695 2.26784 360.578 2.25488 360.462 2.25488C360.358 2.24192 360.261 2.23545 360.17 2.23545C359.6 2.23545 359.16 2.36503 358.849 2.62419C358.538 2.87039 358.382 3.25913 358.382 3.79041V4.14027H360.714V6.41441H358.382V14.714H355.836ZM367.209 14.9473C366.121 14.9473 365.168 14.7011 364.352 14.2087C363.535 13.7162 362.9 13.0489 362.447 12.2066C361.993 11.3644 361.767 10.4314 361.767 9.40771C361.767 8.34515 361.993 7.40569 362.447 6.58934C362.913 5.76003 363.542 5.10565 364.332 4.6262C365.136 4.14675 366.03 3.90703 367.015 3.90703C367.844 3.90703 368.57 4.04309 369.192 4.31521C369.827 4.58733 370.364 4.96311 370.805 5.44255C371.245 5.922 371.582 6.47272 371.816 7.0947C372.049 7.70373 372.165 8.36459 372.165 9.07728C372.165 9.25869 372.153 9.44658 372.127 9.64095C372.114 9.83532 372.081 10.0038 372.029 10.1463H363.866V8.20261H370.591L369.386 9.11615C369.503 8.52008 369.47 7.9888 369.289 7.52232C369.12 7.05583 368.835 6.68652 368.434 6.41441C368.045 6.14229 367.572 6.00623 367.015 6.00623C366.483 6.00623 366.01 6.14229 365.596 6.41441C365.181 6.67357 364.864 7.06231 364.643 7.58063C364.436 8.08599 364.358 8.70149 364.41 9.42714C364.358 10.075 364.442 10.6517 364.663 11.157C364.896 11.6494 365.233 12.0317 365.674 12.3038C366.127 12.5759 366.645 12.712 367.228 12.712C367.812 12.712 368.304 12.5889 368.706 12.3427C369.12 12.0965 369.444 11.7661 369.678 11.3514L371.738 12.3621C371.531 12.8675 371.207 13.3145 370.766 13.7033C370.325 14.092 369.801 14.3965 369.192 14.6168C368.596 14.8371 367.935 14.9473 367.209 14.9473ZM374.096 14.714V4.14027H376.486V6.49215L376.292 6.14229C376.538 5.35185 376.921 4.80113 377.439 4.49014C377.97 4.17915 378.605 4.02365 379.344 4.02365H379.966V6.27835H379.052C378.326 6.27835 377.743 6.50511 377.303 6.95864C376.862 7.39921 376.642 8.0212 376.642 8.8246V14.714H374.096ZM389.621 14.9473C388.727 14.9473 387.943 14.7853 387.269 14.4613C386.595 14.1374 386.064 13.6839 385.675 13.1007C385.3 12.5047 385.112 11.8114 385.112 11.021C385.112 10.3601 385.228 9.78997 385.462 9.31052C385.708 8.81812 386.006 8.40346 386.356 8.06655C386.706 7.71669 387.049 7.43161 387.386 7.21132C387.736 6.99104 388.027 6.8161 388.261 6.68652L389.524 6.00623C389.939 5.78594 390.314 5.56565 390.651 5.34537C391.001 5.11212 391.28 4.85944 391.487 4.58732C391.694 4.30225 391.798 3.97182 391.798 3.59604C391.798 3.16842 391.656 2.81208 391.37 2.527C391.098 2.22897 390.748 2.07995 390.321 2.07995C389.906 2.07995 389.55 2.22897 389.252 2.527C388.967 2.81208 388.824 3.1749 388.824 3.61547C388.824 3.93942 388.896 4.2569 389.038 4.56789C389.194 4.87888 389.375 5.17044 389.582 5.44255C389.79 5.70171 389.99 5.93496 390.185 6.14229L397.862 14.714H394.811L388.338 7.6195C388.04 7.29555 387.742 6.94568 387.444 6.5699C387.146 6.18116 386.9 5.75355 386.706 5.28706C386.511 4.82057 386.414 4.30225 386.414 3.7321C386.414 2.98053 386.589 2.32615 386.939 1.76896C387.302 1.1988 387.775 0.764711 388.358 0.466676C388.954 0.155684 389.602 0.000188194 390.301 0.000188194C391.014 0.000188194 391.656 0.155684 392.226 0.466676C392.809 0.777669 393.269 1.20528 393.606 1.74952C393.956 2.29376 394.131 2.91574 394.131 3.61547C394.131 4.32816 393.962 4.93719 393.625 5.44255C393.301 5.93496 392.906 6.35609 392.44 6.70596C391.986 7.04287 391.552 7.32795 391.137 7.56119L389.835 8.33867C389.55 8.49417 389.245 8.69502 388.921 8.94122C388.61 9.17446 388.345 9.45954 388.124 9.79645C387.904 10.1204 387.794 10.5156 387.794 10.9821C387.794 11.5393 387.963 11.9799 388.299 12.3038C388.649 12.6148 389.122 12.7703 389.718 12.7703C390.081 12.7703 390.405 12.712 390.69 12.5954C390.975 12.4658 391.228 12.3103 391.448 12.1289C391.669 11.9345 391.856 11.7337 392.012 11.5263C392.167 11.3061 392.31 11.1052 392.44 10.9238L394.714 7.6195H397.377L394.753 11.7013C394.558 12.0252 394.318 12.3751 394.033 12.7509C393.748 13.1267 393.405 13.483 393.003 13.8199C392.601 14.1439 392.122 14.416 391.565 14.6363C391.021 14.8436 390.373 14.9473 389.621 14.9473ZM407.77 14.714L402.716 0.233432H405.593L409.558 12.2261H408.994L412.959 0.233432H415.836L410.802 14.714H407.77ZM421.287 14.9473C420.199 14.9473 419.246 14.7011 418.43 14.2087C417.614 13.7162 416.979 13.0489 416.525 12.2066C416.072 11.3644 415.845 10.4314 415.845 9.40771C415.845 8.34515 416.072 7.40569 416.525 6.58934C416.992 5.76003 417.62 5.10565 418.411 4.6262C419.214 4.14675 420.108 3.90703 421.093 3.90703C421.922 3.90703 422.648 4.04309 423.27 4.31521C423.905 4.58733 424.442 4.96311 424.883 5.44255C425.324 5.922 425.661 6.47272 425.894 7.0947C426.127 7.70373 426.244 8.36459 426.244 9.07728C426.244 9.25869 426.231 9.44658 426.205 9.64095C426.192 9.83532 426.159 10.0038 426.108 10.1463H417.944V8.20261H424.669L423.464 9.11615C423.581 8.52008 423.548 7.9888 423.367 7.52232C423.199 7.05583 422.913 6.68652 422.512 6.41441C422.123 6.14229 421.65 6.00623 421.093 6.00623C420.562 6.00623 420.089 6.14229 419.674 6.41441C419.259 6.67357 418.942 7.06231 418.722 7.58063C418.514 8.08599 418.436 8.70149 418.488 9.42714C418.436 10.075 418.521 10.6517 418.741 11.157C418.974 11.6494 419.311 12.0317 419.752 12.3038C420.205 12.5759 420.724 12.712 421.307 12.712C421.89 12.712 422.382 12.5889 422.784 12.3427C423.199 12.0965 423.522 11.7661 423.756 11.3514L425.816 12.3621C425.609 12.8675 425.285 13.3145 424.844 13.7033C424.404 14.092 423.879 14.3965 423.27 14.6168C422.674 14.8371 422.013 14.9473 421.287 14.9473ZM428.174 14.714V0.000188194H430.72V6.22004L430.37 5.85073C430.616 5.21579 431.018 4.73634 431.575 4.41239C432.145 4.07548 432.806 3.90703 433.558 3.90703C434.335 3.90703 435.022 4.07548 435.618 4.41239C436.227 4.7493 436.7 5.22227 437.037 5.83129C437.374 6.42736 437.542 7.12062 437.542 7.91106V14.714H434.996V8.5136C434.996 8.04711 434.906 7.64542 434.724 7.30851C434.543 6.9716 434.29 6.71244 433.966 6.53103C433.655 6.33666 433.286 6.23947 432.858 6.23947C432.444 6.23947 432.074 6.33666 431.75 6.53103C431.426 6.71244 431.174 6.9716 430.992 7.30851C430.811 7.64542 430.72 8.04711 430.72 8.5136V14.714H428.174ZM439.696 14.714V4.14027H442.242V14.714H439.696ZM439.696 2.95462V0.233432H442.242V2.95462H439.696ZM449.685 14.9473C448.636 14.9473 447.69 14.7075 446.848 14.2281C446.018 13.7357 445.364 13.0748 444.884 12.2455C444.405 11.4032 444.165 10.4573 444.165 9.40771C444.165 8.35811 444.405 7.41865 444.884 6.58934C445.364 5.76003 446.018 5.10565 446.848 4.6262C447.69 4.14675 448.636 3.90703 449.685 3.90703C450.437 3.90703 451.137 4.04309 451.785 4.31521C452.432 4.57437 452.99 4.93719 453.456 5.40368C453.936 5.85721 454.279 6.40145 454.486 7.03639L452.251 8.00824C452.057 7.47696 451.726 7.04935 451.26 6.7254C450.806 6.40145 450.281 6.23947 449.685 6.23947C449.128 6.23947 448.629 6.37553 448.189 6.64765C447.761 6.91977 447.424 7.29555 447.178 7.775C446.932 8.25444 446.809 8.80516 446.809 9.42714C446.809 10.0491 446.932 10.5998 447.178 11.0793C447.424 11.5587 447.761 11.9345 448.189 12.2066C448.629 12.4788 449.128 12.6148 449.685 12.6148C450.294 12.6148 450.826 12.4528 451.279 12.1289C451.733 11.8049 452.057 11.3708 452.251 10.8266L454.486 11.8373C454.279 12.4334 453.942 12.9712 453.476 13.4506C453.009 13.9171 452.452 14.2864 451.804 14.5585C451.156 14.8177 450.45 14.9473 449.685 14.9473ZM456.418 14.714V0.000188194H458.965V14.714H456.418ZM466.33 14.9473C465.242 14.9473 464.289 14.7011 463.473 14.2087C462.657 13.7162 462.022 13.0489 461.568 12.2066C461.115 11.3644 460.888 10.4314 460.888 9.40771C460.888 8.34515 461.115 7.40569 461.568 6.58934C462.035 5.76003 462.663 5.10565 463.454 4.6262C464.257 4.14675 465.151 3.90703 466.136 3.90703C466.965 3.90703 467.691 4.04309 468.313 4.31521C468.948 4.58733 469.486 4.96311 469.926 5.44255C470.367 5.922 470.704 6.47272 470.937 7.0947C471.17 7.70373 471.287 8.36459 471.287 9.07728C471.287 9.25869 471.274 9.44658 471.248 9.64095C471.235 9.83532 471.202 10.0038 471.151 10.1463H462.987V8.20261H469.712L468.507 9.11615C468.624 8.52008 468.591 7.9888 468.41 7.52232C468.242 7.05583 467.956 6.68652 467.555 6.41441C467.166 6.14229 466.693 6.00623 466.136 6.00623C465.605 6.00623 465.132 6.14229 464.717 6.41441C464.302 6.67357 463.985 7.06231 463.765 7.58063C463.557 8.08599 463.479 8.70149 463.531 9.42714C463.479 10.075 463.564 10.6517 463.784 11.157C464.017 11.6494 464.354 12.0317 464.795 12.3038C465.248 12.5759 465.767 12.712 466.35 12.712C466.933 12.712 467.425 12.5889 467.827 12.3427C468.242 12.0965 468.566 11.7661 468.799 11.3514L470.859 12.3621C470.652 12.8675 470.328 13.3145 469.887 13.7033C469.447 14.092 468.922 14.3965 468.313 14.6168C467.717 14.8371 467.056 14.9473 466.33 14.9473Z" fill="url(#paint0_linear_1_791)"/>
<defs>
<linearGradient id="paint0_linear_1_791" x1="690.381" y1="6.7025" x2="-1.61327" y2="6.7025" gradientUnits="userSpaceOnUse">
<stop stop-color="#F3AA45"/>
<stop offset="1" stop-color="#ED2628"/>
</linearGradient>
</defs>
</svg>
