<svg width="330" height="19" viewBox="0 0 330 19" fill="none" xmlns="http://www.w3.org/2000/svg">
<path d="M-6.24131e-06 14.7132V0.233419H2.64328V12.3809H8.84335V14.7132H-6.24131e-06ZM14.1099 14.9464C13.2936 14.9464 12.5809 14.765 11.9719 14.4022C11.3759 14.0394 10.9159 13.5341 10.592 12.8862C10.281 12.2384 10.1255 11.4804 10.1255 10.6122V4.14005H12.6716V10.3984C12.6716 10.839 12.7558 11.2277 12.9243 11.5646C13.1057 11.8885 13.3584 12.1477 13.6823 12.342C14.0192 12.5234 14.3949 12.6141 14.8096 12.6141C15.2242 12.6141 15.5935 12.5234 15.9174 12.342C16.2414 12.1477 16.494 11.882 16.6754 11.5451C16.8568 11.2083 16.9475 10.8066 16.9475 10.3401V4.14005H19.4936V14.7132H17.0836V12.6336L17.2974 13.0028C17.0512 13.6507 16.643 14.1366 16.0729 14.4605C15.5158 14.7845 14.8614 14.9464 14.1099 14.9464ZM20.9081 14.7132L24.6009 9.40719L20.8886 4.14005H23.8818L26.7777 8.41596H25.4366L28.3326 4.14005H31.3063L27.6135 9.40719L31.2869 14.7132H28.3132L25.4561 10.4567H26.7583L23.9012 14.7132H20.9081ZM36.4688 14.9464C35.6525 14.9464 34.9399 14.765 34.3309 14.4022C33.7348 14.0394 33.2749 13.5341 32.9509 12.8862C32.6399 12.2384 32.4845 11.4804 32.4845 10.6122V4.14005H35.0306V10.3984C35.0306 10.839 35.1148 11.2277 35.2832 11.5646C35.4646 11.8885 35.7173 12.1477 36.0412 12.342C36.3781 12.5234 36.7539 12.6141 37.1685 12.6141C37.5832 12.6141 37.9524 12.5234 38.2764 12.342C38.6003 12.1477 38.853 11.882 39.0344 11.5451C39.2158 11.2083 39.3065 10.8066 39.3065 10.3401V4.14005H41.8526V14.7132H39.4425V12.6336L39.6563 13.0028C39.4101 13.6507 39.002 14.1366 38.4319 14.4605C37.8747 14.7845 37.2204 14.9464 36.4688 14.9464ZM44.2194 14.7132V4.14005H46.61V6.4918L46.4156 6.14195C46.6618 5.35155 47.0441 4.80087 47.5623 4.48989C48.0936 4.17892 48.7285 4.02343 49.4671 4.02343H50.089V6.278H49.1755C48.4499 6.278 47.8668 6.50475 47.4263 6.95826C46.9857 7.39881 46.7655 8.02076 46.7655 8.82411V14.7132H44.2194ZM52.7716 18.9891C52.4866 18.9891 52.208 18.9632 51.9359 18.9114C51.6638 18.8725 51.4176 18.7948 51.1973 18.6781V16.5596C51.3658 16.5985 51.5666 16.6374 51.7998 16.6762C52.046 16.7151 52.2728 16.7345 52.4801 16.7345C53.0632 16.7345 53.4843 16.5985 53.7434 16.3264C54.0155 16.0672 54.2553 15.7174 54.4626 15.2768L55.1623 13.6442L55.1234 15.7822L50.5171 4.14005H53.2575L56.4839 12.7307H55.5121L58.719 4.14005H61.4789L56.8726 15.7822C56.6005 16.456 56.2701 17.0326 55.8814 17.512C55.4927 17.9914 55.0392 18.3542 54.5209 18.6004C54.0155 18.8595 53.4325 18.9891 52.7716 18.9891Z" fill="url(#paint0_linear_1_779)"/>
<path d="M69.5213 14.9464C68.8346 14.9464 68.2256 14.8233 67.6943 14.5772C67.1761 14.318 66.7679 13.9682 66.4699 13.5276C66.1719 13.0741 66.0229 12.5558 66.0229 11.9727C66.0229 11.4156 66.1395 10.9167 66.3727 10.4762C66.6189 10.0227 66.9947 9.64042 67.5 9.32945C68.0183 9.01847 68.6661 8.7982 69.4436 8.66862L73.3308 8.02724V9.54324L69.8517 10.1263C69.178 10.2429 68.6856 10.4567 68.3746 10.7677C68.0766 11.0787 67.9276 11.4609 67.9276 11.9144C67.9276 12.342 68.096 12.6983 68.4329 12.9834C68.7828 13.2685 69.2168 13.411 69.7351 13.411C70.3959 13.411 70.9661 13.2749 71.4455 13.0028C71.9379 12.7178 72.3201 12.3355 72.5922 11.8561C72.8773 11.3767 73.0198 10.8454 73.0198 10.2624V7.59965C73.0198 7.02952 72.806 6.56954 72.3784 6.21969C71.9638 5.85689 71.4131 5.67549 70.7264 5.67549C70.1303 5.67549 69.5991 5.83097 69.1326 6.14195C68.6791 6.43997 68.3422 6.84164 68.1219 7.34698L66.5476 6.53067C66.742 6.05125 67.053 5.62366 67.4806 5.2479C67.9081 4.85918 68.407 4.55468 68.9771 4.33441C69.5472 4.11413 70.1433 4.00399 70.7652 4.00399C71.5686 4.00399 72.2748 4.15948 72.8837 4.47046C73.4927 4.76848 73.9657 5.18959 74.3026 5.73379C74.6524 6.26504 74.8273 6.88699 74.8273 7.59965V14.7132H73.0587V12.7307L73.3891 12.8474C73.1688 13.262 72.8708 13.6248 72.495 13.9358C72.1193 14.2467 71.6787 14.4929 71.1734 14.6743C70.668 14.8557 70.1174 14.9464 69.5213 14.9464ZM77.6299 14.7132V4.23723H79.3986V6.278L79.1071 6.10308C79.3662 5.44225 79.7808 4.93044 80.351 4.56764C80.934 4.19188 81.6143 4.00399 82.3917 4.00399C83.1433 4.00399 83.8106 4.17244 84.3936 4.50933C84.9897 4.84622 85.4561 5.31268 85.793 5.90872C86.1429 6.50475 86.3178 7.17853 86.3178 7.93006V14.7132H84.4908V8.51314C84.4908 7.93006 84.3872 7.43768 84.1798 7.036C83.9725 6.63433 83.6745 6.32335 83.2858 6.10308C82.91 5.86985 82.476 5.75323 81.9836 5.75323C81.4912 5.75323 81.0506 5.86985 80.6619 6.10308C80.2862 6.32335 79.9882 6.64081 79.7679 7.05544C79.5476 7.45712 79.4375 7.94301 79.4375 8.51314V14.7132H77.6299ZM93.6661 14.9464C92.6813 14.9464 91.7938 14.7067 91.0034 14.2273C90.2259 13.7479 89.6105 13.0935 89.157 12.2643C88.7035 11.435 88.4767 10.5086 88.4767 9.48493C88.4767 8.43539 88.7035 7.50247 89.157 6.68616C89.6105 5.85689 90.2259 5.20254 91.0034 4.72313C91.7938 4.2437 92.6813 4.00399 93.6661 4.00399C94.5342 4.00399 95.3052 4.19188 95.979 4.56764C96.6528 4.93044 97.184 5.42282 97.5727 6.04477L97.2812 6.4918V0.000188184H99.1082V14.7132H97.3395V12.4781L97.5727 12.789C97.2099 13.4758 96.6787 14.007 95.979 14.3828C95.2922 14.7586 94.5213 14.9464 93.6661 14.9464ZM93.8216 13.1972C94.4824 13.1972 95.072 13.0352 95.5903 12.7113C96.1086 12.3874 96.5167 11.9468 96.8147 11.3897C97.1257 10.8195 97.2812 10.1846 97.2812 9.48493C97.2812 8.77228 97.1257 8.13737 96.8147 7.58021C96.5167 7.01009 96.1086 6.56306 95.5903 6.23913C95.072 5.9152 94.4824 5.75323 93.8216 5.75323C93.1737 5.75323 92.5842 5.92167 92.0529 6.25856C91.5346 6.5825 91.1265 7.02305 90.8285 7.58021C90.5304 8.12442 90.3814 8.75932 90.3814 9.48493C90.3814 10.1846 90.5304 10.8195 90.8285 11.3897C91.1265 11.9468 91.5346 12.3874 92.0529 12.7113C92.5712 13.0352 93.1608 13.1972 93.8216 13.1972ZM108.142 14.7132L104.08 0.233419H106.082L109.483 12.9834H109.017L112.554 0.233419H114.556L118.074 12.9834H117.588L121.009 0.233419H123.01L118.948 14.7132H116.83L113.292 2.02153H113.798L110.26 14.7132H108.142ZM128.724 14.9464C127.714 14.9464 126.813 14.7067 126.023 14.2273C125.232 13.7479 124.61 13.0935 124.157 12.2643C123.703 11.422 123.477 10.4826 123.477 9.44606C123.477 8.39652 123.697 7.46359 124.137 6.64728C124.591 5.83097 125.2 5.18959 125.964 4.72313C126.742 4.2437 127.61 4.00399 128.569 4.00399C129.346 4.00399 130.033 4.14652 130.629 4.43158C131.238 4.70369 131.75 5.07945 132.164 5.55887C132.592 6.02533 132.916 6.56306 133.136 7.17205C133.369 7.76809 133.486 8.39004 133.486 9.03791C133.486 9.18044 133.473 9.3424 133.447 9.5238C133.434 9.69225 133.415 9.85422 133.389 10.0097H124.798V8.45483H132.339L131.484 9.15452C131.601 8.48074 131.536 7.87823 131.29 7.34698C131.044 6.81573 130.681 6.39462 130.201 6.08364C129.722 5.77267 129.178 5.61718 128.569 5.61718C127.96 5.61718 127.403 5.77267 126.897 6.08364C126.392 6.39462 125.997 6.84164 125.712 7.42472C125.44 7.99484 125.329 8.6751 125.381 9.4655C125.329 10.23 125.446 10.9038 125.731 11.4868C126.029 12.057 126.444 12.504 126.975 12.8279C127.519 13.1389 128.109 13.2944 128.744 13.2944C129.443 13.2944 130.033 13.1324 130.512 12.8085C130.992 12.4845 131.381 12.0699 131.679 11.5646L133.195 12.342C132.987 12.8214 132.663 13.262 132.223 13.6637C131.795 14.0524 131.283 14.3634 130.687 14.5966C130.104 14.8298 129.45 14.9464 128.724 14.9464ZM135.843 14.7132V0.000188184H137.65V14.7132H135.843ZM140.455 14.7132V0.000188184H142.263V14.7132H140.455ZM148.427 14.7132V4.23723H150.196V6.37518L149.943 6.04477C150.202 5.38395 150.617 4.87861 151.187 4.52876C151.757 4.17892 152.398 4.00399 153.111 4.00399C153.927 4.00399 154.659 4.23075 155.307 4.68425C155.968 5.13776 156.422 5.73379 156.668 6.47236L156.162 6.4918C156.435 5.67549 156.894 5.06001 157.542 4.64538C158.19 4.21779 158.909 4.00399 159.7 4.00399C160.425 4.00399 161.08 4.17244 161.663 4.50933C162.259 4.84622 162.732 5.31268 163.082 5.90872C163.431 6.50475 163.606 7.17853 163.606 7.93006V14.7132H161.779V8.51314C161.779 7.93006 161.676 7.43768 161.468 7.036C161.261 6.63433 160.976 6.32335 160.613 6.10308C160.263 5.86985 159.849 5.75323 159.369 5.75323C158.903 5.75323 158.482 5.86985 158.106 6.10308C157.743 6.32335 157.452 6.64081 157.231 7.05544C157.024 7.45712 156.92 7.94301 156.92 8.51314V14.7132H155.093V8.51314C155.093 7.93006 154.99 7.43768 154.782 7.036C154.575 6.63433 154.29 6.32335 153.927 6.10308C153.577 5.86985 153.163 5.75323 152.683 5.75323C152.217 5.75323 151.796 5.86985 151.42 6.10308C151.057 6.32335 150.766 6.64081 150.545 7.05544C150.338 7.45712 150.234 7.94301 150.234 8.51314V14.7132H148.427ZM169.244 14.9464C168.558 14.9464 167.949 14.8233 167.417 14.5772C166.899 14.318 166.491 13.9682 166.193 13.5276C165.895 13.0741 165.746 12.5558 165.746 11.9727C165.746 11.4156 165.863 10.9167 166.096 10.4762C166.342 10.0227 166.718 9.64042 167.223 9.32945C167.741 9.01847 168.389 8.7982 169.167 8.66862L173.054 8.02724V9.54324L169.575 10.1263C168.901 10.2429 168.409 10.4567 168.098 10.7677C167.8 11.0787 167.651 11.4609 167.651 11.9144C167.651 12.342 167.819 12.6983 168.156 12.9834C168.506 13.2685 168.94 13.411 169.458 13.411C170.119 13.411 170.689 13.2749 171.169 13.0028C171.661 12.7178 172.043 12.3355 172.315 11.8561C172.6 11.3767 172.743 10.8454 172.743 10.2624V7.59965C172.743 7.02952 172.529 6.56954 172.102 6.21969C171.687 5.85689 171.136 5.67549 170.449 5.67549C169.853 5.67549 169.322 5.83097 168.856 6.14195C168.402 6.43997 168.065 6.84164 167.845 7.34698L166.271 6.53067C166.465 6.05125 166.776 5.62366 167.204 5.2479C167.631 4.85918 168.13 4.55468 168.7 4.33441C169.27 4.11413 169.866 4.00399 170.488 4.00399C171.292 4.00399 171.998 4.15948 172.607 4.47046C173.216 4.76848 173.689 5.18959 174.026 5.73379C174.376 6.26504 174.55 6.88699 174.55 7.59965V14.7132H172.782V12.7307L173.112 12.8474C172.892 13.262 172.594 13.6248 172.218 13.9358C171.842 14.2467 171.402 14.4929 170.897 14.6743C170.391 14.8557 169.84 14.9464 169.244 14.9464ZM177.353 14.7132V4.23723H179.161V14.7132H177.353ZM177.353 2.56573V0.233419H179.161V2.56573H177.353ZM181.965 14.7132V4.23723H183.734V6.278L183.442 6.10308C183.702 5.44225 184.116 4.93044 184.686 4.56764C185.269 4.19188 185.95 4.00399 186.727 4.00399C187.479 4.00399 188.146 4.17244 188.729 4.50933C189.325 4.84622 189.792 5.31268 190.128 5.90872C190.478 6.50475 190.653 7.17853 190.653 7.93006V14.7132H188.826V8.51314C188.826 7.93006 188.723 7.43768 188.515 7.036C188.308 6.63433 188.01 6.32335 187.621 6.10308C187.245 5.86985 186.811 5.75323 186.319 5.75323C185.827 5.75323 185.386 5.86985 184.997 6.10308C184.622 6.32335 184.324 6.64081 184.103 7.05544C183.883 7.45712 183.773 7.94301 183.773 8.51314V14.7132H181.965ZM197.496 14.8298C196.473 14.8298 195.682 14.5383 195.125 13.9552C194.581 13.3721 194.309 12.5493 194.309 11.4868V5.96703H192.404V4.23723H192.793C193.259 4.23723 193.628 4.0947 193.9 3.80963C194.173 3.52457 194.309 3.14881 194.309 2.68235V1.82717H196.116V4.23723H198.468V5.96703H196.116V11.4285C196.116 11.7784 196.168 12.0829 196.272 12.342C196.388 12.6012 196.576 12.8085 196.835 12.964C197.094 13.1065 197.438 13.1778 197.865 13.1778C197.956 13.1778 198.066 13.1713 198.196 13.1583C198.338 13.1454 198.468 13.1324 198.585 13.1195V14.7132C198.416 14.7521 198.228 14.778 198.021 14.7909C197.814 14.8169 197.639 14.8298 197.496 14.8298ZM203.884 14.9464C203.197 14.9464 202.588 14.8233 202.057 14.5772C201.538 14.318 201.13 13.9682 200.832 13.5276C200.534 13.0741 200.385 12.5558 200.385 11.9727C200.385 11.4156 200.502 10.9167 200.735 10.4762C200.981 10.0227 201.357 9.64042 201.862 9.32945C202.381 9.01847 203.029 8.7982 203.806 8.66862L207.693 8.02724V9.54324L204.214 10.1263C203.54 10.2429 203.048 10.4567 202.737 10.7677C202.439 11.0787 202.29 11.4609 202.29 11.9144C202.29 12.342 202.458 12.6983 202.795 12.9834C203.145 13.2685 203.579 13.411 204.098 13.411C204.758 13.411 205.328 13.2749 205.808 13.0028C206.3 12.7178 206.683 12.3355 206.955 11.8561C207.24 11.3767 207.382 10.8454 207.382 10.2624V7.59965C207.382 7.02952 207.168 6.56954 206.741 6.21969C206.326 5.85689 205.776 5.67549 205.089 5.67549C204.493 5.67549 203.961 5.83097 203.495 6.14195C203.042 6.43997 202.705 6.84164 202.484 7.34698L200.91 6.53067C201.104 6.05125 201.415 5.62366 201.843 5.2479C202.271 4.85918 202.769 4.55468 203.34 4.33441C203.91 4.11413 204.506 4.00399 205.128 4.00399C205.931 4.00399 206.637 4.15948 207.246 4.47046C207.855 4.76848 208.328 5.18959 208.665 5.73379C209.015 6.26504 209.19 6.88699 209.19 7.59965V14.7132H207.421V12.7307L207.751 12.8474C207.531 13.262 207.233 13.6248 206.857 13.9358C206.482 14.2467 206.041 14.4929 205.536 14.6743C205.03 14.8557 204.48 14.9464 203.884 14.9464ZM211.992 14.7132V4.23723H213.8V14.7132H211.992ZM211.992 2.56573V0.233419H213.8V2.56573H211.992ZM216.605 14.7132V4.23723H218.373V6.278L218.082 6.10308C218.341 5.44225 218.755 4.93044 219.326 4.56764C219.909 4.19188 220.589 4.00399 221.366 4.00399C222.118 4.00399 222.785 4.17244 223.368 4.50933C223.964 4.84622 224.431 5.31268 224.768 5.90872C225.118 6.50475 225.292 7.17853 225.292 7.93006V14.7132H223.465V8.51314C223.465 7.93006 223.362 7.43768 223.154 7.036C222.947 6.63433 222.649 6.32335 222.26 6.10308C221.885 5.86985 221.451 5.75323 220.958 5.75323C220.466 5.75323 220.025 5.86985 219.637 6.10308C219.261 6.32335 218.963 6.64081 218.743 7.05544C218.522 7.45712 218.412 7.94301 218.412 8.51314V14.7132H216.605ZM232.699 14.9464C231.688 14.9464 230.788 14.7067 229.997 14.2273C229.207 13.7479 228.585 13.0935 228.132 12.2643C227.678 11.422 227.451 10.4826 227.451 9.44606C227.451 8.39652 227.672 7.46359 228.112 6.64728C228.566 5.83097 229.175 5.18959 229.939 4.72313C230.717 4.2437 231.585 4.00399 232.544 4.00399C233.321 4.00399 234.008 4.14652 234.604 4.43158C235.213 4.70369 235.725 5.07945 236.139 5.55887C236.567 6.02533 236.891 6.56306 237.111 7.17205C237.344 7.76809 237.461 8.39004 237.461 9.03791C237.461 9.18044 237.448 9.3424 237.422 9.5238C237.409 9.69225 237.39 9.85422 237.364 10.0097H228.773V8.45483H236.314L235.459 9.15452C235.576 8.48074 235.511 7.87823 235.265 7.34698C235.018 6.81573 234.656 6.39462 234.176 6.08364C233.697 5.77267 233.153 5.61718 232.544 5.61718C231.935 5.61718 231.377 5.77267 230.872 6.08364C230.367 6.39462 229.972 6.84164 229.686 7.42472C229.414 7.99484 229.304 8.6751 229.356 9.4655C229.304 10.23 229.421 10.9038 229.706 11.4868C230.004 12.057 230.419 12.504 230.95 12.8279C231.494 13.1389 232.084 13.2944 232.718 13.2944C233.418 13.2944 234.008 13.1324 234.487 12.8085C234.967 12.4845 235.355 12.0699 235.653 11.5646L237.169 12.342C236.962 12.8214 236.638 13.262 236.198 13.6637C235.77 14.0524 235.258 14.3634 234.662 14.5966C234.079 14.8298 233.425 14.9464 232.699 14.9464ZM244.579 14.9464C243.595 14.9464 242.707 14.7067 241.917 14.2273C241.139 13.7479 240.524 13.0935 240.07 12.2643C239.617 11.435 239.39 10.5086 239.39 9.48493C239.39 8.43539 239.617 7.50247 240.07 6.68616C240.524 5.85689 241.139 5.20254 241.917 4.72313C242.707 4.2437 243.595 4.00399 244.579 4.00399C245.448 4.00399 246.219 4.19188 246.892 4.56764C247.566 4.93044 248.097 5.42282 248.486 6.04477L248.195 6.4918V0.000188184H250.021V14.7132H248.253V12.4781L248.486 12.789C248.123 13.4758 247.592 14.007 246.892 14.3828C246.206 14.7586 245.435 14.9464 244.579 14.9464ZM244.735 13.1972C245.396 13.1972 245.985 13.0352 246.504 12.7113C247.022 12.3874 247.43 11.9468 247.728 11.3897C248.039 10.8195 248.195 10.1846 248.195 9.48493C248.195 8.77228 248.039 8.13737 247.728 7.58021C247.43 7.01009 247.022 6.56306 246.504 6.23913C245.985 5.9152 245.396 5.75323 244.735 5.75323C244.087 5.75323 243.497 5.92167 242.966 6.25856C242.448 6.5825 242.04 7.02305 241.742 7.58021C241.444 8.12442 241.295 8.75932 241.295 9.48493C241.295 10.1846 241.444 10.8195 241.742 11.3897C242.04 11.9468 242.448 12.3874 242.966 12.7113C243.485 13.0352 244.074 13.1972 244.735 13.1972ZM259.094 14.7132L254.993 4.23723H257.014L260.299 13.1H259.599L262.904 4.23723H264.925L260.805 14.7132H259.094ZM271.172 14.9464C270.162 14.9464 269.261 14.7067 268.471 14.2273C267.68 13.7479 267.058 13.0935 266.605 12.2643C266.151 11.422 265.925 10.4826 265.925 9.44606C265.925 8.39652 266.145 7.46359 266.585 6.64728C267.039 5.83097 267.648 5.18959 268.412 4.72313C269.19 4.2437 270.058 4.00399 271.017 4.00399C271.794 4.00399 272.481 4.14652 273.077 4.43158C273.686 4.70369 274.198 5.07945 274.613 5.55887C275.04 6.02533 275.364 6.56306 275.584 7.17205C275.818 7.76809 275.934 8.39004 275.934 9.03791C275.934 9.18044 275.921 9.3424 275.895 9.5238C275.882 9.69225 275.863 9.85422 275.837 10.0097H267.246V8.45483H274.787L273.932 9.15452C274.049 8.48074 273.984 7.87823 273.738 7.34698C273.492 6.81573 273.129 6.39462 272.649 6.08364C272.17 5.77267 271.626 5.61718 271.017 5.61718C270.408 5.61718 269.851 5.77267 269.345 6.08364C268.84 6.39462 268.445 6.84164 268.16 7.42472C267.888 7.99484 267.778 8.6751 267.829 9.4655C267.778 10.23 267.894 10.9038 268.179 11.4868C268.477 12.057 268.892 12.504 269.423 12.8279C269.967 13.1389 270.557 13.2944 271.192 13.2944C271.891 13.2944 272.481 13.1324 272.96 12.8085C273.44 12.4845 273.829 12.0699 274.127 11.5646L275.643 12.342C275.435 12.8214 275.111 13.262 274.671 13.6637C274.243 14.0524 273.731 14.3634 273.135 14.5966C272.552 14.8298 271.898 14.9464 271.172 14.9464ZM278.291 14.7132V0.000188184H280.098V6.278L279.768 6.10308C280.027 5.44225 280.442 4.93044 281.012 4.56764C281.595 4.19188 282.275 4.00399 283.053 4.00399C283.804 4.00399 284.472 4.17244 285.055 4.50933C285.651 4.84622 286.117 5.31268 286.454 5.90872C286.804 6.50475 286.979 7.17853 286.979 7.93006V14.7132H285.152V8.51314C285.152 7.93006 285.042 7.43768 284.821 7.036C284.614 6.63433 284.323 6.32335 283.947 6.10308C283.571 5.86985 283.137 5.75323 282.645 5.75323C282.165 5.75323 281.731 5.86985 281.342 6.10308C280.954 6.32335 280.649 6.64081 280.429 7.05544C280.209 7.45712 280.098 7.94301 280.098 8.51314V14.7132H278.291ZM289.565 14.7132V4.23723H291.373V14.7132H289.565ZM289.565 2.56573V0.233419H291.373V2.56573H289.565ZM299.037 14.9464C298.013 14.9464 297.099 14.7067 296.296 14.2273C295.506 13.7479 294.884 13.0935 294.43 12.2643C293.977 11.435 293.75 10.5021 293.75 9.4655C293.75 8.41596 293.977 7.48303 294.43 6.66672C294.884 5.85041 295.506 5.20254 296.296 4.72313C297.099 4.2437 298.013 4.00399 299.037 4.00399C299.723 4.00399 300.365 4.12709 300.961 4.37328C301.557 4.61947 302.081 4.94988 302.535 5.36451C302.989 5.77914 303.319 6.26504 303.526 6.82221L301.913 7.59965C301.667 7.05544 301.291 6.61489 300.786 6.278C300.28 5.92815 299.697 5.75323 299.037 5.75323C298.402 5.75323 297.825 5.9152 297.307 6.23913C296.801 6.56306 296.4 7.00361 296.102 7.56077C295.804 8.11794 295.655 8.75932 295.655 9.48493C295.655 10.1846 295.804 10.8195 296.102 11.3897C296.4 11.9468 296.801 12.3874 297.307 12.7113C297.825 13.0352 298.402 13.1972 299.037 13.1972C299.697 13.1972 300.28 13.0288 300.786 12.6919C301.291 12.342 301.667 11.882 301.913 11.3119L303.526 12.1282C303.319 12.6724 302.989 13.1583 302.535 13.5859C302.081 14.0006 301.557 14.331 300.961 14.5772C300.365 14.8233 299.723 14.9464 299.037 14.9464ZM305.888 14.7132V0.000188184H307.696V14.7132H305.888ZM315.321 14.9464C314.31 14.9464 313.41 14.7067 312.619 14.2273C311.829 13.7479 311.207 13.0935 310.753 12.2643C310.3 11.422 310.073 10.4826 310.073 9.44606C310.073 8.39652 310.293 7.46359 310.734 6.64728C311.187 5.83097 311.796 5.18959 312.561 4.72313C313.338 4.2437 314.207 4.00399 315.165 4.00399C315.943 4.00399 316.63 4.14652 317.226 4.43158C317.835 4.70369 318.346 5.07945 318.761 5.55887C319.189 6.02533 319.513 6.56306 319.733 7.17205C319.966 7.76809 320.083 8.39004 320.083 9.03791C320.083 9.18044 320.07 9.3424 320.044 9.5238C320.031 9.69225 320.011 9.85422 319.985 10.0097H311.395V8.45483H318.936L318.081 9.15452C318.197 8.48074 318.133 7.87823 317.886 7.34698C317.64 6.81573 317.277 6.39462 316.798 6.08364C316.319 5.77267 315.774 5.61718 315.165 5.61718C314.556 5.61718 313.999 5.77267 313.494 6.08364C312.989 6.39462 312.593 6.84164 312.308 7.42472C312.036 7.99484 311.926 8.6751 311.978 9.4655C311.926 10.23 312.043 10.9038 312.328 11.4868C312.626 12.057 313.04 12.504 313.572 12.8279C314.116 13.1389 314.705 13.2944 315.34 13.2944C316.04 13.2944 316.63 13.1324 317.109 12.8085C317.588 12.4845 317.977 12.0699 318.275 11.5646L319.791 12.342C319.584 12.8214 319.26 13.262 318.819 13.6637C318.392 14.0524 317.88 14.3634 317.284 14.5966C316.701 14.8298 316.046 14.9464 315.321 14.9464ZM326.191 14.9464C325.141 14.9464 324.228 14.6873 323.45 14.169C322.673 13.6507 322.122 12.951 321.798 12.0699L323.236 11.3702C323.534 11.9922 323.942 12.4845 324.461 12.8474C324.979 13.2102 325.556 13.3916 326.191 13.3916C326.761 13.3916 327.234 13.2555 327.609 12.9834C327.985 12.7113 328.173 12.355 328.173 11.9144C328.173 11.6035 328.082 11.3573 327.901 11.1759C327.732 10.9815 327.525 10.8325 327.279 10.7288C327.033 10.6122 326.806 10.528 326.599 10.4762L325.024 10.0291C324.079 9.75704 323.385 9.36832 322.945 8.86298C322.517 8.35765 322.303 7.76809 322.303 7.09431C322.303 6.47236 322.459 5.93463 322.77 5.48113C323.094 5.01466 323.528 4.65186 324.072 4.39271C324.629 4.13357 325.251 4.00399 325.938 4.00399C326.858 4.00399 327.681 4.23723 328.406 4.70369C329.145 5.17015 329.67 5.8245 329.981 6.66672L328.503 7.34698C328.27 6.80277 327.92 6.37518 327.454 6.06421C326.987 5.74027 326.463 5.57831 325.88 5.57831C325.348 5.57831 324.927 5.71436 324.616 5.98646C324.305 6.24561 324.15 6.57602 324.15 6.97769C324.15 7.27571 324.228 7.5219 324.383 7.71626C324.538 7.89766 324.726 8.04019 324.947 8.14385C325.167 8.23455 325.381 8.3123 325.588 8.37708L327.298 8.88242C328.154 9.12861 328.814 9.51085 329.281 10.0291C329.76 10.5474 330 11.1694 330 11.895C330 12.4781 329.838 13.0028 329.514 13.4693C329.19 13.9358 328.743 14.2986 328.173 14.5577C327.603 14.8169 326.942 14.9464 326.191 14.9464Z" fill="black"/>
<defs>
<linearGradient id="paint0_linear_1_779" x1="331.06" y1="6.70213" x2="-1.39939" y2="6.70213" gradientUnits="userSpaceOnUse">
<stop stop-color="#F3AA45"/>
<stop offset="1" stop-color="#ED2628"/>
</linearGradient>
</defs>
</svg>
