<svg width="212" height="19" viewBox="0 0 212 19" fill="none" xmlns="http://www.w3.org/2000/svg">
<path d="M-7.21305e-06 14.7216V0.233552H1.75023L7.17596 7.95404H6.2814L11.6682 0.233552H13.4185V14.7216H11.4932V2.64499L12.1739 2.85891L6.78702 10.4433H6.63145L1.30295 2.85891L1.90581 2.64499V14.7216H-7.21305e-06ZM20.1368 14.955C19.3849 14.955 18.7042 14.78 18.0949 14.4299C17.4985 14.0799 17.0318 13.5937 16.6947 12.9714C16.3706 12.3361 16.2085 11.6101 16.2085 10.7933V4.23965H18.0171V10.5988C18.0171 11.1174 18.1208 11.5712 18.3283 11.9601C18.5487 12.3491 18.8468 12.6538 19.2228 12.8742C19.6118 13.0946 20.0526 13.2048 20.5452 13.2048C21.0379 13.2048 21.4722 13.0946 21.8482 12.8742C22.2371 12.6538 22.5353 12.3361 22.7427 11.9212C22.9631 11.5064 23.0733 11.0137 23.0733 10.4433V4.23965H24.9014V14.7216H23.1317V12.6797L23.4234 12.8547C23.1771 13.5159 22.7557 14.0345 22.1593 14.4105C21.5759 14.7735 20.9018 14.955 20.1368 14.955ZM27.7033 14.7216V0.000188291H29.5118V14.7216H27.7033ZM36.5771 14.8383C35.5528 14.8383 34.762 14.5466 34.2045 13.9632C33.66 13.3798 33.3877 12.5565 33.3877 11.4934V5.97044H31.4819V4.23965H31.8709C32.3376 4.23965 32.7071 4.09704 32.9793 3.81181C33.2516 3.52659 33.3877 3.15061 33.3877 2.68388V1.82821H35.1963V4.23965H37.5494V5.97044H35.1963V11.4351C35.1963 11.7851 35.2482 12.0898 35.3519 12.3491C35.4686 12.6084 35.6566 12.8158 35.9159 12.9714C36.1751 13.114 36.5187 13.1853 36.9465 13.1853C37.0373 13.1853 37.1475 13.1788 37.2771 13.1659C37.4198 13.1529 37.5494 13.1399 37.6661 13.127V14.7216C37.4975 14.7605 37.3096 14.7864 37.1021 14.7994C36.8947 14.8253 36.7197 14.8383 36.5771 14.8383ZM40.0286 14.7216V4.23965H41.8372V14.7216H40.0286ZM40.0286 2.5672V0.233552H41.8372V2.5672H40.0286ZM44.6435 14.7216V0.000188291H46.4521V14.7216H44.6435ZM49.2584 14.7216V4.23965H51.0669V14.7216H49.2584ZM49.2584 2.5672V0.233552H51.0669V2.5672H49.2584ZM53.8733 14.7216V4.23965H55.6429V6.28159L55.3512 6.10657C55.6105 5.44537 56.0254 4.93326 56.5958 4.57025C57.1793 4.19427 57.8599 4.00629 58.6378 4.00629C59.3897 4.00629 60.0574 4.17483 60.6408 4.51191C61.2372 4.84899 61.7039 5.31572 62.041 5.9121C62.3911 6.50848 62.5661 7.18264 62.5661 7.9346V14.7216H60.7381V8.51801C60.7381 7.93459 60.6344 7.44194 60.4269 7.04003C60.2195 6.63812 59.9213 6.32697 59.5323 6.10657C59.1564 5.8732 58.7221 5.75652 58.2294 5.75652C57.7367 5.75652 57.2959 5.8732 56.907 6.10657C56.531 6.32697 56.2328 6.64461 56.0124 7.05948C55.792 7.46138 55.6818 7.94756 55.6818 8.51801V14.7216H53.8733ZM70.152 19C69.413 19 68.7259 18.8833 68.0906 18.6499C67.4683 18.4166 66.9302 18.0925 66.4765 17.6776C66.0357 17.2757 65.6986 16.8025 65.4652 16.2579L67.1571 15.4801C67.3386 15.9727 67.6822 16.3876 68.1878 16.7247C68.7064 17.0747 69.3546 17.2497 70.1325 17.2497C70.7289 17.2497 71.2669 17.1331 71.7466 16.8997C72.2393 16.6793 72.6282 16.3422 72.9135 15.8884C73.1987 15.4476 73.3413 14.9096 73.3413 14.2743V11.9212L73.6719 12.2713C73.3089 12.9844 72.7838 13.5289 72.0967 13.9048C71.4225 14.2808 70.677 14.4688 69.8603 14.4688C68.8749 14.4688 67.9933 14.2419 67.2155 13.7882C66.4376 13.3214 65.8282 12.6926 65.3874 11.9018C64.9466 11.098 64.7262 10.2099 64.7262 9.23755C64.7262 8.25223 64.9466 7.36415 65.3874 6.5733C65.8282 5.78245 66.4311 5.16015 67.196 4.70638C67.9739 4.23965 68.8555 4.00629 69.8408 4.00629C70.6576 4.00629 71.3966 4.19427 72.0578 4.57025C72.7319 4.93326 73.27 5.43889 73.6719 6.08712L73.3996 6.5733V4.23965H75.1693V14.2743C75.1693 15.1819 74.9554 15.9922 74.5276 16.7052C74.0997 17.4183 73.5034 17.9758 72.7384 18.3777C71.9865 18.7925 71.1243 19 70.152 19ZM70.0158 12.7186C70.6381 12.7186 71.1956 12.563 71.6883 12.2518C72.1939 11.9407 72.5958 11.5258 72.894 11.0072C73.1922 10.4757 73.3413 9.88578 73.3413 9.23755C73.3413 8.60228 73.1922 8.01887 72.894 7.48731C72.5958 6.95576 72.1939 6.53441 71.6883 6.22325C71.1956 5.9121 70.6381 5.75652 70.0158 5.75652C69.3806 5.75652 68.8036 5.9121 68.2851 6.22325C67.7665 6.53441 67.3581 6.95576 67.0599 7.48731C66.7747 8.0059 66.6321 8.58931 66.6321 9.23755C66.6321 9.88578 66.7747 10.4757 67.0599 11.0072C67.3581 11.5258 67.76 11.9407 68.2656 12.2518C68.7842 12.563 69.3676 12.7186 70.0158 12.7186ZM81.6876 14.955C80.9356 14.955 80.255 14.78 79.6456 14.4299C79.0493 14.0799 78.5825 13.5937 78.2455 12.9714C77.9213 12.3361 77.7593 11.6101 77.7593 10.7933V4.23965H79.5679V10.5988C79.5679 11.1174 79.6716 11.5712 79.879 11.9601C80.0994 12.3491 80.3976 12.6538 80.7736 12.8742C81.1625 13.0946 81.6033 13.2048 82.096 13.2048C82.5886 13.2048 83.023 13.0946 83.3989 12.8742C83.7879 12.6538 84.0861 12.3361 84.2935 11.9212C84.5139 11.5064 84.6241 11.0137 84.6241 10.4433V4.23965H86.4521V14.7216H84.6824V12.6797L84.9741 12.8547C84.7278 13.5159 84.3065 14.0345 83.7101 14.4105C83.1267 14.7735 82.4525 14.955 81.6876 14.955ZM92.3267 14.955C91.6395 14.955 91.0302 14.8318 90.4986 14.5855C89.98 14.3262 89.5717 13.9762 89.2735 13.5354C88.9753 13.0816 88.8262 12.563 88.8262 11.9796C88.8262 11.4221 88.9429 10.923 89.1762 10.4822C89.4226 10.0284 89.7985 9.64594 90.3042 9.33478C90.8227 9.02363 91.471 8.80323 92.2489 8.67358L96.1383 8.03183V9.5487L92.6573 10.1321C91.9831 10.2488 91.4904 10.4627 91.1793 10.7739C90.8811 11.085 90.732 11.4675 90.732 11.9212C90.732 12.3491 90.9005 12.7056 91.2376 12.9908C91.5877 13.2761 92.022 13.4187 92.5406 13.4187C93.2018 13.4187 93.7722 13.2825 94.2519 13.0103C94.7446 12.7251 95.127 12.3426 95.3993 11.8629C95.6845 11.3832 95.8271 10.8517 95.8271 10.2682V7.60399C95.8271 7.03355 95.6132 6.5733 95.1854 6.22325C94.7705 5.86024 94.2195 5.67873 93.5324 5.67873C92.936 5.67873 92.4044 5.83431 91.9377 6.14546C91.4839 6.44365 91.1469 6.84556 90.9265 7.35118L89.3513 6.53441C89.5457 6.05471 89.8569 5.62688 90.2847 5.2509C90.7125 4.86196 91.2117 4.55729 91.7821 4.33689C92.3526 4.11649 92.949 4.00629 93.5713 4.00629C94.3751 4.00629 95.0817 4.16186 95.691 4.47302C96.3003 4.7712 96.7736 5.19256 97.1106 5.73708C97.4607 6.26863 97.6357 6.89093 97.6357 7.60399V14.7216H95.866V12.738L96.1966 12.8547C95.9762 13.2696 95.678 13.6326 95.3021 13.9437C94.9261 14.2549 94.4853 14.5012 93.9797 14.6827C93.474 14.8642 92.923 14.955 92.3267 14.955ZM100.44 14.7216V0.000188291H102.248V14.7216H100.44Z" fill="black"/>
<path d="M115.223 14.955C114.186 14.955 113.226 14.767 112.345 14.391C111.476 14.015 110.711 13.49 110.05 12.8158C109.402 12.1416 108.896 11.3508 108.533 10.4433C108.17 9.53574 107.988 8.54394 107.988 7.46786C107.988 6.39179 108.163 5.39999 108.513 4.49246C108.876 3.57197 109.382 2.78112 110.03 2.11992C110.692 1.44575 111.463 0.927165 112.345 0.564153C113.226 0.188177 114.186 0.000188291 115.223 0.000188291C116.26 0.000188291 117.187 0.175212 118.004 0.525259C118.833 0.875307 119.533 1.34204 120.104 1.92545C120.674 2.4959 121.083 3.12468 121.329 3.81181L118.957 4.9203C118.684 4.19427 118.224 3.5979 117.576 3.13117C116.928 2.65147 116.143 2.41163 115.223 2.41163C114.315 2.41163 113.511 2.62554 112.811 3.05338C112.124 3.48121 111.586 4.07111 111.197 4.82306C110.821 5.57502 110.633 6.45662 110.633 7.46786C110.633 8.47911 110.821 9.3672 111.197 10.1321C111.586 10.8841 112.124 11.474 112.811 11.9018C113.511 12.3296 114.315 12.5436 115.223 12.5436C116.143 12.5436 116.928 12.3102 117.576 11.8435C118.224 11.3638 118.684 10.7609 118.957 10.0349L121.329 11.1434C121.083 11.8305 120.674 12.4658 120.104 13.0492C119.533 13.6196 118.833 14.0799 118.004 14.4299C117.187 14.78 116.26 14.955 115.223 14.955ZM123.262 14.7216V0.000188291H125.81V6.22325L125.46 5.85376C125.706 5.21849 126.108 4.73879 126.666 4.41467C127.236 4.07759 127.897 3.90905 128.649 3.90905C129.427 3.90905 130.114 4.07759 130.711 4.41467C131.32 4.75176 131.793 5.22497 132.13 5.83431C132.467 6.43069 132.636 7.1243 132.636 7.91515V14.7216H130.088V8.51801C130.088 8.05128 129.998 7.64937 129.816 7.31229C129.635 6.97521 129.382 6.71591 129.058 6.53441C128.746 6.33993 128.377 6.2427 127.949 6.2427C127.534 6.2427 127.165 6.33993 126.841 6.53441C126.517 6.71591 126.264 6.97521 126.082 7.31229C125.901 7.64937 125.81 8.05128 125.81 8.51801V14.7216H123.262ZM137.999 14.955C137.26 14.955 136.618 14.8318 136.074 14.5855C135.529 14.3392 135.108 13.9891 134.81 13.5354C134.511 13.0686 134.362 12.5306 134.362 11.9212C134.362 11.3378 134.492 10.8192 134.751 10.3655C135.01 9.89875 135.412 9.50981 135.957 9.19865C136.501 8.8875 137.189 8.6671 138.018 8.53745L141.48 7.97349V9.9182L138.504 10.4238C137.999 10.5146 137.623 10.6766 137.377 10.91C137.13 11.1434 137.007 11.448 137.007 11.824C137.007 12.187 137.143 12.4787 137.415 12.6991C137.701 12.9066 138.051 13.0103 138.466 13.0103C138.997 13.0103 139.464 12.9001 139.866 12.6797C140.281 12.4463 140.598 12.1287 140.819 11.7268C141.052 11.3249 141.169 10.8841 141.169 10.4044V7.68178C141.169 7.22802 140.987 6.85204 140.624 6.55385C140.274 6.2427 139.807 6.08712 139.224 6.08712C138.68 6.08712 138.193 6.23622 137.765 6.53441C137.351 6.81963 137.046 7.20209 136.851 7.68178L134.771 6.67053C134.978 6.11305 135.302 5.63336 135.743 5.23145C136.197 4.81658 136.728 4.49246 137.338 4.2591C137.947 4.02573 138.608 3.90905 139.321 3.90905C140.19 3.90905 140.955 4.07111 141.616 4.39523C142.277 4.70638 142.789 5.14718 143.152 5.71763C143.528 6.27511 143.716 6.92983 143.716 7.68178V14.7216H141.305V12.913L141.849 12.8742C141.577 13.3279 141.253 13.7104 140.877 14.0215C140.501 14.3197 140.073 14.5531 139.594 14.7216C139.114 14.8772 138.582 14.955 137.999 14.955ZM149.844 14.955C149.027 14.955 148.314 14.7735 147.704 14.4105C147.108 14.0475 146.648 13.5418 146.324 12.8936C146.013 12.2454 145.857 11.4869 145.857 10.6183V4.14242H148.405V10.4044C148.405 10.8452 148.489 11.2341 148.657 11.5712C148.839 11.8953 149.092 12.1546 149.416 12.3491C149.753 12.5306 150.129 12.6213 150.544 12.6213C150.959 12.6213 151.328 12.5306 151.652 12.3491C151.976 12.1546 152.229 11.8888 152.411 11.5518C152.592 11.2147 152.683 10.8128 152.683 10.346V4.14242H155.23V14.7216H152.819V12.6408L153.033 13.0103C152.787 13.6585 152.378 14.1447 151.808 14.4688C151.25 14.7929 150.596 14.955 149.844 14.955ZM158.824 14.7216V6.41772H156.957V4.14242H158.824V3.79237C158.824 2.98856 158.986 2.30791 159.31 1.75042C159.647 1.17998 160.114 0.74566 160.71 0.447471C161.307 0.149283 162.013 0.000188291 162.83 0.000188291C162.985 0.000188291 163.154 0.0131528 163.336 0.0390819C163.53 0.0520473 163.692 0.0714945 163.822 0.0974236V2.29494C163.692 2.26901 163.569 2.25605 163.452 2.25605C163.348 2.24308 163.251 2.2366 163.16 2.2366C162.59 2.2366 162.149 2.36625 161.838 2.62554C161.527 2.87187 161.371 3.26081 161.371 3.79237V4.14242H166V6.41772H161.371V14.7216H158.824ZM166.525 14.7216V6.41772H164.658V4.14242H166.525V3.79237C166.525 2.98856 166.687 2.30791 167.011 1.75042C167.335 1.17998 167.795 0.74566 168.392 0.447471C169.001 0.149283 169.714 0.000188291 170.531 0.000188291C170.687 0.000188291 170.855 0.0131528 171.037 0.0390819C171.231 0.0520473 171.387 0.0714945 171.503 0.0974236V2.29494C171.387 2.26901 171.27 2.25605 171.153 2.25605C171.05 2.24308 170.952 2.2366 170.862 2.2366C170.291 2.2366 169.85 2.36625 169.539 2.62554C169.228 2.87187 169.072 3.26081 169.072 3.79237V4.14242H171.406V6.41772H169.072V14.7216H166.525ZM177.904 14.955C176.815 14.955 175.862 14.7087 175.045 14.216C174.228 13.7233 173.593 13.0557 173.139 12.213C172.686 11.3702 172.459 10.4368 172.459 9.41257C172.459 8.34947 172.686 7.40952 173.139 6.59275C173.606 5.763 174.235 5.10829 175.026 4.62859C175.83 4.1489 176.724 3.90905 177.709 3.90905C178.539 3.90905 179.265 4.04518 179.888 4.31744C180.523 4.5897 181.061 4.96568 181.502 5.44537C181.942 5.92506 182.28 6.47606 182.513 7.09837C182.746 7.70771 182.863 8.36891 182.863 9.08197C182.863 9.26348 182.85 9.45147 182.824 9.64594C182.811 9.84041 182.779 10.0089 182.727 10.1516H174.559V8.20685H181.288L180.082 9.12087C180.199 8.52449 180.166 7.99294 179.985 7.52621C179.816 7.05948 179.531 6.68998 179.129 6.41772C178.74 6.14546 178.267 6.00933 177.709 6.00933C177.178 6.00933 176.705 6.14546 176.29 6.41772C175.875 6.67702 175.557 7.06596 175.337 7.58455C175.13 8.09017 175.052 8.706 175.104 9.43202C175.052 10.0803 175.136 10.6572 175.356 11.1628C175.59 11.6555 175.927 12.0379 176.368 12.3102C176.821 12.5824 177.34 12.7186 177.923 12.7186C178.507 12.7186 178.999 12.5954 179.401 12.3491C179.816 12.1028 180.14 11.7722 180.374 11.3573L182.435 12.3685C182.228 12.8742 181.904 13.3214 181.463 13.7104C181.022 14.0993 180.497 14.404 179.888 14.6244C179.291 14.8448 178.63 14.955 177.904 14.955ZM188.567 14.955C187.75 14.955 187.037 14.7735 186.428 14.4105C185.831 14.0475 185.371 13.5418 185.047 12.8936C184.736 12.2454 184.58 11.4869 184.58 10.6183V4.14242H187.128V10.4044C187.128 10.8452 187.212 11.2341 187.381 11.5712C187.562 11.8953 187.815 12.1546 188.139 12.3491C188.476 12.5306 188.852 12.6213 189.267 12.6213C189.682 12.6213 190.051 12.5306 190.375 12.3491C190.7 12.1546 190.952 11.8888 191.134 11.5518C191.315 11.2147 191.406 10.8128 191.406 10.346V4.14242H193.954V14.7216H191.542V12.6408L191.756 13.0103C191.51 13.6585 191.101 14.1447 190.531 14.4688C189.974 14.7929 189.319 14.955 188.567 14.955ZM196.322 14.7216V4.14242H198.714V6.49551L198.519 6.14546C198.766 5.35462 199.148 4.80362 199.667 4.49246C200.198 4.18131 200.834 4.02573 201.573 4.02573H202.195V6.28159H201.281C200.555 6.28159 199.971 6.50848 199.531 6.96224C199.09 7.40304 198.869 8.02535 198.869 8.82916V14.7216H196.322ZM207.621 14.955C206.493 14.955 205.508 14.6892 204.665 14.1577C203.835 13.6131 203.265 12.8806 202.954 11.9601L204.86 11.0461C205.132 11.6425 205.508 12.1092 205.988 12.4463C206.48 12.7834 207.025 12.9519 207.621 12.9519C208.088 12.9519 208.457 12.8482 208.73 12.6408C209.002 12.4334 209.138 12.1611 209.138 11.824C209.138 11.6166 209.08 11.448 208.963 11.3184C208.859 11.1758 208.71 11.0591 208.516 10.9683C208.334 10.8646 208.133 10.7804 207.913 10.7155L206.182 10.2293C205.287 9.97006 204.607 9.57463 204.14 9.04308C203.686 8.51152 203.459 7.88274 203.459 7.15671C203.459 6.50848 203.621 5.94451 203.946 5.46482C204.283 4.97216 204.743 4.5897 205.326 4.31744C205.923 4.04518 206.603 3.90905 207.368 3.90905C208.367 3.90905 209.248 4.1489 210.013 4.62859C210.778 5.10829 211.322 5.78245 211.647 6.65109L209.702 7.5651C209.52 7.08541 209.216 6.70295 208.788 6.41772C208.36 6.1325 207.88 5.98989 207.349 5.98989C206.921 5.98989 206.584 6.08712 206.338 6.28159C206.091 6.47606 205.968 6.72888 205.968 7.04003C205.968 7.2345 206.02 7.40304 206.124 7.54565C206.227 7.68827 206.37 7.80495 206.551 7.8957C206.746 7.98645 206.966 8.07072 207.213 8.14851L208.905 8.65414C209.773 8.91343 210.441 9.30237 210.908 9.82096C211.387 10.3395 211.627 10.9748 211.627 11.7268C211.627 12.362 211.459 12.926 211.122 13.4187C210.784 13.8984 210.318 14.2743 209.721 14.5466C209.125 14.8189 208.425 14.955 207.621 14.955Z" fill="url(#paint0_linear_1_773)"/>
<defs>
<linearGradient id="paint0_linear_1_773" x1="212.805" y1="6.70597" x2="-1.61411" y2="6.70597" gradientUnits="userSpaceOnUse">
<stop stop-color="#F3AA45"/>
<stop offset="1" stop-color="#ED2628"/>
</linearGradient>
</defs>
</svg>
