<svg width="1082" height="19" viewBox="0 0 1082 19" fill="none" xmlns="http://www.w3.org/2000/svg">
<path d="M-7.20273e-06 14.7006V0.233218H5.10726C6.06527 0.233218 6.90677 0.414465 7.63176 0.776959C8.35674 1.13945 8.9199 1.6573 9.32123 2.3305C9.73551 3.0037 9.94265 3.79342 9.94265 4.69965C9.94265 5.60588 9.73551 6.3956 9.32123 7.0688C8.9199 7.72905 8.35674 8.2469 7.63176 8.62234C6.91972 8.98483 6.07822 9.16608 5.10726 9.16608H1.90308V14.7006H-7.20273e-06ZM1.90308 7.41834H5.16551C5.74809 7.41834 6.25299 7.3083 6.68022 7.08822C7.10744 6.86813 7.43757 6.55095 7.6706 6.13667C7.90363 5.72239 8.02014 5.24339 8.02014 4.69965C8.02014 4.14296 7.90363 3.66395 7.6706 3.26262C7.43757 2.84834 7.10744 2.53116 6.68022 2.31108C6.25299 2.09099 5.74809 1.98095 5.16551 1.98095H1.90308V7.41834ZM14.6503 14.9336C13.9642 14.9336 13.3557 14.8106 12.8249 14.5646C12.307 14.3057 11.8992 13.9562 11.6015 13.516C11.3037 13.0629 11.1548 12.545 11.1548 11.9624C11.1548 11.4058 11.2714 10.9073 11.5044 10.4672C11.7504 10.014 12.1258 9.63214 12.6307 9.32143C13.1485 9.01072 13.7959 8.79064 14.5726 8.66118L18.4565 8.02034V9.53504L14.9804 10.1176C14.3072 10.2341 13.8153 10.4477 13.5046 10.7585C13.2068 11.0692 13.0579 11.4511 13.0579 11.9042C13.0579 12.3314 13.2262 12.6874 13.5628 12.9722C13.9124 13.2571 14.3461 13.3995 14.8639 13.3995C15.5242 13.3995 16.0938 13.2635 16.5728 12.9917C17.0648 12.7069 17.4467 12.3249 17.7185 11.8459C18.0034 11.3669 18.1458 10.8361 18.1458 10.2536V7.59312C18.1458 7.02348 17.9322 6.5639 17.5049 6.21435C17.0907 5.85186 16.5404 5.67061 15.8543 5.67061C15.2588 5.67061 14.728 5.82596 14.2619 6.13667C13.8088 6.43443 13.4722 6.83577 13.2521 7.34067L11.6792 6.52506C11.8733 6.04605 12.1841 5.61883 12.6113 5.24339C13.0385 4.855 13.5369 4.55077 14.1066 4.33068C14.6762 4.1106 15.2717 4.00055 15.8931 4.00055C16.6958 4.00055 17.4014 4.15591 18.0098 4.46662C18.6183 4.76438 19.0908 5.18513 19.4274 5.72887C19.777 6.25966 19.9518 6.88108 19.9518 7.59312V14.7006H18.1846V12.7198L18.5147 12.8363C18.2946 13.2506 17.9969 13.6131 17.6214 13.9238C17.246 14.2345 16.8058 14.4805 16.3009 14.6617C15.796 14.843 15.2458 14.9336 14.6503 14.9336ZM27.6067 14.9336C26.584 14.9336 25.6713 14.6941 24.8686 14.2151C24.0789 13.7361 23.4575 13.0823 23.0044 12.2537C22.5513 11.4252 22.3247 10.4931 22.3247 9.45736C22.3247 8.40872 22.5513 7.4766 23.0044 6.66099C23.4575 5.84538 24.0789 5.19808 24.8686 4.71907C25.6713 4.24006 26.584 4.00055 27.6067 4.00055C28.2929 4.00055 28.9337 4.12354 29.5292 4.36952C30.1248 4.6155 30.6491 4.94562 31.1022 5.3599C31.5553 5.77418 31.8854 6.25966 32.0926 6.81635L30.4808 7.59312C30.2348 7.04938 29.8594 6.60921 29.3545 6.27261C28.8496 5.92306 28.267 5.74829 27.6067 5.74829C26.9724 5.74829 26.3963 5.91011 25.8784 6.23377C25.3735 6.55742 24.9722 6.99759 24.6744 7.55428C24.3767 8.11096 24.2278 8.7518 24.2278 9.47678C24.2278 10.1759 24.3767 10.8102 24.6744 11.3799C24.9722 11.9366 25.3735 12.3767 25.8784 12.7004C26.3963 13.024 26.9724 13.1859 27.6067 13.1859C28.267 13.1859 28.8496 13.0176 29.3545 12.681C29.8594 12.3314 30.2348 11.8718 30.4808 11.3022L32.0926 12.1178C31.8854 12.6615 31.5553 13.147 31.1022 13.5742C30.6491 13.9885 30.1248 14.3187 29.5292 14.5646C28.9337 14.8106 28.2929 14.9336 27.6067 14.9336ZM34.4528 14.7006V0.000188022H36.2588V10.0788L35.5208 9.90401L41.0747 4.23359H43.3856L39.3659 8.44756L43.6575 14.7006H41.5214L37.5987 9.03014L38.725 8.97188L35.6762 12.1566L36.2588 10.8361V14.7006H34.4528ZM48.3495 14.9336C47.6634 14.9336 47.0549 14.8106 46.5241 14.5646C46.0063 14.3057 45.5985 13.9562 45.3007 13.516C45.003 13.0629 44.8541 12.545 44.8541 11.9624C44.8541 11.4058 44.9706 10.9073 45.2036 10.4672C45.4496 10.014 45.825 9.63214 46.3299 9.32143C46.8478 9.01072 47.4951 8.79064 48.2719 8.66118L52.1557 8.02034V9.53504L48.6797 10.1176C48.0065 10.2341 47.5145 10.4477 47.2038 10.7585C46.906 11.0692 46.7572 11.4511 46.7572 11.9042C46.7572 12.3314 46.9255 12.6874 47.2621 12.9722C47.6116 13.2571 48.0453 13.3995 48.5631 13.3995C49.2234 13.3995 49.793 13.2635 50.272 12.9917C50.764 12.7069 51.1459 12.3249 51.4178 11.8459C51.7026 11.3669 51.845 10.8361 51.845 10.2536V7.59312C51.845 7.02348 51.6314 6.5639 51.2042 6.21435C50.7899 5.85186 50.2397 5.67061 49.5535 5.67061C48.958 5.67061 48.4272 5.82596 47.9612 6.13667C47.508 6.43443 47.1714 6.83577 46.9513 7.34067L45.3784 6.52506C45.5726 6.04605 45.8833 5.61883 46.3105 5.24339C46.7377 4.855 47.2362 4.55077 47.8058 4.33068C48.3754 4.1106 48.971 4.00055 49.5924 4.00055C50.395 4.00055 51.1006 4.15591 51.7091 4.46662C52.3175 4.76438 52.7901 5.18513 53.1267 5.72887C53.4762 6.25966 53.651 6.88108 53.651 7.59312V14.7006H51.8838V12.7198L52.214 12.8363C51.9939 13.2506 51.6961 13.6131 51.3207 13.9238C50.9452 14.2345 50.5051 14.4805 50.0002 14.6617C49.4953 14.843 48.9451 14.9336 48.3495 14.9336ZM61.4419 18.9728C60.704 18.9728 60.0178 18.8563 59.3835 18.6233C58.762 18.3902 58.2248 18.0666 57.7717 17.6523C57.3315 17.251 56.9949 16.7784 56.7619 16.2347L58.4513 15.4579C58.6326 15.9499 58.9757 16.3641 59.4806 16.7007C59.9984 17.0503 60.6457 17.2251 61.4225 17.2251C62.018 17.2251 62.5553 17.1086 63.0343 16.8755C63.5262 16.6554 63.9146 16.3188 64.1994 15.8657C64.4843 15.4255 64.6267 14.8883 64.6267 14.2539V11.9042L64.9568 12.2537C64.5943 12.9658 64.07 13.5095 63.3838 13.885C62.7106 14.2604 61.9662 14.4481 61.1506 14.4481C60.1667 14.4481 59.2864 14.2216 58.5096 13.7684C57.7328 13.3024 57.1244 12.6745 56.6842 11.8848C56.244 11.0821 56.0239 10.1953 56.0239 9.22433C56.0239 8.24042 56.244 7.35361 56.6842 6.5639C57.1244 5.77418 57.7264 5.15276 58.4902 4.69965C59.2669 4.23359 60.1473 4.00055 61.1312 4.00055C61.9468 4.00055 62.6847 4.18827 63.345 4.56371C64.0182 4.92621 64.5555 5.43111 64.9568 6.07841L64.6849 6.5639V4.23359H66.4521V14.2539C66.4521 15.1602 66.2385 15.9693 65.8112 16.6813C65.384 17.3934 64.7885 17.9501 64.0247 18.3514C63.2738 18.7657 62.4129 18.9728 61.4419 18.9728ZM61.306 12.7004C61.9274 12.7004 62.4841 12.545 62.976 12.2343C63.4809 11.9236 63.8823 11.5093 64.18 10.9915C64.4778 10.4607 64.6267 9.87164 64.6267 9.22433C64.6267 8.58997 64.4778 8.00739 64.18 7.4766C63.8823 6.94581 63.4809 6.52506 62.976 6.21435C62.4841 5.90364 61.9274 5.74829 61.306 5.74829C60.6716 5.74829 60.0955 5.90364 59.5777 6.21435C59.0598 6.52506 58.652 6.94581 58.3542 7.4766C58.0694 7.99445 57.927 8.57703 57.927 9.22433C57.927 9.87164 58.0694 10.4607 58.3542 10.9915C58.652 11.5093 59.0533 11.9236 59.5582 12.2343C60.0761 12.545 60.6587 12.7004 61.306 12.7004ZM74.0679 14.9336C73.0581 14.9336 72.1583 14.6941 71.3686 14.2151C70.5789 13.7361 69.9575 13.0823 69.5044 12.2537C69.0513 11.4122 68.8247 10.4736 68.8247 9.43795C68.8247 8.38931 69.0448 7.45718 69.485 6.64157C69.9381 5.82596 70.5465 5.18513 71.3104 4.71907C72.0871 4.24006 72.9545 4.00055 73.9125 4.00055C74.6893 4.00055 75.3755 4.14296 75.971 4.42778C76.5795 4.69965 77.0908 5.07509 77.5051 5.55409C77.9323 6.02016 78.256 6.55742 78.4761 7.16589C78.7091 7.76142 78.8256 8.38283 78.8256 9.03014C78.8256 9.17255 78.8127 9.33438 78.7868 9.51562C78.7738 9.68392 78.7544 9.84575 78.7285 10.0011H70.1452V8.44756H77.6799L76.8254 9.14666C76.942 8.47346 76.8772 7.87146 76.6312 7.34067C76.3853 6.80987 76.0228 6.38912 75.5438 6.07841C75.0648 5.76771 74.521 5.61235 73.9125 5.61235C73.3041 5.61235 72.7474 5.76771 72.2425 6.07841C71.7376 6.38912 71.3427 6.83577 71.0579 7.41834C70.786 7.98797 70.676 8.66765 70.7278 9.45736C70.676 10.2212 70.7925 10.8944 71.0773 11.477C71.3751 12.0466 71.7894 12.4932 72.3202 12.8169C72.8639 13.1276 73.453 13.283 74.0873 13.283C74.7864 13.283 75.3755 13.1211 75.8545 12.7975C76.3335 12.4738 76.7219 12.0595 77.0196 11.5546L78.5343 12.3314C78.3272 12.8104 78.0035 13.2506 77.5634 13.6519C77.1361 14.0403 76.6248 14.351 76.0292 14.584C75.4467 14.8171 74.7929 14.9336 74.0679 14.9336ZM85.9381 14.9336C84.9542 14.9336 84.0674 14.6941 83.2776 14.2151C82.5009 13.7361 81.8859 13.0823 81.4328 12.2537C80.9797 11.4252 80.7531 10.4995 80.7531 9.47678C80.7531 8.42814 80.9797 7.49602 81.4328 6.68041C81.8859 5.85186 82.5009 5.19808 83.2776 4.71907C84.0674 4.24006 84.9542 4.00055 85.9381 4.00055C86.8055 4.00055 87.5758 4.18827 88.249 4.56371C88.9222 4.92621 89.453 5.41816 89.8413 6.03958L89.5501 6.48622V0.000188022H91.3755V14.7006H89.6083V12.4673L89.8413 12.7781C89.4789 13.4642 88.9481 13.995 88.249 14.3704C87.5628 14.7459 86.7925 14.9336 85.9381 14.9336ZM86.0934 13.1859C86.7537 13.1859 87.3427 13.024 87.8606 12.7004C88.3784 12.3767 88.7862 11.9366 89.084 11.3799C89.3947 10.8102 89.5501 10.1759 89.5501 9.47678C89.5501 8.76474 89.3947 8.13038 89.084 7.5737C88.7862 7.00407 88.3784 6.55742 87.8606 6.23377C87.3427 5.91011 86.7537 5.74829 86.0934 5.74829C85.4461 5.74829 84.8571 5.91659 84.3263 6.25319C83.8084 6.57684 83.4006 7.01701 83.1029 7.5737C82.8051 8.11744 82.6562 8.7518 82.6562 9.47678C82.6562 10.1759 82.8051 10.8102 83.1029 11.3799C83.4006 11.9366 83.8084 12.3767 84.3263 12.7004C84.8441 13.024 85.4332 13.1859 86.0934 13.1859ZM102.712 14.9336C101.793 14.9336 100.952 14.7653 100.188 14.4287C99.424 14.0791 98.7767 13.6066 98.2459 13.0111C97.7151 12.4156 97.3332 11.7488 97.1002 11.0109L98.7508 10.3312C99.1004 11.2634 99.6182 11.9819 100.304 12.4868C101.003 12.9787 101.819 13.2247 102.751 13.2247C103.321 13.2247 103.819 13.1341 104.246 12.9528C104.674 12.7716 105.004 12.5191 105.237 12.1955C105.483 11.8589 105.606 11.4705 105.606 11.0303C105.606 10.4219 105.431 9.94285 105.082 9.5933C104.745 9.23081 104.246 8.95894 103.586 8.77769L100.926 7.96208C99.8772 7.63843 99.0745 7.12705 98.5178 6.42796C97.9611 5.72887 97.6828 4.92621 97.6828 4.01997C97.6828 3.23026 97.8705 2.53764 98.2459 1.94211C98.6343 1.33364 99.1651 0.861108 99.8383 0.524508C100.524 0.174961 101.301 0.000188022 102.169 0.000188022C103.036 0.000188022 103.819 0.155542 104.518 0.46625C105.23 0.776958 105.832 1.19771 106.324 1.7285C106.816 2.24635 107.179 2.84187 107.412 3.51507L105.781 4.19475C105.47 3.37914 105.004 2.76419 104.382 2.34992C103.761 1.92269 103.03 1.70908 102.188 1.70908C101.67 1.70908 101.211 1.79971 100.809 1.98095C100.421 2.14925 100.117 2.4017 99.8966 2.7383C99.6894 3.06196 99.5859 3.45034 99.5859 3.90346C99.5859 4.43425 99.7542 4.90679 100.091 5.32106C100.427 5.73534 100.939 6.05252 101.625 6.27261L104.052 6.99112C105.192 7.34067 106.052 7.83909 106.635 8.4864C107.218 9.13371 107.509 9.93637 107.509 10.8944C107.509 11.6841 107.302 12.3832 106.888 12.9917C106.486 13.6001 105.923 14.0791 105.198 14.4287C104.486 14.7653 103.657 14.9336 102.712 14.9336ZM115.053 14.9336C114.043 14.9336 113.13 14.7006 112.315 14.2345C111.499 13.7555 110.852 13.1017 110.373 12.2732C109.894 11.4446 109.654 10.506 109.654 9.45736C109.654 8.40872 109.887 7.4766 110.354 6.66099C110.833 5.84538 111.48 5.19808 112.295 4.71907C113.111 4.24006 114.03 4.00055 115.053 4.00055C116.063 4.00055 116.976 4.24006 117.791 4.71907C118.607 5.18513 119.248 5.82596 119.714 6.64157C120.193 7.45718 120.432 8.39578 120.432 9.45736C120.432 10.519 120.186 11.464 119.694 12.2926C119.202 13.1082 118.548 13.7555 117.733 14.2345C116.93 14.7006 116.037 14.9336 115.053 14.9336ZM115.053 13.1859C115.7 13.1859 116.283 13.024 116.801 12.7004C117.332 12.3767 117.746 11.9301 118.044 11.3605C118.354 10.7908 118.51 10.1565 118.51 9.45736C118.51 8.74533 118.354 8.11744 118.044 7.5737C117.746 7.01701 117.332 6.57684 116.801 6.25319C116.283 5.91659 115.7 5.74829 115.053 5.74829C114.393 5.74829 113.797 5.91659 113.266 6.25319C112.749 6.57684 112.334 7.01701 112.024 7.5737C111.713 8.11744 111.558 8.74533 111.558 9.45736C111.558 10.1565 111.713 10.7908 112.024 11.3605C112.334 11.9301 112.749 12.3767 113.266 12.7004C113.797 13.024 114.393 13.1859 115.053 13.1859ZM122.788 14.7006V0.000188022H124.594V14.7006H122.788ZM131.105 14.9336C130.354 14.9336 129.674 14.7588 129.066 14.4093C128.47 14.0597 128.004 13.5742 127.668 12.9528C127.344 12.3185 127.182 11.5935 127.182 10.7779V4.23359H128.988V10.5837C128.988 11.1015 129.092 11.5546 129.299 11.943C129.519 12.3314 129.817 12.6356 130.192 12.8557C130.581 13.0758 131.021 13.1859 131.513 13.1859C132.005 13.1859 132.438 13.0758 132.814 12.8557C133.202 12.6356 133.5 12.3185 133.707 11.9042C133.927 11.4899 134.037 10.998 134.037 10.4283V4.23359H135.863V14.7006H134.096V12.6615L134.387 12.8363C134.141 13.4966 133.72 14.0144 133.125 14.3899C132.542 14.7523 131.869 14.9336 131.105 14.9336ZM142.913 14.8171C141.891 14.8171 141.101 14.5258 140.544 13.9432C140.001 13.3606 139.729 12.5386 139.729 11.477V5.9619H137.826V4.23359H138.214C138.68 4.23359 139.049 4.09118 139.321 3.80636C139.593 3.52155 139.729 3.14611 139.729 2.68005V1.8256H141.535V4.23359H143.884V5.9619H141.535V11.4187C141.535 11.7683 141.586 12.0725 141.69 12.3314C141.807 12.5903 141.994 12.7975 142.253 12.9528C142.512 13.0952 142.855 13.1664 143.282 13.1664C143.373 13.1664 143.483 13.16 143.613 13.147C143.755 13.1341 143.884 13.1211 144.001 13.1082V14.7006C143.833 14.7394 143.645 14.7653 143.438 14.7782C143.231 14.8041 143.056 14.8171 142.913 14.8171ZM146.36 14.7006V4.23359H148.166V14.7006H146.36ZM146.36 2.56353V0.233218H148.166V2.56353H146.36ZM155.94 14.9336C154.93 14.9336 154.017 14.7006 153.202 14.2345C152.386 13.7555 151.739 13.1017 151.26 12.2732C150.781 11.4446 150.541 10.506 150.541 9.45736C150.541 8.40872 150.774 7.4766 151.24 6.66099C151.719 5.84538 152.366 5.19808 153.182 4.71907C153.998 4.24006 154.917 4.00055 155.94 4.00055C156.949 4.00055 157.862 4.24006 158.678 4.71907C159.493 5.18513 160.134 5.82596 160.6 6.64157C161.079 7.45718 161.319 8.39578 161.319 9.45736C161.319 10.519 161.073 11.464 160.581 12.2926C160.089 13.1082 159.435 13.7555 158.619 14.2345C157.817 14.7006 156.924 14.9336 155.94 14.9336ZM155.94 13.1859C156.587 13.1859 157.17 13.024 157.687 12.7004C158.218 12.3767 158.632 11.9301 158.93 11.3605C159.241 10.7908 159.396 10.1565 159.396 9.45736C159.396 8.74533 159.241 8.11744 158.93 7.5737C158.632 7.01701 158.218 6.57684 157.687 6.25319C157.17 5.91659 156.587 5.74829 155.94 5.74829C155.279 5.74829 154.684 5.91659 154.153 6.25319C153.635 6.57684 153.221 7.01701 152.91 7.5737C152.6 8.11744 152.444 8.74533 152.444 9.45736C152.444 10.1565 152.6 10.7908 152.91 11.3605C153.221 11.9301 153.635 12.3767 154.153 12.7004C154.684 13.024 155.279 13.1859 155.94 13.1859ZM163.674 14.7006V4.23359H165.441V6.27261L165.15 6.09783C165.409 5.43758 165.823 4.92621 166.393 4.56371C166.976 4.18827 167.655 4.00055 168.432 4.00055C169.183 4.00055 169.85 4.16885 170.432 4.50545C171.028 4.84206 171.494 5.30812 171.83 5.90364C172.18 6.49917 172.355 7.17237 172.355 7.92324V14.7006H170.529V8.50582C170.529 7.92324 170.426 7.43129 170.219 7.02996C170.011 6.62863 169.714 6.31792 169.325 6.09783C168.95 5.8648 168.516 5.74829 168.024 5.74829C167.532 5.74829 167.092 5.8648 166.704 6.09783C166.328 6.31792 166.03 6.6351 165.81 7.04938C165.59 7.45071 165.48 7.93619 165.48 8.50582V14.7006H163.674ZM174.939 14.7006V4.23359H176.745V14.7006H174.939ZM174.939 2.56353V0.233218H176.745V2.56353H174.939ZM179.547 14.7006V4.23359H181.314V6.27261L181.023 6.09783C181.282 5.43758 181.696 4.92621 182.266 4.56371C182.848 4.18827 183.528 4.00055 184.305 4.00055C185.056 4.00055 185.723 4.16885 186.305 4.50545C186.901 4.84206 187.367 5.30812 187.703 5.90364C188.053 6.49917 188.228 7.17237 188.228 7.92324V14.7006H186.402V8.50582C186.402 7.92324 186.299 7.43129 186.092 7.02996C185.884 6.62863 185.587 6.31792 185.198 6.09783C184.823 5.8648 184.389 5.74829 183.897 5.74829C183.405 5.74829 182.965 5.8648 182.577 6.09783C182.201 6.31792 181.903 6.6351 181.683 7.04938C181.463 7.45071 181.353 7.93619 181.353 8.50582V14.7006H179.547ZM195.803 18.9728C195.065 18.9728 194.379 18.8563 193.744 18.6233C193.123 18.3902 192.586 18.0666 192.132 17.6523C191.692 17.251 191.356 16.7784 191.123 16.2347L192.812 15.4579C192.993 15.9499 193.336 16.3641 193.841 16.7007C194.359 17.0503 195.006 17.2251 195.783 17.2251C196.379 17.2251 196.916 17.1086 197.395 16.8755C197.887 16.6554 198.275 16.3188 198.56 15.8657C198.845 15.4255 198.987 14.8883 198.987 14.2539V11.9042L199.318 12.2537C198.955 12.9658 198.431 13.5095 197.745 13.885C197.071 14.2604 196.327 14.4481 195.511 14.4481C194.527 14.4481 193.647 14.2216 192.87 13.7684C192.094 13.3024 191.485 12.6745 191.045 11.8848C190.605 11.0821 190.385 10.1953 190.385 9.22433C190.385 8.24042 190.605 7.35361 191.045 6.5639C191.485 5.77418 192.087 5.15276 192.851 4.69965C193.628 4.23359 194.508 4.00055 195.492 4.00055C196.308 4.00055 197.045 4.18827 197.706 4.56371C198.379 4.92621 198.916 5.43111 199.318 6.07841L199.046 6.5639V4.23359H200.813V14.2539C200.813 15.1602 200.599 15.9693 200.172 16.6813C199.745 17.3934 199.149 17.9501 198.385 18.3514C197.635 18.7657 196.774 18.9728 195.803 18.9728ZM195.667 12.7004C196.288 12.7004 196.845 12.545 197.337 12.2343C197.842 11.9236 198.243 11.5093 198.541 10.9915C198.839 10.4607 198.987 9.87164 198.987 9.22433C198.987 8.58997 198.839 8.00739 198.541 7.4766C198.243 6.94581 197.842 6.52506 197.337 6.21435C196.845 5.90364 196.288 5.74829 195.667 5.74829C195.032 5.74829 194.456 5.90364 193.938 6.21435C193.421 6.52506 193.013 6.94581 192.715 7.4766C192.43 7.99445 192.288 8.57703 192.288 9.22433C192.288 9.87164 192.43 10.4607 192.715 10.9915C193.013 11.5093 193.414 11.9236 193.919 12.2343C194.437 12.545 195.019 12.7004 195.667 12.7004ZM211.824 14.9336C210.801 14.9336 209.889 14.6941 209.086 14.2151C208.296 13.7361 207.675 13.0823 207.222 12.2537C206.769 11.4252 206.542 10.4931 206.542 9.45736C206.542 8.40872 206.769 7.4766 207.222 6.66099C207.675 5.84538 208.296 5.19808 209.086 4.71907C209.889 4.24006 210.801 4.00055 211.824 4.00055C212.51 4.00055 213.151 4.12354 213.747 4.36952C214.342 4.6155 214.866 4.94562 215.32 5.3599C215.773 5.77418 216.103 6.25966 216.31 6.81635L214.698 7.59312C214.452 7.04938 214.077 6.60921 213.572 6.27261C213.067 5.92306 212.484 5.74829 211.824 5.74829C211.19 5.74829 210.614 5.91011 210.096 6.23377C209.591 6.55742 209.19 6.99759 208.892 7.55428C208.594 8.11096 208.445 8.7518 208.445 9.47678C208.445 10.1759 208.594 10.8102 208.892 11.3799C209.19 11.9366 209.591 12.3767 210.096 12.7004C210.614 13.024 211.19 13.1859 211.824 13.1859C212.484 13.1859 213.067 13.0176 213.572 12.681C214.077 12.3314 214.452 11.8718 214.698 11.3022L216.31 12.1178C216.103 12.6615 215.773 13.147 215.32 13.5742C214.866 13.9885 214.342 14.3187 213.747 14.5646C213.151 14.8106 212.51 14.9336 211.824 14.9336ZM223.642 14.9336C222.632 14.9336 221.719 14.7006 220.903 14.2345C220.088 13.7555 219.44 13.1017 218.961 12.2732C218.482 11.4446 218.243 10.506 218.243 9.45736C218.243 8.40872 218.476 7.4766 218.942 6.66099C219.421 5.84538 220.068 5.19808 220.884 4.71907C221.7 4.24006 222.619 4.00055 223.642 4.00055C224.651 4.00055 225.564 4.24006 226.38 4.71907C227.195 5.18513 227.836 5.82596 228.302 6.64157C228.781 7.45718 229.021 8.39578 229.021 9.45736C229.021 10.519 228.775 11.464 228.283 12.2926C227.791 13.1082 227.137 13.7555 226.321 14.2345C225.519 14.7006 224.625 14.9336 223.642 14.9336ZM223.642 13.1859C224.289 13.1859 224.871 13.024 225.389 12.7004C225.92 12.3767 226.334 11.9301 226.632 11.3605C226.943 10.7908 227.098 10.1565 227.098 9.45736C227.098 8.74533 226.943 8.11744 226.632 7.5737C226.334 7.01701 225.92 6.57684 225.389 6.25319C224.871 5.91659 224.289 5.74829 223.642 5.74829C222.981 5.74829 222.386 5.91659 221.855 6.25319C221.337 6.57684 220.923 7.01701 220.612 7.5737C220.301 8.11744 220.146 8.74533 220.146 9.45736C220.146 10.1565 220.301 10.7908 220.612 11.3605C220.923 11.9301 221.337 12.3767 221.855 12.7004C222.386 13.024 222.981 13.1859 223.642 13.1859ZM234.099 14.7006L230.002 4.23359H232.022L235.303 13.0888H234.604L237.906 4.23359H239.925L235.808 14.7006H234.099ZM246.167 14.9336C245.157 14.9336 244.258 14.6941 243.468 14.2151C242.678 13.7361 242.057 13.0823 241.604 12.2537C241.151 11.4122 240.924 10.4736 240.924 9.43795C240.924 8.38931 241.144 7.45718 241.584 6.64157C242.037 5.82596 242.646 5.18513 243.41 4.71907C244.186 4.24006 245.054 4.00055 246.012 4.00055C246.789 4.00055 247.475 4.14296 248.07 4.42778C248.679 4.69965 249.19 5.07509 249.604 5.55409C250.032 6.02016 250.355 6.55742 250.575 7.16589C250.808 7.76142 250.925 8.38283 250.925 9.03014C250.925 9.17255 250.912 9.33438 250.886 9.51562C250.873 9.68392 250.854 9.84575 250.828 10.0011H242.245V8.44756H249.779L248.925 9.14666C249.041 8.47346 248.977 7.87146 248.731 7.34067C248.485 6.80987 248.122 6.38912 247.643 6.07841C247.164 5.76771 246.62 5.61235 246.012 5.61235C245.403 5.61235 244.847 5.76771 244.342 6.07841C243.837 6.38912 243.442 6.83577 243.157 7.41834C242.885 7.98797 242.775 8.66765 242.827 9.45736C242.775 10.2212 242.892 10.8944 243.177 11.477C243.474 12.0466 243.889 12.4932 244.42 12.8169C244.963 13.1276 245.552 13.283 246.187 13.283C246.886 13.283 247.475 13.1211 247.954 12.7975C248.433 12.4738 248.821 12.0595 249.119 11.5546L250.634 12.3314C250.427 12.8104 250.103 13.2506 249.663 13.6519C249.235 14.0403 248.724 14.351 248.129 14.584C247.546 14.8171 246.892 14.9336 246.167 14.9336ZM253.28 14.7006V4.23359H255.047V6.15609L254.853 5.88422C255.099 5.2887 255.474 4.84853 255.979 4.56371C256.484 4.26595 257.099 4.11707 257.824 4.11707H258.465V5.82596H257.552C256.814 5.82596 256.218 6.059 255.765 6.52506C255.312 6.97817 255.086 7.62548 255.086 8.46698V14.7006H253.28ZM260.069 14.7006V4.23359H261.875V14.7006H260.069ZM260.069 2.56353V0.233218H261.875V2.56353H260.069ZM264.677 14.7006V4.23359H266.444V6.27261L266.153 6.09783C266.412 5.43758 266.826 4.92621 267.396 4.56371C267.978 4.18827 268.658 4.00055 269.435 4.00055C270.186 4.00055 270.852 4.16885 271.435 4.50545C272.031 4.84206 272.497 5.30812 272.833 5.90364C273.183 6.49917 273.358 7.17237 273.358 7.92324V14.7006H271.532V8.50582C271.532 7.92324 271.429 7.43129 271.221 7.02996C271.014 6.62863 270.717 6.31792 270.328 6.09783C269.953 5.8648 269.519 5.74829 269.027 5.74829C268.535 5.74829 268.095 5.8648 267.707 6.09783C267.331 6.31792 267.033 6.6351 266.813 7.04938C266.593 7.45071 266.483 7.93619 266.483 8.50582V14.7006H264.677ZM280.933 18.9728C280.195 18.9728 279.508 18.8563 278.874 18.6233C278.253 18.3902 277.715 18.0666 277.262 17.6523C276.822 17.251 276.486 16.7784 276.253 16.2347L277.942 15.4579C278.123 15.9499 278.466 16.3641 278.971 16.7007C279.489 17.0503 280.136 17.2251 280.913 17.2251C281.509 17.2251 282.046 17.1086 282.525 16.8755C283.017 16.6554 283.405 16.3188 283.69 15.8657C283.975 15.4255 284.117 14.8883 284.117 14.2539V11.9042L284.447 12.2537C284.085 12.9658 283.561 13.5095 282.874 13.885C282.201 14.2604 281.457 14.4481 280.641 14.4481C279.657 14.4481 278.777 14.2216 278 13.7684C277.223 13.3024 276.615 12.6745 276.175 11.8848C275.735 11.0821 275.515 10.1953 275.515 9.22433C275.515 8.24042 275.735 7.35361 276.175 6.5639C276.615 5.77418 277.217 5.15276 277.981 4.69965C278.758 4.23359 279.638 4.00055 280.622 4.00055C281.437 4.00055 282.175 4.18827 282.836 4.56371C283.509 4.92621 284.046 5.43111 284.447 6.07841L284.176 6.5639V4.23359H285.943V14.2539C285.943 15.1602 285.729 15.9693 285.302 16.6813C284.875 17.3934 284.279 17.9501 283.515 18.3514C282.764 18.7657 281.904 18.9728 280.933 18.9728ZM280.797 12.7004C281.418 12.7004 281.975 12.545 282.467 12.2343C282.972 11.9236 283.373 11.5093 283.671 10.9915C283.968 10.4607 284.117 9.87164 284.117 9.22433C284.117 8.58997 283.968 8.00739 283.671 7.4766C283.373 6.94581 282.972 6.52506 282.467 6.21435C281.975 5.90364 281.418 5.74829 280.797 5.74829C280.162 5.74829 279.586 5.90364 279.068 6.21435C278.55 6.52506 278.143 6.94581 277.845 7.4766C277.56 7.99445 277.418 8.57703 277.418 9.22433C277.418 9.87164 277.56 10.4607 277.845 10.9915C278.143 11.5093 278.544 11.9236 279.049 12.2343C279.567 12.545 280.149 12.7004 280.797 12.7004ZM290.915 14.7006L296.1 0.233218H298.352L303.537 14.7006H301.498L300.314 11.3022H294.138L292.954 14.7006H290.915ZM294.74 9.55446H299.712L296.954 1.61199H297.498L294.74 9.55446ZM309.622 14.9336C308.599 14.9336 307.687 14.6941 306.884 14.2151C306.094 13.7361 305.473 13.0823 305.02 12.2537C304.567 11.4252 304.34 10.4931 304.34 9.45736C304.34 8.40872 304.567 7.4766 305.02 6.66099C305.473 5.84538 306.094 5.19808 306.884 4.71907C307.687 4.24006 308.599 4.00055 309.622 4.00055C310.308 4.00055 310.949 4.12354 311.545 4.36952C312.14 4.6155 312.664 4.94562 313.118 5.3599C313.571 5.77418 313.901 6.25966 314.108 6.81635L312.496 7.59312C312.25 7.04938 311.875 6.60921 311.37 6.27261C310.865 5.92306 310.282 5.74829 309.622 5.74829C308.988 5.74829 308.412 5.91011 307.894 6.23377C307.389 6.55742 306.988 6.99759 306.69 7.55428C306.392 8.11096 306.243 8.7518 306.243 9.47678C306.243 10.1759 306.392 10.8102 306.69 11.3799C306.988 11.9366 307.389 12.3767 307.894 12.7004C308.412 13.024 308.988 13.1859 309.622 13.1859C310.282 13.1859 310.865 13.0176 311.37 12.681C311.875 12.3314 312.25 11.8718 312.496 11.3022L314.108 12.1178C313.901 12.6615 313.571 13.147 313.118 13.5742C312.664 13.9885 312.14 14.3187 311.545 14.5646C310.949 14.8106 310.308 14.9336 309.622 14.9336ZM321.323 14.9336C320.3 14.9336 319.387 14.6941 318.585 14.2151C317.795 13.7361 317.174 13.0823 316.721 12.2537C316.267 11.4252 316.041 10.4931 316.041 9.45736C316.041 8.40872 316.267 7.4766 316.721 6.66099C317.174 5.84538 317.795 5.19808 318.585 4.71907C319.387 4.24006 320.3 4.00055 321.323 4.00055C322.009 4.00055 322.65 4.12354 323.245 4.36952C323.841 4.6155 324.365 4.94562 324.818 5.3599C325.272 5.77418 325.602 6.25966 325.809 6.81635L324.197 7.59312C323.951 7.04938 323.576 6.60921 323.071 6.27261C322.566 5.92306 321.983 5.74829 321.323 5.74829C320.689 5.74829 320.112 5.91011 319.595 6.23377C319.09 6.55742 318.688 6.99759 318.391 7.55428C318.093 8.11096 317.944 8.7518 317.944 9.47678C317.944 10.1759 318.093 10.8102 318.391 11.3799C318.688 11.9366 319.09 12.3767 319.595 12.7004C320.112 13.024 320.689 13.1859 321.323 13.1859C321.983 13.1859 322.566 13.0176 323.071 12.681C323.576 12.3314 323.951 11.8718 324.197 11.3022L325.809 12.1178C325.602 12.6615 325.272 13.147 324.818 13.5742C324.365 13.9885 323.841 14.3187 323.245 14.5646C322.65 14.8106 322.009 14.9336 321.323 14.9336ZM333.14 14.9336C332.131 14.9336 331.218 14.7006 330.402 14.2345C329.587 13.7555 328.939 13.1017 328.46 12.2732C327.981 11.4446 327.742 10.506 327.742 9.45736C327.742 8.40872 327.975 7.4766 328.441 6.66099C328.92 5.84538 329.567 5.19808 330.383 4.71907C331.198 4.24006 332.118 4.00055 333.14 4.00055C334.15 4.00055 335.063 4.24006 335.878 4.71907C336.694 5.18513 337.335 5.82596 337.801 6.64157C338.28 7.45718 338.519 8.39578 338.519 9.45736C338.519 10.519 338.273 11.464 337.782 12.2926C337.29 13.1082 336.636 13.7555 335.82 14.2345C335.018 14.7006 334.124 14.9336 333.14 14.9336ZM333.14 13.1859C333.788 13.1859 334.37 13.024 334.888 12.7004C335.419 12.3767 335.833 11.9301 336.131 11.3605C336.442 10.7908 336.597 10.1565 336.597 9.45736C336.597 8.74533 336.442 8.11744 336.131 7.5737C335.833 7.01701 335.419 6.57684 334.888 6.25319C334.37 5.91659 333.788 5.74829 333.14 5.74829C332.48 5.74829 331.885 5.91659 331.354 6.25319C330.836 6.57684 330.422 7.01701 330.111 7.5737C329.8 8.11744 329.645 8.74533 329.645 9.45736C329.645 10.1565 329.8 10.7908 330.111 11.3605C330.422 11.9301 330.836 12.3767 331.354 12.7004C331.885 13.024 332.48 13.1859 333.14 13.1859ZM340.875 14.7006V4.23359H342.642V6.3697L342.39 6.03958C342.649 5.37932 343.063 4.87442 343.632 4.52487C344.202 4.17533 344.843 4.00055 345.555 4.00055C346.371 4.00055 347.102 4.22711 347.749 4.68023C348.41 5.13334 348.863 5.72887 349.109 6.4668L348.604 6.48622C348.876 5.67061 349.335 5.05567 349.983 4.64139C350.63 4.21417 351.348 4.00055 352.138 4.00055C352.863 4.00055 353.517 4.16885 354.099 4.50545C354.695 4.84206 355.168 5.30812 355.517 5.90364C355.867 6.49917 356.041 7.17237 356.041 7.92324V14.7006H354.216V8.50582C354.216 7.92324 354.112 7.43129 353.905 7.02996C353.698 6.62863 353.413 6.31792 353.051 6.09783C352.701 5.8648 352.287 5.74829 351.808 5.74829C351.342 5.74829 350.921 5.8648 350.546 6.09783C350.183 6.31792 349.892 6.6351 349.672 7.04938C349.465 7.45071 349.361 7.93619 349.361 8.50582V14.7006H347.536V8.50582C347.536 7.92324 347.432 7.43129 347.225 7.02996C347.018 6.62863 346.733 6.31792 346.371 6.09783C346.021 5.8648 345.607 5.74829 345.128 5.74829C344.662 5.74829 344.241 5.8648 343.866 6.09783C343.503 6.31792 343.212 6.6351 342.992 7.04938C342.785 7.45071 342.681 7.93619 342.681 8.50582V14.7006H340.875ZM358.606 14.7006V4.23359H360.374V6.3697L360.121 6.03958C360.38 5.37932 360.794 4.87442 361.364 4.52487C361.934 4.17533 362.574 4.00055 363.286 4.00055C364.102 4.00055 364.834 4.22711 365.481 4.68023C366.141 5.13334 366.594 5.72887 366.84 6.4668L366.335 6.48622C366.607 5.67061 367.067 5.05567 367.714 4.64139C368.361 4.21417 369.08 4.00055 369.87 4.00055C370.595 4.00055 371.248 4.16885 371.831 4.50545C372.426 4.84206 372.899 5.30812 373.249 5.90364C373.598 6.49917 373.773 7.17237 373.773 7.92324V14.7006H371.947V8.50582C371.947 7.92324 371.844 7.43129 371.637 7.02996C371.43 6.62863 371.145 6.31792 370.782 6.09783C370.433 5.8648 370.018 5.74829 369.539 5.74829C369.073 5.74829 368.653 5.8648 368.277 6.09783C367.915 6.31792 367.623 6.6351 367.403 7.04938C367.196 7.45071 367.093 7.93619 367.093 8.50582V14.7006H365.267V8.50582C365.267 7.92324 365.164 7.43129 364.956 7.02996C364.749 6.62863 364.465 6.31792 364.102 6.09783C363.753 5.8648 363.338 5.74829 362.859 5.74829C362.393 5.74829 361.972 5.8648 361.597 6.09783C361.234 6.31792 360.943 6.6351 360.723 7.04938C360.516 7.45071 360.412 7.93619 360.412 8.50582V14.7006H358.606ZM381.309 14.9336C380.299 14.9336 379.387 14.7006 378.571 14.2345C377.755 13.7555 377.108 13.1017 376.629 12.2732C376.15 11.4446 375.911 10.506 375.911 9.45736C375.911 8.40872 376.144 7.4766 376.61 6.66099C377.089 5.84538 377.736 5.19808 378.552 4.71907C379.367 4.24006 380.286 4.00055 381.309 4.00055C382.319 4.00055 383.232 4.24006 384.047 4.71907C384.863 5.18513 385.504 5.82596 385.97 6.64157C386.449 7.45718 386.688 8.39578 386.688 9.45736C386.688 10.519 386.442 11.464 385.95 12.2926C385.458 13.1082 384.805 13.7555 383.989 14.2345C383.186 14.7006 382.293 14.9336 381.309 14.9336ZM381.309 13.1859C381.956 13.1859 382.539 13.024 383.057 12.7004C383.588 12.3767 384.002 11.9301 384.3 11.3605C384.61 10.7908 384.766 10.1565 384.766 9.45736C384.766 8.74533 384.61 8.11744 384.3 7.5737C384.002 7.01701 383.588 6.57684 383.057 6.25319C382.539 5.91659 381.956 5.74829 381.309 5.74829C380.649 5.74829 380.053 5.91659 379.523 6.25319C379.005 6.57684 378.59 7.01701 378.28 7.5737C377.969 8.11744 377.814 8.74533 377.814 9.45736C377.814 10.1565 377.969 10.7908 378.28 11.3605C378.59 11.9301 379.005 12.3767 379.523 12.7004C380.053 13.024 380.649 13.1859 381.309 13.1859ZM393.802 14.9336C392.818 14.9336 391.931 14.6941 391.141 14.2151C390.364 13.7361 389.749 13.0823 389.296 12.2537C388.843 11.4252 388.617 10.4995 388.617 9.47678C388.617 8.42814 388.843 7.49602 389.296 6.68041C389.749 5.85186 390.364 5.19808 391.141 4.71907C391.931 4.24006 392.818 4.00055 393.802 4.00055C394.669 4.00055 395.439 4.18827 396.112 4.56371C396.786 4.92621 397.316 5.41816 397.705 6.03958L397.414 6.48622V0.000188022H399.239V14.7006H397.472V12.4673L397.705 12.7781C397.342 13.4642 396.812 13.995 396.112 14.3704C395.426 14.7459 394.656 14.9336 393.802 14.9336ZM393.957 13.1859C394.617 13.1859 395.206 13.024 395.724 12.7004C396.242 12.3767 396.65 11.9366 396.947 11.3799C397.258 10.8102 397.414 10.1759 397.414 9.47678C397.414 8.76474 397.258 8.13038 396.947 7.5737C396.65 7.00407 396.242 6.55742 395.724 6.23377C395.206 5.91011 394.617 5.74829 393.957 5.74829C393.31 5.74829 392.721 5.91659 392.19 6.25319C391.672 6.57684 391.264 7.01701 390.966 7.5737C390.669 8.11744 390.52 8.7518 390.52 9.47678C390.52 10.1759 390.669 10.8102 390.966 11.3799C391.264 11.9366 391.672 12.3767 392.19 12.7004C392.708 13.024 393.297 13.1859 393.957 13.1859ZM405.102 14.9336C404.416 14.9336 403.808 14.8106 403.277 14.5646C402.759 14.3057 402.351 13.9562 402.054 13.516C401.756 13.0629 401.607 12.545 401.607 11.9624C401.607 11.4058 401.724 10.9073 401.957 10.4672C402.203 10.014 402.578 9.63214 403.083 9.32143C403.601 9.01072 404.248 8.79064 405.025 8.66118L408.909 8.02034V9.53504L405.433 10.1176C404.759 10.2341 404.267 10.4477 403.957 10.7585C403.659 11.0692 403.51 11.4511 403.51 11.9042C403.51 12.3314 403.678 12.6874 404.015 12.9722C404.365 13.2571 404.798 13.3995 405.316 13.3995C405.976 13.3995 406.546 13.2635 407.025 12.9917C407.517 12.7069 407.899 12.3249 408.171 11.8459C408.456 11.3669 408.598 10.8361 408.598 10.2536V7.59312C408.598 7.02348 408.384 6.5639 407.957 6.21435C407.543 5.85186 406.993 5.67061 406.306 5.67061C405.711 5.67061 405.18 5.82596 404.714 6.13667C404.261 6.43443 403.924 6.83577 403.704 7.34067L402.131 6.52506C402.326 6.04605 402.636 5.61883 403.063 5.24339C403.491 4.855 403.989 4.55077 404.559 4.33068C405.128 4.1106 405.724 4.00055 406.345 4.00055C407.148 4.00055 407.854 4.15591 408.462 4.46662C409.07 4.76438 409.543 5.18513 409.88 5.72887C410.229 6.25966 410.404 6.88108 410.404 7.59312V14.7006H408.637V12.7198L408.967 12.8363C408.747 13.2506 408.449 13.6131 408.074 13.9238C407.698 14.2345 407.258 14.4805 406.753 14.6617C406.248 14.843 405.698 14.9336 405.102 14.9336ZM417.267 14.8171C416.245 14.8171 415.455 14.5258 414.898 13.9432C414.354 13.3606 414.083 12.5386 414.083 11.477V5.9619H412.179V4.23359H412.568C413.034 4.23359 413.403 4.09118 413.675 3.80636C413.947 3.52155 414.083 3.14611 414.083 2.68005V1.8256H415.888V4.23359H418.238V5.9619H415.888V11.4187C415.888 11.7683 415.94 12.0725 416.044 12.3314C416.16 12.5903 416.348 12.7975 416.607 12.9528C416.866 13.0952 417.209 13.1664 417.636 13.1664C417.727 13.1664 417.837 13.16 417.966 13.147C418.109 13.1341 418.238 13.1211 418.355 13.1082V14.7006C418.186 14.7394 417.999 14.7653 417.792 14.7782C417.584 14.8041 417.41 14.8171 417.267 14.8171ZM420.714 14.7006V4.23359H422.52V14.7006H420.714ZM420.714 2.56353V0.233218H422.52V2.56353H420.714ZM430.293 14.9336C429.284 14.9336 428.371 14.7006 427.555 14.2345C426.74 13.7555 426.092 13.1017 425.613 12.2732C425.134 11.4446 424.895 10.506 424.895 9.45736C424.895 8.40872 425.128 7.4766 425.594 6.66099C426.073 5.84538 426.72 5.19808 427.536 4.71907C428.352 4.24006 429.271 4.00055 430.293 4.00055C431.303 4.00055 432.216 4.24006 433.032 4.71907C433.847 5.18513 434.488 5.82596 434.954 6.64157C435.433 7.45718 435.673 8.39578 435.673 9.45736C435.673 10.519 435.427 11.464 434.935 12.2926C434.443 13.1082 433.789 13.7555 432.973 14.2345C432.171 14.7006 431.277 14.9336 430.293 14.9336ZM430.293 13.1859C430.941 13.1859 431.523 13.024 432.041 12.7004C432.572 12.3767 432.986 11.9301 433.284 11.3605C433.595 10.7908 433.75 10.1565 433.75 9.45736C433.75 8.74533 433.595 8.11744 433.284 7.5737C432.986 7.01701 432.572 6.57684 432.041 6.25319C431.523 5.91659 430.941 5.74829 430.293 5.74829C429.633 5.74829 429.038 5.91659 428.507 6.25319C427.989 6.57684 427.575 7.01701 427.264 7.5737C426.953 8.11744 426.798 8.74533 426.798 9.45736C426.798 10.1565 426.953 10.7908 427.264 11.3605C427.575 11.9301 427.989 12.3767 428.507 12.7004C429.038 13.024 429.633 13.1859 430.293 13.1859ZM438.028 14.7006V4.23359H439.795V6.27261L439.504 6.09783C439.763 5.43758 440.177 4.92621 440.747 4.56371C441.329 4.18827 442.009 4.00055 442.786 4.00055C443.537 4.00055 444.203 4.16885 444.786 4.50545C445.382 4.84206 445.848 5.30812 446.184 5.90364C446.534 6.49917 446.709 7.17237 446.709 7.92324V14.7006H444.883V8.50582C444.883 7.92324 444.78 7.43129 444.572 7.02996C444.365 6.62863 444.068 6.31792 443.679 6.09783C443.304 5.8648 442.87 5.74829 442.378 5.74829C441.886 5.74829 441.446 5.8648 441.058 6.09783C440.682 6.31792 440.384 6.6351 440.164 7.04938C439.944 7.45071 439.834 7.93619 439.834 8.50582V14.7006H438.028ZM449.604 17.3998V16.526C450.005 16.4224 450.309 16.2217 450.516 15.924C450.723 15.6262 450.84 15.2184 450.866 14.7006H449.992V12.3703H451.876V14.0209C451.876 14.953 451.681 15.7039 451.293 16.2735C450.918 16.8432 450.354 17.2186 449.604 17.3998ZM458.666 14.7006V0.233218H467.832V1.98095H460.569V6.66099H467.152V8.40873H460.569V14.7006H458.666ZM474.423 14.9336C473.413 14.9336 472.5 14.7006 471.685 14.2345C470.869 13.7555 470.222 13.1017 469.743 12.2732C469.264 11.4446 469.024 10.506 469.024 9.45736C469.024 8.40872 469.257 7.4766 469.723 6.66099C470.203 5.84538 470.85 5.19808 471.665 4.71907C472.481 4.24006 473.4 4.00055 474.423 4.00055C475.433 4.00055 476.345 4.24006 477.161 4.71907C477.977 5.18513 478.618 5.82596 479.084 6.64157C479.563 7.45718 479.802 8.39578 479.802 9.45736C479.802 10.519 479.556 11.464 479.064 12.2926C478.572 13.1082 477.918 13.7555 477.103 14.2345C476.3 14.7006 475.407 14.9336 474.423 14.9336ZM474.423 13.1859C475.07 13.1859 475.653 13.024 476.171 12.7004C476.701 12.3767 477.116 11.9301 477.414 11.3605C477.724 10.7908 477.88 10.1565 477.88 9.45736C477.88 8.74533 477.724 8.11744 477.414 7.5737C477.116 7.01701 476.701 6.57684 476.171 6.25319C475.653 5.91659 475.07 5.74829 474.423 5.74829C473.763 5.74829 473.167 5.91659 472.636 6.25319C472.119 6.57684 471.704 7.01701 471.394 7.5737C471.083 8.11744 470.927 8.74533 470.927 9.45736C470.927 10.1565 471.083 10.7908 471.394 11.3605C471.704 11.9301 472.119 12.3767 472.636 12.7004C473.167 13.024 473.763 13.1859 474.423 13.1859ZM487.129 14.9336C486.119 14.9336 485.206 14.7006 484.391 14.2345C483.575 13.7555 482.928 13.1017 482.449 12.2732C481.97 11.4446 481.73 10.506 481.73 9.45736C481.73 8.40872 481.963 7.4766 482.429 6.66099C482.908 5.84538 483.556 5.19808 484.371 4.71907C485.187 4.24006 486.106 4.00055 487.129 4.00055C488.139 4.00055 489.051 4.24006 489.867 4.71907C490.683 5.18513 491.323 5.82596 491.79 6.64157C492.269 7.45718 492.508 8.39578 492.508 9.45736C492.508 10.519 492.262 11.464 491.77 12.2926C491.278 13.1082 490.624 13.7555 489.809 14.2345C489.006 14.7006 488.113 14.9336 487.129 14.9336ZM487.129 13.1859C487.776 13.1859 488.359 13.024 488.877 12.7004C489.407 12.3767 489.822 11.9301 490.119 11.3605C490.43 10.7908 490.586 10.1565 490.586 9.45736C490.586 8.74533 490.43 8.11744 490.119 7.5737C489.822 7.01701 489.407 6.57684 488.877 6.25319C488.359 5.91659 487.776 5.74829 487.129 5.74829C486.469 5.74829 485.873 5.91659 485.342 6.25319C484.825 6.57684 484.41 7.01701 484.1 7.5737C483.789 8.11744 483.633 8.74533 483.633 9.45736C483.633 10.1565 483.789 10.7908 484.1 11.3605C484.41 11.9301 484.825 12.3767 485.342 12.7004C485.873 13.024 486.469 13.1859 487.129 13.1859ZM499.621 14.9336C498.637 14.9336 497.751 14.6941 496.961 14.2151C496.184 13.7361 495.569 13.0823 495.116 12.2537C494.663 11.4252 494.436 10.4995 494.436 9.47678C494.436 8.42814 494.663 7.49602 495.116 6.68041C495.569 5.85186 496.184 5.19808 496.961 4.71907C497.751 4.24006 498.637 4.00055 499.621 4.00055C500.489 4.00055 501.259 4.18827 501.932 4.56371C502.605 4.92621 503.136 5.41816 503.525 6.03958L503.233 6.48622V0.000188022H505.059V14.7006H503.292V12.4673L503.525 12.7781C503.162 13.4642 502.631 13.995 501.932 14.3704C501.246 14.7459 500.476 14.9336 499.621 14.9336ZM499.777 13.1859C500.437 13.1859 501.026 13.024 501.544 12.7004C502.062 12.3767 502.469 11.9366 502.767 11.3799C503.078 10.8102 503.233 10.1759 503.233 9.47678C503.233 8.76474 503.078 8.13038 502.767 7.5737C502.469 7.00407 502.062 6.55742 501.544 6.23377C501.026 5.91011 500.437 5.74829 499.777 5.74829C499.129 5.74829 498.54 5.91659 498.009 6.25319C497.492 6.57684 497.084 7.01701 496.786 7.5737C496.488 8.11744 496.339 8.7518 496.339 9.47678C496.339 10.1759 496.488 10.8102 496.786 11.3799C497.084 11.9366 497.492 12.3767 498.009 12.7004C498.527 13.024 499.116 13.1859 499.777 13.1859ZM508.165 17.3998V16.526C508.566 16.4224 508.87 16.2217 509.077 15.924C509.285 15.6262 509.401 15.2184 509.427 14.7006H508.553V12.3703H510.437V14.0209C510.437 14.953 510.243 15.7039 509.854 16.2735C509.479 16.8432 508.916 17.2186 508.165 17.3998ZM522.199 14.9336C521.279 14.9336 520.438 14.7653 519.674 14.4287C518.91 14.0791 518.263 13.6066 517.732 13.0111C517.201 12.4156 516.819 11.7488 516.586 11.0109L518.237 10.3312C518.587 11.2634 519.104 11.9819 519.791 12.4868C520.49 12.9787 521.305 13.2247 522.237 13.2247C522.807 13.2247 523.305 13.1341 523.733 12.9528C524.16 12.7716 524.49 12.5191 524.723 12.1955C524.969 11.8589 525.092 11.4705 525.092 11.0303C525.092 10.4219 524.917 9.94285 524.568 9.5933C524.231 9.23081 523.733 8.95894 523.072 8.77769L520.412 7.96208C519.363 7.63843 518.561 7.12705 518.004 6.42796C517.447 5.72887 517.169 4.92621 517.169 4.01997C517.169 3.23026 517.357 2.53764 517.732 1.94211C518.121 1.33364 518.651 0.861108 519.325 0.524508C520.011 0.174961 520.787 0.000188022 521.655 0.000188022C522.522 0.000188022 523.305 0.155542 524.005 0.46625C524.717 0.776958 525.319 1.19771 525.811 1.7285C526.303 2.24635 526.665 2.84187 526.898 3.51507L525.267 4.19475C524.956 3.37914 524.49 2.76419 523.869 2.34992C523.247 1.92269 522.516 1.70908 521.674 1.70908C521.156 1.70908 520.697 1.79971 520.295 1.98095C519.907 2.14925 519.603 2.4017 519.383 2.7383C519.176 3.06196 519.072 3.45034 519.072 3.90346C519.072 4.43425 519.24 4.90679 519.577 5.32106C519.914 5.73534 520.425 6.05252 521.111 6.27261L523.538 6.99112C524.678 7.34067 525.539 7.83909 526.121 8.4864C526.704 9.13371 526.995 9.93637 526.995 10.8944C526.995 11.6841 526.788 12.3832 526.374 12.9917C525.972 13.6001 525.409 14.0791 524.684 14.4287C523.972 14.7653 523.144 14.9336 522.199 14.9336ZM529.568 14.7006V4.23359H531.374V14.7006H529.568ZM529.568 2.56353V0.233218H531.374V2.56353H529.568ZM539.167 18.9728C538.429 18.9728 537.743 18.8563 537.108 18.6233C536.487 18.3902 535.95 18.0666 535.497 17.6523C535.057 17.251 534.72 16.7784 534.487 16.2347L536.176 15.4579C536.358 15.9499 536.701 16.3641 537.206 16.7007C537.723 17.0503 538.371 17.2251 539.148 17.2251C539.743 17.2251 540.28 17.1086 540.759 16.8755C541.251 16.6554 541.64 16.3188 541.924 15.8657C542.209 15.4255 542.352 14.8883 542.352 14.2539V11.9042L542.682 12.2537C542.319 12.9658 541.795 13.5095 541.109 13.885C540.436 14.2604 539.691 14.4481 538.876 14.4481C537.892 14.4481 537.011 14.2216 536.235 13.7684C535.458 13.3024 534.849 12.6745 534.409 11.8848C533.969 11.0821 533.749 10.1953 533.749 9.22433C533.749 8.24042 533.969 7.35361 534.409 6.5639C534.849 5.77418 535.451 5.15276 536.215 4.69965C536.992 4.23359 537.872 4.00055 538.856 4.00055C539.672 4.00055 540.41 4.18827 541.07 4.56371C541.743 4.92621 542.28 5.43111 542.682 6.07841L542.41 6.5639V4.23359H544.177V14.2539C544.177 15.1602 543.963 15.9693 543.536 16.6813C543.109 17.3934 542.514 17.9501 541.75 18.3514C540.999 18.7657 540.138 18.9728 539.167 18.9728ZM539.031 12.7004C539.652 12.7004 540.209 12.545 540.701 12.2343C541.206 11.9236 541.607 11.5093 541.905 10.9915C542.203 10.4607 542.352 9.87164 542.352 9.22433C542.352 8.58997 542.203 8.00739 541.905 7.4766C541.607 6.94581 541.206 6.52506 540.701 6.21435C540.209 5.90364 539.652 5.74829 539.031 5.74829C538.397 5.74829 537.821 5.90364 537.303 6.21435C536.785 6.52506 536.377 6.94581 536.079 7.4766C535.794 7.99445 535.652 8.57703 535.652 9.22433C535.652 9.87164 535.794 10.4607 536.079 10.9915C536.377 11.5093 536.778 11.9236 537.283 12.2343C537.801 12.545 538.384 12.7004 539.031 12.7004ZM546.977 14.7006V0.000188022H548.783V6.27261L548.453 6.09783C548.712 5.43758 549.126 4.92621 549.696 4.56371C550.278 4.18827 550.958 4.00055 551.735 4.00055C552.486 4.00055 553.152 4.16885 553.735 4.50545C554.33 4.84206 554.796 5.30812 555.133 5.90364C555.483 6.49917 555.657 7.17237 555.657 7.92324V14.7006H553.832V8.50582C553.832 7.92324 553.722 7.43129 553.502 7.02996C553.295 6.62863 553.003 6.31792 552.628 6.09783C552.253 5.8648 551.819 5.74829 551.327 5.74829C550.848 5.74829 550.414 5.8648 550.026 6.09783C549.637 6.31792 549.333 6.6351 549.113 7.04938C548.893 7.45071 548.783 7.93619 548.783 8.50582V14.7006H546.977ZM562.494 14.8171C561.472 14.8171 560.682 14.5258 560.125 13.9432C559.582 13.3606 559.31 12.5386 559.31 11.477V5.9619H557.407V4.23359H557.795C558.261 4.23359 558.63 4.09118 558.902 3.80636C559.174 3.52155 559.31 3.14611 559.31 2.68005V1.8256H561.116V4.23359H563.465V5.9619H561.116V11.4187C561.116 11.7683 561.167 12.0725 561.271 12.3314C561.388 12.5903 561.575 12.7975 561.834 12.9528C562.093 13.0952 562.436 13.1664 562.863 13.1664C562.954 13.1664 563.064 13.16 563.194 13.147C563.336 13.1341 563.465 13.1211 563.582 13.1082V14.7006C563.414 14.7394 563.226 14.7653 563.019 14.7782C562.812 14.8041 562.637 14.8171 562.494 14.8171ZM566.077 10.2924V8.64176H573.359V10.2924H566.077ZM580.024 14.9336C578.976 14.9336 578.063 14.6747 577.286 14.1568C576.51 13.639 575.959 12.9399 575.636 12.0595L577.073 11.3605C577.37 11.9819 577.778 12.4738 578.296 12.8363C578.814 13.1988 579.39 13.3801 580.024 13.3801C580.594 13.3801 581.067 13.2441 581.442 12.9722C581.817 12.7004 582.005 12.3444 582.005 11.9042C582.005 11.5935 581.915 11.3475 581.733 11.1663C581.565 10.9721 581.358 10.8232 581.112 10.7196C580.866 10.6031 580.639 10.519 580.432 10.4672L578.859 10.0205C577.914 9.74865 577.222 9.36027 576.781 8.85537C576.354 8.35047 576.141 7.76142 576.141 7.08822C576.141 6.4668 576.296 5.92953 576.607 5.47642C576.93 5.01036 577.364 4.64786 577.908 4.38894C578.464 4.13002 579.086 4.00055 579.772 4.00055C580.691 4.00055 581.513 4.23359 582.238 4.69965C582.976 5.16571 583.5 5.81949 583.811 6.66099L582.335 7.34067C582.102 6.79693 581.753 6.3697 581.287 6.059C580.821 5.73534 580.296 5.57351 579.714 5.57351C579.183 5.57351 578.762 5.70945 578.451 5.98132C578.141 6.24024 577.985 6.57037 577.985 6.9717C577.985 7.26946 578.063 7.51544 578.218 7.70963C578.374 7.89088 578.562 8.03329 578.782 8.13686C579.002 8.22748 579.215 8.30516 579.422 8.36989L581.131 8.87479C581.986 9.12076 582.646 9.50268 583.112 10.0205C583.591 10.5384 583.831 11.1598 583.831 11.8848C583.831 12.4673 583.669 12.9917 583.345 13.4577C583.021 13.9238 582.575 14.2863 582.005 14.5452C581.436 14.8041 580.775 14.9336 580.024 14.9336ZM591.011 14.9336C590.001 14.9336 589.101 14.6941 588.311 14.2151C587.522 13.7361 586.9 13.0823 586.447 12.2537C585.994 11.4122 585.768 10.4736 585.768 9.43795C585.768 8.38931 585.988 7.45718 586.428 6.64157C586.881 5.82596 587.489 5.18513 588.253 4.71907C589.03 4.24006 589.897 4.00055 590.855 4.00055C591.632 4.00055 592.318 4.14296 592.914 4.42778C593.522 4.69965 594.034 5.07509 594.448 5.55409C594.875 6.02016 595.199 6.55742 595.419 7.16589C595.652 7.76142 595.768 8.38283 595.768 9.03014C595.768 9.17255 595.755 9.33438 595.73 9.51562C595.717 9.68392 595.697 9.84575 595.671 10.0011H587.088V8.44756H594.623L593.768 9.14666C593.885 8.47346 593.82 7.87146 593.574 7.34067C593.328 6.80987 592.966 6.38912 592.487 6.07841C592.008 5.76771 591.464 5.61235 590.855 5.61235C590.247 5.61235 589.69 5.76771 589.185 6.07841C588.68 6.38912 588.286 6.83577 588.001 7.41834C587.729 7.98797 587.619 8.66765 587.671 9.45736C587.619 10.2212 587.735 10.8944 588.02 11.477C588.318 12.0466 588.732 12.4932 589.263 12.8169C589.807 13.1276 590.396 13.283 591.03 13.283C591.729 13.283 592.318 13.1211 592.797 12.7975C593.276 12.4738 593.665 12.0595 593.962 11.5546L595.477 12.3314C595.27 12.8104 594.946 13.2506 594.506 13.6519C594.079 14.0403 593.568 14.351 592.972 14.584C592.389 14.8171 591.736 14.9336 591.011 14.9336ZM602.939 14.9336C601.929 14.9336 601.03 14.6941 600.24 14.2151C599.45 13.7361 598.829 13.0823 598.376 12.2537C597.922 11.4122 597.696 10.4736 597.696 9.43795C597.696 8.38931 597.916 7.45718 598.356 6.64157C598.809 5.82596 599.418 5.18513 600.182 4.71907C600.958 4.24006 601.826 4.00055 602.784 4.00055C603.561 4.00055 604.247 4.14296 604.842 4.42778C605.451 4.69965 605.962 5.07509 606.376 5.55409C606.804 6.02016 607.127 6.55742 607.347 7.16589C607.58 7.76142 607.697 8.38283 607.697 9.03014C607.697 9.17255 607.684 9.33438 607.658 9.51562C607.645 9.68392 607.626 9.84575 607.6 10.0011H599.016V8.44756H606.551L605.697 9.14666C605.813 8.47346 605.748 7.87146 605.502 7.34067C605.256 6.80987 604.894 6.38912 604.415 6.07841C603.936 5.76771 603.392 5.61235 602.784 5.61235C602.175 5.61235 601.619 5.76771 601.114 6.07841C600.609 6.38912 600.214 6.83577 599.929 7.41834C599.657 7.98797 599.547 8.66765 599.599 9.45736C599.547 10.2212 599.664 10.8944 599.949 11.477C600.246 12.0466 600.661 12.4932 601.191 12.8169C601.735 13.1276 602.324 13.283 602.959 13.283C603.658 13.283 604.247 13.1211 604.726 12.7975C605.205 12.4738 605.593 12.0595 605.891 11.5546L607.406 12.3314C607.198 12.8104 606.875 13.2506 606.435 13.6519C606.007 14.0403 605.496 14.351 604.9 14.584C604.318 14.8171 603.664 14.9336 602.939 14.9336ZM610.052 14.7006V4.23359H611.858V14.7006H610.052ZM610.052 2.56353V0.233218H611.858V2.56353H610.052ZM614.66 14.7006V4.23359H616.427V6.27261L616.136 6.09783C616.395 5.43758 616.809 4.92621 617.379 4.56371C617.961 4.18827 618.641 4.00055 619.418 4.00055C620.168 4.00055 620.835 4.16885 621.418 4.50545C622.013 4.84206 622.479 5.30812 622.816 5.90364C623.166 6.49917 623.34 7.17237 623.34 7.92324V14.7006H621.515V8.50582C621.515 7.92324 621.411 7.43129 621.204 7.02996C620.997 6.62863 620.699 6.31792 620.311 6.09783C619.935 5.8648 619.502 5.74829 619.01 5.74829C618.518 5.74829 618.078 5.8648 617.689 6.09783C617.314 6.31792 617.016 6.6351 616.796 7.04938C616.576 7.45071 616.466 7.93619 616.466 8.50582V14.7006H614.66ZM630.915 18.9728C630.177 18.9728 629.491 18.8563 628.857 18.6233C628.235 18.3902 627.698 18.0666 627.245 17.6523C626.805 17.251 626.468 16.7784 626.235 16.2347L627.925 15.4579C628.106 15.9499 628.449 16.3641 628.954 16.7007C629.472 17.0503 630.119 17.2251 630.896 17.2251C631.491 17.2251 632.029 17.1086 632.508 16.8755C633 16.6554 633.388 16.3188 633.673 15.8657C633.958 15.4255 634.1 14.8883 634.1 14.2539V11.9042L634.43 12.2537C634.068 12.9658 633.543 13.5095 632.857 13.885C632.184 14.2604 631.44 14.4481 630.624 14.4481C629.64 14.4481 628.76 14.2216 627.983 13.7684C627.206 13.3024 626.598 12.6745 626.158 11.8848C625.717 11.0821 625.497 10.1953 625.497 9.22433C625.497 8.24042 625.717 7.35361 626.158 6.5639C626.598 5.77418 627.2 5.15276 627.964 4.69965C628.74 4.23359 629.621 4.00055 630.605 4.00055C631.42 4.00055 632.158 4.18827 632.818 4.56371C633.492 4.92621 634.029 5.43111 634.43 6.07841L634.158 6.5639V4.23359H635.925V14.2539C635.925 15.1602 635.712 15.9693 635.285 16.6813C634.857 17.3934 634.262 17.9501 633.498 18.3514C632.747 18.7657 631.886 18.9728 630.915 18.9728ZM630.779 12.7004C631.401 12.7004 631.957 12.545 632.449 12.2343C632.954 11.9236 633.356 11.5093 633.653 10.9915C633.951 10.4607 634.1 9.87164 634.1 9.22433C634.1 8.58997 633.951 8.00739 633.653 7.4766C633.356 6.94581 632.954 6.52506 632.449 6.21435C631.957 5.90364 631.401 5.74829 630.779 5.74829C630.145 5.74829 629.569 5.90364 629.051 6.21435C628.533 6.52506 628.125 6.94581 627.828 7.4766C627.543 7.99445 627.4 8.57703 627.4 9.22433C627.4 9.87164 627.543 10.4607 627.828 10.9915C628.125 11.5093 628.527 11.9236 629.032 12.2343C629.549 12.545 630.132 12.7004 630.779 12.7004ZM639.036 17.3998V16.526C639.437 16.4224 639.742 16.2217 639.949 15.924C640.156 15.6262 640.272 15.2184 640.298 14.7006H639.424V12.3703H641.308V14.0209C641.308 14.953 641.114 15.7039 640.726 16.2735C640.35 16.8432 639.787 17.2186 639.036 17.3998ZM650.623 14.7006V1.98095H646.7V0.233218H656.41V1.98095H652.546V14.7006H650.623ZM661.637 14.9336C660.627 14.9336 659.714 14.7006 658.899 14.2345C658.083 13.7555 657.436 13.1017 656.957 12.2732C656.478 11.4446 656.238 10.506 656.238 9.45736C656.238 8.40872 656.471 7.4766 656.937 6.66099C657.416 5.84538 658.064 5.19808 658.879 4.71907C659.695 4.24006 660.614 4.00055 661.637 4.00055C662.647 4.00055 663.559 4.24006 664.375 4.71907C665.19 5.18513 665.831 5.82596 666.297 6.64157C666.776 7.45718 667.016 8.39578 667.016 9.45736C667.016 10.519 666.77 11.464 666.278 12.2926C665.786 13.1082 665.132 13.7555 664.317 14.2345C663.514 14.7006 662.621 14.9336 661.637 14.9336ZM661.637 13.1859C662.284 13.1859 662.867 13.024 663.384 12.7004C663.915 12.3767 664.33 11.9301 664.627 11.3605C664.938 10.7908 665.093 10.1565 665.093 9.45736C665.093 8.74533 664.938 8.11744 664.627 7.5737C664.33 7.01701 663.915 6.57684 663.384 6.25319C662.867 5.91659 662.284 5.74829 661.637 5.74829C660.976 5.74829 660.381 5.91659 659.85 6.25319C659.332 6.57684 658.918 7.01701 658.607 7.5737C658.297 8.11744 658.141 8.74533 658.141 9.45736C658.141 10.1565 658.297 10.7908 658.607 11.3605C658.918 11.9301 659.332 12.3767 659.85 12.7004C660.381 13.024 660.976 13.1859 661.637 13.1859ZM673.08 14.9336C672.33 14.9336 671.65 14.7588 671.041 14.4093C670.446 14.0597 669.98 13.5742 669.643 12.9528C669.32 12.3185 669.158 11.5935 669.158 10.7779V4.23359H670.964V10.5837C670.964 11.1015 671.067 11.5546 671.274 11.943C671.494 12.3314 671.792 12.6356 672.168 12.8557C672.556 13.0758 672.996 13.1859 673.488 13.1859C673.98 13.1859 674.414 13.0758 674.789 12.8557C675.178 12.6356 675.475 12.3185 675.683 11.9042C675.903 11.4899 676.013 10.998 676.013 10.4283V4.23359H677.838V14.7006H676.071V12.6615L676.362 12.8363C676.116 13.4966 675.696 14.0144 675.1 14.3899C674.517 14.7523 673.844 14.9336 673.08 14.9336ZM680.636 14.7006V4.23359H682.403V6.15609L682.209 5.88422C682.455 5.2887 682.83 4.84853 683.335 4.56371C683.84 4.26595 684.455 4.11707 685.18 4.11707H685.821V5.82596H684.908C684.17 5.82596 683.575 6.059 683.122 6.52506C682.669 6.97817 682.442 7.62548 682.442 8.46698V14.7006H680.636ZM687.425 14.7006V4.23359H689.231V14.7006H687.425ZM687.425 2.56353V0.233218H689.231V2.56353H687.425ZM695.781 14.9336C694.733 14.9336 693.82 14.6747 693.043 14.1568C692.266 13.639 691.716 12.9399 691.393 12.0595L692.83 11.3605C693.127 11.9819 693.535 12.4738 694.053 12.8363C694.571 13.1988 695.147 13.3801 695.781 13.3801C696.351 13.3801 696.824 13.2441 697.199 12.9722C697.574 12.7004 697.762 12.3444 697.762 11.9042C697.762 11.5935 697.671 11.3475 697.49 11.1663C697.322 10.9721 697.115 10.8232 696.869 10.7196C696.623 10.6031 696.396 10.519 696.189 10.4672L694.616 10.0205C693.671 9.74865 692.978 9.36027 692.538 8.85537C692.111 8.35047 691.897 7.76142 691.897 7.08822C691.897 6.4668 692.053 5.92953 692.364 5.47642C692.687 5.01036 693.121 4.64786 693.665 4.38894C694.221 4.13002 694.843 4.00055 695.529 4.00055C696.448 4.00055 697.27 4.23359 697.995 4.69965C698.733 5.16571 699.257 5.81949 699.568 6.66099L698.092 7.34067C697.859 6.79693 697.51 6.3697 697.044 6.059C696.578 5.73534 696.053 5.57351 695.471 5.57351C694.94 5.57351 694.519 5.70945 694.208 5.98132C693.898 6.24024 693.742 6.57037 693.742 6.9717C693.742 7.26946 693.82 7.51544 693.975 7.70963C694.131 7.89088 694.318 8.03329 694.539 8.13686C694.759 8.22748 694.972 8.30516 695.179 8.36989L696.888 8.87479C697.743 9.12076 698.403 9.50268 698.869 10.0205C699.348 10.5384 699.588 11.1598 699.588 11.8848C699.588 12.4673 699.426 12.9917 699.102 13.4577C698.778 13.9238 698.332 14.2863 697.762 14.5452C697.192 14.8041 696.532 14.9336 695.781 14.9336ZM706.205 14.8171C705.182 14.8171 704.392 14.5258 703.835 13.9432C703.292 13.3606 703.02 12.5386 703.02 11.477V5.9619H701.117V4.23359H701.505C701.971 4.23359 702.34 4.09118 702.612 3.80636C702.884 3.52155 703.02 3.14611 703.02 2.68005V1.8256H704.826V4.23359H707.175V5.9619H704.826V11.4187C704.826 11.7683 704.878 12.0725 704.981 12.3314C705.098 12.5903 705.285 12.7975 705.544 12.9528C705.803 13.0952 706.146 13.1664 706.573 13.1664C706.664 13.1664 706.774 13.16 706.904 13.147C707.046 13.1341 707.175 13.1211 707.292 13.1082V14.7006C707.124 14.7394 706.936 14.7653 706.729 14.7782C706.522 14.8041 706.347 14.8171 706.205 14.8171ZM719.902 14.9336C718.879 14.9336 717.934 14.7523 717.066 14.3899C716.199 14.0144 715.448 13.4901 714.814 12.8169C714.179 12.1437 713.681 11.354 713.318 10.4477C712.969 9.54151 712.794 8.55113 712.794 7.4766C712.794 6.38912 712.969 5.39227 713.318 4.48604C713.668 3.5798 714.16 2.79009 714.794 2.11689C715.429 1.44369 716.18 0.925839 717.047 0.563346C717.914 0.187907 718.859 0.000188022 719.882 0.000188022C720.879 0.000188022 721.772 0.174961 722.562 0.524508C723.365 0.874055 724.038 1.32717 724.582 1.88386C725.138 2.44054 725.533 3.03606 725.766 3.67043L724.057 4.50545C723.721 3.66395 723.196 2.99723 722.484 2.50527C721.772 2.01332 720.905 1.76734 719.882 1.76734C718.872 1.76734 717.973 2.00684 717.183 2.48585C716.406 2.96486 715.798 3.63159 715.358 4.48604C714.917 5.34048 714.697 6.33734 714.697 7.4766C714.697 8.60292 714.917 9.5933 715.358 10.4477C715.811 11.3022 716.426 11.9689 717.202 12.4479C717.992 12.9269 718.892 13.1664 719.902 13.1664C720.782 13.1664 721.578 12.9787 722.29 12.6033C723.002 12.2278 723.565 11.71 723.98 11.0497C724.394 10.3895 724.601 9.62566 724.601 8.75827V7.86499L725.475 8.68059H719.882V7.02996H726.524V8.31163C726.524 9.32143 726.349 10.2341 725.999 11.0497C725.65 11.8654 725.171 12.5644 724.562 13.147C723.954 13.7167 723.248 14.1568 722.446 14.4675C721.643 14.7782 720.795 14.9336 719.902 14.9336ZM732.59 14.9336C731.839 14.9336 731.159 14.7588 730.551 14.4093C729.955 14.0597 729.489 13.5742 729.153 12.9528C728.829 12.3185 728.667 11.5935 728.667 10.7779V4.23359H730.473V10.5837C730.473 11.1015 730.577 11.5546 730.784 11.943C731.004 12.3314 731.302 12.6356 731.677 12.8557C732.065 13.0758 732.506 13.1859 732.998 13.1859C733.49 13.1859 733.923 13.0758 734.299 12.8557C734.687 12.6356 734.985 12.3185 735.192 11.9042C735.412 11.4899 735.522 10.998 735.522 10.4283V4.23359H737.348V14.7006H735.58V12.6615L735.872 12.8363C735.626 13.4966 735.205 14.0144 734.609 14.3899C734.027 14.7523 733.354 14.9336 732.59 14.9336ZM740.145 14.7006V4.23359H741.951V14.7006H740.145ZM740.145 2.56353V0.233218H741.951V2.56353H740.145ZM749.511 14.9336C748.528 14.9336 747.641 14.6941 746.851 14.2151C746.074 13.7361 745.459 13.0823 745.006 12.2537C744.553 11.4252 744.326 10.4995 744.326 9.47678C744.326 8.42814 744.553 7.49602 745.006 6.68041C745.459 5.85186 746.074 5.19808 746.851 4.71907C747.641 4.24006 748.528 4.00055 749.511 4.00055C750.379 4.00055 751.149 4.18827 751.822 4.56371C752.496 4.92621 753.026 5.41816 753.415 6.03958L753.123 6.48622V0.000188022H754.949V14.7006H753.182V12.4673L753.415 12.7781C753.052 13.4642 752.521 13.995 751.822 14.3704C751.136 14.7459 750.366 14.9336 749.511 14.9336ZM749.667 13.1859C750.327 13.1859 750.916 13.024 751.434 12.7004C751.952 12.3767 752.36 11.9366 752.657 11.3799C752.968 10.8102 753.123 10.1759 753.123 9.47678C753.123 8.76474 752.968 8.13038 752.657 7.5737C752.36 7.00407 751.952 6.55742 751.434 6.23377C750.916 5.91011 750.327 5.74829 749.667 5.74829C749.019 5.74829 748.43 5.91659 747.9 6.25319C747.382 6.57684 746.974 7.01701 746.676 7.5737C746.378 8.11744 746.23 8.7518 746.23 9.47678C746.23 10.1759 746.378 10.8102 746.676 11.3799C746.974 11.9366 747.382 12.3767 747.9 12.7004C748.417 13.024 749.007 13.1859 749.667 13.1859ZM762.56 14.9336C761.55 14.9336 760.65 14.6941 759.861 14.2151C759.071 13.7361 758.45 13.0823 757.997 12.2537C757.543 11.4122 757.317 10.4736 757.317 9.43795C757.317 8.38931 757.537 7.45718 757.977 6.64157C758.43 5.82596 759.039 5.18513 759.803 4.71907C760.579 4.24006 761.447 4.00055 762.405 4.00055C763.181 4.00055 763.868 4.14296 764.463 4.42778C765.072 4.69965 765.583 5.07509 765.997 5.55409C766.424 6.02016 766.748 6.55742 766.968 7.16589C767.201 7.76142 767.318 8.38283 767.318 9.03014C767.318 9.17255 767.305 9.33438 767.279 9.51562C767.266 9.68392 767.247 9.84575 767.221 10.0011H758.637V8.44756H766.172L765.318 9.14666C765.434 8.47346 765.369 7.87146 765.123 7.34067C764.877 6.80987 764.515 6.38912 764.036 6.07841C763.557 5.76771 763.013 5.61235 762.405 5.61235C761.796 5.61235 761.24 5.76771 760.735 6.07841C760.23 6.38912 759.835 6.83577 759.55 7.41834C759.278 7.98797 759.168 8.66765 759.22 9.45736C759.168 10.2212 759.285 10.8944 759.569 11.477C759.867 12.0466 760.282 12.4932 760.812 12.8169C761.356 13.1276 761.945 13.283 762.579 13.283C763.279 13.283 763.868 13.1211 764.347 12.7975C764.826 12.4738 765.214 12.0595 765.512 11.5546L767.026 12.3314C766.819 12.8104 766.496 13.2506 766.056 13.6519C765.628 14.0403 765.117 14.351 764.521 14.584C763.939 14.8171 763.285 14.9336 762.56 14.9336ZM777.845 14.9336C776.835 14.9336 775.936 14.6941 775.146 14.2151C774.356 13.7361 773.735 13.0823 773.282 12.2537C772.829 11.4122 772.602 10.4736 772.602 9.43795C772.602 8.38931 772.822 7.45718 773.262 6.64157C773.715 5.82596 774.324 5.18513 775.088 4.71907C775.864 4.24006 776.732 4.00055 777.69 4.00055C778.467 4.00055 779.153 4.14296 779.748 4.42778C780.357 4.69965 780.868 5.07509 781.282 5.55409C781.71 6.02016 782.033 6.55742 782.253 7.16589C782.486 7.76142 782.603 8.38283 782.603 9.03014C782.603 9.17255 782.59 9.33438 782.564 9.51562C782.551 9.68392 782.532 9.84575 782.506 10.0011H773.922V8.44756H781.457L780.603 9.14666C780.719 8.47346 780.654 7.87146 780.408 7.34067C780.163 6.80987 779.8 6.38912 779.321 6.07841C778.842 5.76771 778.298 5.61235 777.69 5.61235C777.081 5.61235 776.525 5.76771 776.02 6.07841C775.515 6.38912 775.12 6.83577 774.835 7.41834C774.563 7.98797 774.453 8.66765 774.505 9.45736C774.453 10.2212 774.57 10.8944 774.855 11.477C775.152 12.0466 775.567 12.4932 776.097 12.8169C776.641 13.1276 777.23 13.283 777.865 13.283C778.564 13.283 779.153 13.1211 779.632 12.7975C780.111 12.4738 780.499 12.0595 780.797 11.5546L782.312 12.3314C782.104 12.8104 781.781 13.2506 781.341 13.6519C780.913 14.0403 780.402 14.351 779.807 14.584C779.224 14.8171 778.57 14.9336 777.845 14.9336ZM789.21 14.8171C788.188 14.8171 787.398 14.5258 786.841 13.9432C786.298 13.3606 786.026 12.5386 786.026 11.477V5.9619H784.123V4.23359H784.511C784.977 4.23359 785.346 4.09118 785.618 3.80636C785.89 3.52155 786.026 3.14611 786.026 2.68005V1.8256H787.832V4.23359H790.181V5.9619H787.832V11.4187C787.832 11.7683 787.883 12.0725 787.987 12.3314C788.104 12.5903 788.291 12.7975 788.55 12.9528C788.809 13.0952 789.152 13.1664 789.579 13.1664C789.67 13.1664 789.78 13.16 789.91 13.147C790.052 13.1341 790.181 13.1211 790.298 13.1082V14.7006C790.13 14.7394 789.942 14.7653 789.735 14.7782C789.528 14.8041 789.353 14.8171 789.21 14.8171ZM797.227 14.9336C796.205 14.9336 795.292 14.6941 794.489 14.2151C793.7 13.7361 793.078 13.0823 792.625 12.2537C792.172 11.4252 791.945 10.4931 791.945 9.45736C791.945 8.40872 792.172 7.4766 792.625 6.66099C793.078 5.84538 793.7 5.19808 794.489 4.71907C795.292 4.24006 796.205 4.00055 797.227 4.00055C797.914 4.00055 798.554 4.12354 799.15 4.36952C799.745 4.6155 800.27 4.94562 800.723 5.3599C801.176 5.77418 801.506 6.25966 801.713 6.81635L800.101 7.59312C799.855 7.04938 799.48 6.60921 798.975 6.27261C798.47 5.92306 797.888 5.74829 797.227 5.74829C796.593 5.74829 796.017 5.91011 795.499 6.23377C794.994 6.55742 794.593 6.99759 794.295 7.55428C793.997 8.11096 793.848 8.7518 793.848 9.47678C793.848 10.1759 793.997 10.8102 794.295 11.3799C794.593 11.9366 794.994 12.3767 795.499 12.7004C796.017 13.024 796.593 13.1859 797.227 13.1859C797.888 13.1859 798.47 13.0176 798.975 12.681C799.48 12.3314 799.855 11.8718 800.101 11.3022L801.713 12.1178C801.506 12.6615 801.176 13.147 800.723 13.5742C800.27 13.9885 799.745 14.3187 799.15 14.5646C798.554 14.8106 797.914 14.9336 797.227 14.9336ZM808.537 14.7006V5.9619H806.537V4.23359H808.537V3.49565C808.537 2.74478 808.699 2.11041 809.022 1.59257C809.359 1.07472 809.799 0.679862 810.343 0.407992C810.9 0.136123 811.515 0.000188022 812.188 0.000188022C812.33 0.000188022 812.486 0.013134 812.654 0.039026C812.835 0.0519728 812.984 0.0713922 813.1 0.0972842V1.70908C812.997 1.68319 812.874 1.67024 812.732 1.67024C812.589 1.6573 812.479 1.65082 812.401 1.65082C811.806 1.65082 811.314 1.79323 810.926 2.07805C810.55 2.36286 810.362 2.8354 810.362 3.49565V4.23359H812.848V5.9619H810.362V14.7006H808.537ZM819.627 14.9336C818.617 14.9336 817.704 14.7006 816.889 14.2345C816.073 13.7555 815.426 13.1017 814.947 12.2732C814.468 11.4446 814.228 10.506 814.228 9.45736C814.228 8.40872 814.461 7.4766 814.927 6.66099C815.406 5.84538 816.054 5.19808 816.869 4.71907C817.685 4.24006 818.604 4.00055 819.627 4.00055C820.637 4.00055 821.549 4.24006 822.365 4.71907C823.18 5.18513 823.821 5.82596 824.287 6.64157C824.766 7.45718 825.006 8.39578 825.006 9.45736C825.006 10.519 824.76 11.464 824.268 12.2926C823.776 13.1082 823.122 13.7555 822.307 14.2345C821.504 14.7006 820.611 14.9336 819.627 14.9336ZM819.627 13.1859C820.274 13.1859 820.857 13.024 821.374 12.7004C821.905 12.3767 822.32 11.9301 822.617 11.3605C822.928 10.7908 823.083 10.1565 823.083 9.45736C823.083 8.74533 822.928 8.11744 822.617 7.5737C822.32 7.01701 821.905 6.57684 821.374 6.25319C820.857 5.91659 820.274 5.74829 819.627 5.74829C818.966 5.74829 818.371 5.91659 817.84 6.25319C817.322 6.57684 816.908 7.01701 816.597 7.5737C816.287 8.11744 816.131 8.74533 816.131 9.45736C816.131 10.1565 816.287 10.7908 816.597 11.3605C816.908 11.9301 817.322 12.3767 817.84 12.7004C818.371 13.024 818.966 13.1859 819.627 13.1859ZM827.361 14.7006V4.23359H829.129V6.15609L828.934 5.88422C829.18 5.2887 829.556 4.84853 830.061 4.56371C830.566 4.26595 831.181 4.11707 831.905 4.11707H832.546V5.82596H831.634C830.896 5.82596 830.3 6.059 829.847 6.52506C829.394 6.97817 829.167 7.62548 829.167 8.46698V14.7006H827.361Z" fill="black"/>
<path d="M837.507 14.7006V0.233218H847.12V2.56353H840.148V6.27261H846.731V8.60292H840.148V12.3703H847.12V14.7006H837.507ZM847.891 14.7006L851.581 9.39911L847.872 4.13649H850.862L853.756 8.40873H852.416L855.309 4.13649H858.28L854.591 9.39911L858.261 14.7006H855.29L852.435 10.4477H853.736L850.882 14.7006H847.891ZM859.671 18.5844V4.13649H862.06V6.23377L861.827 5.70945C862.189 5.13982 862.681 4.69965 863.303 4.38894C863.924 4.06528 864.643 3.90346 865.458 3.90346C866.455 3.90346 867.355 4.14943 868.157 4.64139C868.96 5.13334 869.594 5.7936 870.06 6.62215C870.54 7.45071 870.779 8.38283 870.779 9.41853C870.779 10.4413 870.546 11.3734 870.08 12.2149C869.614 13.0564 868.979 13.7231 868.177 14.2151C867.374 14.6941 866.461 14.9336 865.439 14.9336C864.675 14.9336 863.969 14.7847 863.322 14.487C862.688 14.1762 862.183 13.7361 861.807 13.1664L862.215 12.6615V18.5844H859.671ZM865.147 12.6033C865.73 12.6033 866.248 12.4673 866.701 12.1955C867.154 11.9236 867.504 11.5482 867.75 11.0692C868.009 10.5902 868.138 10.0399 868.138 9.41853C868.138 8.79711 868.009 8.25337 867.75 7.78731C867.504 7.3083 867.154 6.93286 866.701 6.66099C866.248 6.37618 865.73 6.23377 865.147 6.23377C864.591 6.23377 864.086 6.3697 863.633 6.64157C863.193 6.91344 862.843 7.29535 862.584 7.78731C862.338 8.26632 862.215 8.81006 862.215 9.41853C862.215 10.0399 862.338 10.5902 862.584 11.0692C862.843 11.5482 863.193 11.9236 863.633 12.1955C864.086 12.4673 864.591 12.6033 865.147 12.6033ZM875.923 14.9336C875.185 14.9336 874.544 14.8106 874 14.5646C873.456 14.3187 873.036 13.9691 872.738 13.516C872.44 13.0499 872.291 12.5127 872.291 11.9042C872.291 11.3216 872.421 10.8038 872.68 10.3507C872.939 9.88459 873.34 9.4962 873.884 9.1855C874.427 8.87479 875.114 8.6547 875.942 8.52524L879.399 7.96208V9.90401L876.428 10.4089C875.923 10.4995 875.547 10.6614 875.301 10.8944C875.055 11.1274 874.932 11.4317 874.932 11.8071C874.932 12.1696 875.068 12.4609 875.34 12.681C875.625 12.8881 875.975 12.9917 876.389 12.9917C876.92 12.9917 877.386 12.8816 877.787 12.6615C878.201 12.4285 878.518 12.1113 878.739 11.71C878.972 11.3087 879.088 10.8685 879.088 10.3895V7.67079C879.088 7.21768 878.907 6.84224 878.544 6.54448C878.195 6.23377 877.729 6.07841 877.146 6.07841C876.602 6.07841 876.117 6.2273 875.69 6.52506C875.275 6.80987 874.971 7.19178 874.777 7.67079L872.699 6.66099C872.906 6.10431 873.23 5.6253 873.67 5.22397C874.123 4.80969 874.654 4.48604 875.262 4.253C875.871 4.01997 876.531 3.90346 877.243 3.90346C878.111 3.90346 878.874 4.06528 879.535 4.38894C880.195 4.69965 880.706 5.13982 881.069 5.70945C881.444 6.26613 881.632 6.91992 881.632 7.67079V14.7006H879.224V12.8946L879.768 12.8557C879.496 13.3089 879.172 13.6908 878.797 14.0015C878.421 14.2992 877.994 14.5323 877.515 14.7006C877.036 14.8559 876.505 14.9336 875.923 14.9336ZM888.61 14.8171C887.418 14.8171 886.493 14.4934 885.833 13.8461C885.185 13.1859 884.862 12.2602 884.862 11.0692V6.40854H883.036V4.13649H883.23C883.748 4.13649 884.15 4.00055 884.434 3.72869C884.719 3.45682 884.862 3.06196 884.862 2.54411V1.7285H887.406V4.13649H889.833V6.40854H887.406V10.9332C887.406 11.2828 887.464 11.5805 887.58 11.8265C887.71 12.0725 887.904 12.2602 888.163 12.3897C888.435 12.5191 888.778 12.5839 889.192 12.5839C889.283 12.5839 889.386 12.5774 889.503 12.5644C889.632 12.5515 889.755 12.5386 889.872 12.5256V14.7006C889.691 14.7265 889.483 14.7523 889.25 14.7782C889.017 14.8041 888.804 14.8171 888.61 14.8171ZM894.393 17.0309L900.84 1.00999H903.617L897.17 17.0309H894.393ZM908.755 14.7006V0.233218H918.368V2.56353H911.396V6.27261H917.979V8.60292H911.396V12.3703H918.368V14.7006H908.755ZM919.139 14.7006L922.829 9.39911L919.12 4.13649H922.11L925.004 8.40873H923.664L926.557 4.13649H929.529L925.839 9.39911L929.509 14.7006H926.538L923.683 10.4477H924.985L922.13 14.7006H919.139ZM935.55 14.9336C934.463 14.9336 933.511 14.6876 932.696 14.1957C931.88 13.7037 931.246 13.037 930.793 12.1955C930.339 11.354 930.113 10.4219 930.113 9.39911C930.113 8.33752 930.339 7.39892 930.793 6.58332C931.259 5.75476 931.887 5.10098 932.676 4.62197C933.479 4.14296 934.372 3.90346 935.356 3.90346C936.185 3.90346 936.91 4.03939 937.531 4.31126C938.165 4.58313 938.703 4.95857 939.143 5.43758C939.583 5.91659 939.92 6.4668 940.153 7.08822C940.386 7.69669 940.502 8.35694 940.502 9.06898C940.502 9.25023 940.489 9.43795 940.463 9.63214C940.45 9.82633 940.418 9.99463 940.366 10.137H932.21V8.19511H938.929L937.725 9.10782C937.842 8.51229 937.809 7.9815 937.628 7.51544C937.46 7.04938 937.175 6.68041 936.774 6.40854C936.385 6.13667 935.913 6.00074 935.356 6.00074C934.825 6.00074 934.353 6.13667 933.938 6.40854C933.524 6.66747 933.207 7.05585 932.987 7.5737C932.78 8.0786 932.702 8.69354 932.754 9.41853C932.702 10.0658 932.786 10.6419 933.006 11.1468C933.239 11.6388 933.576 12.0207 934.016 12.2926C934.469 12.5644 934.987 12.7004 935.57 12.7004C936.152 12.7004 936.644 12.5774 937.046 12.3314C937.46 12.0854 937.784 11.7553 938.017 11.341L940.075 12.3508C939.868 12.8557 939.544 13.3024 939.104 13.6908C938.664 14.0791 938.14 14.3834 937.531 14.6035C936.936 14.8236 936.275 14.9336 935.55 14.9336ZM947.518 14.9336C946.47 14.9336 945.525 14.6941 944.683 14.2151C943.855 13.7231 943.201 13.0629 942.722 12.2343C942.243 11.3928 942.003 10.4477 942.003 9.39911C942.003 8.35047 942.243 7.41187 942.722 6.58332C943.201 5.75476 943.855 5.10098 944.683 4.62197C945.525 4.14296 946.47 3.90346 947.518 3.90346C948.269 3.90346 948.968 4.03939 949.616 4.31126C950.263 4.57019 950.82 4.93268 951.286 5.39874C951.765 5.85186 952.108 6.3956 952.315 7.02996L950.082 8.00092C949.888 7.47013 949.557 7.0429 949.091 6.71925C948.638 6.3956 948.114 6.23377 947.518 6.23377C946.962 6.23377 946.463 6.3697 946.023 6.64157C945.596 6.91344 945.259 7.28888 945.013 7.76789C944.767 8.2469 944.644 8.79711 944.644 9.41853C944.644 10.0399 944.767 10.5902 945.013 11.0692C945.259 11.5482 945.596 11.9236 946.023 12.1955C946.463 12.4673 946.962 12.6033 947.518 12.6033C948.127 12.6033 948.658 12.4415 949.111 12.1178C949.564 11.7941 949.888 11.3605 950.082 10.8167L952.315 11.8265C952.108 12.422 951.771 12.9593 951.305 13.4383C950.839 13.9044 950.282 14.2733 949.635 14.5452C948.988 14.8041 948.282 14.9336 947.518 14.9336ZM958.013 14.9336C957.197 14.9336 956.485 14.7523 955.876 14.3899C955.281 14.0274 954.821 13.5225 954.498 12.8752C954.187 12.2278 954.032 11.4705 954.032 10.6031V4.13649H956.576V10.3895C956.576 10.8297 956.66 11.218 956.828 11.5546C957.009 11.8783 957.262 12.1372 957.585 12.3314C957.922 12.5127 958.297 12.6033 958.712 12.6033C959.126 12.6033 959.495 12.5127 959.819 12.3314C960.142 12.1372 960.395 11.8718 960.576 11.5352C960.757 11.1986 960.848 10.7973 960.848 10.3312V4.13649H963.392V14.7006H960.984V12.6227L961.197 12.9917C960.951 13.639 960.544 14.1245 959.974 14.4481C959.417 14.7718 958.763 14.9336 958.013 14.9336ZM970.572 14.8171C969.381 14.8171 968.456 14.4934 967.796 13.8461C967.148 13.1859 966.825 12.2602 966.825 11.0692V6.40854H964.999V4.13649H965.193C965.711 4.13649 966.113 4.00055 966.397 3.72869C966.682 3.45682 966.825 3.06196 966.825 2.54411V1.7285H969.368V4.13649H971.796V6.40854H969.368V10.9332C969.368 11.2828 969.427 11.5805 969.543 11.8265C969.673 12.0725 969.867 12.2602 970.126 12.3897C970.398 12.5191 970.741 12.5839 971.155 12.5839C971.246 12.5839 971.349 12.5774 971.466 12.5644C971.595 12.5515 971.718 12.5386 971.835 12.5256V14.7006C971.653 14.7265 971.446 14.7523 971.213 14.7782C970.98 14.8041 970.767 14.8171 970.572 14.8171ZM973.778 14.7006V4.13649H976.322V14.7006H973.778ZM973.778 2.95191V0.233218H976.322V2.95191H973.778ZM981.856 14.7006L977.7 4.13649H980.477L983.487 12.4479H982.458L985.487 4.13649H988.264L984.108 14.7006H981.856ZM994.491 14.9336C993.403 14.9336 992.452 14.6876 991.636 14.1957C990.821 13.7037 990.186 13.037 989.733 12.1955C989.28 11.354 989.053 10.4219 989.053 9.39911C989.053 8.33752 989.28 7.39892 989.733 6.58332C990.199 5.75476 990.827 5.10098 991.617 4.62197C992.419 4.14296 993.313 3.90346 994.297 3.90346C995.125 3.90346 995.85 4.03939 996.472 4.31126C997.106 4.58313 997.643 4.95857 998.083 5.43758C998.523 5.91659 998.86 6.4668 999.093 7.08822C999.326 7.69669 999.443 8.35694 999.443 9.06898C999.443 9.25023 999.43 9.43795 999.404 9.63214C999.391 9.82633 999.359 9.99463 999.307 10.137H991.151V8.19511H997.87L996.666 9.10782C996.782 8.51229 996.75 7.9815 996.569 7.51544C996.4 7.04938 996.115 6.68041 995.714 6.40854C995.326 6.13667 994.853 6.00074 994.297 6.00074C993.766 6.00074 993.293 6.13667 992.879 6.40854C992.465 6.66747 992.147 7.05585 991.927 7.5737C991.72 8.0786 991.643 8.69354 991.694 9.41853C991.643 10.0658 991.727 10.6419 991.947 11.1468C992.18 11.6388 992.516 12.0207 992.957 12.2926C993.41 12.5644 993.928 12.7004 994.51 12.7004C995.093 12.7004 995.585 12.5774 995.986 12.3314C996.4 12.0854 996.724 11.7553 996.957 11.341L999.015 12.3508C998.808 12.8557 998.485 13.3024 998.044 13.6908C997.604 14.0791 997.08 14.3834 996.472 14.6035C995.876 14.8236 995.216 14.9336 994.491 14.9336ZM1007.6 14.7006V2.56353H1003.85V0.233218H1013.95V2.56353H1010.26V14.7006H1007.6ZM1019.15 14.9336C1018.11 14.9336 1017.17 14.6941 1016.31 14.2151C1015.47 13.7361 1014.8 13.0823 1014.29 12.2537C1013.8 11.4252 1013.56 10.4801 1013.56 9.41853C1013.56 8.35694 1013.8 7.41187 1014.29 6.58332C1014.8 5.75476 1015.47 5.10098 1016.31 4.62197C1017.15 4.14296 1018.1 3.90346 1019.15 3.90346C1020.18 3.90346 1021.12 4.14296 1021.96 4.62197C1022.81 5.10098 1023.47 5.75476 1023.96 6.58332C1024.47 7.39892 1024.72 8.34399 1024.72 9.41853C1024.72 10.4801 1024.47 11.4252 1023.96 12.2537C1023.46 13.0823 1022.79 13.7361 1021.94 14.2151C1021.1 14.6941 1020.17 14.9336 1019.15 14.9336ZM1019.15 12.6033C1019.72 12.6033 1020.22 12.4673 1020.64 12.1955C1021.08 11.9236 1021.43 11.5482 1021.67 11.0692C1021.93 10.5772 1022.06 10.027 1022.06 9.41853C1022.06 8.79711 1021.93 8.25337 1021.67 7.78731C1021.43 7.3083 1021.08 6.93286 1020.64 6.66099C1020.22 6.37618 1019.72 6.23377 1019.15 6.23377C1018.57 6.23377 1018.05 6.37618 1017.61 6.66099C1017.17 6.93286 1016.82 7.3083 1016.56 7.78731C1016.32 8.25337 1016.2 8.79711 1016.2 9.41853C1016.2 10.027 1016.32 10.5772 1016.56 11.0692C1016.82 11.5482 1017.17 11.9236 1017.61 12.1955C1018.05 12.4673 1018.57 12.6033 1019.15 12.6033ZM1030.42 14.9336C1029.6 14.9336 1028.89 14.7523 1028.28 14.3899C1027.69 14.0274 1027.23 13.5225 1026.9 12.8752C1026.59 12.2278 1026.44 11.4705 1026.44 10.6031V4.13649H1028.98V10.3895C1028.98 10.8297 1029.06 11.218 1029.23 11.5546C1029.41 11.8783 1029.67 12.1372 1029.99 12.3314C1030.33 12.5127 1030.7 12.6033 1031.12 12.6033C1031.53 12.6033 1031.9 12.5127 1032.22 12.3314C1032.55 12.1372 1032.8 11.8718 1032.98 11.5352C1033.16 11.1986 1033.25 10.7973 1033.25 10.3312V4.13649H1035.8V14.7006H1033.39V12.6227L1033.6 12.9917C1033.36 13.639 1032.95 14.1245 1032.38 14.4481C1031.82 14.7718 1031.17 14.9336 1030.42 14.9336ZM1038.16 14.7006V4.13649H1040.55V6.48622L1040.36 6.13667C1040.6 5.34696 1040.98 4.79674 1041.5 4.48604C1042.03 4.17533 1042.67 4.01997 1043.4 4.01997H1044.03V6.27261H1043.11C1042.39 6.27261 1041.81 6.49916 1041.37 6.95228C1040.93 7.39245 1040.71 8.01387 1040.71 8.81653V14.7006H1038.16ZM1045.42 14.7006V4.13649H1047.97V14.7006H1045.42ZM1045.42 2.95191V0.233218H1047.97V2.95191H1045.42ZM1054.34 14.9336C1053.21 14.9336 1052.23 14.6682 1051.39 14.1374C1050.56 13.5937 1049.99 12.8622 1049.68 11.943L1051.58 11.0303C1051.85 11.6258 1052.23 12.0919 1052.71 12.4285C1053.2 12.7651 1053.74 12.9334 1054.34 12.9334C1054.8 12.9334 1055.17 12.8298 1055.44 12.6227C1055.72 12.4156 1055.85 12.1437 1055.85 11.8071C1055.85 11.6 1055.79 11.4317 1055.68 11.3022C1055.57 11.1598 1055.42 11.0433 1055.23 10.9526C1055.05 10.8491 1054.85 10.7649 1054.63 10.7002L1052.9 10.2147C1052.01 9.95579 1051.33 9.56093 1050.86 9.03014C1050.41 8.49935 1050.18 7.87146 1050.18 7.14647C1050.18 6.49916 1050.34 5.93601 1050.67 5.457C1051 4.96504 1051.46 4.58313 1052.05 4.31126C1052.64 4.03939 1053.32 3.90346 1054.08 3.90346C1055.08 3.90346 1055.96 4.14296 1056.73 4.62197C1057.49 5.10098 1058.03 5.77418 1058.36 6.64157L1056.42 7.55428C1056.23 7.07527 1055.93 6.69336 1055.5 6.40854C1055.08 6.12373 1054.6 5.98132 1054.07 5.98132C1053.64 5.98132 1053.3 6.07841 1053.06 6.27261C1052.81 6.4668 1052.69 6.71925 1052.69 7.02996C1052.69 7.22415 1052.74 7.39245 1052.84 7.53486C1052.95 7.67727 1053.09 7.79378 1053.27 7.88441C1053.46 7.97503 1053.68 8.05918 1053.93 8.13686L1055.62 8.64176C1056.49 8.90068 1057.15 9.28906 1057.62 9.80691C1058.1 10.3248 1058.34 10.9591 1058.34 11.71C1058.34 12.3444 1058.17 12.9075 1057.83 13.3995C1057.5 13.8785 1057.03 14.2539 1056.43 14.5258C1055.84 14.7977 1055.14 14.9336 1054.34 14.9336ZM1060.29 14.7006V4.13649H1062.68V6.58332L1062.41 6.17551C1062.6 5.41169 1062.99 4.84206 1063.57 4.46662C1064.16 4.09118 1064.84 3.90346 1065.63 3.90346C1066.5 3.90346 1067.26 4.13002 1067.92 4.58313C1068.58 5.03625 1069.01 5.63177 1069.21 6.3697L1068.49 6.42796C1068.81 5.58646 1069.3 4.95857 1069.94 4.54429C1070.59 4.11707 1071.34 3.90346 1072.18 3.90346C1072.93 3.90346 1073.59 4.07176 1074.18 4.40836C1074.77 4.74496 1075.24 5.21749 1075.58 5.82596C1075.91 6.42149 1076.08 7.11411 1076.08 7.90382V14.7006H1073.54V8.50582C1073.54 8.03976 1073.45 7.63843 1073.28 7.30183C1073.12 6.96523 1072.88 6.7063 1072.58 6.52506C1072.29 6.33086 1071.92 6.23377 1071.5 6.23377C1071.1 6.23377 1070.74 6.33086 1070.43 6.52506C1070.12 6.7063 1069.88 6.96523 1069.71 7.30183C1069.54 7.63843 1069.46 8.03976 1069.46 8.50582V14.7006H1066.91V8.50582C1066.91 8.03976 1066.83 7.63843 1066.66 7.30183C1066.49 6.96523 1066.25 6.7063 1065.94 6.52506C1065.65 6.33086 1065.29 6.23377 1064.88 6.23377C1064.47 6.23377 1064.12 6.33086 1063.81 6.52506C1063.5 6.7063 1063.26 6.96523 1063.09 7.30183C1062.92 7.63843 1062.84 8.03976 1062.84 8.50582V14.7006H1060.29ZM1079.44 14.7006V11.9819H1082V14.7006H1079.44Z" fill="url(#paint0_linear_1_789)"/>
<defs>
<linearGradient id="paint0_linear_1_789" x1="1084.96" y1="6.69638" x2="-1.61181" y2="6.69638" gradientUnits="userSpaceOnUse">
<stop stop-color="#F3AA45"/>
<stop offset="1" stop-color="#ED2628"/>
</linearGradient>
</defs>
</svg>
