<svg width="849" height="19" viewBox="0 0 849 19" fill="none" xmlns="http://www.w3.org/2000/svg">
<path d="M5.80438 14.9285C4.88551 14.9285 4.03135 14.7603 3.24191 14.4238C2.4654 14.0873 1.79243 13.6214 1.22299 13.0261C0.666497 12.4178 0.258832 11.7125 -3.40679e-06 10.9101L2.19362 9.95887C2.54305 10.7871 3.04778 11.4407 3.70781 11.9195C4.36784 12.3855 5.11199 12.6184 5.94026 12.6184C6.40617 12.6184 6.80736 12.5472 7.14385 12.4049C7.49327 12.2496 7.75858 12.0425 7.93977 11.7837C8.13389 11.5248 8.23096 11.2142 8.23096 10.8519C8.23096 10.4248 8.10154 10.0753 7.8427 9.80357C7.59681 9.51885 7.2215 9.29884 6.71677 9.14354L3.94076 8.25056C2.81483 7.90113 1.96714 7.37699 1.39771 6.67814C0.828269 5.97928 0.54355 5.15748 0.54355 4.21273C0.54355 3.38446 0.744148 2.65325 1.14534 2.0191C1.55948 1.38496 2.12892 0.893169 2.85365 0.543742C3.59133 0.181373 4.43255 0.000187958 5.3773 0.000187958C6.2444 0.000187958 7.04031 0.155489 7.76505 0.466091C8.48979 0.763751 9.11099 1.18436 9.62866 1.72791C10.1593 2.25852 10.554 2.8862 10.8128 3.61094L8.63862 4.58157C8.3539 3.85683 7.92682 3.30034 7.35739 2.91208C6.78795 2.51089 6.12792 2.31029 5.3773 2.31029C4.93728 2.31029 4.54902 2.38794 4.21254 2.54324C3.87605 2.6856 3.61075 2.89267 3.41662 3.16445C3.23544 3.42328 3.14484 3.73389 3.14484 4.09625C3.14484 4.49745 3.27426 4.85335 3.5331 5.16395C3.79193 5.46161 4.18666 5.69456 4.71727 5.8628L7.3768 6.69755C8.52862 7.07286 9.38924 7.59053 9.95868 8.25056C10.5411 8.91059 10.8322 9.72592 10.8322 10.6966C10.8322 11.5248 10.6187 12.256 10.1916 12.8902C9.76455 13.5243 9.1757 14.0226 8.42508 14.385C7.67446 14.7473 6.80089 14.9285 5.80438 14.9285ZM16.1043 14.9285C15.3666 14.9285 14.726 14.8056 14.1824 14.5597C13.6389 14.3138 13.2183 13.9643 12.9206 13.5114C12.623 13.0455 12.4741 12.5084 12.4741 11.9001C12.4741 11.3178 12.6036 10.8001 12.8624 10.3471C13.1212 9.88122 13.5224 9.49297 14.066 9.18237C14.6095 8.87176 15.2954 8.65175 16.1237 8.52234L19.5792 7.95937V9.90063L16.609 10.4054C16.1043 10.496 15.729 10.6577 15.4831 10.8907C15.2372 11.1236 15.1143 11.4278 15.1143 11.8031C15.1143 12.1654 15.2501 12.4566 15.5219 12.6766C15.8066 12.8837 16.1561 12.9872 16.5702 12.9872C17.1008 12.9872 17.5667 12.8772 17.9679 12.6572C18.382 12.4243 18.6991 12.1072 18.9191 11.706C19.1521 11.3048 19.2686 10.8648 19.2686 10.3859V7.66818C19.2686 7.21522 19.0874 6.83991 18.725 6.54225C18.3756 6.23164 17.9097 6.07634 17.3273 6.07634C16.7837 6.07634 16.2984 6.22517 15.8713 6.52283C15.4572 6.80755 15.1531 7.18933 14.959 7.66818L12.8818 6.65872C13.0889 6.10223 13.4124 5.62338 13.8524 5.22219C14.3054 4.80805 14.836 4.48451 15.4443 4.25156C16.0525 4.0186 16.7126 3.90213 17.4244 3.90213C18.2915 3.90213 19.055 4.0639 19.715 4.38744C20.3751 4.69805 20.8863 5.13807 21.2486 5.7075C21.624 6.264 21.8116 6.91756 21.8116 7.66818V14.6956H19.4044V12.8902L19.948 12.8514C19.6762 13.3043 19.3527 13.6861 18.9774 13.9967C18.6021 14.2944 18.175 14.5273 17.6961 14.6956C17.2173 14.8509 16.6867 14.9285 16.1043 14.9285ZM25.2334 14.6956V6.40636H23.3698V4.13508H25.2334V3.78565C25.2334 2.98326 25.3952 2.30382 25.7187 1.74732C26.0552 1.17789 26.5211 0.744339 27.1164 0.446679C27.7117 0.149018 28.4171 0.000187958 29.2324 0.000187958C29.3877 0.000187958 29.5559 0.0131295 29.7371 0.0390127C29.9312 0.0519551 30.093 0.0713679 30.2224 0.097251V2.29088C30.093 2.265 29.9701 2.25205 29.8536 2.25205C29.7501 2.23911 29.653 2.23264 29.5624 2.23264C28.993 2.23264 28.553 2.36206 28.2423 2.62089C27.9317 2.86679 27.7764 3.25504 27.7764 3.78565V4.13508H30.1254V6.40636H27.7764V14.6956H25.2334ZM36.6019 14.9285C35.5148 14.9285 34.5636 14.6826 33.7483 14.1908C32.9329 13.699 32.2988 13.0325 31.8458 12.1913C31.3929 11.3501 31.1664 10.4183 31.1664 9.3959C31.1664 8.33468 31.3929 7.3964 31.8458 6.58107C32.3117 5.7528 32.9394 5.09924 33.7288 4.6204C34.5312 4.14155 35.4242 3.90213 36.4078 3.90213C37.2361 3.90213 37.9608 4.03802 38.582 4.30979C39.2162 4.58157 39.7532 4.95688 40.1933 5.43573C40.6333 5.91457 40.9698 6.4646 41.2027 7.0858C41.4357 7.69406 41.5521 8.35409 41.5521 9.06589C41.5521 9.24707 41.5392 9.43473 41.5133 9.62886C41.5004 9.82298 41.468 9.99123 41.4163 10.1336H33.2629V8.19232H39.9797L38.7761 9.10471C38.8926 8.50939 38.8603 7.97878 38.6791 7.51288C38.5108 7.04698 38.2261 6.67814 37.8249 6.40636C37.4367 6.13458 36.9643 5.99869 36.4078 5.99869C35.8772 5.99869 35.4048 6.13458 34.9907 6.40636C34.5765 6.66519 34.2595 7.05345 34.0394 7.57112C33.8324 8.07585 33.7547 8.69058 33.8065 9.41532C33.7547 10.0624 33.8389 10.6383 34.0589 11.143C34.2918 11.6348 34.6283 12.0166 35.0683 12.2884C35.5213 12.5602 36.0389 12.6961 36.6213 12.6961C37.2037 12.6961 37.6955 12.5731 38.0967 12.3272C38.5108 12.0813 38.8344 11.7513 39.0673 11.3372L41.1251 12.3466C40.918 12.8514 40.5944 13.2978 40.1544 13.6861C39.7144 14.0744 39.1903 14.3785 38.582 14.5985C37.9867 14.8185 37.3267 14.9285 36.6019 14.9285ZM48.2942 14.812C47.1036 14.812 46.1783 14.4885 45.5182 13.8414C44.8711 13.1814 44.5476 12.256 44.5476 11.0654V6.40636H42.7228V4.13508H42.9169C43.4346 4.13508 43.8358 3.99919 44.1205 3.72741C44.4052 3.45564 44.5476 3.06091 44.5476 2.54324V1.72791H47.0907V4.13508H49.5172V6.40636H47.0907V10.9295C47.0907 11.2789 47.1489 11.5766 47.2654 11.8225C47.3948 12.0684 47.5889 12.256 47.8477 12.3855C48.1195 12.5149 48.4625 12.5796 48.8766 12.5796C48.9672 12.5796 49.0707 12.5731 49.1872 12.5602C49.3166 12.5472 49.4396 12.5343 49.5561 12.5213V14.6956C49.3749 14.7214 49.1678 14.7473 48.9349 14.7732C48.7019 14.7991 48.4884 14.812 48.2942 14.812ZM52.7802 18.9663C52.4955 18.9663 52.2173 18.9405 51.9455 18.8887C51.6737 18.8499 51.4278 18.7722 51.2078 18.6557V16.5398C51.376 16.5786 51.5766 16.6174 51.8096 16.6562C52.0555 16.6951 52.282 16.7145 52.489 16.7145C53.0714 16.7145 53.492 16.5786 53.7509 16.3068C54.0226 16.048 54.2621 15.6985 54.4691 15.2585L55.168 13.6279L55.1292 15.7632L50.5284 4.13508H53.2655L56.488 12.7155H55.5174L58.7205 4.13508H61.4771L56.8763 15.7632C56.6045 16.4362 56.2745 17.0121 55.8862 17.491C55.498 17.9698 55.045 18.3322 54.5274 18.5781C54.0226 18.8369 53.4403 18.9663 52.7802 18.9663ZM71.1188 14.9285C70.2258 14.9285 69.4428 14.7667 68.7699 14.4432C68.0969 14.1196 67.5663 13.6667 67.178 13.0843C66.8027 12.489 66.6151 11.7966 66.6151 11.0072C66.6151 10.3471 66.7315 9.77769 66.9645 9.29884C67.2104 8.80705 67.508 8.39292 67.8575 8.05643C68.2069 7.70701 68.5499 7.42229 68.8863 7.20228C69.2358 6.98227 69.527 6.80755 69.7599 6.67814L71.0217 5.99869C71.4359 5.77868 71.8112 5.55867 72.1477 5.33866C72.4971 5.10571 72.7753 4.85335 72.9824 4.58157C73.1895 4.29685 73.293 3.96684 73.293 3.59153C73.293 3.16445 73.1507 2.80855 72.8659 2.52383C72.5942 2.22617 72.2447 2.07734 71.8176 2.07734C71.4035 2.07734 71.0476 2.22617 70.75 2.52383C70.4652 2.80855 70.3229 3.17092 70.3229 3.61094C70.3229 3.93448 70.3941 4.25156 70.5364 4.56216C70.6917 4.87276 70.8729 5.16395 71.08 5.43573C71.287 5.69456 71.4876 5.92751 71.6818 6.13458L79.3498 14.6956H76.302L69.8376 7.60994C69.5399 7.2864 69.2422 6.93697 68.9446 6.56166C68.6469 6.17341 68.401 5.74633 68.2069 5.28043C68.0128 4.81452 67.9157 4.29685 67.9157 3.72741C67.9157 2.97679 68.0904 2.32323 68.4399 1.76674C68.8022 1.1973 69.2746 0.763751 69.857 0.466091C70.4523 0.155489 71.0994 0.000187958 71.7982 0.000187958C72.51 0.000187958 73.1507 0.155489 73.7201 0.466091C74.3025 0.776693 74.7619 1.20377 75.0984 1.74732C75.4478 2.29088 75.6225 2.91208 75.6225 3.61094C75.6225 4.32273 75.4543 4.931 75.1178 5.43573C74.7943 5.92751 74.3995 6.34812 73.9336 6.69755C73.4807 7.03403 73.0471 7.31875 72.633 7.5517L71.3323 8.32821C71.0476 8.48351 70.7435 8.68411 70.4199 8.93C70.1093 9.16295 69.844 9.44767 69.624 9.78416C69.404 10.1077 69.294 10.5024 69.294 10.9683C69.294 11.5248 69.4622 11.9648 69.7987 12.2884C70.1482 12.599 70.6205 12.7543 71.2159 12.7543C71.5782 12.7543 71.9018 12.6961 72.1865 12.5796C72.4712 12.4502 72.7236 12.2949 72.9436 12.1137C73.1636 11.9195 73.3512 11.719 73.5065 11.5119C73.6619 11.2919 73.8042 11.0913 73.9336 10.9101L76.2049 7.60994H78.8644L76.2437 11.6866C76.0496 12.0101 75.8102 12.3596 75.5255 12.7349C75.2407 13.1102 74.8978 13.4661 74.4966 13.8026C74.0954 14.1261 73.6166 14.3979 73.0601 14.6179C72.5165 14.825 71.8694 14.9285 71.1188 14.9285ZM90.5451 14.9285C89.6262 14.9285 88.7721 14.7603 87.9826 14.4238C87.2061 14.0873 86.5331 13.6214 85.9637 13.0261C85.4072 12.4178 84.9995 11.7125 84.7407 10.9101L86.9343 9.95887C87.2838 10.7871 87.7885 11.4407 88.4485 11.9195C89.1085 12.3855 89.8527 12.6184 90.681 12.6184C91.1469 12.6184 91.5481 12.5472 91.8846 12.4049C92.234 12.2496 92.4993 12.0425 92.6805 11.7837C92.8746 11.5248 92.9717 11.2142 92.9717 10.8519C92.9717 10.4248 92.8422 10.0753 92.5834 9.80357C92.3375 9.51885 91.9622 9.29884 91.4575 9.14354L88.6815 8.25056C87.5555 7.90113 86.7079 7.37699 86.1384 6.67814C85.569 5.97928 85.2843 5.15748 85.2843 4.21273C85.2843 3.38446 85.4849 2.65325 85.8861 2.0191C86.3002 1.38496 86.8696 0.893169 87.5944 0.543742C88.332 0.181373 89.1733 0.000187958 90.118 0.000187958C90.9851 0.000187958 91.781 0.155489 92.5058 0.466091C93.2305 0.763751 93.8517 1.18436 94.3694 1.72791C94.9 2.25852 95.2947 2.8862 95.5535 3.61094L93.3793 4.58157C93.0946 3.85683 92.6675 3.30034 92.0981 2.91208C91.5287 2.51089 90.8686 2.31029 90.118 2.31029C89.678 2.31029 89.2897 2.38794 88.9532 2.54324C88.6168 2.6856 88.3515 2.89267 88.1573 3.16445C87.9761 3.42328 87.8856 3.73389 87.8856 4.09625C87.8856 4.49745 88.015 4.85335 88.2738 5.16395C88.5326 5.46161 88.9274 5.69456 89.458 5.8628L92.1175 6.69755C93.2693 7.07286 94.13 7.59053 94.6994 8.25056C95.2818 8.91059 95.573 9.72592 95.573 10.6966C95.573 11.5248 95.3594 12.256 94.9323 12.8902C94.5053 13.5243 93.9164 14.0226 93.1658 14.385C92.4152 14.7473 91.5416 14.9285 90.5451 14.9285ZM102.745 14.9285C101.658 14.9285 100.707 14.6826 99.8915 14.1908C99.0762 13.699 98.442 13.0325 97.9891 12.1913C97.5361 11.3501 97.3096 10.4183 97.3096 9.3959C97.3096 8.33468 97.5361 7.3964 97.9891 6.58107C98.455 5.7528 99.0826 5.09924 99.8721 4.6204C100.674 4.14155 101.567 3.90213 102.551 3.90213C103.379 3.90213 104.104 4.03802 104.725 4.30979C105.359 4.58157 105.896 4.95688 106.337 5.43573C106.777 5.91457 107.113 6.4646 107.346 7.0858C107.579 7.69406 107.695 8.35409 107.695 9.06589C107.695 9.24707 107.682 9.43473 107.657 9.62886C107.644 9.82298 107.611 9.99123 107.56 10.1336H99.4062V8.19232H106.123L104.919 9.10471C105.036 8.50939 105.004 7.97878 104.822 7.51288C104.654 7.04698 104.369 6.67814 103.968 6.40636C103.58 6.13458 103.108 5.99869 102.551 5.99869C102.02 5.99869 101.548 6.13458 101.134 6.40636C100.72 6.66519 100.403 7.05345 100.183 7.57112C99.9756 8.07585 99.898 8.69058 99.9497 9.41532C99.898 10.0624 99.9821 10.6383 100.202 11.143C100.435 11.6348 100.772 12.0166 101.212 12.2884C101.665 12.5602 102.182 12.6961 102.765 12.6961C103.347 12.6961 103.839 12.5731 104.24 12.3272C104.654 12.0813 104.978 11.7513 105.211 11.3372L107.268 12.3466C107.061 12.8514 106.738 13.2978 106.298 13.6861C105.858 14.0744 105.334 14.3785 104.725 14.5985C104.13 14.8185 103.47 14.9285 102.745 14.9285ZM114.709 14.9285C113.661 14.9285 112.716 14.6891 111.875 14.2102C111.047 13.7185 110.393 13.0584 109.914 12.2301C109.435 11.3889 109.196 10.4442 109.196 9.3959C109.196 8.34762 109.435 7.40934 109.914 6.58107C110.393 5.7528 111.047 5.09924 111.875 4.6204C112.716 4.14155 113.661 3.90213 114.709 3.90213C115.46 3.90213 116.159 4.03802 116.806 4.30979C117.453 4.56863 118.009 4.931 118.475 5.3969C118.954 5.84986 119.297 6.39342 119.504 7.02756L117.272 7.99819C117.078 7.46758 116.748 7.0405 116.282 6.71696C115.829 6.39342 115.305 6.23164 114.709 6.23164C114.153 6.23164 113.655 6.36753 113.214 6.63931C112.787 6.91109 112.451 7.2864 112.205 7.76524C111.959 8.24409 111.836 8.79411 111.836 9.41532C111.836 10.0365 111.959 10.5865 112.205 11.0654C112.451 11.5442 112.787 11.9195 113.214 12.1913C113.655 12.4631 114.153 12.599 114.709 12.599C115.318 12.599 115.848 12.4372 116.301 12.1137C116.754 11.7901 117.078 11.3566 117.272 10.813L119.504 11.8225C119.297 12.4178 118.961 12.9549 118.495 13.4337C118.029 13.8996 117.472 14.2685 116.825 14.5403C116.178 14.7991 115.473 14.9285 114.709 14.9285ZM125.2 14.9285C124.384 14.9285 123.673 14.7473 123.064 14.385C122.469 14.0226 122.01 13.5179 121.686 12.8708C121.376 12.2237 121.22 11.4666 121.22 10.5995V4.13508H123.763V10.3859C123.763 10.826 123.847 11.2142 124.016 11.5507C124.197 11.8743 124.449 12.1331 124.773 12.3272C125.109 12.5084 125.485 12.599 125.899 12.599C126.313 12.599 126.682 12.5084 127.005 12.3272C127.329 12.1331 127.581 11.8678 127.762 11.5313C127.943 11.1948 128.034 10.7936 128.034 10.3277V4.13508H130.577V14.6956H128.17V12.6184L128.383 12.9872C128.138 13.6343 127.73 14.1196 127.161 14.4432C126.604 14.7667 125.95 14.9285 125.2 14.9285ZM132.941 14.6956V4.13508H135.329V6.48401L135.135 6.13458C135.381 5.34513 135.762 4.79511 136.28 4.48451C136.811 4.17391 137.445 4.0186 138.182 4.0186H138.804V6.27047H137.891C137.167 6.27047 136.584 6.49695 136.144 6.94991C135.704 7.38993 135.484 8.01114 135.484 8.81353V14.6956H132.941ZM140.202 14.6956V4.13508H142.745V14.6956H140.202ZM140.202 2.95091V0.233139H142.745V2.95091H140.202ZM149.907 14.812C148.717 14.812 147.791 14.4885 147.131 13.8414C146.484 13.1814 146.161 12.256 146.161 11.0654V6.40636H144.336V4.13508H144.53C145.048 4.13508 145.449 3.99919 145.734 3.72741C146.018 3.45564 146.161 3.06091 146.161 2.54324V1.72791H148.704V4.13508H151.13V6.40636H148.704V10.9295C148.704 11.2789 148.762 11.5766 148.878 11.8225C149.008 12.0684 149.202 12.256 149.461 12.3855C149.733 12.5149 150.076 12.5796 150.49 12.5796C150.58 12.5796 150.684 12.5731 150.8 12.5602C150.93 12.5472 151.053 12.5343 151.169 12.5213V14.6956C150.988 14.7214 150.781 14.7473 150.548 14.7732C150.315 14.7991 150.101 14.812 149.907 14.812ZM154.393 18.9663C154.109 18.9663 153.83 18.9405 153.559 18.8887C153.287 18.8499 153.041 18.7722 152.821 18.6557V16.5398C152.989 16.5786 153.19 16.6174 153.423 16.6562C153.669 16.6951 153.895 16.7145 154.102 16.7145C154.684 16.7145 155.105 16.5786 155.364 16.3068C155.636 16.048 155.875 15.6985 156.082 15.2585L156.781 13.6279L156.742 15.7632L152.141 4.13508H154.879L158.101 12.7155H157.13L160.334 4.13508H163.09L158.489 15.7632C158.218 16.4362 157.888 17.0121 157.499 17.491C157.111 17.9698 156.658 18.3322 156.14 18.5781C155.636 18.8369 155.053 18.9663 154.393 18.9663Z" fill="url(#paint0_linear_1_787)"/>
<path d="M172.965 14.9285C171.955 14.9285 171.056 14.6891 170.266 14.2102C169.477 13.7314 168.856 13.0778 168.403 12.2496C167.95 11.4083 167.723 10.4701 167.723 9.43473C167.723 8.38645 167.943 7.45464 168.383 6.63931C168.836 5.82398 169.445 5.18336 170.208 4.71746C170.985 4.23861 171.852 3.99919 172.809 3.99919C173.586 3.99919 174.272 4.14155 174.867 4.42627C175.475 4.69805 175.987 5.07336 176.401 5.5522C176.828 6.01811 177.151 6.55519 177.371 7.16345C177.604 7.75877 177.721 8.37998 177.721 9.02706C177.721 9.16942 177.708 9.3312 177.682 9.51238C177.669 9.68062 177.65 9.8424 177.624 9.9977H169.043V8.44468H176.576L175.721 9.14354C175.838 8.47057 175.773 7.86878 175.527 7.33817C175.281 6.80755 174.919 6.38695 174.44 6.07634C173.961 5.76574 173.418 5.61044 172.809 5.61044C172.201 5.61044 171.645 5.76574 171.14 6.07634C170.635 6.38695 170.241 6.83344 169.956 7.41582C169.684 7.98525 169.574 8.66469 169.626 9.45414C169.574 10.2177 169.691 10.8907 169.975 11.4731C170.273 12.0425 170.687 12.489 171.218 12.8125C171.761 13.1231 172.35 13.2784 172.984 13.2784C173.683 13.2784 174.272 13.1167 174.751 12.7931C175.23 12.4696 175.618 12.0554 175.915 11.5507L177.43 12.3272C177.223 12.8061 176.899 13.2461 176.459 13.6473C176.032 14.0355 175.521 14.3461 174.925 14.5791C174.343 14.812 173.69 14.9285 172.965 14.9285ZM180.075 14.6956V4.23214H181.841V6.27047L181.55 6.09576C181.809 5.43573 182.223 4.92453 182.793 4.56216C183.375 4.18685 184.054 3.99919 184.831 3.99919C185.582 3.99919 186.248 4.16743 186.83 4.50392C187.426 4.84041 187.892 5.30631 188.228 5.90163C188.578 6.49695 188.752 7.16992 188.752 7.92054V14.6956H186.927V8.50292C186.927 7.92054 186.824 7.42876 186.617 7.02756C186.41 6.62637 186.112 6.31577 185.724 6.09576C185.349 5.8628 184.915 5.74633 184.423 5.74633C183.931 5.74633 183.491 5.8628 183.103 6.09576C182.728 6.31577 182.43 6.63284 182.21 7.04698C181.99 7.44817 181.88 7.93349 181.88 8.50292V14.6956H180.075ZM195.082 14.9285C194.034 14.9285 193.122 14.6697 192.345 14.152C191.569 13.6343 191.019 12.9355 190.695 12.0554L192.132 11.3566C192.429 11.9778 192.837 12.4696 193.355 12.8319C193.872 13.1943 194.448 13.3755 195.082 13.3755C195.652 13.3755 196.124 13.2396 196.499 12.9678C196.875 12.6961 197.062 12.3402 197.062 11.9001C197.062 11.5895 196.972 11.3436 196.791 11.1625C196.622 10.9683 196.415 10.8195 196.169 10.716C195.924 10.5995 195.697 10.5154 195.49 10.4636L193.918 10.0171C192.973 9.74533 192.28 9.35708 191.84 8.85235C191.413 8.34762 191.2 7.75877 191.2 7.0858C191.2 6.4646 191.355 5.92751 191.666 5.47455C191.989 5.00865 192.423 4.64628 192.966 4.38744C193.523 4.12861 194.144 3.99919 194.83 3.99919C195.749 3.99919 196.571 4.23214 197.295 4.69805C198.033 5.16395 198.557 5.81751 198.868 6.65872L197.392 7.33817C197.159 6.79461 196.81 6.36753 196.344 6.05693C195.878 5.73339 195.354 5.57161 194.772 5.57161C194.241 5.57161 193.82 5.7075 193.51 5.97928C193.199 6.23812 193.044 6.56813 193.044 6.96932C193.044 7.26698 193.122 7.51288 193.277 7.70701C193.432 7.88819 193.62 8.03055 193.84 8.13408C194.06 8.22468 194.273 8.30233 194.48 8.36703L196.189 8.87176C197.043 9.11766 197.703 9.49944 198.169 10.0171C198.648 10.5348 198.887 11.156 198.887 11.8807C198.887 12.4631 198.725 12.9872 198.402 13.4531C198.078 13.919 197.632 14.2814 197.062 14.5403C196.493 14.7991 195.833 14.9285 195.082 14.9285ZM204.958 14.9285C204.208 14.9285 203.528 14.7538 202.92 14.4044C202.325 14.0549 201.859 13.5696 201.522 12.9484C201.199 12.3143 201.037 11.5895 201.037 10.7742V4.23214H202.842V10.5801C202.842 11.0977 202.946 11.5507 203.153 11.939C203.373 12.3272 203.671 12.6313 204.046 12.8514C204.434 13.0714 204.874 13.1814 205.366 13.1814C205.858 13.1814 206.291 13.0714 206.667 12.8514C207.055 12.6313 207.353 12.3143 207.56 11.9001C207.78 11.486 207.89 10.9942 207.89 10.4248V4.23214H209.714V14.6956H207.948V12.6572L208.239 12.8319C207.993 13.492 207.573 14.0096 206.977 14.385C206.395 14.7473 205.722 14.9285 204.958 14.9285ZM212.511 14.6956V4.23214H214.278V6.15399L214.084 5.88222C214.33 5.2869 214.705 4.84688 215.21 4.56216C215.714 4.2645 216.329 4.11567 217.054 4.11567H217.695V5.82398H216.782C216.044 5.82398 215.449 6.05693 214.996 6.52283C214.543 6.9758 214.317 7.62288 214.317 8.4641V14.6956H212.511ZM224.113 14.9285C223.103 14.9285 222.204 14.6891 221.414 14.2102C220.625 13.7314 220.004 13.0778 219.551 12.2496C219.098 11.4083 218.871 10.4701 218.871 9.43473C218.871 8.38645 219.091 7.45464 219.531 6.63931C219.984 5.82398 220.592 5.18336 221.356 4.71746C222.132 4.23861 223 3.99919 223.957 3.99919C224.734 3.99919 225.42 4.14155 226.015 4.42627C226.623 4.69805 227.134 5.07336 227.549 5.5522C227.976 6.01811 228.299 6.55519 228.519 7.16345C228.752 7.75877 228.869 8.37998 228.869 9.02706C228.869 9.16942 228.856 9.3312 228.83 9.51238C228.817 9.68062 228.797 9.8424 228.772 9.9977H220.191V8.44468H227.723L226.869 9.14354C226.986 8.47057 226.921 7.86878 226.675 7.33817C226.429 6.80755 226.067 6.38695 225.588 6.07634C225.109 5.76574 224.565 5.61044 223.957 5.61044C223.349 5.61044 222.792 5.76574 222.288 6.07634C221.783 6.38695 221.388 6.83344 221.104 7.41582C220.832 7.98525 220.722 8.66469 220.774 9.45414C220.722 10.2177 220.838 10.8907 221.123 11.4731C221.421 12.0425 221.835 12.489 222.365 12.8125C222.909 13.1231 223.498 13.2784 224.132 13.2784C224.831 13.2784 225.42 13.1167 225.898 12.7931C226.377 12.4696 226.766 12.0554 227.063 11.5507L228.577 12.3272C228.37 12.8061 228.047 13.2461 227.607 13.6473C227.18 14.0355 226.669 14.3461 226.073 14.5791C225.491 14.812 224.837 14.9285 224.113 14.9285ZM235.979 14.9285C234.995 14.9285 234.109 14.6891 233.319 14.2102C232.543 13.7314 231.928 13.0778 231.475 12.2496C231.022 11.4213 230.795 10.496 230.795 9.47355C230.795 8.42527 231.022 7.49347 231.475 6.67814C231.928 5.84986 232.543 5.1963 233.319 4.71746C234.109 4.23861 234.995 3.99919 235.979 3.99919C236.846 3.99919 237.616 4.18685 238.289 4.56216C238.962 4.92453 239.492 5.41631 239.881 6.03752L239.589 6.48401V0.000187958H241.414V14.6956H239.648V12.4631L239.881 12.7737C239.518 13.4596 238.988 13.9902 238.289 14.3655C237.603 14.7409 236.833 14.9285 235.979 14.9285ZM236.134 13.1814C236.794 13.1814 237.383 13.0196 237.9 12.6961C238.418 12.3725 238.826 11.9325 239.123 11.376C239.434 10.8066 239.589 10.1724 239.589 9.47355C239.589 8.76176 239.434 8.12761 239.123 7.57112C238.826 7.00168 238.418 6.55519 237.9 6.23164C237.383 5.9081 236.794 5.74633 236.134 5.74633C235.487 5.74633 234.898 5.91457 234.367 6.25106C233.85 6.5746 233.442 7.01462 233.144 7.57112C232.847 8.11467 232.698 8.74882 232.698 9.47355C232.698 10.1724 232.847 10.8066 233.144 11.376C233.442 11.9325 233.85 12.3725 234.367 12.6961C234.885 13.0196 235.474 13.1814 236.134 13.1814ZM251.815 14.812C250.793 14.812 250.004 14.5208 249.447 13.9385C248.904 13.3561 248.632 12.5343 248.632 11.4731V5.95987H246.729V4.23214H247.118C247.583 4.23214 247.952 4.08978 248.224 3.80506C248.496 3.52035 248.632 3.14504 248.632 2.67913V1.82498H250.437V4.23214H252.786V5.95987H250.437V11.4148C250.437 11.7642 250.489 12.0684 250.592 12.3272C250.709 12.586 250.897 12.7931 251.155 12.9484C251.414 13.0908 251.757 13.162 252.184 13.162C252.275 13.162 252.385 13.1555 252.514 13.1425C252.657 13.1296 252.786 13.1167 252.903 13.1037V14.6956C252.734 14.7344 252.547 14.7603 252.34 14.7732C252.132 14.7991 251.958 14.812 251.815 14.812ZM255.261 14.6956V0.000187958H257.066V6.27047L256.736 6.09576C256.995 5.43573 257.409 4.92453 257.979 4.56216C258.561 4.18685 259.24 3.99919 260.017 3.99919C260.768 3.99919 261.434 4.16743 262.016 4.50392C262.612 4.84041 263.078 5.30631 263.414 5.90163C263.764 6.49695 263.938 7.16992 263.938 7.92054V14.6956H262.114V8.50292C262.114 7.92054 262.004 7.42876 261.783 7.02756C261.576 6.62637 261.285 6.31577 260.91 6.09576C260.535 5.8628 260.101 5.74633 259.609 5.74633C259.13 5.74633 258.697 5.8628 258.309 6.09576C257.92 6.31577 257.616 6.63284 257.396 7.04698C257.176 7.44817 257.066 7.93349 257.066 8.50292V14.6956H255.261ZM266.522 14.6956V4.23214H268.288V6.15399L268.094 5.88222C268.34 5.2869 268.715 4.84688 269.22 4.56216C269.725 4.2645 270.34 4.11567 271.064 4.11567H271.705V5.82398H270.792C270.055 5.82398 269.459 6.05693 269.007 6.52283C268.554 6.9758 268.327 7.62288 268.327 8.4641V14.6956H266.522ZM278.278 14.9285C277.269 14.9285 276.356 14.6956 275.541 14.2297C274.726 13.7508 274.079 13.0972 273.6 12.269C273.121 11.4407 272.881 10.5024 272.881 9.45414C272.881 8.40586 273.114 7.47405 273.58 6.65872C274.059 5.84339 274.706 5.1963 275.522 4.71746C276.337 4.23861 277.256 3.99919 278.278 3.99919C279.288 3.99919 280.2 4.23861 281.015 4.71746C281.831 5.18336 282.471 5.82398 282.937 6.63931C283.416 7.45464 283.655 8.39292 283.655 9.45414C283.655 10.5154 283.41 11.4601 282.918 12.2884C282.426 13.1037 281.772 13.7508 280.957 14.2297C280.155 14.6956 279.262 14.9285 278.278 14.9285ZM278.278 13.1814C278.925 13.1814 279.508 13.0196 280.025 12.6961C280.556 12.3725 280.97 11.926 281.268 11.3566C281.578 10.7871 281.734 10.153 281.734 9.45414C281.734 8.74235 281.578 8.11467 281.268 7.57112C280.97 7.01462 280.556 6.5746 280.025 6.25106C279.508 5.91457 278.925 5.74633 278.278 5.74633C277.618 5.74633 277.023 5.91457 276.492 6.25106C275.975 6.5746 275.56 7.01462 275.25 7.57112C274.939 8.11467 274.784 8.74235 274.784 9.45414C274.784 10.153 274.939 10.7871 275.25 11.3566C275.56 11.926 275.975 12.3725 276.492 12.6961C277.023 13.0196 277.618 13.1814 278.278 13.1814ZM289.718 14.9285C288.967 14.9285 288.288 14.7538 287.68 14.4044C287.084 14.0549 286.618 13.5696 286.282 12.9484C285.958 12.3143 285.797 11.5895 285.797 10.7742V4.23214H287.602V10.5801C287.602 11.0977 287.706 11.5507 287.913 11.939C288.133 12.3272 288.43 12.6313 288.806 12.8514C289.194 13.0714 289.634 13.1814 290.126 13.1814C290.617 13.1814 291.051 13.0714 291.426 12.8514C291.815 12.6313 292.112 12.3143 292.319 11.9001C292.539 11.486 292.649 10.9942 292.649 10.4248V4.23214H294.474V14.6956H292.708V12.6572L292.999 12.8319C292.753 13.492 292.332 14.0096 291.737 14.385C291.155 14.7473 290.482 14.9285 289.718 14.9285ZM302.26 18.9663C301.522 18.9663 300.836 18.8499 300.202 18.6169C299.581 18.384 299.044 18.0604 298.591 17.6463C298.151 17.2451 297.815 16.7727 297.582 16.2292L299.271 15.4526C299.452 15.9444 299.795 16.3586 300.299 16.6951C300.817 17.0445 301.464 17.2192 302.241 17.2192C302.836 17.2192 303.373 17.1027 303.852 16.8698C304.344 16.6498 304.732 16.3133 305.017 15.8603C305.301 15.4203 305.444 14.8832 305.444 14.2491V11.9001L305.774 12.2496C305.411 12.9614 304.887 13.5049 304.201 13.8802C303.528 14.2555 302.784 14.4432 301.969 14.4432C300.985 14.4432 300.105 14.2167 299.329 13.7637C298.552 13.2978 297.944 12.6702 297.504 11.8807C297.064 11.0783 296.844 10.1918 296.844 9.22119C296.844 8.23762 297.064 7.35111 297.504 6.56166C297.944 5.77221 298.546 5.15101 299.309 4.69805C300.086 4.23214 300.966 3.99919 301.949 3.99919C302.765 3.99919 303.502 4.18685 304.162 4.56216C304.835 4.92453 305.373 5.42926 305.774 6.07634L305.502 6.56166V4.23214H307.269V14.2491C307.269 15.155 307.055 15.9638 306.628 16.6756C306.201 17.3874 305.606 17.9439 304.842 18.3451C304.091 18.7593 303.231 18.9663 302.26 18.9663ZM302.124 12.6961C302.745 12.6961 303.302 12.5408 303.794 12.2301C304.298 11.9195 304.7 11.5054 304.997 10.9877C305.295 10.4571 305.444 9.86828 305.444 9.22119C305.444 8.58704 305.295 8.00467 304.997 7.47405C304.7 6.94344 304.298 6.52283 303.794 6.21223C303.302 5.90163 302.745 5.74633 302.124 5.74633C301.49 5.74633 300.914 5.90163 300.396 6.21223C299.879 6.52283 299.471 6.94344 299.173 7.47405C298.889 7.99172 298.746 8.5741 298.746 9.22119C298.746 9.86828 298.889 10.4571 299.173 10.9877C299.471 11.5054 299.872 11.9195 300.377 12.2301C300.895 12.5408 301.477 12.6961 302.124 12.6961ZM310.067 14.6956V0.000187958H311.873V6.27047L311.543 6.09576C311.802 5.43573 312.216 4.92453 312.785 4.56216C313.368 4.18685 314.047 3.99919 314.824 3.99919C315.574 3.99919 316.241 4.16743 316.823 4.50392C317.418 4.84041 317.884 5.30631 318.221 5.90163C318.57 6.49695 318.745 7.16992 318.745 7.92054V14.6956H316.92V8.50292C316.92 7.92054 316.81 7.42876 316.59 7.02756C316.383 6.62637 316.092 6.31577 315.716 6.09576C315.341 5.8628 314.908 5.74633 314.416 5.74633C313.937 5.74633 313.503 5.8628 313.115 6.09576C312.727 6.31577 312.423 6.63284 312.203 7.04698C311.983 7.44817 311.873 7.93349 311.873 8.50292V14.6956H310.067ZM324.684 14.6956V0.000187958H326.489V6.27047L326.159 6.09576C326.418 5.43573 326.832 4.92453 327.402 4.56216C327.984 4.18685 328.663 3.99919 329.44 3.99919C330.19 3.99919 330.857 4.16743 331.439 4.50392C332.035 4.84041 332.501 5.30631 332.837 5.90163C333.186 6.49695 333.361 7.16992 333.361 7.92054V14.6956H331.536V8.50292C331.536 7.92054 331.426 7.42876 331.206 7.02756C330.999 6.62637 330.708 6.31577 330.333 6.09576C329.958 5.8628 329.524 5.74633 329.032 5.74633C328.553 5.74633 328.12 5.8628 327.732 6.09576C327.343 6.31577 327.039 6.63284 326.819 7.04698C326.599 7.44817 326.489 7.93349 326.489 8.50292V14.6956H324.684ZM335.945 14.6956V4.23214H337.75V14.6956H335.945ZM335.945 2.56266V0.233139H337.75V2.56266H335.945ZM345.54 18.9663C344.803 18.9663 344.117 18.8499 343.483 18.6169C342.861 18.384 342.324 18.0604 341.871 17.6463C341.431 17.2451 341.095 16.7727 340.862 16.2292L342.551 15.4526C342.732 15.9444 343.075 16.3586 343.58 16.6951C344.097 17.0445 344.744 17.2192 345.521 17.2192C346.116 17.2192 346.653 17.1027 347.132 16.8698C347.624 16.6498 348.012 16.3133 348.297 15.8603C348.582 15.4203 348.724 14.8832 348.724 14.2491V11.9001L349.054 12.2496C348.692 12.9614 348.168 13.5049 347.482 13.8802C346.809 14.2555 346.065 14.4432 345.249 14.4432C344.266 14.4432 343.386 14.2167 342.609 13.7637C341.833 13.2978 341.224 12.6702 340.784 11.8807C340.344 11.0783 340.124 10.1918 340.124 9.22119C340.124 8.23762 340.344 7.35111 340.784 6.56166C341.224 5.77221 341.826 5.15101 342.59 4.69805C343.366 4.23214 344.246 3.99919 345.23 3.99919C346.045 3.99919 346.783 4.18685 347.443 4.56216C348.116 4.92453 348.653 5.42926 349.054 6.07634L348.782 6.56166V4.23214H350.549V14.2491C350.549 15.155 350.335 15.9638 349.908 16.6756C349.481 17.3874 348.886 17.9439 348.122 18.3451C347.372 18.7593 346.511 18.9663 345.54 18.9663ZM345.405 12.6961C346.026 12.6961 346.582 12.5408 347.074 12.2301C347.579 11.9195 347.98 11.5054 348.278 10.9877C348.575 10.4571 348.724 9.86828 348.724 9.22119C348.724 8.58704 348.575 8.00467 348.278 7.47405C347.98 6.94344 347.579 6.52283 347.074 6.21223C346.582 5.90163 346.026 5.74633 345.405 5.74633C344.77 5.74633 344.194 5.90163 343.677 6.21223C343.159 6.52283 342.751 6.94344 342.454 7.47405C342.169 7.99172 342.027 8.5741 342.027 9.22119C342.027 9.86828 342.169 10.4571 342.454 10.9877C342.751 11.5054 343.153 11.9195 343.657 12.2301C344.175 12.5408 344.757 12.6961 345.405 12.6961ZM353.348 14.6956V0.000187958H355.153V6.27047L354.823 6.09576C355.082 5.43573 355.496 4.92453 356.066 4.56216C356.648 4.18685 357.327 3.99919 358.104 3.99919C358.854 3.99919 359.521 4.16743 360.103 4.50392C360.699 4.84041 361.165 5.30631 361.501 5.90163C361.85 6.49695 362.025 7.16992 362.025 7.92054V14.6956H360.2V8.50292C360.2 7.92054 360.09 7.42876 359.87 7.02756C359.663 6.62637 359.372 6.31577 358.997 6.09576C358.622 5.8628 358.188 5.74633 357.696 5.74633C357.217 5.74633 356.784 5.8628 356.396 6.09576C356.007 6.31577 355.703 6.63284 355.483 7.04698C355.263 7.44817 355.153 7.93349 355.153 8.50292V14.6956H353.348ZM364.744 10.2889V8.63881H372.024V10.2889H364.744ZM379.755 14.9285C378.745 14.9285 377.846 14.6891 377.057 14.2102C376.267 13.7314 375.646 13.0778 375.193 12.2496C374.74 11.4083 374.513 10.4701 374.513 9.43473C374.513 8.38645 374.733 7.45464 375.173 6.63931C375.626 5.82398 376.235 5.18336 376.998 4.71746C377.775 4.23861 378.642 3.99919 379.6 3.99919C380.376 3.99919 381.062 4.14155 381.657 4.42627C382.266 4.69805 382.777 5.07336 383.191 5.5522C383.618 6.01811 383.942 6.55519 384.162 7.16345C384.394 7.75877 384.511 8.37998 384.511 9.02706C384.511 9.16942 384.498 9.3312 384.472 9.51238C384.459 9.68062 384.44 9.8424 384.414 9.9977H375.834V8.44468H383.366L382.511 9.14354C382.628 8.47057 382.563 7.86878 382.317 7.33817C382.071 6.80755 381.709 6.38695 381.23 6.07634C380.751 5.76574 380.208 5.61044 379.6 5.61044C378.991 5.61044 378.435 5.76574 377.93 6.07634C377.425 6.38695 377.031 6.83344 376.746 7.41582C376.474 7.98525 376.364 8.66469 376.416 9.45414C376.364 10.2177 376.481 10.8907 376.765 11.4731C377.063 12.0425 377.477 12.489 378.008 12.8125C378.551 13.1231 379.14 13.2784 379.774 13.2784C380.473 13.2784 381.062 13.1167 381.541 12.7931C382.02 12.4696 382.408 12.0554 382.706 11.5507L384.22 12.3272C384.013 12.8061 383.689 13.2461 383.249 13.6473C382.822 14.0355 382.311 14.3461 381.716 14.5791C381.133 14.812 380.48 14.9285 379.755 14.9285ZM386.865 14.6956V4.23214H388.631V6.27047L388.34 6.09576C388.599 5.43573 389.013 4.92453 389.583 4.56216C390.165 4.18685 390.844 3.99919 391.621 3.99919C392.372 3.99919 393.038 4.16743 393.62 4.50392C394.216 4.84041 394.682 5.30631 395.018 5.90163C395.368 6.49695 395.542 7.16992 395.542 7.92054V14.6956H393.718V8.50292C393.718 7.92054 393.614 7.42876 393.407 7.02756C393.2 6.62637 392.902 6.31577 392.514 6.09576C392.139 5.8628 391.705 5.74633 391.213 5.74633C390.722 5.74633 390.282 5.8628 389.893 6.09576C389.518 6.31577 389.22 6.63284 389 7.04698C388.78 7.44817 388.67 7.93349 388.67 8.50292V14.6956H386.865ZM402.882 14.9285C401.898 14.9285 401.012 14.6891 400.222 14.2102C399.446 13.7314 398.831 13.0778 398.378 12.2496C397.925 11.4213 397.699 10.496 397.699 9.47355C397.699 8.42527 397.925 7.49347 398.378 6.67814C398.831 5.84986 399.446 5.1963 400.222 4.71746C401.012 4.23861 401.898 3.99919 402.882 3.99919C403.749 3.99919 404.519 4.18685 405.192 4.56216C405.865 4.92453 406.396 5.41631 406.784 6.03752L406.493 6.48401V0.000187958H408.317V14.6956H406.551V12.4631L406.784 12.7737C406.421 13.4596 405.891 13.9902 405.192 14.3655C404.506 14.7409 403.736 14.9285 402.882 14.9285ZM403.037 13.1814C403.697 13.1814 404.286 13.0196 404.804 12.6961C405.321 12.3725 405.729 11.9325 406.027 11.376C406.337 10.8066 406.493 10.1724 406.493 9.47355C406.493 8.76176 406.337 8.12761 406.027 7.57112C405.729 7.00168 405.321 6.55519 404.804 6.23164C404.286 5.9081 403.697 5.74633 403.037 5.74633C402.39 5.74633 401.801 5.91457 401.271 6.25106C400.753 6.5746 400.345 7.01462 400.048 7.57112C399.75 8.11467 399.601 8.74882 399.601 9.47355C399.601 10.1724 399.75 10.8066 400.048 11.376C400.345 11.9325 400.753 12.3725 401.271 12.6961C401.788 13.0196 402.377 13.1814 403.037 13.1814ZM421.359 14.9285C420.336 14.9285 419.392 14.7473 418.524 14.385C417.657 14.0096 416.907 13.4855 416.273 12.8125C415.638 12.1396 415.14 11.3501 414.778 10.4442C414.428 9.53826 414.254 8.54822 414.254 7.47405C414.254 6.38695 414.428 5.39043 414.778 4.48451C415.127 3.57858 415.619 2.78914 416.253 2.11617C416.887 1.44319 417.638 0.925523 418.505 0.563154C419.372 0.187843 420.317 0.000187958 421.339 0.000187958C422.336 0.000187958 423.229 0.174902 424.018 0.524329C424.821 0.873757 425.494 1.32672 426.037 1.88321C426.594 2.43971 426.988 3.03503 427.221 3.66918L425.513 4.50392C425.177 3.66271 424.652 2.9962 423.941 2.50442C423.229 2.01263 422.362 1.76674 421.339 1.76674C420.33 1.76674 419.43 2.00616 418.641 2.48501C417.864 2.96385 417.256 3.63035 416.816 4.48451C416.376 5.33866 416.156 6.33518 416.156 7.47405C416.156 8.59999 416.376 9.59003 416.816 10.4442C417.269 11.2983 417.884 11.9648 418.66 12.4437C419.45 12.9225 420.349 13.162 421.359 13.162C422.239 13.162 423.035 12.9743 423.746 12.599C424.458 12.2237 425.021 11.706 425.435 11.046C425.849 10.3859 426.057 9.62239 426.057 8.75529V7.86231L426.93 8.67764H421.339V7.02756H427.978V8.3088C427.978 9.31825 427.804 10.2306 427.454 11.046C427.105 11.8613 426.626 12.5602 426.018 13.1425C425.409 13.712 424.704 14.152 423.902 14.4626C423.099 14.7732 422.252 14.9285 421.359 14.9285ZM430.548 14.6956V0.233139H435.654C436.612 0.233139 437.453 0.414324 438.177 0.776694C438.902 1.13906 439.465 1.65673 439.866 2.3297C440.281 3.00268 440.488 3.79212 440.488 4.69805C440.488 5.60397 440.281 6.39342 439.866 7.06639C439.465 7.72642 438.902 8.24409 438.177 8.6194C437.466 8.98177 436.624 9.16295 435.654 9.16295H432.451V14.6956H430.548ZM432.451 7.41582H435.712C436.294 7.41582 436.799 7.30581 437.226 7.0858C437.653 6.86579 437.983 6.54872 438.216 6.13458C438.449 5.72045 438.566 5.2416 438.566 4.69805C438.566 4.14155 438.449 3.66271 438.216 3.26151C437.983 2.84737 437.653 2.5303 437.226 2.31029C436.799 2.09028 436.294 1.98028 435.712 1.98028H432.451V7.41582ZM448.03 14.9285C447.111 14.9285 446.27 14.7603 445.506 14.4238C444.743 14.0744 444.096 13.602 443.565 13.0067C443.034 12.4113 442.653 11.7448 442.42 11.0072L444.07 10.3277C444.419 11.2595 444.937 11.9778 445.623 12.4825C446.322 12.9743 447.137 13.2202 448.069 13.2202C448.638 13.2202 449.137 13.1296 449.564 12.9484C449.991 12.7672 450.321 12.5149 450.554 12.1913C450.8 11.8548 450.922 11.4666 450.922 11.0266C450.922 10.4183 450.748 9.93946 450.398 9.59003C450.062 9.22766 449.564 8.95588 448.904 8.7747L446.244 7.95937C445.196 7.63583 444.393 7.12463 443.837 6.42577C443.28 5.72692 443.002 4.92453 443.002 4.0186C443.002 3.22916 443.19 2.53677 443.565 1.94145C443.953 1.33319 444.484 0.860815 445.157 0.524329C445.843 0.174902 446.619 0.000187958 447.486 0.000187958C448.354 0.000187958 449.137 0.155489 449.835 0.466091C450.547 0.776693 451.149 1.1973 451.641 1.72791C452.133 2.24558 452.495 2.8409 452.728 3.51388L451.097 4.19332C450.787 3.37799 450.321 2.76325 449.699 2.34912C449.078 1.92204 448.347 1.7085 447.506 1.7085C446.988 1.7085 446.529 1.79909 446.128 1.98028C445.739 2.14852 445.435 2.40088 445.215 2.73737C445.008 3.06091 444.905 3.44917 444.905 3.90213C444.905 4.43274 445.073 4.90511 445.409 5.31925C445.746 5.73339 446.257 6.05046 446.943 6.27047L449.369 6.98874C450.508 7.33817 451.369 7.83642 451.951 8.48351C452.534 9.1306 452.825 9.93299 452.825 10.8907C452.825 11.6801 452.618 12.379 452.204 12.9872C451.803 13.5955 451.24 14.0744 450.515 14.4238C449.803 14.7603 448.975 14.9285 448.03 14.9285ZM464.168 14.9285C463.327 14.9285 462.557 14.7409 461.858 14.3655C461.172 13.9902 460.642 13.4596 460.266 12.7737L460.519 12.4631V14.6956H458.752V0.000187958H460.558V6.48401L460.286 6.03752C460.674 5.41631 461.205 4.92453 461.878 4.56216C462.551 4.18685 463.321 3.99919 464.188 3.99919C465.171 3.99919 466.051 4.23861 466.828 4.71746C467.617 5.1963 468.239 5.84986 468.692 6.67814C469.145 7.49347 469.371 8.42527 469.371 9.47355C469.371 10.496 469.145 11.4213 468.692 12.2496C468.239 13.0778 467.617 13.7314 466.828 14.2102C466.051 14.6891 465.165 14.9285 464.168 14.9285ZM464.033 13.1814C464.693 13.1814 465.281 13.0196 465.799 12.6961C466.317 12.3725 466.718 11.9325 467.003 11.376C467.3 10.8066 467.449 10.1724 467.449 9.47355C467.449 8.74882 467.3 8.11467 467.003 7.57112C466.718 7.01462 466.317 6.5746 465.799 6.25106C465.281 5.91457 464.693 5.74633 464.033 5.74633C463.373 5.74633 462.777 5.9081 462.247 6.23164C461.729 6.55519 461.315 7.00168 461.004 7.57112C460.707 8.12761 460.558 8.76176 460.558 9.47355C460.558 10.1724 460.707 10.8066 461.004 11.376C461.315 11.9325 461.729 12.3725 462.247 12.6961C462.777 13.0196 463.373 13.1814 464.033 13.1814ZM474.805 14.9285C474.12 14.9285 473.511 14.8056 472.981 14.5597C472.463 14.3008 472.055 13.9514 471.758 13.5114C471.46 13.0584 471.311 12.5408 471.311 11.9584C471.311 11.4019 471.428 10.9036 471.661 10.4636C471.907 10.0106 472.282 9.62886 472.787 9.31825C473.304 9.00765 473.951 8.78764 474.728 8.65822L478.61 8.01761V9.53179L475.136 10.1142C474.463 10.2306 473.971 10.4442 473.66 10.7548C473.362 11.0654 473.214 11.4472 473.214 11.9001C473.214 12.3272 473.382 12.6831 473.718 12.9678C474.068 13.2525 474.501 13.3949 475.019 13.3949C475.679 13.3949 476.248 13.259 476.727 12.9872C477.219 12.7025 477.601 12.3207 477.873 11.8419C478.157 11.3631 478.3 10.8324 478.3 10.2501V7.59053C478.3 7.02109 478.086 6.56166 477.659 6.21223C477.245 5.84986 476.695 5.66868 476.009 5.66868C475.414 5.66868 474.883 5.82398 474.417 6.13458C473.964 6.43224 473.628 6.83344 473.408 7.33817L471.835 6.52283C472.029 6.04399 472.34 5.61691 472.767 5.2416C473.194 4.85335 473.693 4.54922 474.262 4.32921C474.831 4.1092 475.427 3.99919 476.048 3.99919C476.85 3.99919 477.556 4.15449 478.164 4.46509C478.772 4.76276 479.245 5.18336 479.581 5.72692C479.93 6.25753 480.105 6.87873 480.105 7.59053V14.6956H478.339V12.7155L478.669 12.8319C478.449 13.2461 478.151 13.6084 477.776 13.919C477.4 14.2297 476.96 14.4755 476.456 14.6567C475.951 14.8379 475.401 14.9285 474.805 14.9285ZM486.651 14.9285C485.603 14.9285 484.69 14.6697 483.914 14.152C483.137 13.6343 482.587 12.9355 482.264 12.0554L483.7 11.3566C483.998 11.9778 484.406 12.4696 484.923 12.8319C485.441 13.1943 486.017 13.3755 486.651 13.3755C487.22 13.3755 487.693 13.2396 488.068 12.9678C488.443 12.6961 488.631 12.3402 488.631 11.9001C488.631 11.5895 488.54 11.3436 488.359 11.1625C488.191 10.9683 487.984 10.8195 487.738 10.716C487.492 10.5995 487.266 10.5154 487.059 10.4636L485.486 10.0171C484.541 9.74533 483.849 9.35708 483.409 8.85235C482.982 8.34762 482.768 7.75877 482.768 7.0858C482.768 6.4646 482.924 5.92751 483.234 5.47455C483.558 5.00865 483.991 4.64628 484.535 4.38744C485.091 4.12861 485.713 3.99919 486.399 3.99919C487.317 3.99919 488.139 4.23214 488.864 4.69805C489.602 5.16395 490.126 5.81751 490.436 6.65872L488.961 7.33817C488.728 6.79461 488.379 6.36753 487.913 6.05693C487.447 5.73339 486.923 5.57161 486.34 5.57161C485.81 5.57161 485.389 5.7075 485.079 5.97928C484.768 6.23812 484.613 6.56813 484.613 6.96932C484.613 7.26698 484.69 7.51288 484.846 7.70701C485.001 7.88819 485.189 8.03055 485.409 8.13408C485.629 8.22468 485.842 8.30233 486.049 8.36703L487.757 8.87176C488.612 9.11766 489.272 9.49944 489.738 10.0171C490.216 10.5348 490.456 11.156 490.456 11.8807C490.456 12.4631 490.294 12.9872 489.971 13.4531C489.647 13.919 489.201 14.2814 488.631 14.5403C488.062 14.7991 487.402 14.9285 486.651 14.9285ZM497.634 14.9285C496.624 14.9285 495.725 14.6891 494.935 14.2102C494.146 13.7314 493.525 13.0778 493.072 12.2496C492.619 11.4083 492.392 10.4701 492.392 9.43473C492.392 8.38645 492.612 7.45464 493.052 6.63931C493.505 5.82398 494.113 5.18336 494.877 4.71746C495.653 4.23861 496.521 3.99919 497.478 3.99919C498.255 3.99919 498.941 4.14155 499.536 4.42627C500.144 4.69805 500.655 5.07336 501.07 5.5522C501.497 6.01811 501.82 6.55519 502.04 7.16345C502.273 7.75877 502.39 8.37998 502.39 9.02706C502.39 9.16942 502.377 9.3312 502.351 9.51238C502.338 9.68062 502.318 9.8424 502.293 9.9977H493.712V8.44468H501.244L500.39 9.14354C500.507 8.47057 500.442 7.86878 500.196 7.33817C499.95 6.80755 499.588 6.38695 499.109 6.07634C498.63 5.76574 498.086 5.61044 497.478 5.61044C496.87 5.61044 496.313 5.76574 495.809 6.07634C495.304 6.38695 494.909 6.83344 494.625 7.41582C494.353 7.98525 494.243 8.66469 494.295 9.45414C494.243 10.2177 494.359 10.8907 494.644 11.4731C494.942 12.0425 495.356 12.489 495.886 12.8125C496.43 13.1231 497.019 13.2784 497.653 13.2784C498.352 13.2784 498.941 13.1167 499.419 12.7931C499.898 12.4696 500.287 12.0554 500.584 11.5507L502.098 12.3272C501.891 12.8061 501.568 13.2461 501.128 13.6473C500.701 14.0355 500.19 14.3461 499.594 14.5791C499.012 14.812 498.358 14.9285 497.634 14.9285ZM509.5 14.9285C508.516 14.9285 507.63 14.6891 506.84 14.2102C506.064 13.7314 505.449 13.0778 504.996 12.2496C504.543 11.4213 504.316 10.496 504.316 9.47355C504.316 8.42527 504.543 7.49347 504.996 6.67814C505.449 5.84986 506.064 5.1963 506.84 4.71746C507.63 4.23861 508.516 3.99919 509.5 3.99919C510.367 3.99919 511.137 4.18685 511.81 4.56216C512.483 4.92453 513.013 5.41631 513.402 6.03752L513.11 6.48401V0.000187958H514.935V14.6956H513.169V12.4631L513.402 12.7737C513.039 13.4596 512.509 13.9902 511.81 14.3655C511.124 14.7409 510.354 14.9285 509.5 14.9285ZM509.655 13.1814C510.315 13.1814 510.904 13.0196 511.422 12.6961C511.939 12.3725 512.347 11.9325 512.645 11.376C512.955 10.8066 513.11 10.1724 513.11 9.47355C513.11 8.76176 512.955 8.12761 512.645 7.57112C512.347 7.00168 511.939 6.55519 511.422 6.23164C510.904 5.9081 510.315 5.74633 509.655 5.74633C509.008 5.74633 508.419 5.91457 507.888 6.25106C507.371 6.5746 506.963 7.01462 506.665 7.57112C506.368 8.11467 506.219 8.74882 506.219 9.47355C506.219 10.1724 506.368 10.8066 506.665 11.376C506.963 11.9325 507.371 12.3725 507.888 12.6961C508.406 13.0196 508.995 13.1814 509.655 13.1814ZM524.832 14.9285C523.783 14.9285 522.871 14.6697 522.095 14.152C521.318 13.6343 520.768 12.9355 520.444 12.0554L521.881 11.3566C522.179 11.9778 522.586 12.4696 523.104 12.8319C523.622 13.1943 524.198 13.3755 524.832 13.3755C525.401 13.3755 525.874 13.2396 526.249 12.9678C526.624 12.6961 526.812 12.3402 526.812 11.9001C526.812 11.5895 526.721 11.3436 526.54 11.1625C526.372 10.9683 526.165 10.8195 525.919 10.716C525.673 10.5995 525.446 10.5154 525.239 10.4636L523.667 10.0171C522.722 9.74533 522.03 9.35708 521.59 8.85235C521.163 8.34762 520.949 7.75877 520.949 7.0858C520.949 6.4646 521.104 5.92751 521.415 5.47455C521.739 5.00865 522.172 4.64628 522.716 4.38744C523.272 4.12861 523.893 3.99919 524.579 3.99919C525.498 3.99919 526.32 4.23214 527.045 4.69805C527.782 5.16395 528.307 5.81751 528.617 6.65872L527.142 7.33817C526.909 6.79461 526.559 6.36753 526.094 6.05693C525.628 5.73339 525.103 5.57161 524.521 5.57161C523.99 5.57161 523.57 5.7075 523.259 5.97928C522.949 6.23812 522.793 6.56813 522.793 6.96932C522.793 7.26698 522.871 7.51288 523.026 7.70701C523.182 7.88819 523.369 8.03055 523.589 8.13408C523.809 8.22468 524.023 8.30233 524.23 8.36703L525.938 8.87176C526.792 9.11766 527.452 9.49944 527.918 10.0171C528.397 10.5348 528.637 11.156 528.637 11.8807C528.637 12.4631 528.475 12.9872 528.151 13.4531C527.828 13.919 527.381 14.2814 526.812 14.5403C526.242 14.7991 525.582 14.9285 524.832 14.9285ZM535.97 14.9285C534.96 14.9285 534.048 14.6956 533.232 14.2297C532.417 13.7508 531.77 13.0972 531.291 12.269C530.812 11.4407 530.573 10.5024 530.573 9.45414C530.573 8.40586 530.806 7.47405 531.272 6.65872C531.751 5.84339 532.398 5.1963 533.213 4.71746C534.028 4.23861 534.947 3.99919 535.97 3.99919C536.979 3.99919 537.891 4.23861 538.707 4.71746C539.522 5.18336 540.163 5.82398 540.629 6.63931C541.107 7.45464 541.347 8.39292 541.347 9.45414C541.347 10.5154 541.101 11.4601 540.609 12.2884C540.117 13.1037 539.464 13.7508 538.648 14.2297C537.846 14.6956 536.953 14.9285 535.97 14.9285ZM535.97 13.1814C536.617 13.1814 537.199 13.0196 537.717 12.6961C538.247 12.3725 538.661 11.926 538.959 11.3566C539.27 10.7871 539.425 10.153 539.425 9.45414C539.425 8.74235 539.27 8.11467 538.959 7.57112C538.661 7.01462 538.247 6.5746 537.717 6.25106C537.199 5.91457 536.617 5.74633 535.97 5.74633C535.31 5.74633 534.714 5.91457 534.184 6.25106C533.666 6.5746 533.252 7.01462 532.941 7.57112C532.631 8.11467 532.475 8.74235 532.475 9.45414C532.475 10.153 532.631 10.7871 532.941 11.3566C533.252 11.926 533.666 12.3725 534.184 12.6961C534.714 13.0196 535.31 13.1814 535.97 13.1814ZM543.702 14.6956V0.000187958H545.507V14.6956H543.702ZM552.016 14.9285C551.265 14.9285 550.586 14.7538 549.978 14.4044C549.382 14.0549 548.917 13.5696 548.58 12.9484C548.256 12.3143 548.095 11.5895 548.095 10.7742V4.23214H549.9V10.5801C549.9 11.0977 550.004 11.5507 550.211 11.939C550.431 12.3272 550.728 12.6313 551.104 12.8514C551.492 13.0714 551.932 13.1814 552.424 13.1814C552.916 13.1814 553.349 13.0714 553.724 12.8514C554.113 12.6313 554.41 12.3143 554.617 11.9001C554.837 11.486 554.947 10.9942 554.947 10.4248V4.23214H556.772V14.6956H555.006V12.6572L555.297 12.8319C555.051 13.492 554.63 14.0096 554.035 14.385C553.453 14.7473 552.78 14.9285 552.016 14.9285ZM563.82 14.812C562.798 14.812 562.009 14.5208 561.452 13.9385C560.909 13.3561 560.637 12.5343 560.637 11.4731V5.95987H558.734V4.23214H559.123C559.589 4.23214 559.957 4.08978 560.229 3.80506C560.501 3.52035 560.637 3.14504 560.637 2.67913V1.82498H562.442V4.23214H564.791V5.95987H562.442V11.4148C562.442 11.7642 562.494 12.0684 562.597 12.3272C562.714 12.586 562.902 12.7931 563.16 12.9484C563.419 13.0908 563.762 13.162 564.189 13.162C564.28 13.162 564.39 13.1555 564.519 13.1425C564.662 13.1296 564.791 13.1167 564.908 13.1037V14.6956C564.739 14.7344 564.552 14.7603 564.345 14.7732C564.138 14.7991 563.963 14.812 563.82 14.812ZM567.266 14.6956V4.23214H569.071V14.6956H567.266ZM567.266 2.56266V0.233139H569.071V2.56266H567.266ZM576.842 14.9285C575.833 14.9285 574.92 14.6956 574.105 14.2297C573.29 13.7508 572.643 13.0972 572.164 12.269C571.685 11.4407 571.446 10.5024 571.446 9.45414C571.446 8.40586 571.678 7.47405 572.144 6.65872C572.623 5.84339 573.27 5.1963 574.086 4.71746C574.901 4.23861 575.82 3.99919 576.842 3.99919C577.852 3.99919 578.764 4.23861 579.579 4.71746C580.395 5.18336 581.035 5.82398 581.501 6.63931C581.98 7.45464 582.22 8.39292 582.22 9.45414C582.22 10.5154 581.974 11.4601 581.482 12.2884C580.99 13.1037 580.337 13.7508 579.521 14.2297C578.719 14.6956 577.826 14.9285 576.842 14.9285ZM576.842 13.1814C577.489 13.1814 578.072 13.0196 578.589 12.6961C579.12 12.3725 579.534 11.926 579.832 11.3566C580.142 10.7871 580.298 10.153 580.298 9.45414C580.298 8.74235 580.142 8.11467 579.832 7.57112C579.534 7.01462 579.12 6.5746 578.589 6.25106C578.072 5.91457 577.489 5.74633 576.842 5.74633C576.182 5.74633 575.587 5.91457 575.056 6.25106C574.539 6.5746 574.124 7.01462 573.814 7.57112C573.503 8.11467 573.348 8.74235 573.348 9.45414C573.348 10.153 573.503 10.7871 573.814 11.3566C574.124 11.926 574.539 12.3725 575.056 12.6961C575.587 13.0196 576.182 13.1814 576.842 13.1814ZM584.574 14.6956V4.23214H586.341V6.27047L586.05 6.09576C586.308 5.43573 586.723 4.92453 587.292 4.56216C587.874 4.18685 588.554 3.99919 589.33 3.99919C590.081 3.99919 590.747 4.16743 591.33 4.50392C591.925 4.84041 592.391 5.30631 592.728 5.90163C593.077 6.49695 593.252 7.16992 593.252 7.92054V14.6956H591.427V8.50292C591.427 7.92054 591.323 7.42876 591.116 7.02756C590.909 6.62637 590.612 6.31577 590.223 6.09576C589.848 5.8628 589.414 5.74633 588.923 5.74633C588.431 5.74633 587.991 5.8628 587.603 6.09576C587.227 6.31577 586.93 6.63284 586.71 7.04698C586.49 7.44817 586.38 7.93349 586.38 8.50292V14.6956H584.574ZM602.258 14.9285C601.572 14.9285 600.964 14.8056 600.433 14.5597C599.915 14.3008 599.508 13.9514 599.21 13.5114C598.912 13.0584 598.764 12.5408 598.764 11.9584C598.764 11.4019 598.88 10.9036 599.113 10.4636C599.359 10.0106 599.734 9.62886 600.239 9.31825C600.757 9.00765 601.404 8.78764 602.18 8.65822L606.063 8.01761V9.53179L602.588 10.1142C601.915 10.2306 601.423 10.4442 601.112 10.7548C600.815 11.0654 600.666 11.4472 600.666 11.9001C600.666 12.3272 600.834 12.6831 601.171 12.9678C601.52 13.2525 601.954 13.3949 602.471 13.3949C603.131 13.3949 603.701 13.259 604.18 12.9872C604.671 12.7025 605.053 12.3207 605.325 11.8419C605.61 11.3631 605.752 10.8324 605.752 10.2501V7.59053C605.752 7.02109 605.539 6.56166 605.111 6.21223C604.697 5.84986 604.147 5.66868 603.461 5.66868C602.866 5.66868 602.335 5.82398 601.87 6.13458C601.417 6.43224 601.08 6.83344 600.86 7.33817L599.288 6.52283C599.482 6.04399 599.792 5.61691 600.219 5.2416C600.647 4.85335 601.145 4.54922 601.714 4.32921C602.284 4.1092 602.879 3.99919 603.5 3.99919C604.303 3.99919 605.008 4.15449 605.616 4.46509C606.224 4.76276 606.697 5.18336 607.033 5.72692C607.383 6.25753 607.557 6.87873 607.557 7.59053V14.6956H605.791V12.7155L606.121 12.8319C605.901 13.2461 605.603 13.6084 605.228 13.919C604.853 14.2297 604.413 14.4755 603.908 14.6567C603.403 14.8379 602.853 14.9285 602.258 14.9285ZM610.357 14.6956V4.23214H612.123V6.27047L611.832 6.09576C612.091 5.43573 612.505 4.92453 613.074 4.56216C613.657 4.18685 614.336 3.99919 615.113 3.99919C615.863 3.99919 616.53 4.16743 617.112 4.50392C617.708 4.84041 618.173 5.30631 618.51 5.90163C618.859 6.49695 619.034 7.16992 619.034 7.92054V14.6956H617.209V8.50292C617.209 7.92054 617.106 7.42876 616.899 7.02756C616.692 6.62637 616.394 6.31577 616.006 6.09576C615.63 5.8628 615.197 5.74633 614.705 5.74633C614.213 5.74633 613.773 5.8628 613.385 6.09576C613.01 6.31577 612.712 6.63284 612.492 7.04698C612.272 7.44817 612.162 7.93349 612.162 8.50292V14.6956H610.357ZM626.374 14.9285C625.39 14.9285 624.503 14.6891 623.714 14.2102C622.938 13.7314 622.323 13.0778 621.87 12.2496C621.417 11.4213 621.19 10.496 621.19 9.47355C621.19 8.42527 621.417 7.49347 621.87 6.67814C622.323 5.84986 622.938 5.1963 623.714 4.71746C624.503 4.23861 625.39 3.99919 626.374 3.99919C627.241 3.99919 628.011 4.18685 628.684 4.56216C629.357 4.92453 629.887 5.41631 630.276 6.03752L629.984 6.48401V0.000187958H631.809V14.6956H630.043V12.4631L630.276 12.7737C629.913 13.4596 629.383 13.9902 628.684 14.3655C627.998 14.7409 627.228 14.9285 626.374 14.9285ZM626.529 13.1814C627.189 13.1814 627.778 13.0196 628.295 12.6961C628.813 12.3725 629.221 11.9325 629.518 11.376C629.829 10.8066 629.984 10.1724 629.984 9.47355C629.984 8.76176 629.829 8.12761 629.518 7.57112C629.221 7.00168 628.813 6.55519 628.295 6.23164C627.778 5.9081 627.189 5.74633 626.529 5.74633C625.882 5.74633 625.293 5.91457 624.762 6.25106C624.245 6.5746 623.837 7.01462 623.539 7.57112C623.242 8.11467 623.093 8.74882 623.093 9.47355C623.093 10.1724 623.242 10.8066 623.539 11.376C623.837 11.9325 624.245 12.3725 624.762 12.6961C625.28 13.0196 625.869 13.1814 626.529 13.1814ZM638.173 14.6956V0.233139H643.278C644.236 0.233139 645.077 0.414324 645.802 0.776694C646.526 1.13906 647.089 1.65673 647.491 2.3297C647.905 3.00268 648.112 3.79212 648.112 4.69805C648.112 5.72044 647.853 6.58754 647.335 7.29934C646.818 8.01114 646.119 8.52234 645.239 8.83294L648.597 14.6956H646.384L642.851 8.42527L644.113 9.16295H640.075V14.6956H638.173ZM640.075 7.41582H643.336C643.906 7.41582 644.404 7.30581 644.831 7.0858C645.258 6.86579 645.588 6.54872 645.821 6.13458C646.067 5.72045 646.19 5.2416 646.19 4.69805C646.19 4.14155 646.067 3.66271 645.821 3.26151C645.588 2.84737 645.258 2.5303 644.831 2.31029C644.404 2.09028 643.906 1.98028 643.336 1.98028H640.075V7.41582ZM654.774 14.9285C653.764 14.9285 652.865 14.6891 652.075 14.2102C651.286 13.7314 650.665 13.0778 650.212 12.2496C649.759 11.4083 649.532 10.4701 649.532 9.43473C649.532 8.38645 649.752 7.45464 650.192 6.63931C650.645 5.82398 651.253 5.18336 652.017 4.71746C652.793 4.23861 653.661 3.99919 654.618 3.99919C655.395 3.99919 656.081 4.14155 656.676 4.42627C657.284 4.69805 657.795 5.07336 658.21 5.5522C658.637 6.01811 658.96 6.55519 659.18 7.16345C659.413 7.75877 659.53 8.37998 659.53 9.02706C659.53 9.16942 659.517 9.3312 659.491 9.51238C659.478 9.68062 659.458 9.8424 659.433 9.9977H650.852V8.44468H658.384L657.53 9.14354C657.647 8.47057 657.582 7.86878 657.336 7.33817C657.09 6.80755 656.728 6.38695 656.249 6.07634C655.77 5.76574 655.226 5.61044 654.618 5.61044C654.01 5.61044 653.453 5.76574 652.949 6.07634C652.444 6.38695 652.049 6.83344 651.765 7.41582C651.493 7.98525 651.383 8.66469 651.435 9.45414C651.383 10.2177 651.499 10.8907 651.784 11.4731C652.082 12.0425 652.496 12.489 653.026 12.8125C653.57 13.1231 654.159 13.2784 654.793 13.2784C655.492 13.2784 656.081 13.1167 656.559 12.7931C657.038 12.4696 657.427 12.0554 657.724 11.5507L659.238 12.3272C659.031 12.8061 658.708 13.2461 658.268 13.6473C657.841 14.0355 657.33 14.3461 656.734 14.5791C656.152 14.812 655.498 14.9285 654.774 14.9285ZM661.884 14.6956V4.23214H663.65V6.36753L663.398 6.03752C663.657 5.37749 664.071 4.87276 664.64 4.52333C665.21 4.17391 665.85 3.99919 666.562 3.99919C667.377 3.99919 668.109 4.22567 668.756 4.67863C669.416 5.13159 669.869 5.72692 670.115 6.4646L669.61 6.48401C669.882 5.66868 670.341 5.05394 670.988 4.63981C671.635 4.21273 672.353 3.99919 673.143 3.99919C673.868 3.99919 674.521 4.16743 675.104 4.50392C675.699 4.84041 676.171 5.30631 676.521 5.90163C676.87 6.49695 677.045 7.16992 677.045 7.92054V14.6956H675.22V8.50292C675.22 7.92054 675.116 7.42876 674.909 7.02756C674.702 6.62637 674.418 6.31577 674.055 6.09576C673.706 5.8628 673.292 5.74633 672.813 5.74633C672.347 5.74633 671.926 5.8628 671.551 6.09576C671.189 6.31577 670.897 6.63284 670.677 7.04698C670.47 7.44817 670.367 7.93349 670.367 8.50292V14.6956H668.542V8.50292C668.542 7.92054 668.439 7.42876 668.231 7.02756C668.024 6.62637 667.74 6.31577 667.377 6.09576C667.028 5.8628 666.614 5.74633 666.135 5.74633C665.669 5.74633 665.248 5.8628 664.873 6.09576C664.511 6.31577 664.22 6.63284 664 7.04698C663.792 7.44817 663.689 7.93349 663.689 8.50292V14.6956H661.884ZM684.579 14.9285C683.569 14.9285 682.657 14.6956 681.841 14.2297C681.026 13.7508 680.379 13.0972 679.9 12.269C679.421 11.4407 679.182 10.5024 679.182 9.45414C679.182 8.40586 679.415 7.47405 679.881 6.65872C680.36 5.84339 681.007 5.1963 681.822 4.71746C682.637 4.23861 683.556 3.99919 684.579 3.99919C685.588 3.99919 686.5 4.23861 687.316 4.71746C688.131 5.18336 688.772 5.82398 689.238 6.63931C689.716 7.45464 689.956 8.39292 689.956 9.45414C689.956 10.5154 689.71 11.4601 689.218 12.2884C688.726 13.1037 688.073 13.7508 687.258 14.2297C686.455 14.6956 685.562 14.9285 684.579 14.9285ZM684.579 13.1814C685.226 13.1814 685.808 13.0196 686.326 12.6961C686.856 12.3725 687.27 11.926 687.568 11.3566C687.879 10.7871 688.034 10.153 688.034 9.45414C688.034 8.74235 687.879 8.11467 687.568 7.57112C687.27 7.01462 686.856 6.5746 686.326 6.25106C685.808 5.91457 685.226 5.74633 684.579 5.74633C683.919 5.74633 683.323 5.91457 682.793 6.25106C682.275 6.5746 681.861 7.01462 681.55 7.57112C681.24 8.11467 681.084 8.74235 681.084 9.45414C681.084 10.153 681.24 10.7871 681.55 11.3566C681.861 11.926 682.275 12.3725 682.793 12.6961C683.323 13.0196 683.919 13.1814 684.579 13.1814ZM696.372 14.812C695.35 14.812 694.561 14.5208 694.004 13.9385C693.46 13.3561 693.189 12.5343 693.189 11.4731V5.95987H691.286V4.23214H691.675C692.14 4.23214 692.509 4.08978 692.781 3.80506C693.053 3.52035 693.189 3.14504 693.189 2.67913V1.82498H694.994V4.23214H697.343V5.95987H694.994V11.4148C694.994 11.7642 695.046 12.0684 695.149 12.3272C695.266 12.586 695.454 12.7931 695.712 12.9484C695.971 13.0908 696.314 13.162 696.741 13.162C696.832 13.162 696.942 13.1555 697.071 13.1425C697.214 13.1296 697.343 13.1167 697.459 13.1037V14.6956C697.291 14.7344 697.104 14.7603 696.897 14.7732C696.689 14.7991 696.515 14.812 696.372 14.812ZM704.348 14.9285C703.338 14.9285 702.439 14.6891 701.649 14.2102C700.86 13.7314 700.239 13.0778 699.786 12.2496C699.333 11.4083 699.106 10.4701 699.106 9.43473C699.106 8.38645 699.326 7.45464 699.766 6.63931C700.219 5.82398 700.828 5.18336 701.591 4.71746C702.368 4.23861 703.235 3.99919 704.192 3.99919C704.969 3.99919 705.655 4.14155 706.25 4.42627C706.858 4.69805 707.37 5.07336 707.784 5.5522C708.211 6.01811 708.534 6.55519 708.754 7.16345C708.987 7.75877 709.104 8.37998 709.104 9.02706C709.104 9.16942 709.091 9.3312 709.065 9.51238C709.052 9.68062 709.033 9.8424 709.007 9.9977H700.426V8.44468H707.959L707.104 9.14354C707.221 8.47057 707.156 7.86878 706.91 7.33817C706.664 6.80755 706.302 6.38695 705.823 6.07634C705.344 5.76574 704.801 5.61044 704.192 5.61044C703.584 5.61044 703.028 5.76574 702.523 6.07634C702.018 6.38695 701.624 6.83344 701.339 7.41582C701.067 7.98525 700.957 8.66469 701.009 9.45414C700.957 10.2177 701.074 10.8907 701.358 11.4731C701.656 12.0425 702.07 12.489 702.601 12.8125C703.144 13.1231 703.733 13.2784 704.367 13.2784C705.066 13.2784 705.655 13.1167 706.134 12.7931C706.613 12.4696 707.001 12.0554 707.298 11.5507L708.813 12.3272C708.606 12.8061 708.282 13.2461 707.842 13.6473C707.415 14.0355 706.904 14.3461 706.308 14.5791C705.726 14.812 705.073 14.9285 704.348 14.9285ZM717.725 14.6956L713.629 4.23214H715.648L718.929 13.0843H718.23L721.53 4.23214H723.549L719.434 14.6956H717.725ZM729.789 14.9285C728.779 14.9285 727.88 14.6891 727.091 14.2102C726.301 13.7314 725.68 13.0778 725.227 12.2496C724.774 11.4083 724.548 10.4701 724.548 9.43473C724.548 8.38645 724.768 7.45464 725.208 6.63931C725.661 5.82398 726.269 5.18336 727.032 4.71746C727.809 4.23861 728.676 3.99919 729.634 3.99919C730.41 3.99919 731.096 4.14155 731.691 4.42627C732.3 4.69805 732.811 5.07336 733.225 5.5522C733.652 6.01811 733.976 6.55519 734.196 7.16345C734.429 7.75877 734.545 8.37998 734.545 9.02706C734.545 9.16942 734.532 9.3312 734.506 9.51238C734.493 9.68062 734.474 9.8424 734.448 9.9977H725.868V8.44468H733.4L732.546 9.14354C732.662 8.47057 732.597 7.86878 732.351 7.33817C732.106 6.80755 731.743 6.38695 731.264 6.07634C730.785 5.76574 730.242 5.61044 729.634 5.61044C729.025 5.61044 728.469 5.76574 727.964 6.07634C727.459 6.38695 727.065 6.83344 726.78 7.41582C726.508 7.98525 726.398 8.66469 726.45 9.45414C726.398 10.2177 726.515 10.8907 726.799 11.4731C727.097 12.0425 727.511 12.489 728.042 12.8125C728.585 13.1231 729.174 13.2784 729.808 13.2784C730.507 13.2784 731.096 13.1167 731.575 12.7931C732.054 12.4696 732.442 12.0554 732.74 11.5507L734.254 12.3272C734.047 12.8061 733.723 13.2461 733.283 13.6473C732.856 14.0355 732.345 14.3461 731.75 14.5791C731.167 14.812 730.514 14.9285 729.789 14.9285ZM736.899 14.6956V0.000187958H738.704V6.27047L738.374 6.09576C738.633 5.43573 739.047 4.92453 739.617 4.56216C740.199 4.18685 740.879 3.99919 741.655 3.99919C742.406 3.99919 743.072 4.16743 743.655 4.50392C744.25 4.84041 744.716 5.30631 745.052 5.90163C745.402 6.49695 745.576 7.16992 745.576 7.92054V14.6956H743.752V8.50292C743.752 7.92054 743.642 7.42876 743.422 7.02756C743.215 6.62637 742.923 6.31577 742.548 6.09576C742.173 5.8628 741.739 5.74633 741.247 5.74633C740.769 5.74633 740.335 5.8628 739.947 6.09576C739.558 6.31577 739.254 6.63284 739.034 7.04698C738.814 7.44817 738.704 7.93349 738.704 8.50292V14.6956H736.899ZM748.16 14.6956V4.23214H749.965V14.6956H748.16ZM748.16 2.56266V0.233139H749.965V2.56266H748.16ZM757.62 14.9285C756.597 14.9285 755.685 14.6891 754.883 14.2102C754.093 13.7314 753.472 13.0778 753.019 12.2496C752.566 11.4213 752.339 10.4895 752.339 9.45414C752.339 8.40586 752.566 7.47405 753.019 6.65872C753.472 5.84339 754.093 5.1963 754.883 4.71746C755.685 4.23861 756.597 3.99919 757.62 3.99919C758.306 3.99919 758.946 4.12214 759.542 4.36803C760.137 4.61393 760.661 4.94394 761.114 5.35808C761.567 5.77221 761.897 6.25753 762.104 6.81402L760.493 7.59053C760.247 7.04698 759.872 6.60696 759.367 6.27047C758.862 5.92104 758.28 5.74633 757.62 5.74633C756.986 5.74633 756.41 5.9081 755.892 6.23164C755.387 6.55519 754.986 6.99521 754.688 7.5517C754.391 8.1082 754.242 8.74882 754.242 9.47355C754.242 10.1724 754.391 10.8066 754.688 11.376C754.986 11.9325 755.387 12.3725 755.892 12.6961C756.41 13.0196 756.986 13.1814 757.62 13.1814C758.28 13.1814 758.862 13.0131 759.367 12.6766C759.872 12.3272 760.247 11.8678 760.493 11.2983L762.104 12.1137C761.897 12.6572 761.567 13.1425 761.114 13.5696C760.661 13.9838 760.137 14.3138 759.542 14.5597C758.946 14.8056 758.306 14.9285 757.62 14.9285ZM764.463 14.6956V0.000187958H766.269V14.6956H764.463ZM773.884 14.9285C772.875 14.9285 771.976 14.6891 771.186 14.2102C770.397 13.7314 769.775 13.0778 769.322 12.2496C768.87 11.4083 768.643 10.4701 768.643 9.43473C768.643 8.38645 768.863 7.45464 769.303 6.63931C769.756 5.82398 770.364 5.18336 771.128 4.71746C771.904 4.23861 772.771 3.99919 773.729 3.99919C774.506 3.99919 775.192 4.14155 775.787 4.42627C776.395 4.69805 776.906 5.07336 777.32 5.5522C777.748 6.01811 778.071 6.55519 778.291 7.16345C778.524 7.75877 778.641 8.37998 778.641 9.02706C778.641 9.16942 778.628 9.3312 778.602 9.51238C778.589 9.68062 778.569 9.8424 778.543 9.9977H769.963V8.44468H777.495L776.641 9.14354C776.758 8.47057 776.693 7.86878 776.447 7.33817C776.201 6.80755 775.839 6.38695 775.36 6.07634C774.881 5.76574 774.337 5.61044 773.729 5.61044C773.121 5.61044 772.564 5.76574 772.06 6.07634C771.555 6.38695 771.16 6.83344 770.875 7.41582C770.604 7.98525 770.494 8.66469 770.545 9.45414C770.494 10.2177 770.61 10.8907 770.895 11.4731C771.193 12.0425 771.607 12.489 772.137 12.8125C772.681 13.1231 773.27 13.2784 773.904 13.2784C774.603 13.2784 775.192 13.1167 775.67 12.7931C776.149 12.4696 776.538 12.0554 776.835 11.5507L778.349 12.3272C778.142 12.8061 777.819 13.2461 777.379 13.6473C776.952 14.0355 776.44 14.3461 775.845 14.5791C775.263 14.812 774.609 14.9285 773.884 14.9285ZM789.203 14.9285C788.181 14.9285 787.268 14.6891 786.466 14.2102C785.677 13.7314 785.055 13.0778 784.602 12.2496C784.149 11.4213 783.923 10.4895 783.923 9.45414C783.923 8.40586 784.149 7.47405 784.602 6.65872C785.055 5.84339 785.677 5.1963 786.466 4.71746C787.268 4.23861 788.181 3.99919 789.203 3.99919C789.889 3.99919 790.53 4.12214 791.125 4.36803C791.72 4.61393 792.244 4.94394 792.697 5.35808C793.15 5.77221 793.48 6.25753 793.687 6.81402L792.076 7.59053C791.83 7.04698 791.455 6.60696 790.95 6.27047C790.446 5.92104 789.863 5.74633 789.203 5.74633C788.569 5.74633 787.993 5.9081 787.475 6.23164C786.971 6.55519 786.57 6.99521 786.272 7.5517C785.974 8.1082 785.825 8.74882 785.825 9.47355C785.825 10.1724 785.974 10.8066 786.272 11.376C786.57 11.9325 786.971 12.3725 787.475 12.6961C787.993 13.0196 788.569 13.1814 789.203 13.1814C789.863 13.1814 790.446 13.0131 790.95 12.6766C791.455 12.3272 791.83 11.8678 792.076 11.2983L793.687 12.1137C793.48 12.6572 793.15 13.1425 792.697 13.5696C792.244 13.9838 791.72 14.3138 791.125 14.5597C790.53 14.8056 789.889 14.9285 789.203 14.9285ZM801.016 14.9285C800.007 14.9285 799.095 14.6956 798.279 14.2297C797.464 13.7508 796.817 13.0972 796.338 12.269C795.859 11.4407 795.62 10.5024 795.62 9.45414C795.62 8.40586 795.853 7.47405 796.319 6.65872C796.797 5.84339 797.445 5.1963 798.26 4.71746C799.075 4.23861 799.994 3.99919 801.016 3.99919C802.026 3.99919 802.938 4.23861 803.754 4.71746C804.569 5.18336 805.21 5.82398 805.676 6.63931C806.154 7.45464 806.394 8.39292 806.394 9.45414C806.394 10.5154 806.148 11.4601 805.656 12.2884C805.164 13.1037 804.511 13.7508 803.695 14.2297C802.893 14.6956 802 14.9285 801.016 14.9285ZM801.016 13.1814C801.664 13.1814 802.246 13.0196 802.764 12.6961C803.294 12.3725 803.708 11.926 804.006 11.3566C804.317 10.7871 804.472 10.153 804.472 9.45414C804.472 8.74235 804.317 8.11467 804.006 7.57112C803.708 7.01462 803.294 6.5746 802.764 6.25106C802.246 5.91457 801.664 5.74633 801.016 5.74633C800.356 5.74633 799.761 5.91457 799.231 6.25106C798.713 6.5746 798.299 7.01462 797.988 7.57112C797.678 8.11467 797.522 8.74235 797.522 9.45414C797.522 10.153 797.678 10.7871 797.988 11.3566C798.299 11.926 798.713 12.3725 799.231 12.6961C799.761 13.0196 800.356 13.1814 801.016 13.1814ZM808.749 14.6956V4.23214H810.515V6.27047L810.224 6.09576C810.483 5.43573 810.897 4.92453 811.466 4.56216C812.049 4.18685 812.728 3.99919 813.505 3.99919C814.255 3.99919 814.922 4.16743 815.504 4.50392C816.099 4.84041 816.565 5.30631 816.902 5.90163C817.251 6.49695 817.426 7.16992 817.426 7.92054V14.6956H815.601V8.50292C815.601 7.92054 815.498 7.42876 815.291 7.02756C815.083 6.62637 814.786 6.31577 814.398 6.09576C814.022 5.8628 813.589 5.74633 813.097 5.74633C812.605 5.74633 812.165 5.8628 811.777 6.09576C811.402 6.31577 811.104 6.63284 810.884 7.04698C810.664 7.44817 810.554 7.93349 810.554 8.50292V14.6956H808.749ZM824.261 14.812C823.238 14.812 822.449 14.5208 821.892 13.9385C821.349 13.3561 821.077 12.5343 821.077 11.4731V5.95987H819.175V4.23214H819.563C820.029 4.23214 820.398 4.08978 820.669 3.80506C820.941 3.52035 821.077 3.14504 821.077 2.67913V1.82498H822.882V4.23214H825.231V5.95987H822.882V11.4148C822.882 11.7642 822.934 12.0684 823.038 12.3272C823.154 12.586 823.342 12.7931 823.601 12.9484C823.86 13.0908 824.202 13.162 824.63 13.162C824.72 13.162 824.83 13.1555 824.96 13.1425C825.102 13.1296 825.231 13.1167 825.348 13.1037V14.6956C825.18 14.7344 824.992 14.7603 824.785 14.7732C824.578 14.7991 824.403 14.812 824.261 14.812ZM827.706 14.6956V4.23214H829.473V6.15399L829.279 5.88222C829.524 5.2869 829.9 4.84688 830.404 4.56216C830.909 4.2645 831.524 4.11567 832.249 4.11567H832.889V5.82398H831.977C831.239 5.82398 830.644 6.05693 830.191 6.52283C829.738 6.9758 829.512 7.62288 829.512 8.4641V14.6956H827.706ZM839.463 14.9285C838.453 14.9285 837.541 14.6956 836.725 14.2297C835.91 13.7508 835.263 13.0972 834.784 12.269C834.305 11.4407 834.066 10.5024 834.066 9.45414C834.066 8.40586 834.299 7.47405 834.765 6.65872C835.244 5.84339 835.891 5.1963 836.706 4.71746C837.521 4.23861 838.44 3.99919 839.463 3.99919C840.472 3.99919 841.384 4.23861 842.2 4.71746C843.015 5.18336 843.656 5.82398 844.122 6.63931C844.601 7.45464 844.84 8.39292 844.84 9.45414C844.84 10.5154 844.594 11.4601 844.102 12.2884C843.61 13.1037 842.957 13.7508 842.142 14.2297C841.339 14.6956 840.446 14.9285 839.463 14.9285ZM839.463 13.1814C840.11 13.1814 840.692 13.0196 841.21 12.6961C841.74 12.3725 842.155 11.926 842.452 11.3566C842.763 10.7871 842.918 10.153 842.918 9.45414C842.918 8.74235 842.763 8.11467 842.452 7.57112C842.155 7.01462 841.74 6.5746 841.21 6.25106C840.692 5.91457 840.11 5.74633 839.463 5.74633C838.803 5.74633 838.207 5.91457 837.677 6.25106C837.159 6.5746 836.745 7.01462 836.434 7.57112C836.124 8.11467 835.968 8.74235 835.968 9.45414C835.968 10.153 836.124 10.7871 836.434 11.3566C836.745 11.926 837.159 12.3725 837.677 12.6961C838.207 13.0196 838.803 13.1814 839.463 13.1814ZM847.195 14.6956V0.000187958H849V14.6956H847.195Z" fill="black"/>
<defs>
<linearGradient id="paint0_linear_1_787" x1="851.399" y1="6.69409" x2="-0.757096" y2="6.69409" gradientUnits="userSpaceOnUse">
<stop stop-color="#F3AA45"/>
<stop offset="1" stop-color="#ED2628"/>
</linearGradient>
</defs>
</svg>
