<svg width="418" height="19" viewBox="0 0 418 19" fill="none" xmlns="http://www.w3.org/2000/svg">
<path d="M5.22437 14.7022L-9.48803e-07 0.233245H2.03925L6.46734 12.9543H6.05949L10.4876 0.233245H12.5268L7.32189 14.7022H5.22437ZM17.9879 14.9353C16.978 14.9353 16.0781 14.6958 15.2883 14.2167C14.4985 13.7376 13.877 13.0838 13.4239 12.2551C12.9707 11.4135 12.7441 10.4748 12.7441 9.43901C12.7441 8.39025 12.9642 7.45803 13.4044 6.64232C13.8576 5.82662 14.4661 5.18572 15.2301 4.7196C16.0069 4.24054 16.8744 4.00101 17.8325 4.00101C18.6094 4.00101 19.2956 4.14343 19.8912 4.42828C20.4997 4.70018 21.0112 5.07566 21.4255 5.55472C21.8528 6.02084 22.1765 6.55816 22.3966 7.1667C22.6296 7.76229 22.7462 8.38378 22.7462 9.03116C22.7462 9.17359 22.7332 9.33543 22.7073 9.5167C22.6944 9.68502 22.6749 9.84686 22.6491 10.0022H14.0648V8.44852H21.6003L20.7457 9.14769C20.8623 8.47441 20.7975 7.87235 20.5515 7.3415C20.3055 6.81064 19.943 6.38985 19.4639 6.0791C18.9849 5.76836 18.4411 5.61299 17.8325 5.61299C17.224 5.61299 16.6672 5.76836 16.1623 6.0791C15.6573 6.38985 15.2624 6.83654 14.9776 7.41918C14.7057 7.98888 14.5956 8.66863 14.6474 9.45843C14.5956 10.2223 14.7122 10.8956 14.997 11.4783C15.2948 12.048 15.7091 12.4947 16.24 12.8183C16.7838 13.1291 17.3729 13.2845 18.0073 13.2845C18.7065 13.2845 19.2956 13.1226 19.7747 12.7989C20.2537 12.4752 20.6422 12.0609 20.94 11.556L22.4548 12.3328C22.2477 12.8119 21.924 13.2521 21.4838 13.6535C21.0565 14.0419 20.5451 14.3526 19.9495 14.5857C19.3668 14.8188 18.713 14.9353 17.9879 14.9353ZM25.1012 14.7022V0.000188043H26.9074V6.27332L26.5772 6.09852C26.8361 5.43819 27.2505 4.92676 27.8202 4.56423C28.4028 4.18875 29.0826 4.00101 29.8594 4.00101C30.6104 4.00101 31.2772 4.16933 31.8598 4.50596C32.4554 4.8426 32.9215 5.30872 33.2582 5.90431C33.6078 6.4999 33.7825 7.17318 33.7825 7.92414V14.7022H31.9569V8.50678C31.9569 7.92414 31.8469 7.43213 31.6268 7.03075C31.4196 6.62938 31.1283 6.31863 30.7528 6.09852C30.3773 5.86547 29.9436 5.74894 29.4516 5.74894C28.9725 5.74894 28.5388 5.86547 28.1503 6.09852C27.7619 6.31863 27.4576 6.63585 27.2375 7.05017C27.0174 7.45155 26.9074 7.93709 26.9074 8.50678V14.7022H25.1012ZM36.3671 14.7022V4.23406H38.1733V14.7022H36.3671ZM36.3671 2.56382V0.233245H38.1733V2.56382H36.3671ZM45.8313 14.9353C44.8084 14.9353 43.8956 14.6958 43.0929 14.2167C42.3031 13.7376 41.6816 13.0838 41.2284 12.2551C40.7752 11.4265 40.5486 10.4942 40.5486 9.45843C40.5486 8.40968 40.7752 7.47745 41.2284 6.66175C41.6816 5.84604 42.3031 5.19866 43.0929 4.7196C43.8956 4.24054 44.8084 4.00101 45.8313 4.00101C46.5175 4.00101 47.1584 4.12401 47.754 4.37001C48.3496 4.61602 48.874 4.94618 49.3271 5.36051C49.7803 5.77483 50.1105 6.26037 50.3176 6.81712L48.7057 7.59398C48.4597 7.05017 48.0842 6.60996 47.5792 6.27332C47.0743 5.92373 46.4916 5.74894 45.8313 5.74894C45.1968 5.74894 44.6207 5.91078 44.1028 6.23447C43.5978 6.55816 43.1964 6.99838 42.8986 7.55513C42.6008 8.11188 42.452 8.75279 42.452 9.47786C42.452 10.177 42.6008 10.8115 42.8986 11.3812C43.1964 11.9379 43.5978 12.3781 44.1028 12.7018C44.6207 13.0255 45.1968 13.1874 45.8313 13.1874C46.4916 13.1874 47.0743 13.019 47.5792 12.6824C48.0842 12.3328 48.4597 11.8732 48.7057 11.3035L50.3176 12.1192C50.1105 12.663 49.7803 13.1485 49.3271 13.5758C48.874 13.9901 48.3496 14.3203 47.754 14.5663C47.1584 14.8123 46.5175 14.9353 45.8313 14.9353ZM52.6781 14.7022V0.000188043H54.4843V14.7022H52.6781ZM62.1034 14.9353C61.0935 14.9353 60.1936 14.6958 59.4038 14.2167C58.614 13.7376 57.9926 13.0838 57.5394 12.2551C57.0862 11.4135 56.8596 10.4748 56.8596 9.43901C56.8596 8.39025 57.0797 7.45803 57.52 6.64232C57.9731 5.82662 58.5817 5.18572 59.3456 4.7196C60.1224 4.24054 60.9899 4.00101 61.9481 4.00101C62.7249 4.00101 63.4111 4.14343 64.0067 4.42828C64.6153 4.70018 65.1267 5.07566 65.541 5.55472C65.9683 6.02084 66.292 6.55816 66.5121 7.1667C66.7452 7.76229 66.8617 8.38378 66.8617 9.03116C66.8617 9.17359 66.8487 9.33543 66.8228 9.5167C66.8099 9.68502 66.7905 9.84686 66.7646 10.0022H58.1803V8.44852H65.7158L64.8613 9.14769C64.9778 8.47441 64.9131 7.87235 64.6671 7.3415C64.4211 6.81064 64.0585 6.38985 63.5795 6.0791C63.1004 5.76836 62.5566 5.61299 61.9481 5.61299C61.3395 5.61299 60.7828 5.76836 60.2778 6.0791C59.7729 6.38985 59.3779 6.83654 59.0931 7.41918C58.8212 7.98888 58.7111 8.66863 58.7629 9.45843C58.7111 10.2223 58.8277 10.8956 59.1125 11.4783C59.4103 12.048 59.8246 12.4947 60.3555 12.8183C60.8993 13.1291 61.4884 13.2845 62.1228 13.2845C62.822 13.2845 63.4111 13.1226 63.8902 12.7989C64.3693 12.4752 64.7577 12.0609 65.0555 11.556L66.5704 12.3328C66.3632 12.8119 66.0395 13.2521 65.5993 13.6535C65.172 14.0419 64.6606 14.3526 64.065 14.5857C63.4823 14.8188 62.8285 14.9353 62.1034 14.9353ZM72.965 14.9353C71.9163 14.9353 71.0035 14.6763 70.2266 14.1584C69.4497 13.6405 68.8995 12.9413 68.5758 12.0609L70.013 11.3617C70.3108 11.9832 70.7186 12.4752 71.2365 12.8378C71.7544 13.2003 72.3306 13.3816 72.965 13.3816C73.5347 13.3816 74.0073 13.2456 74.3828 12.9737C74.7583 12.7018 74.946 12.3458 74.946 11.9055C74.946 11.5948 74.8554 11.3488 74.6741 11.1675C74.5058 10.9733 74.2986 10.8244 74.0526 10.7208C73.8066 10.6043 73.58 10.5201 73.3729 10.4684L71.7997 10.0217C70.8546 9.74976 70.1619 9.36133 69.7216 8.85637C69.2944 8.35141 69.0807 7.76229 69.0807 7.08902C69.0807 6.46753 69.2361 5.9302 69.5468 5.47704C69.8705 5.01092 70.3043 4.64839 70.8481 4.38944C71.4048 4.13048 72.0263 4.00101 72.7125 4.00101C73.6318 4.00101 74.454 4.23406 75.1791 4.70018C75.9171 5.16629 76.4415 5.82015 76.7522 6.66175L75.2762 7.3415C75.0431 6.7977 74.6935 6.37042 74.2274 6.05968C73.7613 5.73599 73.2369 5.57414 72.6543 5.57414C72.1234 5.57414 71.7026 5.71009 71.3919 5.98199C71.0811 6.24095 70.9258 6.57111 70.9258 6.97249C70.9258 7.27028 71.0035 7.51629 71.1588 7.7105C71.3142 7.89177 71.5019 8.03419 71.7221 8.13778C71.9422 8.22841 72.1558 8.3061 72.363 8.37083L74.072 8.87579C74.9266 9.1218 75.5869 9.50375 76.053 10.0217C76.5321 10.5396 76.7716 11.161 76.7716 11.8861C76.7716 12.4688 76.6098 12.9931 76.2861 13.4593C75.9624 13.9254 75.5157 14.2879 74.946 14.5469C74.3763 14.8058 73.716 14.9353 72.965 14.9353ZM84.9013 14.7022L81.3084 4.23406H83.3088L86.1637 12.9931L85.4645 12.9737L88.2612 4.23406H89.9703L92.767 12.9737L92.0678 12.9931L94.9422 4.23406H96.9232L93.3302 14.7022H91.6017L88.8439 5.96257H89.3877L86.6298 14.7022H84.9013ZM98.5385 14.7022V4.23406H100.345V14.7022H98.5385ZM98.5385 2.56382V0.233245H100.345V2.56382H98.5385ZM107.401 14.8188C106.378 14.8188 105.588 14.5274 105.031 13.9448C104.487 13.3621 104.216 12.54 104.216 11.4783V5.96257H102.312V4.23406H102.701C103.167 4.23406 103.536 4.09164 103.808 3.80679C104.08 3.52194 104.216 3.14646 104.216 2.68035V1.8258H106.022V4.23406H108.372V5.96257H106.022V11.42C106.022 11.7696 106.073 12.0739 106.177 12.3328C106.294 12.5918 106.481 12.7989 106.74 12.9543C106.999 13.0967 107.342 13.1679 107.77 13.1679C107.86 13.1679 107.97 13.1615 108.1 13.1485C108.242 13.1356 108.372 13.1226 108.488 13.1097V14.7022C108.32 14.7411 108.132 14.767 107.925 14.7799C107.718 14.8058 107.543 14.8188 107.401 14.8188ZM110.848 14.7022V0.000188043H112.654V6.27332L112.324 6.09852C112.583 5.43819 112.997 4.92676 113.567 4.56423C114.149 4.18875 114.829 4.00101 115.606 4.00101C116.357 4.00101 117.024 4.16933 117.606 4.50596C118.202 4.8426 118.668 5.30872 119.005 5.90431C119.354 6.4999 119.529 7.17318 119.529 7.92414V14.7022H117.703V8.50678C117.703 7.92414 117.593 7.43213 117.373 7.03075C117.166 6.62938 116.875 6.31863 116.499 6.09852C116.124 5.86547 115.69 5.74894 115.198 5.74894C114.719 5.74894 114.285 5.86547 113.897 6.09852C113.508 6.31863 113.204 6.63585 112.984 7.05017C112.764 7.45155 112.654 7.93709 112.654 8.50678V14.7022H110.848ZM128.539 14.9353C127.853 14.9353 127.244 14.8123 126.714 14.5663C126.196 14.3073 125.788 13.9577 125.49 13.5175C125.192 13.0644 125.043 12.5464 125.043 11.9638C125.043 11.4071 125.16 10.9086 125.393 10.4684C125.639 10.0152 126.014 9.63323 126.519 9.32248C127.037 9.01174 127.685 8.79163 128.462 8.66216L132.346 8.02125V9.53612L128.869 10.1188C128.196 10.2353 127.704 10.4489 127.393 10.7597C127.096 11.0704 126.947 11.4524 126.947 11.9055C126.947 12.3328 127.115 12.6889 127.452 12.9737C127.801 13.2586 128.235 13.401 128.753 13.401C129.413 13.401 129.983 13.265 130.462 12.9931C130.954 12.7083 131.336 12.3263 131.608 11.8473C131.893 11.3682 132.035 10.8374 132.035 10.2547V7.59398C132.035 7.02428 131.821 6.56464 131.394 6.21505C130.98 5.85252 130.43 5.67125 129.743 5.67125C129.148 5.67125 128.617 5.82662 128.151 6.13737C127.698 6.43516 127.361 6.83654 127.141 7.3415L125.568 6.5258C125.762 6.04673 126.073 5.61946 126.5 5.24398C126.927 4.85555 127.426 4.55128 127.995 4.33117C128.565 4.11106 129.161 4.00101 129.782 4.00101C130.585 4.00101 131.291 4.15638 131.899 4.46712C132.508 4.76492 132.98 5.18572 133.317 5.72952C133.666 6.26037 133.841 6.88186 133.841 7.59398V14.7022H132.074V12.7212L132.404 12.8378C132.184 13.2521 131.886 13.6146 131.511 13.9254C131.135 14.2361 130.695 14.4821 130.19 14.6634C129.685 14.8447 129.135 14.9353 128.539 14.9353ZM139.365 14.7022L135.267 4.23406H137.287L140.569 13.0902H139.87L143.172 4.23406H145.192L141.074 14.7022H139.365ZM151.435 14.9353C150.425 14.9353 149.525 14.6958 148.735 14.2167C147.945 13.7376 147.324 13.0838 146.87 12.2551C146.417 11.4135 146.191 10.4748 146.191 9.43901C146.191 8.39025 146.411 7.45803 146.851 6.64232C147.304 5.82662 147.913 5.18572 148.677 4.7196C149.454 4.24054 150.321 4.00101 151.279 4.00101C152.056 4.00101 152.742 4.14343 153.338 4.42828C153.946 4.70018 154.458 5.07566 154.872 5.55472C155.299 6.02084 155.623 6.55816 155.843 7.1667C156.076 7.76229 156.193 8.38378 156.193 9.03116C156.193 9.17359 156.18 9.33543 156.154 9.5167C156.141 9.68502 156.122 9.84686 156.096 10.0022H147.511V8.44852H155.047L154.192 9.14769C154.309 8.47441 154.244 7.87235 153.998 7.3415C153.752 6.81064 153.39 6.38985 152.911 6.0791C152.431 5.76836 151.888 5.61299 151.279 5.61299C150.671 5.61299 150.114 5.76836 149.609 6.0791C149.104 6.38985 148.709 6.83654 148.424 7.41918C148.152 7.98888 148.042 8.66863 148.094 9.45843C148.042 10.2223 148.159 10.8956 148.444 11.4783C148.741 12.048 149.156 12.4947 149.687 12.8183C150.23 13.1291 150.82 13.2845 151.454 13.2845C152.153 13.2845 152.742 13.1226 153.221 12.7989C153.7 12.4752 154.089 12.0609 154.387 11.556L155.901 12.3328C155.694 12.8119 155.371 13.2521 154.93 13.6535C154.503 14.0419 153.992 14.3526 153.396 14.5857C152.813 14.8188 152.16 14.9353 151.435 14.9353ZM158.548 14.7022V4.23406H160.315V6.15679L160.121 5.88489C160.367 5.2893 160.742 4.84908 161.247 4.56423C161.752 4.26643 162.367 4.11754 163.092 4.11754H163.733V5.82662H162.82C162.082 5.82662 161.487 6.05968 161.034 6.5258C160.581 6.97896 160.354 7.62634 160.354 8.46794V14.7022H158.548ZM168.406 14.9353C167.72 14.9353 167.112 14.8123 166.581 14.5663C166.063 14.3073 165.655 13.9577 165.357 13.5175C165.059 13.0644 164.91 12.5464 164.91 11.9638C164.91 11.4071 165.027 10.9086 165.26 10.4684C165.506 10.0152 165.881 9.63323 166.386 9.32248C166.904 9.01174 167.552 8.79163 168.329 8.66216L172.213 8.02125V9.53612L168.736 10.1188C168.063 10.2353 167.571 10.4489 167.26 10.7597C166.963 11.0704 166.814 11.4524 166.814 11.9055C166.814 12.3328 166.982 12.6889 167.319 12.9737C167.668 13.2586 168.102 13.401 168.62 13.401C169.28 13.401 169.85 13.265 170.329 12.9931C170.821 12.7083 171.203 12.3263 171.475 11.8473C171.76 11.3682 171.902 10.8374 171.902 10.2547V7.59398C171.902 7.02428 171.689 6.56464 171.261 6.21505C170.847 5.85252 170.297 5.67125 169.61 5.67125C169.015 5.67125 168.484 5.82662 168.018 6.13737C167.565 6.43516 167.228 6.83654 167.008 7.3415L165.435 6.5258C165.629 6.04673 165.94 5.61946 166.367 5.24398C166.794 4.85555 167.293 4.55128 167.862 4.33117C168.432 4.11106 169.028 4.00101 169.649 4.00101C170.452 4.00101 171.158 4.15638 171.766 4.46712C172.375 4.76492 172.847 5.18572 173.184 5.72952C173.534 6.26037 173.708 6.88186 173.708 7.59398V14.7022H171.941V12.7212L172.271 12.8378C172.051 13.2521 171.753 13.6146 171.378 13.9254C171.002 14.2361 170.562 14.4821 170.057 14.6634C169.552 14.8447 169.002 14.9353 168.406 14.9353ZM181.5 18.9749C180.762 18.9749 180.076 18.8584 179.441 18.6254C178.82 18.3923 178.283 18.0686 177.829 17.6543C177.389 17.2529 177.053 16.7803 176.82 16.2365L178.509 15.4597C178.69 15.9517 179.034 16.366 179.539 16.7026C180.056 17.0522 180.704 17.227 181.481 17.227C182.076 17.227 182.614 17.1105 183.093 16.8774C183.585 16.6573 183.973 16.3207 184.258 15.8675C184.543 15.4273 184.685 14.89 184.685 14.2555V11.9055L185.015 12.2551C184.653 12.9672 184.128 13.511 183.442 13.8865C182.769 14.262 182.025 14.4497 181.209 14.4497C180.225 14.4497 179.344 14.2232 178.567 13.77C177.791 13.3039 177.182 12.6759 176.742 11.8861C176.302 11.0834 176.082 10.1964 176.082 9.22538C176.082 8.24136 176.302 7.35444 176.742 6.56464C177.182 5.77483 177.784 5.15335 178.548 4.70018C179.325 4.23406 180.205 4.00101 181.189 4.00101C182.005 4.00101 182.743 4.18875 183.403 4.56423C184.077 4.92676 184.614 5.43172 185.015 6.0791L184.744 6.56464V4.23406H186.511V14.2555C186.511 15.1619 186.297 15.9711 185.87 16.6832C185.443 17.3953 184.847 17.9521 184.083 18.3535C183.332 18.7678 182.471 18.9749 181.5 18.9749ZM181.364 12.7018C181.986 12.7018 182.542 12.5464 183.034 12.2357C183.539 11.925 183.941 11.5106 184.239 10.9927C184.536 10.4619 184.685 9.87276 184.685 9.22538C184.685 8.59094 184.536 8.0083 184.239 7.47745C183.941 6.94659 183.539 6.5258 183.034 6.21505C182.542 5.90431 181.986 5.74894 181.364 5.74894C180.73 5.74894 180.154 5.90431 179.636 6.21505C179.118 6.5258 178.71 6.94659 178.412 7.47745C178.127 7.99535 177.985 8.578 177.985 9.22538C177.985 9.87276 178.127 10.4619 178.412 10.9927C178.71 11.5106 179.111 11.925 179.616 12.2357C180.134 12.5464 180.717 12.7018 181.364 12.7018ZM194.128 14.9353C193.118 14.9353 192.218 14.6958 191.428 14.2167C190.638 13.7376 190.017 13.0838 189.564 12.2551C189.11 11.4135 188.884 10.4748 188.884 9.43901C188.884 8.39025 189.104 7.45803 189.544 6.64232C189.997 5.82662 190.606 5.18572 191.37 4.7196C192.147 4.24054 193.014 4.00101 193.972 4.00101C194.749 4.00101 195.435 4.14343 196.031 4.42828C196.639 4.70018 197.151 5.07566 197.565 5.55472C197.992 6.02084 198.316 6.55816 198.536 7.1667C198.769 7.76229 198.886 8.38378 198.886 9.03116C198.886 9.17359 198.873 9.33543 198.847 9.5167C198.834 9.68502 198.815 9.84686 198.789 10.0022H190.204V8.44852H197.74L196.885 9.14769C197.002 8.47441 196.937 7.87235 196.691 7.3415C196.445 6.81064 196.083 6.38985 195.604 6.0791C195.125 5.76836 194.581 5.61299 193.972 5.61299C193.364 5.61299 192.807 5.76836 192.302 6.0791C191.797 6.38985 191.402 6.83654 191.117 7.41918C190.845 7.98888 190.735 8.66863 190.787 9.45843C190.735 10.2223 190.852 10.8956 191.137 11.4783C191.434 12.048 191.849 12.4947 192.38 12.8183C192.923 13.1291 193.513 13.2845 194.147 13.2845C194.846 13.2845 195.435 13.1226 195.914 12.7989C196.393 12.4752 196.782 12.0609 197.08 11.556L198.594 12.3328C198.387 12.8119 198.064 13.2521 197.623 13.6535C197.196 14.0419 196.685 14.3526 196.089 14.5857C195.506 14.8188 194.853 14.9353 194.128 14.9353ZM207.666 14.9353C206.98 14.9353 206.372 14.8123 205.841 14.5663C205.323 14.3073 204.915 13.9577 204.617 13.5175C204.319 13.0644 204.171 12.5464 204.171 11.9638C204.171 11.4071 204.287 10.9086 204.52 10.4684C204.766 10.0152 205.142 9.63323 205.647 9.32248C206.165 9.01174 206.812 8.79163 207.589 8.66216L211.473 8.02125V9.53612L207.997 10.1188C207.323 10.2353 206.831 10.4489 206.521 10.7597C206.223 11.0704 206.074 11.4524 206.074 11.9055C206.074 12.3328 206.242 12.6889 206.579 12.9737C206.928 13.2586 207.362 13.401 207.88 13.401C208.54 13.401 209.11 13.265 209.589 12.9931C210.081 12.7083 210.463 12.3263 210.735 11.8473C211.02 11.3682 211.162 10.8374 211.162 10.2547V7.59398C211.162 7.02428 210.949 6.56464 210.521 6.21505C210.107 5.85252 209.557 5.67125 208.871 5.67125C208.275 5.67125 207.744 5.82662 207.278 6.13737C206.825 6.43516 206.488 6.83654 206.268 7.3415L204.695 6.5258C204.889 6.04673 205.2 5.61946 205.627 5.24398C206.054 4.85555 206.553 4.55128 207.123 4.33117C207.692 4.11106 208.288 4.00101 208.909 4.00101C209.712 4.00101 210.418 4.15638 211.026 4.46712C211.635 4.76492 212.107 5.18572 212.444 5.72952C212.794 6.26037 212.969 6.88186 212.969 7.59398V14.7022H211.201V12.7212L211.531 12.8378C211.311 13.2521 211.013 13.6146 210.638 13.9254C210.262 14.2361 209.822 14.4821 209.317 14.6634C208.812 14.8447 208.262 14.9353 207.666 14.9353ZM220.76 18.9749C220.022 18.9749 219.336 18.8584 218.702 18.6254C218.08 18.3923 217.543 18.0686 217.09 17.6543C216.649 17.2529 216.313 16.7803 216.08 16.2365L217.769 15.4597C217.951 15.9517 218.294 16.366 218.799 16.7026C219.317 17.0522 219.964 17.227 220.741 17.227C221.336 17.227 221.874 17.1105 222.353 16.8774C222.845 16.6573 223.233 16.3207 223.518 15.8675C223.803 15.4273 223.945 14.89 223.945 14.2555V11.9055L224.276 12.2551C223.913 12.9672 223.389 13.511 222.702 13.8865C222.029 14.262 221.285 14.4497 220.469 14.4497C219.485 14.4497 218.605 14.2232 217.828 13.77C217.051 13.3039 216.442 12.6759 216.002 11.8861C215.562 11.0834 215.342 10.1964 215.342 9.22538C215.342 8.24136 215.562 7.35444 216.002 6.56464C216.442 5.77483 217.044 5.15335 217.808 4.70018C218.585 4.23406 219.466 4.00101 220.45 4.00101C221.265 4.00101 222.003 4.18875 222.664 4.56423C223.337 4.92676 223.874 5.43172 224.276 6.0791L224.004 6.56464V4.23406H225.771V14.2555C225.771 15.1619 225.557 15.9711 225.13 16.6832C224.703 17.3953 224.107 17.9521 223.343 18.3535C222.592 18.7678 221.731 18.9749 220.76 18.9749ZM220.624 12.7018C221.246 12.7018 221.803 12.5464 222.295 12.2357C222.8 11.925 223.201 11.5106 223.499 10.9927C223.797 10.4619 223.945 9.87276 223.945 9.22538C223.945 8.59094 223.797 8.0083 223.499 7.47745C223.201 6.94659 222.8 6.5258 222.295 6.21505C221.803 5.90431 221.246 5.74894 220.624 5.74894C219.99 5.74894 219.414 5.90431 218.896 6.21505C218.378 6.5258 217.97 6.94659 217.672 7.47745C217.387 7.99535 217.245 8.578 217.245 9.22538C217.245 9.87276 217.387 10.4619 217.672 10.9927C217.97 11.5106 218.371 11.925 218.876 12.2357C219.394 12.5464 219.977 12.7018 220.624 12.7018ZM233.388 14.9353C232.378 14.9353 231.478 14.6958 230.688 14.2167C229.898 13.7376 229.277 13.0838 228.824 12.2551C228.371 11.4135 228.144 10.4748 228.144 9.43901C228.144 8.39025 228.364 7.45803 228.804 6.64232C229.257 5.82662 229.866 5.18572 230.63 4.7196C231.407 4.24054 232.274 4.00101 233.232 4.00101C234.009 4.00101 234.695 4.14343 235.291 4.42828C235.9 4.70018 236.411 5.07566 236.825 5.55472C237.253 6.02084 237.576 6.55816 237.796 7.1667C238.029 7.76229 238.146 8.38378 238.146 9.03116C238.146 9.17359 238.133 9.33543 238.107 9.5167C238.094 9.68502 238.075 9.84686 238.049 10.0022H229.465V8.44852H237L236.146 9.14769C236.262 8.47441 236.197 7.87235 235.951 7.3415C235.705 6.81064 235.343 6.38985 234.864 6.0791C234.385 5.76836 233.841 5.61299 233.232 5.61299C232.624 5.61299 232.067 5.76836 231.562 6.0791C231.057 6.38985 230.662 6.83654 230.377 7.41918C230.105 7.98888 229.995 8.66863 230.047 9.45843C229.995 10.2223 230.112 10.8956 230.397 11.4783C230.695 12.048 231.109 12.4947 231.64 12.8183C232.184 13.1291 232.773 13.2845 233.407 13.2845C234.106 13.2845 234.695 13.1226 235.174 12.7989C235.654 12.4752 236.042 12.0609 236.34 11.556L237.855 12.3328C237.647 12.8119 237.324 13.2521 236.884 13.6535C236.456 14.0419 235.945 14.3526 235.349 14.5857C234.767 14.8188 234.113 14.9353 233.388 14.9353ZM248.83 14.9353C247.82 14.9353 246.907 14.7022 246.091 14.2361C245.276 13.757 244.628 13.1032 244.149 12.2745C243.67 11.4459 243.431 10.5072 243.431 9.45843C243.431 8.40968 243.664 7.47745 244.13 6.66175C244.609 5.84604 245.256 5.19866 246.072 4.7196C246.888 4.24054 247.807 4.00101 248.83 4.00101C249.84 4.00101 250.753 4.24054 251.568 4.7196C252.384 5.18572 253.025 5.82662 253.491 6.64232C253.97 7.45803 254.21 8.39673 254.21 9.45843C254.21 10.5201 253.964 11.4653 253.472 12.294C252.98 13.1097 252.326 13.757 251.51 14.2361C250.707 14.7022 249.814 14.9353 248.83 14.9353ZM248.83 13.1874C249.477 13.1874 250.06 13.0255 250.578 12.7018C251.109 12.3781 251.523 11.9314 251.821 11.3617C252.132 10.792 252.287 10.1576 252.287 9.45843C252.287 8.74631 252.132 8.11835 251.821 7.57455C251.523 7.01781 251.109 6.57759 250.578 6.2539C250.06 5.91726 249.477 5.74894 248.83 5.74894C248.17 5.74894 247.574 5.91726 247.043 6.2539C246.525 6.57759 246.111 7.01781 245.8 7.57455C245.489 8.11835 245.334 8.74631 245.334 9.45843C245.334 10.1576 245.489 10.792 245.8 11.3617C246.111 11.9314 246.525 12.3781 247.043 12.7018C247.574 13.0255 248.17 13.1874 248.83 13.1874ZM257.35 14.7022V5.96257H255.35V4.23406H257.35V3.49605C257.35 2.74509 257.512 2.11065 257.836 1.59275C258.172 1.07484 258.612 0.679939 259.156 0.408038C259.713 0.136138 260.328 0.000188043 261.001 0.000188043C261.144 0.000188043 261.299 0.0131355 261.467 0.0390304C261.649 0.0519787 261.798 0.0714003 261.914 0.0972952V1.70928C261.81 1.68338 261.687 1.67043 261.545 1.67043C261.403 1.65749 261.293 1.65101 261.215 1.65101C260.619 1.65101 260.127 1.79343 259.739 2.07828C259.363 2.36313 259.176 2.83572 259.176 3.49605V4.23406H261.662V5.96257H259.176V14.7022H257.35Z" fill="black"/>
<path d="M267.106 14.7022V0.000188043H269.65V14.7022H267.106ZM277.01 14.9353C275.922 14.9353 274.97 14.6893 274.155 14.1973C273.339 13.7053 272.705 13.0385 272.251 12.1969C271.798 11.3553 271.572 10.423 271.572 9.40017C271.572 8.33846 271.798 7.39976 272.251 6.58406C272.718 5.75541 273.345 5.10156 274.135 4.62249C274.938 4.14343 275.831 3.9039 276.815 3.9039C277.644 3.9039 278.369 4.03985 278.991 4.31175C279.625 4.58365 280.162 4.95913 280.603 5.43819C281.043 5.91726 281.379 6.46753 281.613 7.08902C281.846 7.69756 281.962 8.35789 281.962 9.07001C281.962 9.25127 281.949 9.43901 281.923 9.63323C281.91 9.82744 281.878 9.99576 281.826 10.1382H273.669V8.19604H280.389L279.185 9.10885C279.301 8.51326 279.269 7.9824 279.088 7.51629C278.919 7.05017 278.635 6.68117 278.233 6.40927C277.845 6.13737 277.372 6.00142 276.815 6.00142C276.285 6.00142 275.812 6.13737 275.398 6.40927C274.983 6.66822 274.666 7.05665 274.446 7.57455C274.239 8.07951 274.161 8.69452 274.213 9.41959C274.161 10.067 274.245 10.6431 274.465 11.1481C274.698 11.6401 275.035 12.0221 275.475 12.294C275.929 12.5659 276.446 12.7018 277.029 12.7018C277.612 12.7018 278.104 12.5788 278.505 12.3328C278.919 12.0868 279.243 11.7566 279.476 11.3423L281.535 12.3522C281.328 12.8572 281.004 13.3039 280.564 13.6923C280.124 14.0807 279.599 14.385 278.991 14.6051C278.395 14.8252 277.735 14.9353 277.01 14.9353ZM287.911 14.9353C286.785 14.9353 285.801 14.6699 284.959 14.139C284.13 13.5952 283.561 12.8637 283.25 11.9444L285.153 11.0316C285.425 11.6272 285.801 12.0933 286.28 12.4299C286.772 12.7666 287.315 12.9349 287.911 12.9349C288.377 12.9349 288.746 12.8313 289.018 12.6241C289.29 12.417 289.426 12.1451 289.426 11.8084C289.426 11.6013 289.368 11.4329 289.251 11.3035C289.148 11.161 288.999 11.0445 288.804 10.9539C288.623 10.8503 288.422 10.7661 288.202 10.7014L286.474 10.2159C285.58 9.95692 284.901 9.56202 284.435 9.03116C283.981 8.50031 283.755 7.87235 283.755 7.14728C283.755 6.4999 283.917 5.93668 284.24 5.45762C284.577 4.96561 285.037 4.58365 285.619 4.31175C286.215 4.03985 286.895 3.9039 287.659 3.9039C288.656 3.9039 289.536 4.14343 290.3 4.62249C291.064 5.10156 291.608 5.77483 291.931 6.64232L289.989 7.55513C289.808 7.07607 289.504 6.69411 289.076 6.40927C288.649 6.12442 288.17 5.98199 287.639 5.98199C287.212 5.98199 286.875 6.0791 286.629 6.27332C286.383 6.46753 286.26 6.72001 286.26 7.03075C286.26 7.22497 286.312 7.39329 286.416 7.53571C286.519 7.67814 286.662 7.79466 286.843 7.8853C287.037 7.97593 287.257 8.06009 287.503 8.13778L289.193 8.64273C290.06 8.90169 290.727 9.29012 291.193 9.80802C291.672 10.3259 291.912 10.9604 291.912 11.7113C291.912 12.3458 291.744 12.909 291.407 13.401C291.07 13.8801 290.604 14.2555 290.009 14.5274C289.413 14.7993 288.714 14.9353 287.911 14.9353ZM297.887 14.9353C296.761 14.9353 295.777 14.6699 294.935 14.139C294.107 13.5952 293.537 12.8637 293.226 11.9444L295.129 11.0316C295.401 11.6272 295.777 12.0933 296.256 12.4299C296.748 12.7666 297.292 12.9349 297.887 12.9349C298.353 12.9349 298.722 12.8313 298.994 12.6241C299.266 12.417 299.402 12.1451 299.402 11.8084C299.402 11.6013 299.344 11.4329 299.227 11.3035C299.124 11.161 298.975 11.0445 298.781 10.9539C298.599 10.8503 298.399 10.7661 298.179 10.7014L296.45 10.2159C295.557 9.95692 294.877 9.56202 294.411 9.03116C293.958 8.50031 293.731 7.87235 293.731 7.14728C293.731 6.4999 293.893 5.93668 294.217 5.45762C294.553 4.96561 295.013 4.58365 295.596 4.31175C296.191 4.03985 296.871 3.9039 297.635 3.9039C298.632 3.9039 299.512 4.14343 300.276 4.62249C301.04 5.10156 301.584 5.77483 301.907 6.64232L299.965 7.55513C299.784 7.07607 299.48 6.69411 299.053 6.40927C298.625 6.12442 298.146 5.98199 297.615 5.98199C297.188 5.98199 296.851 6.0791 296.605 6.27332C296.359 6.46753 296.236 6.72001 296.236 7.03075C296.236 7.22497 296.288 7.39329 296.392 7.53571C296.495 7.67814 296.638 7.79466 296.819 7.8853C297.013 7.97593 297.233 8.06009 297.479 8.13778L299.169 8.64273C300.037 8.90169 300.703 9.29012 301.169 9.80802C301.649 10.3259 301.888 10.9604 301.888 11.7113C301.888 12.3458 301.72 12.909 301.383 13.401C301.046 13.8801 300.58 14.2555 299.985 14.5274C299.389 14.7993 298.69 14.9353 297.887 14.9353ZM312.112 14.8188C310.92 14.8188 309.995 14.4951 309.334 13.8477C308.687 13.1874 308.363 12.2616 308.363 11.0704V6.40927H306.538V4.13696H306.732C307.25 4.13696 307.651 4.00101 307.936 3.72911C308.221 3.45721 308.363 3.0623 308.363 2.5444V1.7287H310.908V4.13696H313.335V6.40927H310.908V10.9345C310.908 11.2841 310.966 11.5818 311.082 11.8279C311.212 12.0739 311.406 12.2616 311.665 12.3911C311.937 12.5206 312.28 12.5853 312.694 12.5853C312.785 12.5853 312.889 12.5788 313.005 12.5659C313.135 12.5529 313.258 12.54 313.374 12.527V14.7022C313.193 14.7281 312.986 14.754 312.753 14.7799C312.52 14.8058 312.306 14.8188 312.112 14.8188ZM315.318 14.7022V0.000188043H317.862V6.21505L317.512 5.84604C317.758 5.21161 318.16 4.73255 318.717 4.40886C319.286 4.07222 319.947 3.9039 320.698 3.9039C321.474 3.9039 322.161 4.07222 322.756 4.40886C323.365 4.7455 323.837 5.21808 324.174 5.82662C324.511 6.42221 324.679 7.11491 324.679 7.90472V14.7022H322.135V8.50678C322.135 8.04067 322.044 7.63929 321.863 7.30265C321.682 6.96602 321.429 6.70706 321.105 6.5258C320.795 6.33158 320.426 6.23447 319.998 6.23447C319.584 6.23447 319.215 6.33158 318.891 6.5258C318.568 6.70706 318.315 6.96602 318.134 7.30265C317.953 7.63929 317.862 8.04067 317.862 8.50678V14.7022H315.318ZM330.035 14.9353C329.297 14.9353 328.656 14.8123 328.112 14.5663C327.568 14.3203 327.148 13.9707 326.85 13.5175C326.552 13.0514 326.403 12.5141 326.403 11.9055C326.403 11.3229 326.533 10.805 326.792 10.3518C327.05 9.88571 327.452 9.49728 327.996 9.18653C328.539 8.87579 329.226 8.65568 330.054 8.52621L333.511 7.96298V9.90513L330.54 10.4101C330.035 10.5007 329.659 10.6626 329.413 10.8956C329.167 11.1287 329.044 11.4329 329.044 11.8084C329.044 12.171 329.18 12.4623 329.452 12.6824C329.737 12.8896 330.087 12.9931 330.501 12.9931C331.032 12.9931 331.498 12.8831 331.899 12.663C332.314 12.4299 332.631 12.1127 332.851 11.7113C333.084 11.3099 333.201 10.8697 333.201 10.3907V7.67166C333.201 7.21849 333.019 6.84301 332.657 6.54522C332.307 6.23447 331.841 6.0791 331.258 6.0791C330.715 6.0791 330.229 6.228 329.802 6.5258C329.388 6.81064 329.083 7.1926 328.889 7.67166L326.811 6.66175C327.018 6.105 327.342 5.62594 327.782 5.22456C328.235 4.81023 328.766 4.48654 329.375 4.25349C329.983 4.02043 330.643 3.9039 331.356 3.9039C332.223 3.9039 332.987 4.06574 333.647 4.38944C334.308 4.70018 334.819 5.1404 335.182 5.71009C335.557 6.26684 335.745 6.9207 335.745 7.67166V14.7022H333.337V12.896L333.88 12.8572C333.608 13.3104 333.285 13.6923 332.909 14.0031C332.534 14.3009 332.107 14.5339 331.627 14.7022C331.148 14.8576 330.618 14.9353 330.035 14.9353ZM338.096 14.7022V4.13696H340.485V6.21505L340.291 5.84604C340.537 5.21161 340.938 4.73255 341.495 4.40886C342.065 4.07222 342.725 3.9039 343.476 3.9039C344.253 3.9039 344.939 4.07222 345.535 4.40886C346.143 4.7455 346.616 5.21808 346.953 5.82662C347.289 6.42221 347.457 7.11491 347.457 7.90472V14.7022H344.913V8.50678C344.913 8.04067 344.823 7.63929 344.641 7.30265C344.46 6.96602 344.208 6.70706 343.884 6.5258C343.573 6.33158 343.204 6.23447 342.777 6.23447C342.363 6.23447 341.994 6.33158 341.67 6.5258C341.346 6.70706 341.094 6.96602 340.912 7.30265C340.731 7.63929 340.641 8.04067 340.641 8.50678V14.7022H338.096ZM357.566 14.9353C356.777 14.9353 356.026 14.7929 355.314 14.508C354.614 14.2102 354.012 13.7959 353.507 13.265C353.015 12.7212 352.679 12.0803 352.497 11.3423L354.809 10.5266C355.042 11.1869 355.398 11.6919 355.877 12.0415C356.356 12.3781 356.919 12.5464 357.566 12.5464C358.084 12.5464 358.531 12.4493 358.907 12.2551C359.295 12.0609 359.599 11.7825 359.819 11.42C360.039 11.0445 360.15 10.6043 360.15 10.0993C360.15 9.59438 360.039 9.16711 359.819 8.81753C359.612 8.45499 359.314 8.17662 358.926 7.9824C358.538 7.78819 358.078 7.69108 357.547 7.69108C357.301 7.69108 357.042 7.71698 356.77 7.76877C356.511 7.82056 356.278 7.89824 356.071 8.00183L355.469 6.73943L359.217 2.46671H353.313V0.233245H362.189V2.31134L358.421 6.72001L358.46 5.72952C359.327 5.74246 360.085 5.9302 360.732 6.29274C361.38 6.65527 361.885 7.15376 362.247 7.78819C362.61 8.42262 362.791 9.16711 362.791 10.0217C362.791 10.9539 362.564 11.7955 362.111 12.5464C361.658 13.2845 361.036 13.8671 360.247 14.2944C359.457 14.7216 358.563 14.9353 357.566 14.9353ZM369.667 18.9749C369.382 18.9749 369.104 18.9491 368.832 18.8973C368.56 18.8584 368.314 18.7807 368.094 18.6642V16.5473C368.262 16.5861 368.463 16.625 368.696 16.6638C368.942 16.7026 369.169 16.7221 369.376 16.7221C369.959 16.7221 370.379 16.5861 370.638 16.3142C370.91 16.0553 371.15 15.7057 371.357 15.2654L372.056 13.634L372.017 15.7704L367.414 4.13696H370.153L373.377 12.7212H372.406L375.61 4.13696H378.368L373.765 15.7704C373.493 16.4437 373.163 17.0199 372.775 17.4989C372.386 17.978 371.933 18.3405 371.415 18.5865C370.91 18.8455 370.328 18.9749 369.667 18.9749ZM384.586 14.9353C383.499 14.9353 382.547 14.6893 381.731 14.1973C380.916 13.7053 380.281 13.0385 379.828 12.1969C379.375 11.3553 379.148 10.423 379.148 9.40017C379.148 8.33846 379.375 7.39976 379.828 6.58406C380.294 5.75541 380.922 5.10156 381.712 4.62249C382.515 4.14343 383.408 3.9039 384.392 3.9039C385.221 3.9039 385.946 4.03985 386.567 4.31175C387.202 4.58365 387.739 4.95913 388.179 5.43819C388.619 5.91726 388.956 6.46753 389.189 7.08902C389.422 7.69756 389.539 8.35789 389.539 9.07001C389.539 9.25127 389.526 9.43901 389.5 9.63323C389.487 9.82744 389.455 9.99576 389.403 10.1382H381.246V8.19604H387.966L386.761 9.10885C386.878 8.51326 386.846 7.9824 386.664 7.51629C386.496 7.05017 386.211 6.68117 385.81 6.40927C385.421 6.13737 384.949 6.00142 384.392 6.00142C383.861 6.00142 383.389 6.13737 382.974 6.40927C382.56 6.66822 382.243 7.05665 382.023 7.57455C381.815 8.07951 381.738 8.69452 381.79 9.41959C381.738 10.067 381.822 10.6431 382.042 11.1481C382.275 11.6401 382.612 12.0221 383.052 12.294C383.505 12.5659 384.023 12.7018 384.606 12.7018C385.188 12.7018 385.68 12.5788 386.082 12.3328C386.496 12.0868 386.82 11.7566 387.053 11.3423L389.111 12.3522C388.904 12.8572 388.581 13.3039 388.14 13.6923C387.7 14.0807 387.176 14.385 386.567 14.6051C385.972 14.8252 385.311 14.9353 384.586 14.9353ZM394.634 14.9353C393.896 14.9353 393.255 14.8123 392.711 14.5663C392.167 14.3203 391.747 13.9707 391.449 13.5175C391.151 13.0514 391.002 12.5141 391.002 11.9055C391.002 11.3229 391.132 10.805 391.391 10.3518C391.65 9.88571 392.051 9.49728 392.595 9.18653C393.139 8.87579 393.825 8.65568 394.653 8.52621L398.11 7.96298V9.90513L395.139 10.4101C394.634 10.5007 394.259 10.6626 394.013 10.8956C393.767 11.1287 393.644 11.4329 393.644 11.8084C393.644 12.171 393.779 12.4623 394.051 12.6824C394.336 12.8896 394.686 12.9931 395.1 12.9931C395.631 12.9931 396.097 12.8831 396.498 12.663C396.913 12.4299 397.23 12.1127 397.45 11.7113C397.683 11.3099 397.8 10.8697 397.8 10.3907V7.67166C397.8 7.21849 397.618 6.84301 397.256 6.54522C396.906 6.23447 396.44 6.0791 395.858 6.0791C395.314 6.0791 394.828 6.228 394.401 6.5258C393.987 6.81064 393.682 7.1926 393.488 7.67166L391.41 6.66175C391.617 6.105 391.941 5.62594 392.381 5.22456C392.834 4.81023 393.365 4.48654 393.974 4.25349C394.582 4.02043 395.243 3.9039 395.955 3.9039C396.822 3.9039 397.586 4.06574 398.246 4.38944C398.907 4.70018 399.418 5.1404 399.781 5.71009C400.156 6.26684 400.344 6.9207 400.344 7.67166V14.7022H397.936V12.896L398.479 12.8572C398.208 13.3104 397.884 13.6923 397.508 14.0031C397.133 14.3009 396.706 14.5339 396.227 14.7022C395.748 14.8576 395.217 14.9353 394.634 14.9353ZM402.695 14.7022V4.13696H405.084V6.48695L404.89 6.13737C405.136 5.34756 405.518 4.79729 406.036 4.48654C406.567 4.1758 407.201 4.02043 407.939 4.02043H408.561V6.27332H407.648C406.923 6.27332 406.34 6.4999 405.9 6.95307C405.46 7.39329 405.24 8.01477 405.24 8.81753V14.7022H402.695ZM413.98 14.9353C412.853 14.9353 411.869 14.6699 411.028 14.139C410.199 13.5952 409.629 12.8637 409.319 11.9444L411.222 11.0316C411.494 11.6272 411.869 12.0933 412.348 12.4299C412.84 12.7666 413.384 12.9349 413.98 12.9349C414.446 12.9349 414.815 12.8313 415.087 12.6241C415.359 12.417 415.495 12.1451 415.495 11.8084C415.495 11.6013 415.436 11.4329 415.32 11.3035C415.216 11.161 415.067 11.0445 414.873 10.9539C414.692 10.8503 414.491 10.7661 414.271 10.7014L412.543 10.2159C411.649 9.95692 410.969 9.56202 410.503 9.03116C410.05 8.50031 409.824 7.87235 409.824 7.14728C409.824 6.4999 409.985 5.93668 410.309 5.45762C410.646 4.96561 411.105 4.58365 411.688 4.31175C412.284 4.03985 412.963 3.9039 413.727 3.9039C414.724 3.9039 415.605 4.14343 416.369 4.62249C417.132 5.10156 417.676 5.77483 418 6.64232L416.058 7.55513C415.877 7.07607 415.572 6.69411 415.145 6.40927C414.718 6.12442 414.239 5.98199 413.708 5.98199C413.281 5.98199 412.944 6.0791 412.698 6.27332C412.452 6.46753 412.329 6.72001 412.329 7.03075C412.329 7.22497 412.381 7.39329 412.484 7.53571C412.588 7.67814 412.73 7.79466 412.912 7.8853C413.106 7.97593 413.326 8.06009 413.572 8.13778L415.262 8.64273C416.129 8.90169 416.796 9.29012 417.262 9.80802C417.741 10.3259 417.981 10.9604 417.981 11.7113C417.981 12.3458 417.812 12.909 417.476 13.401C417.139 13.8801 416.673 14.2555 416.077 14.5274C415.482 14.7993 414.783 14.9353 413.98 14.9353Z" fill="url(#paint0_linear_1_781)"/>
<defs>
<linearGradient id="paint0_linear_1_781" x1="419.053" y1="6.69713" x2="-0.213637" y2="6.69713" gradientUnits="userSpaceOnUse">
<stop stop-color="#F3AA45"/>
<stop offset="1" stop-color="#ED2628"/>
</linearGradient>
</defs>
</svg>
