<svg width="36" height="36" viewBox="0 0 36 36" fill="none" xmlns="http://www.w3.org/2000/svg">
<path d="M26.715 8.235V9.345L21.405 6.27C19.395 5.115 16.59 5.115 14.595 6.27L9.285 9.36V8.235C9.285 4.86 11.13 3 14.505 3H21.495C24.87 3 26.715 4.86 26.715 8.235Z" fill="#EE3B3D"/>
<path d="M26.76 11.955L26.55 11.85L24.51 10.68L20.28 8.23499C18.99 7.48499 17.01 7.48499 15.72 8.23499L11.49 10.665L9.45 11.865L9.18 12C6.555 13.77 6.375 14.1 6.375 16.935V23.715C6.375 26.55 6.555 26.88 9.24 28.695L15.72 32.43C16.365 32.82 17.175 32.985 18 32.985C18.81 32.985 19.635 32.805 20.28 32.43L26.82 28.65C29.46 26.88 29.625 26.565 29.625 23.715V16.935C29.625 14.1 29.445 13.77 26.76 11.955ZM22.185 20.25L21.27 21.375C21.12 21.54 21.015 21.855 21.03 22.08L21.12 23.52C21.18 24.405 20.55 24.855 19.725 24.54L18.39 24C18.18 23.925 17.835 23.925 17.625 24L16.29 24.525C15.465 24.855 14.835 24.39 14.895 23.505L14.985 22.065C15 21.84 14.895 21.525 14.745 21.36L13.815 20.25C13.245 19.575 13.5 18.825 14.355 18.6L15.75 18.24C15.975 18.18 16.23 17.97 16.35 17.79L17.13 16.59C17.61 15.84 18.375 15.84 18.87 16.59L19.65 17.79C19.77 17.985 20.04 18.18 20.25 18.24L21.645 18.6C22.5 18.825 22.755 19.575 22.185 20.25Z" fill="#EE3B3D"/>
</svg>
