<svg width="36" height="36" viewBox="0 0 36 36" fill="none" xmlns="http://www.w3.org/2000/svg">
<path d="M18 22.5C23.5919 22.5 28.125 18.1348 28.125 12.75C28.125 7.36522 23.5919 3 18 3C12.4081 3 7.875 7.36522 7.875 12.75C7.875 18.1348 12.4081 22.5 18 22.5Z" fill="#EE3B3D"/>
<path d="M23.685 23.4149C24.18 23.1599 24.75 23.5349 24.75 24.0899V31.3649C24.75 32.7149 23.805 33.3749 22.635 32.8199L18.615 30.9149C18.27 30.7649 17.73 30.7649 17.385 30.9149L13.365 32.8199C12.195 33.3599 11.25 32.6999 11.25 31.3499L11.28 24.0899C11.28 23.5349 11.865 23.1749 12.345 23.4149C14.04 24.2699 15.96 24.7499 18 24.7499C20.04 24.7499 21.975 24.2699 23.685 23.4149Z" fill="#EE3B3D"/>
</svg>
