<svg width="36" height="36" viewBox="0 0 36 36" fill="none" xmlns="http://www.w3.org/2000/svg">
<path d="M33 16.875H29.94C29.4 11.16 24.84 6.585 19.125 6.06V3C19.125 2.385 18.615 1.875 18 1.875C17.385 1.875 16.875 2.385 16.875 3V6.06C11.16 6.6 6.585 11.16 6.06 16.875H3C2.385 16.875 1.875 17.385 1.875 18C1.875 18.615 2.385 19.125 3 19.125H6.06C6.6 24.84 11.16 29.415 16.875 29.94V33C16.875 33.615 17.385 34.125 18 34.125C18.615 34.125 19.125 33.615 19.125 33V29.94C24.84 29.4 29.415 24.84 29.94 19.125H33C33.615 19.125 34.125 18.615 34.125 18C34.125 17.385 33.615 16.875 33 16.875ZM18 22.68C15.42 22.68 13.32 20.58 13.32 18C13.32 15.42 15.42 13.32 18 13.32C20.58 13.32 22.68 15.42 22.68 18C22.68 20.58 20.58 22.68 18 22.68Z" fill="#EE3B3D"/>
</svg>
