<svg width="592" height="19" viewBox="0 0 592 19" fill="none" xmlns="http://www.w3.org/2000/svg">
<path d="M-1.2201e-06 14.6947V12.6177L7.00757 2.56251H0.407642V0.233126H10.3658V2.31016L3.37761 12.3654H10.5599V14.6947H-1.2201e-06ZM12.2155 14.6947V0.233126H21.8242V2.56251H14.8555V6.27012H21.436V8.59951H14.8555V12.3654H21.8242V14.6947H12.2155ZM23.7601 14.6947V0.233126H29.1371C30.1206 0.233126 30.9876 0.414301 31.7382 0.776651C32.5017 1.12606 33.097 1.6437 33.5241 2.32958C33.9511 3.00251 34.1647 3.82427 34.1647 4.79484C34.1647 5.7913 33.9252 6.63894 33.4464 7.33776C32.9805 8.03657 32.3464 8.55422 31.5441 8.89068L34.8635 14.6947H31.8741L28.3218 8.34716L30.03 9.35656H26.4V14.6947H23.7601ZM26.4 7.02717H29.1759C29.6547 7.02717 30.0688 6.93659 30.4182 6.75541C30.7676 6.5613 31.0394 6.296 31.2335 5.95954C31.4276 5.62307 31.5247 5.23484 31.5247 4.79484C31.5247 4.34191 31.4276 3.95368 31.2335 3.63015C31.0394 3.29368 30.7676 3.03486 30.4182 2.85369C30.0688 2.65957 29.6547 2.56251 29.1759 2.56251H26.4V7.02717ZM43.7177 14.9277C42.6566 14.9277 41.6666 14.74 40.7477 14.3647C39.8289 13.9895 39.0266 13.4653 38.3407 12.7924C37.6548 12.1195 37.1178 11.3301 36.7296 10.4242C36.3543 9.50538 36.1666 8.51539 36.1666 7.45423C36.1666 6.38012 36.3543 5.39013 36.7296 4.48426C37.1048 3.57839 37.6354 2.78898 38.3213 2.11605C39.0072 1.44311 39.8095 0.925472 40.7283 0.563123C41.6471 0.187833 42.6436 0.000187947 43.7177 0.000187947C44.7918 0.000187947 45.7883 0.187833 46.7071 0.563123C47.6259 0.938413 48.4283 1.46253 49.1141 2.13546C49.8 2.79545 50.3306 3.57839 50.7059 4.48426C51.0941 5.39013 51.2882 6.38012 51.2882 7.45423C51.2882 8.51539 51.0941 9.50538 50.7059 10.4242C50.3176 11.3301 49.7806 12.1195 49.0947 12.7924C48.4088 13.4653 47.6065 13.9895 46.6877 14.3647C45.7818 14.74 44.7918 14.9277 43.7177 14.9277ZM43.7177 12.5206C44.4295 12.5206 45.083 12.3977 45.6783 12.1518C46.2736 11.893 46.7912 11.5371 47.2312 11.0842C47.6841 10.6313 48.0271 10.0942 48.26 9.47303C48.5059 8.85186 48.6288 8.17893 48.6288 7.45423C48.6288 6.72953 48.5059 6.06307 48.26 5.45484C48.0271 4.83367 47.6841 4.29661 47.2312 3.84368C46.7912 3.3778 46.2736 3.02192 45.6783 2.77604C45.083 2.53016 44.4295 2.40722 43.7177 2.40722C43.0189 2.40722 42.3718 2.53016 41.7766 2.77604C41.1813 3.02192 40.6572 3.3778 40.2042 3.84368C39.7642 4.29661 39.4213 4.83367 39.1754 5.45484C38.9295 6.06307 38.8066 6.72953 38.8066 7.45423C38.8066 8.17893 38.9295 8.85186 39.1754 9.47303C39.4213 10.0942 39.7642 10.6313 40.2042 11.0842C40.6572 11.5371 41.1813 11.893 41.7766 12.1518C42.3718 12.3977 43.0189 12.5206 43.7177 12.5206ZM57.0858 14.6947V0.233126H62.4822C63.4657 0.233126 64.3327 0.414301 65.0833 0.776651C65.8468 1.12606 66.4421 1.6437 66.8692 2.32958C67.2962 3.00251 67.5098 3.82427 67.5098 4.79484C67.5098 5.75248 67.2898 6.57424 66.8498 7.26011C66.4227 7.93305 65.8339 8.45069 65.0833 8.81304C64.3327 9.17539 63.4657 9.35656 62.4822 9.35656H59.7257V14.6947H57.0858ZM59.7257 7.02717H62.521C62.9998 7.02717 63.4139 6.93659 63.7633 6.75541C64.1127 6.5613 64.3845 6.296 64.5786 5.95954C64.7727 5.62307 64.8698 5.23484 64.8698 4.79484C64.8698 4.34191 64.7727 3.95368 64.5786 3.63015C64.3845 3.29368 64.1127 3.03486 63.7633 2.85369C63.4139 2.65957 62.9998 2.56251 62.521 2.56251H59.7257V7.02717ZM72.0368 14.9277C71.2991 14.9277 70.6585 14.8047 70.115 14.5589C69.5715 14.313 69.1509 13.9636 68.8533 13.5106C68.5556 13.0448 68.4068 12.5077 68.4068 11.8995C68.4068 11.3171 68.5362 10.7995 68.795 10.3466C69.0538 9.88067 69.455 9.49244 69.9985 9.18186C70.5421 8.87127 71.2279 8.65127 72.0562 8.52186L75.5114 7.95893V9.90008L72.5415 10.4048C72.0368 10.4954 71.6615 10.6571 71.4156 10.8901C71.1697 11.123 71.0468 11.4271 71.0468 11.8024C71.0468 12.1648 71.1826 12.4559 71.4544 12.6759C71.7391 12.883 72.0885 12.9865 72.5026 12.9865C73.0332 12.9865 73.4991 12.8765 73.9003 12.6565C74.3144 12.4236 74.6314 12.1065 74.8514 11.7054C75.0844 11.3042 75.2008 10.8642 75.2008 10.3854V7.66775C75.2008 7.21482 75.0197 6.83953 74.6573 6.54188C74.3079 6.2313 73.842 6.07601 73.2597 6.07601C72.7162 6.07601 72.2309 6.22483 71.8038 6.52247C71.3897 6.80718 71.0856 7.18894 70.8915 7.66775L68.8144 6.65835C69.0215 6.10189 69.345 5.62307 69.785 5.2219C70.238 4.80778 70.7685 4.48426 71.3768 4.25132C71.985 4.01838 72.645 3.90191 73.3567 3.90191C74.2238 3.90191 74.9873 4.06367 75.6473 4.3872C76.3073 4.69779 76.8185 5.13778 77.1808 5.70719C77.5561 6.26365 77.7438 6.91717 77.7438 7.66775V14.6947H75.3367V12.8895L75.8802 12.8506C75.6085 13.3036 75.285 13.6853 74.9097 13.9959C74.5344 14.2936 74.1073 14.5265 73.6285 14.6947C73.1497 14.85 72.6191 14.9277 72.0368 14.9277ZM81.3752 18.9653C81.0905 18.9653 80.8123 18.9394 80.5405 18.8876C80.2688 18.8488 80.0229 18.7712 79.8029 18.6547V16.5388C79.9711 16.5777 80.1717 16.6165 80.4047 16.6553C80.6505 16.6941 80.877 16.7135 81.0841 16.7135C81.6664 16.7135 82.087 16.5777 82.3458 16.3059C82.6176 16.0471 82.857 15.6977 83.064 15.2577L83.7629 13.6271L83.724 15.7624L79.1235 4.13485H81.8605L85.0828 12.7148H84.1123L87.3152 4.13485H90.0716L85.4711 15.7624C85.1993 16.4353 84.8693 17.0112 84.4811 17.49C84.0929 17.9688 83.6399 18.3312 83.1223 18.5771C82.6176 18.8359 82.0352 18.9653 81.3752 18.9653ZM91.468 14.6947V4.13485H93.8557V6.58071L93.5839 6.17306C93.778 5.40954 94.1662 4.84014 94.7486 4.46485C95.3309 4.08956 96.0168 3.90191 96.8062 3.90191C97.6733 3.90191 98.4368 4.12838 99.0968 4.58132C99.7568 5.03425 100.184 5.62954 100.378 6.36718L99.6597 6.42541C99.9832 5.58425 100.469 4.95661 101.116 4.54249C101.763 4.11544 102.507 3.90191 103.348 3.90191C104.098 3.90191 104.765 4.07015 105.347 4.40661C105.943 4.74308 106.408 5.21543 106.745 5.82366C107.081 6.41894 107.25 7.11129 107.25 7.90069V14.6947H104.707V8.50245C104.707 8.03657 104.623 7.6354 104.454 7.29894C104.286 6.96247 104.053 6.70365 103.756 6.52247C103.458 6.32836 103.096 6.2313 102.669 6.2313C102.267 6.2313 101.911 6.32836 101.601 6.52247C101.29 6.70365 101.051 6.96247 100.883 7.29894C100.714 7.6354 100.63 8.03657 100.63 8.50245V14.6947H98.0874V8.50245C98.0874 8.03657 98.0033 7.6354 97.835 7.29894C97.6668 6.96247 97.4274 6.70365 97.1168 6.52247C96.8192 6.32836 96.4633 6.2313 96.0492 6.2313C95.648 6.2313 95.2921 6.32836 94.9815 6.52247C94.6709 6.70365 94.4315 6.96247 94.2633 7.29894C94.0951 7.6354 94.011 8.03657 94.011 8.50245V14.6947H91.468ZM114.409 14.9277C113.322 14.9277 112.371 14.6818 111.556 14.19C110.74 13.6983 110.106 13.0318 109.653 12.1906C109.2 11.3495 108.974 10.4177 108.974 9.39538C108.974 8.33422 109.2 7.39599 109.653 6.58071C110.119 5.75248 110.747 5.09896 111.536 4.62014C112.339 4.14132 113.232 3.90191 114.215 3.90191C115.043 3.90191 115.768 4.03779 116.389 4.30955C117.023 4.58132 117.56 4.95661 118 5.43543C118.44 5.91424 118.777 6.46424 119.01 7.08541C119.243 7.69364 119.359 8.35363 119.359 9.06539C119.359 9.24656 119.346 9.43421 119.32 9.62832C119.307 9.82244 119.275 9.99067 119.223 10.133H111.07V8.19187H117.787L116.583 9.10421C116.7 8.50892 116.667 7.97834 116.486 7.51246C116.318 7.04659 116.033 6.67777 115.632 6.406C115.244 6.13424 114.772 5.99836 114.215 5.99836C113.684 5.99836 113.212 6.13424 112.798 6.406C112.384 6.66482 112.067 7.05306 111.847 7.5707C111.64 8.0754 111.562 8.6901 111.614 9.4148C111.562 10.0618 111.646 10.6377 111.866 11.1424C112.099 11.6342 112.436 12.0159 112.876 12.2877C113.329 12.5595 113.846 12.6953 114.429 12.6953C115.011 12.6953 115.503 12.5724 115.904 12.3265C116.318 12.0807 116.641 11.7507 116.874 11.3365L118.932 12.3459C118.725 12.8506 118.401 13.2971 117.961 13.6853C117.521 14.0736 116.997 14.3777 116.389 14.5977C115.794 14.8177 115.134 14.9277 114.409 14.9277ZM121.287 14.6947V4.13485H123.674V6.21189L123.48 5.84307C123.726 5.20896 124.127 4.73014 124.684 4.40661C125.253 4.07015 125.913 3.90191 126.664 3.90191C127.44 3.90191 128.126 4.07015 128.721 4.40661C129.33 4.74308 129.802 5.21543 130.138 5.82366C130.475 6.41894 130.643 7.11129 130.643 7.90069V14.6947H128.1V8.50245C128.1 8.03657 128.01 7.6354 127.828 7.29894C127.647 6.96247 127.395 6.70365 127.071 6.52247C126.761 6.32836 126.392 6.2313 125.965 6.2313C125.551 6.2313 125.182 6.32836 124.858 6.52247C124.535 6.70365 124.283 6.96247 124.101 7.29894C123.92 7.6354 123.83 8.03657 123.83 8.50245V14.6947H121.287ZM137.607 14.8112C136.417 14.8112 135.492 14.4877 134.832 13.8406C134.185 13.1806 133.861 12.2554 133.861 11.0648V6.406H132.036V4.13485H132.23C132.748 4.13485 133.149 3.99897 133.434 3.72721C133.719 3.45545 133.861 3.06074 133.861 2.5431V1.72782H136.404V4.13485H138.83V6.406H136.404V10.9289C136.404 11.2783 136.462 11.5759 136.579 11.8218C136.708 12.0677 136.902 12.2554 137.161 12.3848C137.433 12.5142 137.776 12.5789 138.19 12.5789C138.28 12.5789 138.384 12.5724 138.5 12.5595C138.63 12.5465 138.753 12.5336 138.869 12.5206V14.6947C138.688 14.7206 138.481 14.7465 138.248 14.7724C138.015 14.7983 137.802 14.8112 137.607 14.8112Z" fill="url(#paint0_linear_1_785)"/>
<path d="M149.234 14.9277C148.211 14.9277 147.299 14.6883 146.497 14.2095C145.707 13.7306 145.086 13.0771 144.633 12.2489C144.18 11.4207 143.954 10.4889 143.954 9.45362C143.954 8.40539 144.18 7.47364 144.633 6.65835C145.086 5.84307 145.707 5.19602 146.497 4.7172C147.299 4.23838 148.211 3.99897 149.234 3.99897C149.92 3.99897 150.56 4.12191 151.156 4.36779C151.751 4.61367 152.275 4.94367 152.728 5.35778C153.181 5.77189 153.511 6.25718 153.718 6.81365L152.107 7.59011C151.861 7.04658 151.486 6.60659 150.981 6.27012C150.476 5.92071 149.894 5.74601 149.234 5.74601C148.6 5.74601 148.024 5.90777 147.506 6.2313C147.001 6.55483 146.6 6.99482 146.303 7.55129C146.005 8.10775 145.856 8.74833 145.856 9.47303C145.856 10.1718 146.005 10.806 146.303 11.3754C146.6 11.9318 147.001 12.3718 147.506 12.6953C148.024 13.0189 148.6 13.1806 149.234 13.1806C149.894 13.1806 150.476 13.0124 150.981 12.6759C151.486 12.3265 151.861 11.8671 152.107 11.2977L153.718 12.113C153.511 12.6565 153.181 13.1418 152.728 13.5689C152.275 13.983 151.751 14.313 151.156 14.5589C150.56 14.8047 149.92 14.9277 149.234 14.9277ZM161.047 14.9277C160.037 14.9277 159.125 14.6947 158.309 14.2289C157.494 13.75 156.847 13.0965 156.368 12.2683C155.89 11.4401 155.65 10.5018 155.65 9.45362C155.65 8.40539 155.883 7.47364 156.349 6.65835C156.828 5.84307 157.475 5.19602 158.29 4.7172C159.105 4.23838 160.024 3.99897 161.047 3.99897C162.056 3.99897 162.968 4.23838 163.784 4.7172C164.599 5.18308 165.239 5.82366 165.705 6.63894C166.184 7.45423 166.424 8.39245 166.424 9.45362C166.424 10.5148 166.178 11.4595 165.686 12.2877C165.194 13.103 164.541 13.75 163.725 14.2289C162.923 14.6947 162.03 14.9277 161.047 14.9277ZM161.047 13.1806C161.694 13.1806 162.276 13.0189 162.794 12.6953C163.324 12.3718 163.738 11.9254 164.036 11.356C164.346 10.7865 164.502 10.1524 164.502 9.45362C164.502 8.74186 164.346 8.11422 164.036 7.5707C163.738 7.01423 163.324 6.57424 162.794 6.25071C162.276 5.91424 161.694 5.74601 161.047 5.74601C160.387 5.74601 159.791 5.91424 159.261 6.25071C158.743 6.57424 158.329 7.01423 158.018 7.5707C157.708 8.11422 157.552 8.74186 157.552 9.45362C157.552 10.1524 157.708 10.7865 158.018 11.356C158.329 11.9254 158.743 12.3718 159.261 12.6953C159.791 13.0189 160.387 13.1806 161.047 13.1806ZM168.778 14.6947V4.23191H170.545V6.36718L170.292 6.03718C170.551 5.37719 170.965 4.87249 171.535 4.52308C172.104 4.17367 172.745 3.99897 173.456 3.99897C174.272 3.99897 175.003 4.22544 175.65 4.67837C176.31 5.13131 176.763 5.7266 177.009 6.46424L176.504 6.48365C176.776 5.66836 177.235 5.05366 177.882 4.63955C178.529 4.2125 179.247 3.99897 180.037 3.99897C180.761 3.99897 181.415 4.1672 181.997 4.50367C182.593 4.84014 183.065 5.30602 183.414 5.9013C183.764 6.49659 183.939 7.16953 183.939 7.92011V14.6947H182.114V8.50245C182.114 7.92011 182.01 7.42835 181.803 7.02717C181.596 6.626 181.311 6.31542 180.949 6.09542C180.6 5.86248 180.186 5.74601 179.707 5.74601C179.241 5.74601 178.82 5.86248 178.445 6.09542C178.083 6.31542 177.792 6.63247 177.572 7.04658C177.364 7.44776 177.261 7.93305 177.261 8.50245V14.6947H175.436V8.50245C175.436 7.92011 175.333 7.42835 175.126 7.02717C174.919 6.626 174.634 6.31542 174.272 6.09542C173.922 5.86248 173.508 5.74601 173.029 5.74601C172.563 5.74601 172.143 5.86248 171.767 6.09542C171.405 6.31542 171.114 6.63247 170.894 7.04658C170.687 7.44776 170.583 7.93305 170.583 8.50245V14.6947H168.778ZM186.502 14.6947V4.23191H188.269V6.36718L188.017 6.03718C188.275 5.37719 188.69 4.87249 189.259 4.52308C189.828 4.17367 190.469 3.99897 191.181 3.99897C191.996 3.99897 192.727 4.22544 193.374 4.67837C194.034 5.13131 194.487 5.7266 194.733 6.46424L194.228 6.48365C194.5 5.66836 194.959 5.05366 195.607 4.63955C196.254 4.2125 196.972 3.99897 197.761 3.99897C198.486 3.99897 199.139 4.1672 199.722 4.50367C200.317 4.84014 200.789 5.30602 201.139 5.9013C201.488 6.49659 201.663 7.16953 201.663 7.92011V14.6947H199.838V8.50245C199.838 7.92011 199.735 7.42835 199.528 7.02717C199.321 6.626 199.036 6.31542 198.674 6.09542C198.324 5.86248 197.91 5.74601 197.431 5.74601C196.965 5.74601 196.545 5.86248 196.169 6.09542C195.807 6.31542 195.516 6.63247 195.296 7.04658C195.089 7.44776 194.985 7.93305 194.985 8.50245V14.6947H193.161V8.50245C193.161 7.92011 193.057 7.42835 192.85 7.02717C192.643 6.626 192.358 6.31542 191.996 6.09542C191.647 5.86248 191.232 5.74601 190.754 5.74601C190.288 5.74601 189.867 5.86248 189.492 6.09542C189.13 6.31542 188.838 6.63247 188.618 7.04658C188.411 7.44776 188.308 7.93305 188.308 8.50245V14.6947H186.502ZM204.227 14.6947V4.23191H206.032V14.6947H204.227ZM204.227 2.56251V0.233126H206.032V2.56251H204.227ZM213.085 14.8112C212.062 14.8112 211.273 14.52 210.716 13.9377C210.173 13.3553 209.901 12.5336 209.901 11.4724V5.95954H207.999V4.23191H208.387C208.853 4.23191 209.222 4.08956 209.493 3.80485C209.765 3.52015 209.901 3.14486 209.901 2.67898V1.82487H211.706V4.23191H214.055V5.95954H211.706V11.4142C211.706 11.7636 211.758 12.0677 211.862 12.3265C211.978 12.5854 212.166 12.7924 212.425 12.9477C212.683 13.0901 213.026 13.1612 213.453 13.1612C213.544 13.1612 213.654 13.1548 213.783 13.1418C213.926 13.1289 214.055 13.1159 214.172 13.103V14.6947C214.003 14.7336 213.816 14.7594 213.609 14.7724C213.402 14.7983 213.227 14.8112 213.085 14.8112ZM216.53 14.6947V4.23191H218.296V6.36718L218.044 6.03718C218.303 5.37719 218.717 4.87249 219.286 4.52308C219.856 4.17367 220.496 3.99897 221.208 3.99897C222.023 3.99897 222.754 4.22544 223.401 4.67837C224.061 5.13131 224.514 5.7266 224.76 6.46424L224.256 6.48365C224.527 5.66836 224.987 5.05366 225.634 4.63955C226.281 4.2125 226.999 3.99897 227.788 3.99897C228.513 3.99897 229.167 4.1672 229.749 4.50367C230.344 4.84014 230.817 5.30602 231.166 5.9013C231.515 6.49659 231.69 7.16953 231.69 7.92011V14.6947H229.865V8.50245C229.865 7.92011 229.762 7.42835 229.555 7.02717C229.348 6.626 229.063 6.31542 228.701 6.09542C228.351 5.86248 227.937 5.74601 227.458 5.74601C226.993 5.74601 226.572 5.86248 226.197 6.09542C225.834 6.31542 225.543 6.63247 225.323 7.04658C225.116 7.44776 225.013 7.93305 225.013 8.50245V14.6947H223.188V8.50245C223.188 7.92011 223.084 7.42835 222.877 7.02717C222.67 6.626 222.386 6.31542 222.023 6.09542C221.674 5.86248 221.26 5.74601 220.781 5.74601C220.315 5.74601 219.894 5.86248 219.519 6.09542C219.157 6.31542 218.866 6.63247 218.646 7.04658C218.439 7.44776 218.335 7.93305 218.335 8.50245V14.6947H216.53ZM239.068 14.9277C238.059 14.9277 237.159 14.6883 236.37 14.2095C235.581 13.7306 234.959 13.0771 234.507 12.2489C234.054 11.4077 233.827 10.4695 233.827 9.43421C233.827 8.38598 234.047 7.45423 234.487 6.63894C234.94 5.82366 235.548 5.18308 236.312 4.7172C237.088 4.23838 237.955 3.99897 238.913 3.99897C239.689 3.99897 240.375 4.14132 240.971 4.42602C241.579 4.69779 242.09 5.07308 242.504 5.55189C242.931 6.01777 243.255 6.55483 243.475 7.16305C243.708 7.75834 243.824 8.37951 243.824 9.02656C243.824 9.16892 243.811 9.33068 243.785 9.51185C243.772 9.68009 243.753 9.84185 243.727 9.99714H235.147V8.44422H242.679L241.825 9.14303C241.941 8.4701 241.876 7.86834 241.631 7.33776C241.385 6.80718 241.022 6.38659 240.544 6.07601C240.065 5.76542 239.521 5.61013 238.913 5.61013C238.305 5.61013 237.748 5.76542 237.244 6.07601C236.739 6.38659 236.344 6.83306 236.059 7.4154C235.788 7.98481 235.678 8.66422 235.729 9.45362C235.678 10.2171 235.794 10.8901 236.079 11.4724C236.377 12.0418 236.791 12.4883 237.321 12.8118C237.865 13.1224 238.454 13.2777 239.088 13.2777C239.786 13.2777 240.375 13.1159 240.854 12.7924C241.333 12.4689 241.721 12.0548 242.019 11.5501L243.533 12.3265C243.326 12.8053 243.002 13.2453 242.562 13.6465C242.135 14.0347 241.624 14.3453 241.029 14.5783C240.446 14.8112 239.793 14.9277 239.068 14.9277ZM246.178 14.6947V4.23191H247.944V6.27012L247.653 6.09542C247.912 5.43543 248.326 4.92425 248.895 4.56191C249.478 4.18662 250.157 3.99897 250.934 3.99897C251.684 3.99897 252.351 4.1672 252.933 4.50367C253.528 4.84014 253.994 5.30602 254.331 5.9013C254.68 6.49659 254.855 7.16953 254.855 7.92011V14.6947H253.03V8.50245C253.03 7.92011 252.927 7.42835 252.72 7.02717C252.513 6.626 252.215 6.31542 251.827 6.09542C251.451 5.86248 251.018 5.74601 250.526 5.74601C250.034 5.74601 249.594 5.86248 249.206 6.09542C248.831 6.31542 248.533 6.63247 248.313 7.04658C248.093 7.44776 247.983 7.93305 247.983 8.50245V14.6947H246.178ZM261.689 14.8112C260.667 14.8112 259.877 14.52 259.321 13.9377C258.778 13.3553 258.506 12.5336 258.506 11.4724V5.95954H256.603V4.23191H256.992C257.458 4.23191 257.826 4.08956 258.098 3.80485C258.37 3.52015 258.506 3.14486 258.506 2.67898V1.82487H260.311V4.23191H262.66V5.95954H260.311V11.4142C260.311 11.7636 260.363 12.0677 260.466 12.3265C260.583 12.5854 260.77 12.7924 261.029 12.9477C261.288 13.0901 261.631 13.1612 262.058 13.1612C262.149 13.1612 262.259 13.1548 262.388 13.1418C262.53 13.1289 262.66 13.1159 262.776 13.103V14.6947C262.608 14.7336 262.42 14.7594 262.213 14.7724C262.006 14.7983 261.832 14.8112 261.689 14.8112ZM268.49 14.6947V4.23191H270.295V14.6947H268.49ZM268.49 2.56251V0.233126H270.295V2.56251H268.49ZM273.096 14.6947V4.23191H274.863V6.27012L274.572 6.09542C274.83 5.43543 275.244 4.92425 275.814 4.56191C276.396 4.18662 277.076 3.99897 277.852 3.99897C278.603 3.99897 279.269 4.1672 279.851 4.50367C280.447 4.84014 280.913 5.30602 281.249 5.9013C281.599 6.49659 281.773 7.16953 281.773 7.92011V14.6947H279.949V8.50245C279.949 7.92011 279.845 7.42835 279.638 7.02717C279.431 6.626 279.133 6.31542 278.745 6.09542C278.37 5.86248 277.936 5.74601 277.444 5.74601C276.953 5.74601 276.513 5.86248 276.124 6.09542C275.749 6.31542 275.452 6.63247 275.232 7.04658C275.012 7.44776 274.902 7.93305 274.902 8.50245V14.6947H273.096ZM292.565 14.9277C291.542 14.9277 290.63 14.6883 289.828 14.2095C289.038 13.7306 288.417 13.0771 287.964 12.2489C287.511 11.4207 287.285 10.4889 287.285 9.45362C287.285 8.40539 287.511 7.47364 287.964 6.65835C288.417 5.84307 289.038 5.19602 289.828 4.7172C290.63 4.23838 291.542 3.99897 292.565 3.99897C293.251 3.99897 293.891 4.12191 294.486 4.36779C295.082 4.61367 295.606 4.94367 296.059 5.35778C296.512 5.77189 296.842 6.25718 297.049 6.81365L295.438 7.59011C295.192 7.04658 294.816 6.60659 294.312 6.27012C293.807 5.92071 293.225 5.74601 292.565 5.74601C291.931 5.74601 291.355 5.90777 290.837 6.2313C290.332 6.55483 289.931 6.99482 289.634 7.55129C289.336 8.10775 289.187 8.74833 289.187 9.47303C289.187 10.1718 289.336 10.806 289.634 11.3754C289.931 11.9318 290.332 12.3718 290.837 12.6953C291.355 13.0189 291.931 13.1806 292.565 13.1806C293.225 13.1806 293.807 13.0124 294.312 12.6759C294.816 12.3265 295.192 11.8671 295.438 11.2977L297.049 12.113C296.842 12.6565 296.512 13.1418 296.059 13.5689C295.606 13.983 295.082 14.313 294.486 14.5589C293.891 14.8047 293.251 14.9277 292.565 14.9277ZM302.342 14.9277C301.656 14.9277 301.048 14.8047 300.518 14.5589C300 14.3 299.592 13.9506 299.295 13.5106C298.997 13.0577 298.848 12.5401 298.848 11.9577C298.848 11.4012 298.965 10.903 299.198 10.463C299.444 10.0101 299.819 9.62832 300.324 9.31774C300.841 9.00715 301.488 8.78715 302.265 8.65774L306.147 8.01716V9.53127L302.672 10.1136C301.999 10.2301 301.508 10.4436 301.197 10.7542C300.899 11.0648 300.751 11.4465 300.751 11.8995C300.751 12.3265 300.919 12.6824 301.255 12.9671C301.605 13.2518 302.038 13.3942 302.556 13.3942C303.216 13.3942 303.785 13.2583 304.264 12.9865C304.756 12.7018 305.138 12.3201 305.409 11.8412C305.694 11.3624 305.836 10.8318 305.836 10.2495V7.59011C305.836 7.0207 305.623 6.5613 305.196 6.21189C304.782 5.84954 304.232 5.66836 303.546 5.66836C302.951 5.66836 302.42 5.82366 301.954 6.13424C301.501 6.43189 301.165 6.83306 300.945 7.33776L299.372 6.52247C299.566 6.04365 299.877 5.6166 300.304 5.24131C300.731 4.85308 301.229 4.54896 301.799 4.32897C302.368 4.10897 302.964 3.99897 303.585 3.99897C304.387 3.99897 305.092 4.15426 305.701 4.46485C306.309 4.76249 306.781 5.18308 307.118 5.7266C307.467 6.25718 307.642 6.87835 307.642 7.59011V14.6947H305.875V12.7148L306.205 12.8312C305.985 13.2453 305.688 13.6077 305.312 13.9183C304.937 14.2289 304.497 14.4747 303.992 14.6559C303.488 14.8371 302.938 14.9277 302.342 14.9277ZM314.187 14.9277C313.139 14.9277 312.227 14.6689 311.45 14.1512C310.674 13.6336 310.124 12.9348 309.8 12.0548L311.237 11.356C311.534 11.9771 311.942 12.4689 312.46 12.8312C312.977 13.1936 313.553 13.3748 314.187 13.3748C314.757 13.3748 315.229 13.2389 315.604 12.9671C315.98 12.6953 316.167 12.3395 316.167 11.8995C316.167 11.5889 316.077 11.343 315.895 11.1618C315.727 10.9677 315.52 10.8189 315.274 10.7154C315.028 10.5989 314.802 10.5148 314.595 10.463L313.023 10.0166C312.078 9.74479 311.385 9.35656 310.945 8.85186C310.518 8.34716 310.305 7.75834 310.305 7.08541C310.305 6.46424 310.46 5.92718 310.771 5.47425C311.094 5.00837 311.528 4.64602 312.071 4.3872C312.628 4.12838 313.249 3.99897 313.935 3.99897C314.854 3.99897 315.675 4.23191 316.4 4.69779C317.138 5.16366 317.662 5.81719 317.972 6.65835L316.497 7.33776C316.264 6.79423 315.915 6.36718 315.449 6.0566C314.983 5.73307 314.459 5.57131 313.877 5.57131C313.346 5.57131 312.925 5.70719 312.615 5.97895C312.304 6.23777 312.149 6.56777 312.149 6.96894C312.149 7.26658 312.227 7.51246 312.382 7.70658C312.537 7.88775 312.725 8.0301 312.945 8.13363C313.165 8.22422 313.378 8.30187 313.585 8.36657L315.294 8.87127C316.148 9.11715 316.808 9.49891 317.274 10.0166C317.752 10.5342 317.992 11.1554 317.992 11.8801C317.992 12.4624 317.83 12.9865 317.507 13.4524C317.183 13.9183 316.737 14.2806 316.167 14.5394C315.598 14.7983 314.938 14.9277 314.187 14.9277ZM325.169 14.9277C324.16 14.9277 323.26 14.6883 322.471 14.2095C321.682 13.7306 321.06 13.0771 320.607 12.2489C320.154 11.4077 319.928 10.4695 319.928 9.43421C319.928 8.38598 320.148 7.45423 320.588 6.63894C321.041 5.82366 321.649 5.18308 322.413 4.7172C323.189 4.23838 324.056 3.99897 325.014 3.99897C325.79 3.99897 326.476 4.14132 327.071 4.42602C327.68 4.69779 328.191 5.07308 328.605 5.55189C329.032 6.01777 329.356 6.55483 329.576 7.16305C329.808 7.75834 329.925 8.37951 329.925 9.02656C329.925 9.16892 329.912 9.33068 329.886 9.51185C329.873 9.68009 329.854 9.84185 329.828 9.99714H321.248V8.44422H328.78L327.926 9.14303C328.042 8.4701 327.977 7.86834 327.731 7.33776C327.486 6.80718 327.123 6.38659 326.644 6.07601C326.166 5.76542 325.622 5.61013 325.014 5.61013C324.406 5.61013 323.849 5.76542 323.344 6.07601C322.84 6.38659 322.445 6.83306 322.16 7.4154C321.889 7.98481 321.779 8.66422 321.83 9.45362C321.779 10.2171 321.895 10.8901 322.18 11.4724C322.477 12.0418 322.891 12.4883 323.422 12.8118C323.966 13.1224 324.554 13.2777 325.189 13.2777C325.887 13.2777 326.476 13.1159 326.955 12.7924C327.434 12.4689 327.822 12.0548 328.12 11.5501L329.634 12.3265C329.427 12.8053 329.103 13.2453 328.663 13.6465C328.236 14.0347 327.725 14.3453 327.13 14.5783C326.547 14.8112 325.894 14.9277 325.169 14.9277ZM340.603 14.9277C339.594 14.9277 338.682 14.6947 337.866 14.2289C337.051 13.75 336.404 13.0965 335.925 12.2683C335.446 11.4401 335.207 10.5018 335.207 9.45362C335.207 8.40539 335.44 7.47364 335.906 6.65835C336.385 5.84307 337.032 5.19602 337.847 4.7172C338.662 4.23838 339.581 3.99897 340.603 3.99897C341.613 3.99897 342.525 4.23838 343.34 4.7172C344.156 5.18308 344.796 5.82366 345.262 6.63894C345.741 7.45423 345.98 8.39245 345.98 9.45362C345.98 10.5148 345.735 11.4595 345.243 12.2877C344.751 13.103 344.098 13.75 343.282 14.2289C342.48 14.6947 341.587 14.9277 340.603 14.9277ZM340.603 13.1806C341.251 13.1806 341.833 13.0189 342.35 12.6953C342.881 12.3718 343.295 11.9254 343.593 11.356C343.903 10.7865 344.059 10.1524 344.059 9.45362C344.059 8.74186 343.903 8.11422 343.593 7.5707C343.295 7.01423 342.881 6.57424 342.35 6.25071C341.833 5.91424 341.251 5.74601 340.603 5.74601C339.943 5.74601 339.348 5.91424 338.818 6.25071C338.3 6.57424 337.886 7.01423 337.575 7.5707C337.265 8.11422 337.109 8.74186 337.109 9.45362C337.109 10.1524 337.265 10.7865 337.575 11.356C337.886 11.9254 338.3 12.3718 338.818 12.6953C339.348 13.0189 339.943 13.1806 340.603 13.1806ZM349.119 14.6947V5.95954H347.12V4.23191H349.119V3.49427C349.119 2.74369 349.281 2.10958 349.604 1.59194C349.941 1.07429 350.381 0.679592 350.924 0.40783C351.481 0.136069 352.096 0.000187947 352.769 0.000187947C352.911 0.000187947 353.066 0.0131288 353.234 0.0390106C353.416 0.0519522 353.564 0.0713639 353.681 0.0972457V1.70841C353.577 1.68252 353.454 1.66958 353.312 1.66958C353.17 1.65664 353.06 1.65017 352.982 1.65017C352.387 1.65017 351.895 1.79252 351.507 2.07722C351.132 2.36193 350.944 2.83428 350.944 3.49427V4.23191H353.429V5.95954H350.944V14.6947H349.119ZM362.15 14.9277C361.465 14.9277 360.856 14.8047 360.326 14.5589C359.808 14.3 359.4 13.9506 359.103 13.5106C358.805 13.0577 358.656 12.5401 358.656 11.9577C358.656 11.4012 358.773 10.903 359.006 10.463C359.252 10.0101 359.627 9.62832 360.132 9.31774C360.649 9.00715 361.296 8.78715 362.073 8.65774L365.955 8.01716V9.53127L362.48 10.1136C361.807 10.2301 361.316 10.4436 361.005 10.7542C360.707 11.0648 360.559 11.4465 360.559 11.8995C360.559 12.3265 360.727 12.6824 361.063 12.9671C361.413 13.2518 361.846 13.3942 362.364 13.3942C363.024 13.3942 363.593 13.2583 364.072 12.9865C364.564 12.7018 364.946 12.3201 365.217 11.8412C365.502 11.3624 365.645 10.8318 365.645 10.2495V7.59011C365.645 7.0207 365.431 6.5613 365.004 6.21189C364.59 5.84954 364.04 5.66836 363.354 5.66836C362.759 5.66836 362.228 5.82366 361.762 6.13424C361.309 6.43189 360.973 6.83306 360.753 7.33776L359.18 6.52247C359.375 6.04365 359.685 5.6166 360.112 5.24131C360.539 4.85308 361.037 4.54896 361.607 4.32897C362.176 4.10897 362.772 3.99897 363.393 3.99897C364.195 3.99897 364.9 4.15426 365.509 4.46485C366.117 4.76249 366.589 5.18308 366.926 5.7266C367.275 6.25718 367.45 6.87835 367.45 7.59011V14.6947H365.683V12.7148L366.013 12.8312C365.793 13.2453 365.496 13.6077 365.12 13.9183C364.745 14.2289 364.305 14.4747 363.8 14.6559C363.296 14.8371 362.746 14.9277 362.15 14.9277ZM370.249 14.6947V4.23191H372.015V6.27012L371.724 6.09542C371.983 5.43543 372.397 4.92425 372.966 4.56191C373.549 4.18662 374.228 3.99897 375.005 3.99897C375.755 3.99897 376.422 4.1672 377.004 4.50367C377.599 4.84014 378.065 5.30602 378.402 5.9013C378.751 6.49659 378.926 7.16953 378.926 7.92011V14.6947H377.101V8.50245C377.101 7.92011 376.998 7.42835 376.791 7.02717C376.583 6.626 376.286 6.31542 375.898 6.09542C375.522 5.86248 375.089 5.74601 374.597 5.74601C374.105 5.74601 373.665 5.86248 373.277 6.09542C372.902 6.31542 372.604 6.63247 372.384 7.04658C372.164 7.44776 372.054 7.93305 372.054 8.50245V14.6947H370.249ZM381.882 18.9653C381.649 18.9653 381.417 18.9459 381.184 18.907C380.951 18.8682 380.731 18.8035 380.524 18.7129V17.1018C380.666 17.1277 380.841 17.1535 381.048 17.1794C381.268 17.2182 381.481 17.2377 381.688 17.2377C382.297 17.2377 382.756 17.1018 383.067 16.83C383.39 16.5712 383.694 16.1183 383.979 15.4712L384.639 13.8989L384.6 15.4712L380.135 4.23191H382.096L385.571 13.1612H384.988L388.444 4.23191H390.443L385.726 15.9371C385.506 16.4935 385.221 16.9982 384.872 17.4512C384.535 17.9171 384.121 18.2859 383.629 18.5576C383.138 18.8294 382.555 18.9653 381.882 18.9653ZM396.511 14.6947V5.95954H394.511V4.23191H396.511V3.49427C396.511 2.74369 396.672 2.10958 396.996 1.59194C397.332 1.07429 397.772 0.679592 398.316 0.40783C398.872 0.136069 399.487 0.000187947 400.16 0.000187947C400.302 0.000187947 400.458 0.0131288 400.626 0.0390106C400.807 0.0519522 400.956 0.0713639 401.072 0.0972457V1.70841C400.969 1.68252 400.846 1.66958 400.704 1.66958C400.561 1.65664 400.451 1.65017 400.374 1.65017C399.778 1.65017 399.287 1.79252 398.898 2.07722C398.523 2.36193 398.335 2.83428 398.335 3.49427V4.23191H403.771V5.95954H398.335V14.6947H396.511ZM403.111 14.6947V0.000187947H404.935V14.6947H403.111ZM410.774 14.9277C410.088 14.9277 409.48 14.8047 408.949 14.5589C408.432 14.3 408.024 13.9506 407.726 13.5106C407.429 13.0577 407.28 12.5401 407.28 11.9577C407.28 11.4012 407.396 10.903 407.629 10.463C407.875 10.0101 408.251 9.62832 408.755 9.31774C409.273 9.00715 409.92 8.78715 410.696 8.65774L414.579 8.01716V9.53127L411.104 10.1136C410.431 10.2301 409.939 10.4436 409.629 10.7542C409.331 11.0648 409.182 11.4465 409.182 11.8995C409.182 12.3265 409.351 12.6824 409.687 12.9671C410.036 13.2518 410.47 13.3942 410.988 13.3942C411.648 13.3942 412.217 13.2583 412.696 12.9865C413.188 12.7018 413.569 12.3201 413.841 11.8412C414.126 11.3624 414.268 10.8318 414.268 10.2495V7.59011C414.268 7.0207 414.055 6.5613 413.628 6.21189C413.213 5.84954 412.663 5.66836 411.978 5.66836C411.382 5.66836 410.852 5.82366 410.386 6.13424C409.933 6.43189 409.596 6.83306 409.376 7.33776L407.804 6.52247C407.998 6.04365 408.309 5.6166 408.736 5.24131C409.163 4.85308 409.661 4.54896 410.231 4.32897C410.8 4.10897 411.395 3.99897 412.016 3.99897C412.819 3.99897 413.524 4.15426 414.132 4.46485C414.741 4.76249 415.213 5.18308 415.549 5.7266C415.899 6.25718 416.073 6.87835 416.073 7.59011V14.6947H414.307V12.7148L414.637 12.8312C414.417 13.2453 414.119 13.6077 413.744 13.9183C413.369 14.2289 412.929 14.4747 412.424 14.6559C411.919 14.8371 411.369 14.9277 410.774 14.9277ZM421.28 14.6947L417.688 4.23191H419.688L422.541 12.9865L421.842 12.9671L424.638 4.23191H426.346L429.141 12.9671L428.442 12.9865L431.315 4.23191H433.295L429.704 14.6947H427.977L425.22 5.95954H425.764L423.007 14.6947H421.28ZM438.265 14.6947V4.23191H440.07V14.6947H438.265ZM438.265 2.56251V0.233126H440.07V2.56251H438.265ZM442.872 14.6947V4.23191H444.638V6.27012L444.347 6.09542C444.606 5.43543 445.02 4.92425 445.589 4.56191C446.172 4.18662 446.851 3.99897 447.627 3.99897C448.378 3.99897 449.044 4.1672 449.627 4.50367C450.222 4.84014 450.688 5.30602 451.024 5.9013C451.374 6.49659 451.549 7.16953 451.549 7.92011V14.6947H449.724V8.50245C449.724 7.92011 449.62 7.42835 449.413 7.02717C449.206 6.626 448.909 6.31542 448.52 6.09542C448.145 5.86248 447.712 5.74601 447.22 5.74601C446.728 5.74601 446.288 5.86248 445.9 6.09542C445.524 6.31542 445.227 6.63247 445.007 7.04658C444.787 7.44776 444.677 7.93305 444.677 8.50245V14.6947H442.872ZM461.738 14.8112C460.716 14.8112 459.927 14.52 459.37 13.9377C458.827 13.3553 458.555 12.5336 458.555 11.4724V5.95954H456.652V4.23191H457.041C457.507 4.23191 457.875 4.08956 458.147 3.80485C458.419 3.52015 458.555 3.14486 458.555 2.67898V1.82487H460.36V4.23191H462.709V5.95954H460.36V11.4142C460.36 11.7636 460.412 12.0677 460.515 12.3265C460.632 12.5854 460.819 12.7924 461.078 12.9477C461.337 13.0901 461.68 13.1612 462.107 13.1612C462.198 13.1612 462.308 13.1548 462.437 13.1418C462.579 13.1289 462.709 13.1159 462.825 13.103V14.6947C462.657 14.7336 462.469 14.7594 462.262 14.7724C462.055 14.7983 461.881 14.8112 461.738 14.8112ZM465.184 14.6947V0.000187947H466.989V6.27012L466.659 6.09542C466.918 5.43543 467.332 4.92425 467.901 4.56191C468.483 4.18662 469.163 3.99897 469.939 3.99897C470.69 3.99897 471.356 4.1672 471.939 4.50367C472.534 4.84014 473 5.30602 473.336 5.9013C473.686 6.49659 473.86 7.16953 473.86 7.92011V14.6947H472.036V8.50245C472.036 7.92011 471.926 7.42835 471.706 7.02717C471.499 6.626 471.208 6.31542 470.832 6.09542C470.457 5.86248 470.023 5.74601 469.532 5.74601C469.053 5.74601 468.619 5.86248 468.231 6.09542C467.843 6.31542 467.539 6.63247 467.319 7.04658C467.099 7.44776 466.989 7.93305 466.989 8.50245V14.6947H465.184ZM481.258 14.9277C480.248 14.9277 479.349 14.6883 478.56 14.2095C477.77 13.7306 477.149 13.0771 476.696 12.2489C476.243 11.4077 476.017 10.4695 476.017 9.43421C476.017 8.38598 476.237 7.45423 476.677 6.63894C477.13 5.82366 477.738 5.18308 478.501 4.7172C479.278 4.23838 480.145 3.99897 481.103 3.99897C481.879 3.99897 482.565 4.14132 483.16 4.42602C483.768 4.69779 484.28 5.07308 484.694 5.55189C485.121 6.01777 485.444 6.55483 485.664 7.16305C485.897 7.75834 486.014 8.37951 486.014 9.02656C486.014 9.16892 486.001 9.33068 485.975 9.51185C485.962 9.68009 485.942 9.84185 485.917 9.99714H477.337V8.44422H484.868L484.014 9.14303C484.131 8.4701 484.066 7.86834 483.82 7.33776C483.574 6.80718 483.212 6.38659 482.733 6.07601C482.254 5.76542 481.711 5.61013 481.103 5.61013C480.494 5.61013 479.938 5.76542 479.433 6.07601C478.928 6.38659 478.534 6.83306 478.249 7.4154C477.977 7.98481 477.867 8.66422 477.919 9.45362C477.867 10.2171 477.984 10.8901 478.268 11.4724C478.566 12.0418 478.98 12.4883 479.511 12.8118C480.054 13.1224 480.643 13.2777 481.277 13.2777C481.976 13.2777 482.565 13.1159 483.044 12.7924C483.522 12.4689 483.911 12.0548 484.208 11.5501L485.722 12.3265C485.515 12.8053 485.192 13.2453 484.752 13.6465C484.325 14.0347 483.814 14.3453 483.218 14.5783C482.636 14.8112 481.982 14.9277 481.258 14.9277ZM495.974 14.8112C494.952 14.8112 494.162 14.52 493.606 13.9377C493.062 13.3553 492.79 12.5336 492.79 11.4724V5.95954H490.888V4.23191H491.276C491.742 4.23191 492.111 4.08956 492.383 3.80485C492.654 3.52015 492.79 3.14486 492.79 2.67898V1.82487H494.596V4.23191H496.944V5.95954H494.596V11.4142C494.596 11.7636 494.647 12.0677 494.751 12.3265C494.867 12.5854 495.055 12.7924 495.314 12.9477C495.573 13.0901 495.916 13.1612 496.343 13.1612C496.433 13.1612 496.543 13.1548 496.673 13.1418C496.815 13.1289 496.944 13.1159 497.061 13.103V14.6947C496.893 14.7336 496.705 14.7594 496.498 14.7724C496.291 14.7983 496.116 14.8112 495.974 14.8112ZM499.419 14.6947V4.23191H501.186V6.15365L500.991 5.88189C501.237 5.2866 501.613 4.84661 502.117 4.56191C502.622 4.26426 503.237 4.11544 503.961 4.11544H504.602V5.82366H503.69C502.952 5.82366 502.357 6.0566 501.904 6.52247C501.451 6.97541 501.224 7.62246 501.224 8.46363V14.6947H499.419ZM506.206 14.6947V4.23191H508.011V14.6947H506.206ZM506.206 2.56251V0.233126H508.011V2.56251H506.206ZM510.812 18.5771V4.23191H512.579V6.48365L512.346 6.03718C512.734 5.41601 513.264 4.92425 513.937 4.56191C514.61 4.18662 515.38 3.99897 516.247 3.99897C517.231 3.99897 518.111 4.23838 518.887 4.7172C519.677 5.19602 520.298 5.84954 520.751 6.67777C521.204 7.49305 521.43 8.42481 521.43 9.47303C521.43 10.4954 521.204 11.4207 520.751 12.2489C520.298 13.0771 519.677 13.7306 518.887 14.2095C518.111 14.6883 517.224 14.9277 516.228 14.9277C515.387 14.9277 514.617 14.74 513.918 14.3647C513.232 13.9895 512.701 13.4589 512.326 12.773L512.617 12.4624V18.5771H510.812ZM516.092 13.1806C516.752 13.1806 517.341 13.0189 517.858 12.6953C518.376 12.3718 518.777 11.9318 519.062 11.3754C519.36 10.806 519.508 10.1718 519.508 9.47303C519.508 8.74833 519.36 8.11422 519.062 7.5707C518.777 7.01423 518.376 6.57424 517.858 6.25071C517.341 5.91424 516.752 5.74601 516.092 5.74601C515.432 5.74601 514.837 5.90777 514.306 6.2313C513.788 6.55483 513.374 7.00129 513.064 7.5707C512.766 8.12716 512.617 8.76127 512.617 9.47303C512.617 10.1718 512.766 10.806 513.064 11.3754C513.374 11.9318 513.788 12.3718 514.306 12.6953C514.837 13.0189 515.432 13.1806 516.092 13.1806ZM530.899 14.9277C529.851 14.9277 528.938 14.6689 528.162 14.1512C527.386 13.6336 526.836 12.9348 526.512 12.0548L527.949 11.356C528.246 11.9771 528.654 12.4689 529.171 12.8312C529.689 13.1936 530.265 13.3748 530.899 13.3748C531.468 13.3748 531.941 13.2389 532.316 12.9671C532.691 12.6953 532.879 12.3395 532.879 11.8995C532.879 11.5889 532.788 11.343 532.607 11.1618C532.439 10.9677 532.232 10.8189 531.986 10.7154C531.74 10.5989 531.514 10.5148 531.307 10.463L529.734 10.0166C528.79 9.74479 528.097 9.35656 527.657 8.85186C527.23 8.34716 527.017 7.75834 527.017 7.08541C527.017 6.46424 527.172 5.92718 527.483 5.47425C527.806 5.00837 528.24 4.64602 528.783 4.3872C529.34 4.12838 529.961 3.99897 530.647 3.99897C531.566 3.99897 532.387 4.23191 533.112 4.69779C533.85 5.16366 534.374 5.81719 534.684 6.65835L533.209 7.33776C532.976 6.79423 532.627 6.36718 532.161 6.0566C531.695 5.73307 531.171 5.57131 530.588 5.57131C530.058 5.57131 529.637 5.70719 529.327 5.97895C529.016 6.23777 528.861 6.56777 528.861 6.96894C528.861 7.26658 528.938 7.51246 529.094 7.70658C529.249 7.88775 529.437 8.0301 529.657 8.13363C529.877 8.22422 530.09 8.30187 530.297 8.36657L532.006 8.87127C532.86 9.11715 533.52 9.49891 533.986 10.0166C534.464 10.5342 534.704 11.1554 534.704 11.8801C534.704 12.4624 534.542 12.9865 534.218 13.4524C533.895 13.9183 533.448 14.2806 532.879 14.5394C532.31 14.7983 531.65 14.9277 530.899 14.9277ZM541.881 14.9277C540.872 14.9277 539.972 14.6883 539.183 14.2095C538.393 13.7306 537.772 13.0771 537.319 12.2489C536.866 11.4077 536.64 10.4695 536.64 9.43421C536.64 8.38598 536.86 7.45423 537.3 6.63894C537.753 5.82366 538.361 5.18308 539.125 4.7172C539.901 4.23838 540.768 3.99897 541.726 3.99897C542.502 3.99897 543.188 4.14132 543.783 4.42602C544.392 4.69779 544.903 5.07308 545.317 5.55189C545.744 6.01777 546.067 6.55483 546.287 7.16305C546.52 7.75834 546.637 8.37951 546.637 9.02656C546.637 9.16892 546.624 9.33068 546.598 9.51185C546.585 9.68009 546.566 9.84185 546.54 9.99714H537.96V8.44422H545.492L544.637 9.14303C544.754 8.4701 544.689 7.86834 544.443 7.33776C544.197 6.80718 543.835 6.38659 543.356 6.07601C542.877 5.76542 542.334 5.61013 541.726 5.61013C541.117 5.61013 540.561 5.76542 540.056 6.07601C539.552 6.38659 539.157 6.83306 538.872 7.4154C538.6 7.98481 538.49 8.66422 538.542 9.45362C538.49 10.2171 538.607 10.8901 538.892 11.4724C539.189 12.0418 539.603 12.4883 540.134 12.8118C540.677 13.1224 541.266 13.2777 541.9 13.2777C542.599 13.2777 543.188 13.1159 543.667 12.7924C544.146 12.4689 544.534 12.0548 544.832 11.5501L546.346 12.3265C546.139 12.8053 545.815 13.2453 545.375 13.6465C544.948 14.0347 544.437 14.3453 543.842 14.5783C543.259 14.8112 542.606 14.9277 541.881 14.9277ZM548.991 14.6947V4.23191H550.757V6.15365L550.563 5.88189C550.809 5.2866 551.184 4.84661 551.689 4.56191C552.194 4.26426 552.808 4.11544 553.533 4.11544H554.174V5.82366H553.261C552.524 5.82366 551.928 6.0566 551.475 6.52247C551.022 6.97541 550.796 7.62246 550.796 8.46363V14.6947H548.991ZM558.689 14.6947L554.593 4.23191H556.612L559.892 13.0836H559.194L562.494 4.23191H564.512L560.397 14.6947H558.689ZM566.127 14.6947V4.23191H567.933V14.6947H566.127ZM566.127 2.56251V0.233126H567.933V2.56251H566.127ZM575.587 14.9277C574.564 14.9277 573.652 14.6883 572.85 14.2095C572.06 13.7306 571.439 13.0771 570.986 12.2489C570.533 11.4207 570.307 10.4889 570.307 9.45362C570.307 8.40539 570.533 7.47364 570.986 6.65835C571.439 5.84307 572.06 5.19602 572.85 4.7172C573.652 4.23838 574.564 3.99897 575.587 3.99897C576.273 3.99897 576.913 4.12191 577.508 4.36779C578.104 4.61367 578.628 4.94367 579.081 5.35778C579.534 5.77189 579.864 6.25718 580.071 6.81365L578.46 7.59011C578.214 7.04658 577.838 6.60659 577.334 6.27012C576.829 5.92071 576.247 5.74601 575.587 5.74601C574.953 5.74601 574.377 5.90777 573.859 6.2313C573.354 6.55483 572.953 6.99482 572.656 7.55129C572.358 8.10775 572.209 8.74833 572.209 9.47303C572.209 10.1718 572.358 10.806 572.656 11.3754C572.953 11.9318 573.354 12.3718 573.859 12.6953C574.377 13.0189 574.953 13.1806 575.587 13.1806C576.247 13.1806 576.829 13.0124 577.334 12.6759C577.838 12.3265 578.214 11.8671 578.46 11.2977L580.071 12.113C579.864 12.6565 579.534 13.1418 579.081 13.5689C578.628 13.983 578.104 14.313 577.508 14.5589C576.913 14.8047 576.273 14.9277 575.587 14.9277ZM587.244 14.9277C586.235 14.9277 585.335 14.6883 584.546 14.2095C583.757 13.7306 583.135 13.0771 582.682 12.2489C582.23 11.4077 582.003 10.4695 582.003 9.43421C582.003 8.38598 582.223 7.45423 582.663 6.63894C583.116 5.82366 583.724 5.18308 584.488 4.7172C585.264 4.23838 586.131 3.99897 587.089 3.99897C587.865 3.99897 588.551 4.14132 589.147 4.42602C589.755 4.69779 590.266 5.07308 590.68 5.55189C591.107 6.01777 591.431 6.55483 591.651 7.16305C591.884 7.75834 592 8.37951 592 9.02656C592 9.16892 591.987 9.33068 591.961 9.51185C591.948 9.68009 591.929 9.84185 591.903 9.99714H583.323V8.44422H590.855L590.001 9.14303C590.117 8.4701 590.052 7.86834 589.807 7.33776C589.561 6.80718 589.198 6.38659 588.719 6.07601C588.241 5.76542 587.697 5.61013 587.089 5.61013C586.481 5.61013 585.924 5.76542 585.419 6.07601C584.915 6.38659 584.52 6.83306 584.235 7.4154C583.964 7.98481 583.854 8.66422 583.905 9.45362C583.854 10.2171 583.97 10.8901 584.255 11.4724C584.552 12.0418 584.967 12.4883 585.497 12.8118C586.041 13.1224 586.629 13.2777 587.264 13.2777C587.962 13.2777 588.551 13.1159 589.03 12.7924C589.509 12.4689 589.897 12.0548 590.195 11.5501L591.709 12.3265C591.502 12.8053 591.178 13.2453 590.738 13.6465C590.311 14.0347 589.8 14.3453 589.205 14.5783C588.622 14.8112 587.969 14.9277 587.244 14.9277Z" fill="black"/>
<defs>
<linearGradient id="paint0_linear_1_785" x1="593.804" y1="6.69372" x2="-0.271763" y2="6.69372" gradientUnits="userSpaceOnUse">
<stop stop-color="#F3AA45"/>
<stop offset="1" stop-color="#ED2628"/>
</linearGradient>
</defs>
</svg>
